<?xml version="1.0" encoding="UTF-8" standalone="no"?>
<!DOCTYPE svg PUBLIC "-//W3C//DTD SVG 1.1//EN" "http://www.w3.org/Graphics/SVG/1.1/DTD/svg11.dtd">
<!-- Created with Vectornator (http://vectornator.io/) -->
<svg height="100%" stroke-miterlimit="10" style="fill-rule:nonzero;clip-rule:evenodd;stroke-linecap:round;stroke-linejoin:round;" version="1.1" viewBox="0 0 2000 2000" width="100%" xml:space="preserve" xmlns="http://www.w3.org/2000/svg" xmlns:vectornator="http://vectornator.io" xmlns:xlink="http://www.w3.org/1999/xlink">
<defs>
<path d="M833.687 324.633C738.869 374.161 637.99 479.559 579.627 595.093C462.536 826.886 438.436 1071.06 450.005 1213.95C461.574 1356.84 545.255 1559.76 734.751 1651.7C939.472 1734.53 1079.25 1734.53 1265.25 1651.7C1451.96 1561.93 1541.51 1385.9 1550 1213.95C1558.48 1041.99 1537.52 826.886 1420.43 595.093C1362.06 479.559 1283.24 377.62 1166.31 324.633C1049.39 271.645 928.505 275.105 833.687 324.633Z" id="Fill"/>
<filter color-interpolation-filters="sRGB" filterUnits="userSpaceOnUse" height="1063.25" id="Filter" width="977.393" x="721.456" y="749.455">
<feGaussianBlur in="SourceGraphic" result="Blur" stdDeviation="26.6473"/>
</filter>
</defs>
<clipPath id="ArtboardFrame">
<rect height="2000" width="2000" x="0" y="0"/>
</clipPath>
<g clip-path="url(#ArtboardFrame)" id="Egg-container" vectornator:layerName="Egg container">
<use fill="#b8d7f8" fill-rule="nonzero" opacity="1" stroke="none" vectornator:layerName="Base" xlink:href="#Fill"/>
<clipPath clip-rule="nonzero" id="ClipPath">
<use xlink:href="#Fill"/>
</clipPath>
<g clip-path="url(#ClipPath)">
<g opacity="1" vectornator:layerName="Pattern">
<path d="M1144.85 218.66L1292.56 394.162L1077.43 650.711L929.718 475.21L1144.85 218.66ZM799.441 297.942L947.151 473.443L732.022 729.992L584.311 554.491L799.441 297.942ZM1217.83 795.969L1365.54 971.471L1150.41 1228.02L1002.7 1052.52L1217.83 795.969ZM869.173 878.974L1016.88 1054.48L801.754 1311.02L654.043 1135.52L869.173 878.974ZM1148.1 1210.99L1295.81 1386.49L1080.68 1643.04L932.971 1467.54L1148.1 1210.99ZM381.049 795.969L528.759 971.471L313.63 1228.02L165.919 1052.52L381.049 795.969Z" fill="#d4f0ff" fill-rule="nonzero" opacity="1" stroke="#ffffff" stroke-linecap="butt" stroke-linejoin="round" stroke-width="22.1446" vectornator:layerName="Curve 5"/>
<path d="M1005.38 52.6509L1153.09 228.152L937.965 484.702L790.254 309.2L1005.38 52.6509ZM1284.31 384.669L1432.02 560.171L1216.89 816.72L1069.18 641.219L1284.31 384.669ZM1699.45 878.974L1847.16 1054.48L1632.03 1311.02L1484.32 1135.52L1699.45 878.974ZM1357.3 961.978L1505.01 1137.48L1289.88 1394.03L1142.17 1218.53L1357.3 961.978ZM590.245 546.955L737.955 722.457L522.826 979.006L375.115 803.505L590.245 546.955ZM1284.31 1373.28L1432.02 1548.78L1216.89 1805.33L1069.18 1629.83L1284.31 1373.28ZM659.977 1127.99L807.687 1303.49L592.558 1560.04L444.847 1384.54L659.977 1127.99Z" fill="#dad7ff" fill-rule="nonzero" opacity="1" stroke="#ffffff" stroke-linecap="butt" stroke-linejoin="round" stroke-width="22.1446" vectornator:layerName="Curve 4"/>
<path d="M1423.78 550.678L1571.49 726.18L1356.36 982.729L1208.65 807.228L1423.78 550.678ZM1493.51 1124.26L1641.22 1299.77L1426.09 1556.32L1278.38 1380.81L1493.51 1124.26ZM729.709 712.965L877.419 888.466L662.29 1145.02L514.579 969.514L729.709 712.965ZM799.441 1294L947.151 1469.5L732.022 1726.05L584.311 1550.55L799.441 1294Z" fill="#fff2d3" fill-rule="nonzero" opacity="1" stroke="#ffffff" stroke-linecap="butt" stroke-linejoin="round" stroke-width="22.1446" vectornator:layerName="Curve 3"/>
<path d="M938.905 463.951L1086.62 639.452L871.486 896.002L723.775 720.5L938.905 463.951ZM938.905 1460.01L1086.62 1635.51L871.486 1892.06L723.775 1716.56L938.905 1460.01Z" fill="#f2d4ff" fill-rule="nonzero" opacity="1" stroke="#ffffff" stroke-linecap="butt" stroke-linejoin="round" stroke-width="22.1446" vectornator:layerName="Curve 2"/>
<path d="M1563.24 716.688L1710.95 892.189L1495.82 1148.74L1348.11 973.237L1563.24 716.688ZM1078.37 629.96L1226.08 805.461L1010.95 1062.01L863.239 886.509L1078.37 629.96ZM1008.64 1044.98L1156.35 1220.48L941.218 1477.03L793.507 1301.53L1008.64 1044.98ZM520.513 961.978L668.223 1137.48L453.094 1394.03L305.383 1218.53L520.513 961.978ZM1075.12 1622.29L1222.83 1797.79L1007.7 2054.34L859.986 1878.84L1075.12 1622.29Z" fill="#ffccd4" fill-rule="nonzero" opacity="1" stroke="#ffffff" stroke-linecap="butt" stroke-linejoin="round" stroke-width="22.1446" vectornator:layerName="Curve 1"/>
</g>
<path d="M793.747 1683.52C736.513 1652.55 1126.43 1785.25 1331.68 1421.23C1493.89 1006.35 1476.46 926.431 1490.92 832.761C1501.18 766.3 1562.9 916.789 1597.17 961.857C1693.4 1088.41 1582.17 1498.8 1377.87 1654.14C1173.57 1809.49 882.256 1731.41 793.747 1683.52Z" fill="#4b4b4b" fill-opacity="0.191487" fill-rule="nonzero" filter="url(#Filter)" opacity="1" stroke="none" vectornator:blur="53.2946" vectornator:layerName="Shadow"/>
<path d="M833.687 324.633C738.869 374.161 637.99 479.559 579.627 595.093C462.536 826.886 438.436 1071.06 450.005 1213.95C461.574 1356.84 545.255 1559.76 734.751 1651.7C939.472 1734.53 1079.25 1734.53 1265.25 1651.7C1451.96 1561.93 1541.51 1385.9 1550 1213.95C1558.48 1041.99 1537.52 826.886 1420.43 595.093C1362.06 479.559 1283.24 377.62 1166.31 324.633C1049.39 271.645 928.505 275.105 833.687 324.633Z" fill="none" opacity="1" stroke="#000000" stroke-linecap="butt" stroke-linejoin="round" stroke-width="8.96724" vectornator:layerName="Outline"/>
<path d="M970.156 357.438C866.149 357.438 731.375 440.037 731.375 526.531C731.375 613.026 724.024 685 828.031 685C874.603 685 902.681 635.139 950.062 600.125C1008.5 556.944 1112.69 526.014 1112.69 478.25C1112.69 391.755 1074.16 357.438 970.156 357.438ZM663.594 727.656C655.582 727.871 647.041 729.042 638.031 731.156C589.98 742.433 565.295 806.44 575.906 851.656C586.517 896.872 607.136 911.183 655.188 899.906C678.579 894.417 682.425 864.604 696.844 842.656C712.044 819.519 737.039 803.767 731.594 780.562C722.972 743.824 698.31 726.727 663.594 727.656Z" fill="#ffffff" fill-opacity="0.772472" fill-rule="nonzero" opacity="1" stroke="none" vectornator:layerName="Light"/>
</g>
</g>
</svg>
