<?xml version="1.0" encoding="UTF-8" standalone="no"?>
<!DOCTYPE svg PUBLIC "-//W3C//DTD SVG 1.1//EN" "http://www.w3.org/Graphics/SVG/1.1/DTD/svg11.dtd">
<!-- Created with Vectornator (http://vectornator.io/) -->
<svg height="100%" stroke-miterlimit="10" style="fill-rule:nonzero;clip-rule:evenodd;stroke-linecap:round;stroke-linejoin:round;" version="1.1" viewBox="0 0 2000 2000" width="100%" xml:space="preserve" xmlns="http://www.w3.org/2000/svg" xmlns:vectornator="http://vectornator.io" xmlns:xlink="http://www.w3.org/1999/xlink">
<defs>
<path d="M833.687 324.633C738.869 374.161 637.99 479.559 579.627 595.093C462.536 826.886 438.436 1071.06 450.005 1213.95C461.574 1356.84 545.255 1559.76 734.751 1651.7C939.472 1734.53 1079.25 1734.53 1265.25 1651.7C1451.96 1561.93 1541.51 1385.9 1550 1213.95C1558.48 1041.99 1537.52 826.886 1420.43 595.093C1362.06 479.559 1283.24 377.62 1166.31 324.633C1049.39 271.645 928.505 275.105 833.687 324.633Z" id="Fill"/>
<filter color-interpolation-filters="sRGB" filterUnits="userSpaceOnUse" height="1063.25" id="Filter" width="977.393" x="721.456" y="749.455">
<feGaussianBlur in="SourceGraphic" result="Blur" stdDeviation="26.6473"/>
</filter>
<filter color-interpolation-filters="sRGB" filterUnits="userSpaceOnUse" height="1291.84" id="Filter_2" width="872.818" x="688.591" y="404.326">
<feGaussianBlur in="SourceGraphic" result="Blur" stdDeviation="1.06589"/>
</filter>
</defs>
<clipPath id="ArtboardFrame">
<rect height="2000" width="2000" x="0" y="0"/>
</clipPath>
<g clip-path="url(#ArtboardFrame)" id="Egg-container" vectornator:layerName="Egg container">
<use fill="#b8d7f8" fill-rule="nonzero" opacity="1" stroke="none" vectornator:layerName="Base" xlink:href="#Fill"/>
<clipPath clip-rule="nonzero" id="ClipPath">
<use xlink:href="#Fill"/>
</clipPath>
<g clip-path="url(#ClipPath)">
<g opacity="1" vectornator:layerName="Pattern">
<path d="M1144.85 218.66L1292.56 394.162L1077.43 650.711L929.718 475.21L1144.85 218.66ZM799.441 297.942L947.151 473.443L732.022 729.992L584.311 554.491L799.441 297.942ZM1217.83 795.969L1365.54 971.471L1150.41 1228.02L1002.7 1052.52L1217.83 795.969ZM869.173 878.974L1016.88 1054.48L801.754 1311.02L654.043 1135.52L869.173 878.974ZM1148.1 1210.99L1295.81 1386.49L1080.68 1643.04L932.971 1467.54L1148.1 1210.99ZM381.049 795.969L528.759 971.471L313.63 1228.02L165.919 1052.52L381.049 795.969Z" fill="#d4f0ff" fill-rule="nonzero" opacity="1" stroke="#ffffff" stroke-linecap="butt" stroke-linejoin="round" stroke-width="22.1446" vectornator:layerName="Curve 5"/>
<path d="M1005.38 52.6509L1153.09 228.152L937.965 484.702L790.254 309.2L1005.38 52.6509ZM1284.31 384.669L1432.02 560.171L1216.89 816.72L1069.18 641.219L1284.31 384.669ZM1699.45 878.974L1847.16 1054.48L1632.03 1311.02L1484.32 1135.52L1699.45 878.974ZM1357.3 961.978L1505.01 1137.48L1289.88 1394.03L1142.17 1218.53L1357.3 961.978ZM590.245 546.955L737.955 722.457L522.826 979.006L375.115 803.505L590.245 546.955ZM1284.31 1373.28L1432.02 1548.78L1216.89 1805.33L1069.18 1629.83L1284.31 1373.28ZM659.977 1127.99L807.687 1303.49L592.558 1560.04L444.847 1384.54L659.977 1127.99Z" fill="#dad7ff" fill-rule="nonzero" opacity="1" stroke="#ffffff" stroke-linecap="butt" stroke-linejoin="round" stroke-width="22.1446" vectornator:layerName="Curve 4"/>
<path d="M1423.78 550.678L1571.49 726.18L1356.36 982.729L1208.65 807.228L1423.78 550.678ZM1493.51 1124.26L1641.22 1299.77L1426.09 1556.32L1278.38 1380.81L1493.51 1124.26ZM729.709 712.965L877.419 888.466L662.29 1145.02L514.579 969.514L729.709 712.965ZM799.441 1294L947.151 1469.5L732.022 1726.05L584.311 1550.55L799.441 1294Z" fill="#fff2d3" fill-rule="nonzero" opacity="1" stroke="#ffffff" stroke-linecap="butt" stroke-linejoin="round" stroke-width="22.1446" vectornator:layerName="Curve 3"/>
<path d="M938.905 463.951L1086.62 639.452L871.486 896.002L723.775 720.5L938.905 463.951ZM938.905 1460.01L1086.62 1635.51L871.486 1892.06L723.775 1716.56L938.905 1460.01Z" fill="#f2d4ff" fill-rule="nonzero" opacity="1" stroke="#ffffff" stroke-linecap="butt" stroke-linejoin="round" stroke-width="22.1446" vectornator:layerName="Curve 2"/>
<path d="M1563.24 716.688L1710.95 892.189L1495.82 1148.74L1348.11 973.237L1563.24 716.688ZM1078.37 629.96L1226.08 805.461L1010.95 1062.01L863.239 886.509L1078.37 629.96ZM1008.64 1044.98L1156.35 1220.48L941.218 1477.03L793.507 1301.53L1008.64 1044.98ZM520.513 961.978L668.223 1137.48L453.094 1394.03L305.383 1218.53L520.513 961.978ZM1075.12 1622.29L1222.83 1797.79L1007.7 2054.34L859.986 1878.84L1075.12 1622.29Z" fill="#ffccd4" fill-rule="nonzero" opacity="1" stroke="#ffffff" stroke-linecap="butt" stroke-linejoin="round" stroke-width="22.1446" vectornator:layerName="Curve 1"/>
</g>
<path d="M793.747 1683.52C736.513 1652.55 1126.43 1785.25 1331.68 1421.23C1493.89 1006.35 1476.46 926.431 1490.92 832.761C1501.18 766.3 1562.9 916.789 1597.17 961.857C1693.4 1088.41 1582.17 1498.8 1377.87 1654.14C1173.57 1809.49 882.256 1731.41 793.747 1683.52Z" fill="#4b4b4b" fill-opacity="0.191487" fill-rule="nonzero" filter="url(#Filter)" opacity="1" stroke="none" vectornator:blur="53.2946" vectornator:layerName="Shadow"/>
<path d="M833.687 324.633C738.869 374.161 637.99 479.559 579.627 595.093C462.536 826.886 438.436 1071.06 450.005 1213.95C461.574 1356.84 545.255 1559.76 734.751 1651.7C939.472 1734.53 1079.25 1734.53 1265.25 1651.7C1451.96 1561.93 1541.51 1385.9 1550 1213.95C1558.48 1041.99 1537.52 826.886 1420.43 595.093C1362.06 479.559 1283.24 377.62 1166.31 324.633C1049.39 271.645 928.505 275.105 833.687 324.633Z" fill="none" opacity="1" stroke="#000000" stroke-linecap="butt" stroke-linejoin="round" stroke-width="8.96724" vectornator:layerName="Outline"/>
<path d="M970.156 357.438C866.149 357.438 731.375 440.037 731.375 526.531C731.375 613.026 724.024 685 828.031 685C874.603 685 902.681 635.139 950.062 600.125C1008.5 556.944 1112.69 526.014 1112.69 478.25C1112.69 391.755 1074.16 357.438 970.156 357.438ZM663.594 727.656C655.582 727.871 647.041 729.042 638.031 731.156C589.98 742.433 565.295 806.44 575.906 851.656C586.517 896.872 607.136 911.183 655.188 899.906C678.579 894.417 682.425 864.604 696.844 842.656C712.044 819.519 737.039 803.767 731.594 780.562C722.972 743.824 698.31 726.727 663.594 727.656Z" fill="#ffffff" fill-opacity="0.772472" fill-rule="nonzero" opacity="1" stroke="none" vectornator:layerName="Light"/>
<path d="M839.493 1686.31C825.073 1691.12 858.502 1647.83 862.155 1642.88C868.957 1633.65 937.692 1556.5 937.692 1548.45C937.692 1545.56 930.938 1546.97 930.139 1546.57C899.333 1531.16 862.287 1542.2 830.051 1531.46C827.006 1530.44 820.609 1532.78 820.609 1529.57C820.609 1528.49 844.645 1520.04 847.047 1518.24C861.593 1507.33 875.941 1495.43 890.481 1484.25C902.167 1475.26 912.155 1466.35 922.585 1455.92C927.66 1450.85 944.656 1447.78 939.581 1442.7C937.999 1441.12 911.214 1442.82 911.254 1442.7C915.258 1430.69 971.002 1382.01 983.36 1375.83M982.068 1372.4C972.734 1353.74 905.497 1349.64 905.497 1328.75L924.379 1324.72C924.379 1316.71 868.966 1283.38 871.88 1292.12C873.741 1297.7 956.89 1291.85 960.387 1286.61C966.777 1277.02 852.062 1139.45 852.062 1139.45M943.209 1445.2C937.844 1445.2 935.324 1445.98 945.318 1440.99C967.636 1429.83 989.132 1414.01 1012.79 1405.14C1018.72 1402.92 1041.05 1404.44 1044.42 1398.81C1053.52 1383.65 1059.57 1278.62 1069.73 1278.62C1074.09 1278.62 1119.71 1360.39 1132.98 1352.42C1159.67 1336.42 1168.44 1314.94 1168.44 1314.94M732.225 679.59L815.684 844.491L765.428 860.652L793.209 928.174L821.051 1008.62C821.559 1008.74 753.881 999.225 753.881 999.225L831.832 1066.08L939.284 1120.28L857.35 1139.86M1167.12 1317.5L1154.64 1285.22L1231.54 1257.77L1181.78 1096.07L1267.98 1137.21L1334.76 979.498C1334.76 979.498 1437.5 1018.39 1442.08 1020.68M1182.76 1092.16L1115.37 1066.4L1173.95 1052.98L1219.91 1042.94L1165.13 861.981M701.31 419.85C683.92 396.664 742.07 447.24 748.322 454.326C767.958 476.58 861.153 568.578 861.153 604.766C861.153 608.181 760.9 588.973 760.859 589.095C753.374 611.549 848.028 656.742 828.244 683.121C823.494 689.454 730.647 685.69 738.92 681.554M1166.73 849.232C1150.04 849.232 1321.88 869.604 1321.88 869.604L1224.72 759.908L1335.98 830.427C1335.98 830.427 1402.79 446.202 1447.24 468.43M1169.87 855.5C1078.74 855.5 1122.86 728.566 1122.86 728.566L1025.7 822.591C1025.7 822.591 1092.06 654.535 1075.84 642.376C1073.68 640.751 858.1 599.622 858.1 599.622M1446.69 1018.97C1436.36 1024.14 1461.75 1007.74 1470.97 992.376C1483.09 972.183 1500.08 963.362 1500.08 963.362C1500.08 963.362 1527.2 987.317 1551.92 1012.04" fill="none" filter="url(#Filter_2)" opacity="1" stroke="#6d6d6d" stroke-linecap="round" stroke-linejoin="round" stroke-width="13.6445" vectornator:blur="2.13178" vectornator:layerName="Crack"/>
</g>
</g>
</svg>
