<?xml version="1.0" encoding="UTF-8" standalone="no"?>
<!DOCTYPE svg PUBLIC "-//W3C//DTD SVG 1.1//EN" "http://www.w3.org/Graphics/SVG/1.1/DTD/svg11.dtd">
<!-- Created with Vectornator (http://vectornator.io/) -->
<svg height="100%" stroke-miterlimit="10" style="fill-rule:nonzero;clip-rule:evenodd;stroke-linecap:round;stroke-linejoin:round;" version="1.1" viewBox="0 0 2000 2000" width="100%" xml:space="preserve" xmlns="http://www.w3.org/2000/svg" xmlns:vectornator="http://vectornator.io" xmlns:xlink="http://www.w3.org/1999/xlink">
<defs>
<filter color-interpolation-filters="sRGB" filterUnits="userSpaceOnUse" height="1870.43" id="Filter" width="1620.79" x="199.454" y="36.6065">
<feGaussianBlur in="SourceGraphic" result="Blur" stdDeviation="46.0271"/>
</filter>
<path d="M1052.75 213.531C1005.34 214.72 960.204 224.288 920.5 240C919.924 240.227 919.324 240.426 918.75 240.656C914.704 242.282 910.801 244.029 906.875 245.781C904.435 246.866 901.955 247.899 899.562 249.031C896.722 250.381 893.988 251.835 891.219 253.25C887.822 254.98 884.442 256.706 881.156 258.531C878.95 259.76 876.811 261.042 874.656 262.312C872.45 263.612 870.149 264.845 868 266.188C868.07 266.213 868.149 266.224 868.219 266.25C848.326 278.669 830.842 292.834 816.469 308.406L816.375 308.375C812.776 312.275 809.357 316.249 806.156 320.312C808.695 323.118 811.398 326.324 814.25 329.812C814.296 329.868 814.329 329.913 814.375 329.969C816.863 333.028 819.411 336.279 822.094 339.781C827.747 347.16 833.827 355.452 840.031 364.188C840.187 364.407 840.312 364.592 840.469 364.812C882.943 424.701 934.156 509.188 934.156 509.188L1140.19 567.656L1108.5 658.125L1082.69 731.781L1171.25 701.156L1159.34 728.969L1150.56 749.438L1279.59 755.438L1306.78 793.219L1270.59 791.469L1237.19 789.844L1258.31 808.156L1288.44 834.312L1307.06 933.094L1324.47 1025.47L1218.81 1035.31L1163.56 859.844L1156.5 855.844L1108.66 828.75L1096.5 821.875L1116.75 772.531L1031.97 802.906L1076.25 642.188L752.312 589.031L815.594 681.406L730.812 683.938L800.406 840.844L767.5 858.562L782.688 904.062L790.906 928.812L813.062 995.219L754.844 1001.56L830.781 1067.38L886.375 1096.38L918.094 1112.91L856.094 1140.75L940.875 1272.34L894.656 1280.19L818.688 1186.84L792.969 1155.25L862.438 1122.81L753 1079.72L698.375 1040.19L673.688 1022.31L731.625 1022.84L720.219 997.844L710.625 976.875L669.938 887.719L704 859.188L613.5 712.062L705.906 700.562L629.344 618.031L730.062 619.375C730.062 619.375 722.536 611.037 711.312 598.844C711.122 598.637 710.818 598.303 710.625 598.094C702.686 589.475 692.543 578.683 681.156 566.75C671.918 557.069 662.727 547.528 652 536.719C651.564 536.279 651.188 535.878 650.75 535.438C639.067 523.688 626.755 511.738 614.281 499.938C614.115 499.78 613.948 499.626 613.781 499.469C606.238 492.34 598.702 485.329 591.156 478.562C582.72 470.96 574.35 463.649 566.188 456.906C563.122 459.649 560.07 462.588 557 465.719C553.966 468.813 550.939 472.102 547.906 475.562C547.243 476.32 546.569 477.163 545.906 477.938C543.537 480.704 541.176 483.518 538.812 486.5C538.176 487.304 537.542 488.181 536.906 489C534.435 492.18 531.96 495.406 529.5 498.812C519.281 512.967 509.197 529.138 499.344 546.906C490.596 562.681 482.1 579.964 473.844 598.219C473.761 598.401 473.676 598.568 473.594 598.75C422.733 711.415 383.073 867.554 377.031 1027.22C377.027 1027.34 377.036 1027.47 377.031 1027.59C371.867 1165.28 391.746 1305.28 451 1421.72C451.211 1422.13 451.413 1422.55 451.625 1422.97C458.871 1437.12 466.716 1450.88 475.156 1464.28C487.532 1483.93 501.231 1502.71 516.312 1520.5C525.067 1530.83 534.228 1540.88 543.938 1550.5C544.089 1550.65 544.255 1550.79 544.406 1550.94C550.463 1556.92 556.719 1562.74 563.156 1568.44C564.421 1569.56 565.72 1570.64 567 1571.75C572.824 1576.79 578.802 1581.71 584.938 1586.5C586.055 1587.37 587.185 1588.23 588.312 1589.09C594.688 1593.98 601.225 1598.73 607.938 1603.34C609.062 1604.12 610.179 1604.89 611.312 1605.66C618.822 1610.72 626.535 1615.63 634.469 1620.34C634.599 1620.42 634.713 1620.52 634.844 1620.59C688.644 1652.48 752.199 1676.15 826.938 1689.16C845.767 1658.54 859.226 1636.21 870.438 1617.44C917.731 1538.26 906.781 1550.19 906.781 1550.19L789.594 1544.94L807.438 1529.59L807.719 1529.38L904.438 1446.31L868.656 1440.03L876.406 1432.5L938.219 1372.41L903.125 1362.06L845.781 1345.19L868.188 1322.34L816.812 1297.28L868.125 1286.22L907.438 1311.25L907.969 1311.59L891.531 1338.16L971.25 1376.12L904.156 1433.06L940.875 1443.19L999.062 1406.5L1038.31 1403.97L1065.78 1319.62L1065.81 1319.59L1070.47 1305.25L1076.25 1287.53L1081.97 1293.75L1091.84 1304.47L1119.72 1334.78L1090.38 1422.81L1088.59 1428.16L1042.91 1427.72L855.438 1526.38L962.844 1560.19C962.844 1560.19 950.355 1572.44 943 1579.59C922.551 1599.48 887.116 1634.34 850.031 1675.03C1011.35 1758.9 1266.17 1756.67 1438.97 1602.25C1444.58 1597.23 1450.13 1592.09 1455.56 1586.75C1479.39 1563.34 1501.4 1536.71 1521.16 1506.84C1521.24 1506.72 1521.32 1506.59 1521.41 1506.47C1587.21 1406.81 1627.63 1270.3 1623.75 1089.69C1607.18 1073.5 1595.47 1049.81 1595.47 1049.81L1531.31 1099.53L1435.06 1041.56L1348.19 1185.25L1323.53 1171.72L1265.16 1139.72L1283.38 1303.53L1212.31 1322.75L1211.28 1325.34L1186.53 1388.09L1140.97 1328.06L1148.31 1302.41L1154.72 1279.94L1220.53 1253.38L1191.84 1118.47L1186.34 1092.66L1128.16 1069.91L1220.53 1040.78L1218.94 1035.72L1366.69 1109.44L1454.31 969.125L1549.03 1019.47L1615.84 975.219C1615.84 975.219 1629.11 997.789 1642.84 1010.28C1643.85 991.319 1643.55 969.426 1642.34 946C1641 919.77 1638.43 891.511 1634.75 862.344C1634.74 862.24 1634.73 862.135 1634.72 862.031C1634.69 861.794 1634.66 861.549 1634.62 861.312C1632.98 848.369 1631.12 835.335 1629.09 822.219C1628.7 819.68 1628.34 817.166 1627.94 814.625C1625.73 800.848 1623.36 787.075 1620.78 773.438C1604.9 689.55 1582.36 610.962 1558.69 570.719C1518.9 668.154 1465.25 815.406 1465.25 815.406L1430.59 783.75L1404.72 816.812L1392.19 832.812L1361.78 795.906L1307.75 793.281L1346.69 739L1380.75 768.906C1380.75 768.906 1381.38 766.818 1381.44 766.625C1381.88 765.138 1386.65 750.089 1390.31 738.438C1393.09 729.683 1396.37 719.549 1400.44 707.25C1403.11 699.179 1405.73 691.244 1408.97 681.75C1409.89 679.034 1410.81 676.352 1411.78 673.531C1417.68 656.375 1424.29 637.492 1431.84 616.688C1442.39 587.621 1454.41 555.655 1467.91 521.562C1467.09 519.505 1466.21 517.534 1465.38 515.5C1462.91 509.47 1460.39 503.541 1457.81 497.719C1455.23 491.889 1452.62 486.155 1449.94 480.531C1447.26 474.912 1444.53 469.384 1441.75 463.969C1438.97 458.554 1436.13 453.245 1433.25 448.031C1420.61 425.135 1407.07 404.149 1392.75 385C1392.64 384.857 1392.54 384.705 1392.44 384.562C1392.37 384.478 1392.31 384.397 1392.25 384.312C1386.72 376.942 1381.09 369.866 1375.34 363.031C1375.32 363.009 1375.3 362.991 1375.28 362.969C1375.25 362.934 1375.22 362.909 1375.19 362.875C1287.75 258.949 1176.37 216.226 1073.19 213.531C1066.33 213.352 1059.52 213.361 1052.75 213.531Z" id="Fill"/>
<filter color-interpolation-filters="sRGB" filterUnits="userSpaceOnUse" height="1890.3" id="Filter_2" width="1640.66" x="189.521" y="26.6743">
<feGaussianBlur in="SourceGraphic" result="Blur" stdDeviation="50"/>
</filter>
</defs>
<g id="Egg-container" vectornator:layerName="Egg container">
<path d="M1052.75 213.531C1005.34 214.72 960.204 224.288 920.5 240C919.924 240.227 919.324 240.426 918.75 240.656C914.704 242.282 910.801 244.029 906.875 245.781C904.435 246.866 901.955 247.899 899.562 249.031C896.722 250.381 893.988 251.835 891.219 253.25C887.822 254.98 884.442 256.706 881.156 258.531C878.95 259.76 876.811 261.042 874.656 262.312C872.45 263.612 870.149 264.845 868 266.188C868.07 266.213 868.149 266.224 868.219 266.25C848.326 278.669 830.842 292.834 816.469 308.406L816.375 308.375C812.776 312.275 809.357 316.249 806.156 320.312C808.695 323.118 811.398 326.324 814.25 329.812C814.296 329.868 814.329 329.913 814.375 329.969C816.863 333.028 819.411 336.279 822.094 339.781C827.747 347.16 833.827 355.452 840.031 364.188C840.187 364.407 840.312 364.592 840.469 364.812C882.943 424.701 934.156 509.188 934.156 509.188L1140.19 567.656L1108.5 658.125L1082.69 731.781L1171.25 701.156L1159.34 728.969L1150.56 749.438L1279.59 755.438L1306.78 793.219L1270.59 791.469L1237.19 789.844L1258.31 808.156L1288.44 834.312L1307.06 933.094L1324.47 1025.47L1218.81 1035.31L1163.56 859.844L1156.5 855.844L1108.66 828.75L1096.5 821.875L1116.75 772.531L1031.97 802.906L1076.25 642.188L752.312 589.031L815.594 681.406L730.812 683.938L800.406 840.844L767.5 858.562L782.688 904.062L790.906 928.812L813.062 995.219L754.844 1001.56L830.781 1067.38L886.375 1096.38L918.094 1112.91L856.094 1140.75L940.875 1272.34L894.656 1280.19L818.688 1186.84L792.969 1155.25L862.438 1122.81L753 1079.72L698.375 1040.19L673.688 1022.31L731.625 1022.84L720.219 997.844L710.625 976.875L669.938 887.719L704 859.188L613.5 712.062L705.906 700.562L629.344 618.031L730.062 619.375C730.062 619.375 722.536 611.037 711.312 598.844C711.122 598.637 710.818 598.303 710.625 598.094C702.686 589.475 692.543 578.683 681.156 566.75C671.918 557.069 662.727 547.528 652 536.719C651.564 536.279 651.188 535.878 650.75 535.438C639.067 523.688 626.755 511.738 614.281 499.938C614.115 499.78 613.948 499.626 613.781 499.469C606.238 492.34 598.702 485.329 591.156 478.562C582.72 470.96 574.35 463.649 566.188 456.906C563.122 459.649 560.07 462.588 557 465.719C553.966 468.813 550.939 472.102 547.906 475.562C547.243 476.32 546.569 477.163 545.906 477.938C543.537 480.704 541.176 483.518 538.812 486.5C538.176 487.304 537.542 488.181 536.906 489C534.435 492.18 531.96 495.406 529.5 498.812C519.281 512.967 509.197 529.138 499.344 546.906C490.596 562.681 482.1 579.964 473.844 598.219C473.761 598.401 473.676 598.568 473.594 598.75C422.733 711.415 383.073 867.554 377.031 1027.22C377.027 1027.34 377.036 1027.47 377.031 1027.59C371.867 1165.28 391.746 1305.28 451 1421.72C451.211 1422.13 451.413 1422.55 451.625 1422.97C458.871 1437.12 466.716 1450.88 475.156 1464.28C487.532 1483.93 501.231 1502.71 516.312 1520.5C525.067 1530.83 534.228 1540.88 543.938 1550.5C544.089 1550.65 544.255 1550.79 544.406 1550.94C550.463 1556.92 556.719 1562.74 563.156 1568.44C564.421 1569.56 565.72 1570.64 567 1571.75C572.824 1576.79 578.802 1581.71 584.938 1586.5C586.055 1587.37 587.185 1588.23 588.312 1589.09C594.688 1593.98 601.225 1598.73 607.938 1603.34C609.062 1604.12 610.179 1604.89 611.312 1605.66C618.822 1610.72 626.535 1615.63 634.469 1620.34C634.599 1620.42 634.713 1620.52 634.844 1620.59C688.644 1652.48 752.199 1676.15 826.938 1689.16C845.767 1658.54 859.226 1636.21 870.438 1617.44C917.731 1538.26 906.781 1550.19 906.781 1550.19L789.594 1544.94L807.438 1529.59L807.719 1529.38L904.438 1446.31L868.656 1440.03L876.406 1432.5L938.219 1372.41L903.125 1362.06L845.781 1345.19L868.188 1322.34L816.812 1297.28L868.125 1286.22L907.438 1311.25L907.969 1311.59L891.531 1338.16L971.25 1376.12L904.156 1433.06L940.875 1443.19L999.062 1406.5L1038.31 1403.97L1065.78 1319.62L1065.81 1319.59L1070.47 1305.25L1076.25 1287.53L1081.97 1293.75L1091.84 1304.47L1119.72 1334.78L1090.38 1422.81L1088.59 1428.16L1042.91 1427.72L855.438 1526.38L962.844 1560.19C962.844 1560.19 950.355 1572.44 943 1579.59C922.551 1599.48 887.116 1634.34 850.031 1675.03C1011.35 1758.9 1266.17 1756.67 1438.97 1602.25C1444.58 1597.23 1450.13 1592.09 1455.56 1586.75C1479.39 1563.34 1501.4 1536.71 1521.16 1506.84C1521.24 1506.72 1521.32 1506.59 1521.41 1506.47C1587.21 1406.81 1627.63 1270.3 1623.75 1089.69C1607.18 1073.5 1595.47 1049.81 1595.47 1049.81L1531.31 1099.53L1435.06 1041.56L1348.19 1185.25L1323.53 1171.72L1265.16 1139.72L1283.38 1303.53L1212.31 1322.75L1211.28 1325.34L1186.53 1388.09L1140.97 1328.06L1148.31 1302.41L1154.72 1279.94L1220.53 1253.38L1191.84 1118.47L1186.34 1092.66L1128.16 1069.91L1220.53 1040.78L1218.94 1035.72L1366.69 1109.44L1454.31 969.125L1549.03 1019.47L1615.84 975.219C1615.84 975.219 1629.11 997.789 1642.84 1010.28C1643.85 991.319 1643.55 969.426 1642.34 946C1641 919.77 1638.43 891.511 1634.75 862.344C1634.74 862.24 1634.73 862.135 1634.72 862.031C1634.69 861.794 1634.66 861.549 1634.62 861.312C1632.98 848.369 1631.12 835.335 1629.09 822.219C1628.7 819.68 1628.34 817.166 1627.94 814.625C1625.73 800.848 1623.36 787.075 1620.78 773.438C1604.9 689.55 1582.36 610.962 1558.69 570.719C1518.9 668.154 1465.25 815.406 1465.25 815.406L1430.59 783.75L1404.72 816.812L1392.19 832.812L1361.78 795.906L1307.75 793.281L1346.69 739L1380.75 768.906C1380.75 768.906 1381.38 766.818 1381.44 766.625C1381.88 765.138 1386.65 750.089 1390.31 738.438C1393.09 729.683 1396.37 719.549 1400.44 707.25C1403.11 699.179 1405.73 691.244 1408.97 681.75C1409.89 679.034 1410.81 676.352 1411.78 673.531C1417.68 656.375 1424.29 637.492 1431.84 616.688C1442.39 587.621 1454.41 555.655 1467.91 521.562C1467.09 519.505 1466.21 517.534 1465.38 515.5C1462.91 509.47 1460.39 503.541 1457.81 497.719C1455.23 491.889 1452.62 486.155 1449.94 480.531C1447.26 474.912 1444.53 469.384 1441.75 463.969C1438.97 458.554 1436.13 453.245 1433.25 448.031C1420.61 425.135 1407.07 404.149 1392.75 385C1392.64 384.857 1392.54 384.705 1392.44 384.562C1392.37 384.478 1392.31 384.397 1392.25 384.312C1386.72 376.942 1381.09 369.866 1375.34 363.031C1375.32 363.009 1375.3 362.991 1375.28 362.969C1375.25 362.934 1375.22 362.909 1375.19 362.875C1287.75 258.949 1176.37 216.226 1073.19 213.531C1066.33 213.352 1059.52 213.361 1052.75 213.531Z" fill="none" filter="url(#Filter)" opacity="1" stroke="#fffbec" stroke-linecap="butt" stroke-linejoin="round" stroke-width="123.452" vectornator:blendMode="lighten" vectornator:blur="92.0543" vectornator:layerName="Curve 2"/>
<g opacity="1" vectornator:layerName="Group 1">
<g opacity="1" vectornator:layerName="Group 1">
<use fill="#ffccd4" fill-rule="nonzero" opacity="1" stroke="#000000" stroke-linecap="butt" stroke-linejoin="round" stroke-width="4.34103" vectornator:layerName="Curve 1" xlink:href="#Fill"/>
<clipPath clip-rule="nonzero" id="ClipPath">
<use xlink:href="#Fill"/>
</clipPath>
<g clip-path="url(#ClipPath)">
<g opacity="1" vectornator:layerName="Pattern">
<path d="M1410.48 138.913L1526.63 372.651L1217.22 594.895L1101.08 361.156L1410.48 138.913ZM1004.8 130.307L1120.94 364.046L811.539 586.289L695.394 352.551L1004.8 130.307ZM1333.53 793.382L1449.67 1027.12L1140.27 1249.36L1024.13 1015.63L1333.53 793.382ZM923.208 787.966L1039.35 1021.7L729.951 1243.95L613.806 1010.21L923.208 787.966ZM1142.36 1230.02L1258.51 1463.75L949.106 1686L832.961 1452.26L1142.36 1230.02ZM403.31 561.524L519.456 795.263L210.053 1017.51L93.9076 783.768L403.31 561.524Z" fill="#d4f0ff" fill-rule="nonzero" opacity="1" stroke="#ffffff" stroke-linecap="butt" stroke-linejoin="round" stroke-width="21.5175" vectornator:layerName="Curve 5"/>
<path d="M1300.9-82.1122L1417.05 151.626L1107.65 373.87L991.501 140.131L1300.9-82.1122ZM1520.06 359.938L1636.2 593.676L1326.8 815.92L1210.66 582.181L1520.06 359.938ZM1846.2 1018.02L1962.34 1251.76L1652.94 1474L1536.79 1240.26L1846.2 1018.02ZM1443.11 1014.41L1559.25 1248.15L1249.85 1470.39L1133.7 1236.65L1443.11 1014.41ZM704.053 345.916L820.199 579.654L510.796 801.897L394.651 568.159L704.053 345.916ZM1249.34 1446.05L1365.49 1679.79L1056.09 1902.03L939.942 1668.29L1249.34 1446.05ZM622.465 1003.57L738.611 1237.31L429.208 1459.56L313.062 1225.82L622.465 1003.57Z" fill="#dad7ff" fill-rule="nonzero" opacity="1" stroke="#ffffff" stroke-linecap="butt" stroke-linejoin="round" stroke-width="21.5175" vectornator:layerName="Curve 4"/>
<path d="M1629.64 580.963L1745.78 814.701L1436.38 1036.94L1320.23 803.206L1629.64 580.963ZM1550.09 1230.44L1666.23 1464.18L1356.83 1686.42L1240.68 1452.68L1550.09 1230.44ZM813.631 566.941L929.777 800.679L620.374 1022.92L504.228 789.184L813.631 566.941ZM732.043 1224.6L848.188 1458.34L538.786 1680.58L422.64 1446.84L732.043 1224.6Z" fill="#fff2d3" fill-rule="nonzero" opacity="1" stroke="#ffffff" stroke-linecap="butt" stroke-linejoin="round" stroke-width="21.5175" vectornator:layerName="Curve 3"/>
<path d="M1114.37 351.332L1230.52 585.071L921.117 807.314L804.971 573.576L1114.37 351.332ZM841.62 1445.62L957.766 1679.36L648.363 1901.61L532.217 1667.87L841.62 1445.62Z" fill="#f2d4ff" fill-rule="nonzero" opacity="1" stroke="#ffffff" stroke-linecap="butt" stroke-linejoin="round" stroke-width="21.5175" vectornator:layerName="Curve 2"/>
<path d="M1739.21 801.988L1855.36 1035.73L1545.96 1257.97L1429.81 1024.23L1739.21 801.988ZM1223.95 572.357L1340.1 806.096L1030.69 1028.34L914.549 794.601L1223.95 572.357ZM1032.79 1008.99L1148.93 1242.73L839.529 1464.97L723.383 1231.23L1032.79 1008.99ZM512.888 782.549L629.033 1016.29L319.631 1238.53L203.485 1004.79L512.888 782.549ZM948.601 1661.66L1064.75 1895.4L755.344 2117.64L639.198 1883.9L948.601 1661.66Z" fill="#ffccd4" fill-rule="nonzero" opacity="1" stroke="#ffffff" stroke-linecap="butt" stroke-linejoin="round" stroke-width="21.5175" vectornator:layerName="Curve 1"/>
</g>
</g>
</g>
</g>
<path d="M1052.75 213.531C1005.34 214.72 960.204 224.288 920.5 240C919.924 240.227 919.324 240.426 918.75 240.656C914.704 242.282 910.801 244.029 906.875 245.781C904.435 246.866 901.955 247.899 899.562 249.031C896.722 250.381 893.988 251.835 891.219 253.25C887.822 254.98 884.442 256.706 881.156 258.531C878.95 259.76 876.811 261.042 874.656 262.312C872.45 263.612 870.149 264.845 868 266.188C868.07 266.213 868.149 266.224 868.219 266.25C848.326 278.669 830.842 292.834 816.469 308.406L816.375 308.375C812.776 312.275 809.357 316.249 806.156 320.312C808.695 323.118 811.398 326.324 814.25 329.812C814.296 329.868 814.329 329.913 814.375 329.969C816.863 333.028 819.411 336.279 822.094 339.781C827.747 347.16 833.827 355.452 840.031 364.188C840.187 364.407 840.312 364.592 840.469 364.812C882.943 424.701 934.156 509.188 934.156 509.188L1140.19 567.656L1108.5 658.125L1082.69 731.781L1171.25 701.156L1159.34 728.969L1150.56 749.438L1279.59 755.438L1306.78 793.219L1270.59 791.469L1237.19 789.844L1258.31 808.156L1288.44 834.312L1307.06 933.094L1324.47 1025.47L1218.81 1035.31L1163.56 859.844L1156.5 855.844L1108.66 828.75L1096.5 821.875L1116.75 772.531L1031.97 802.906L1076.25 642.188L752.312 589.031L815.594 681.406L730.812 683.938L800.406 840.844L767.5 858.562L782.688 904.062L790.906 928.812L813.062 995.219L754.844 1001.56L830.781 1067.38L886.375 1096.38L918.094 1112.91L856.094 1140.75L940.875 1272.34L894.656 1280.19L818.688 1186.84L792.969 1155.25L862.438 1122.81L753 1079.72L698.375 1040.19L673.688 1022.31L731.625 1022.84L720.219 997.844L710.625 976.875L669.938 887.719L704 859.188L613.5 712.062L705.906 700.562L629.344 618.031L730.062 619.375C730.062 619.375 722.536 611.037 711.312 598.844C711.122 598.637 710.818 598.303 710.625 598.094C702.686 589.475 692.543 578.683 681.156 566.75C671.918 557.069 662.727 547.528 652 536.719C651.564 536.279 651.188 535.878 650.75 535.438C639.067 523.688 626.755 511.738 614.281 499.938C614.115 499.78 613.948 499.626 613.781 499.469C606.238 492.34 598.702 485.329 591.156 478.562C582.72 470.96 574.35 463.649 566.188 456.906C563.122 459.649 560.07 462.588 557 465.719C553.966 468.813 550.939 472.102 547.906 475.562C547.243 476.32 546.569 477.163 545.906 477.938C543.537 480.704 541.176 483.518 538.812 486.5C538.176 487.304 537.542 488.181 536.906 489C534.435 492.18 531.96 495.406 529.5 498.812C519.281 512.967 509.197 529.138 499.344 546.906C490.596 562.681 482.1 579.964 473.844 598.219C473.761 598.401 473.676 598.568 473.594 598.75C422.733 711.415 383.073 867.554 377.031 1027.22C377.027 1027.34 377.036 1027.47 377.031 1027.59C371.867 1165.28 391.746 1305.28 451 1421.72C451.211 1422.13 451.413 1422.55 451.625 1422.97C458.871 1437.12 466.716 1450.88 475.156 1464.28C487.532 1483.93 501.231 1502.71 516.312 1520.5C525.067 1530.83 534.228 1540.88 543.938 1550.5C544.089 1550.65 544.255 1550.79 544.406 1550.94C550.463 1556.92 556.719 1562.74 563.156 1568.44C564.421 1569.56 565.72 1570.64 567 1571.75C572.824 1576.79 578.802 1581.71 584.938 1586.5C586.055 1587.37 587.185 1588.23 588.312 1589.09C594.688 1593.98 601.225 1598.73 607.938 1603.34C609.062 1604.12 610.179 1604.89 611.312 1605.66C618.822 1610.72 626.535 1615.63 634.469 1620.34C634.599 1620.42 634.713 1620.52 634.844 1620.59C688.644 1652.48 752.199 1676.15 826.938 1689.16C845.767 1658.54 859.226 1636.21 870.438 1617.44C917.731 1538.26 906.781 1550.19 906.781 1550.19L789.594 1544.94L807.438 1529.59L807.719 1529.38L904.438 1446.31L868.656 1440.03L876.406 1432.5L938.219 1372.41L903.125 1362.06L845.781 1345.19L868.188 1322.34L816.812 1297.28L868.125 1286.22L907.438 1311.25L907.969 1311.59L891.531 1338.16L971.25 1376.12L904.156 1433.06L940.875 1443.19L999.062 1406.5L1038.31 1403.97L1065.78 1319.62L1065.81 1319.59L1070.47 1305.25L1076.25 1287.53L1081.97 1293.75L1091.84 1304.47L1119.72 1334.78L1090.38 1422.81L1088.59 1428.16L1042.91 1427.72L855.438 1526.38L962.844 1560.19C962.844 1560.19 950.355 1572.44 943 1579.59C922.551 1599.48 887.116 1634.34 850.031 1675.03C1011.35 1758.9 1266.17 1756.67 1438.97 1602.25C1444.58 1597.23 1450.13 1592.09 1455.56 1586.75C1479.39 1563.34 1501.4 1536.71 1521.16 1506.84C1521.24 1506.72 1521.32 1506.59 1521.41 1506.47C1587.21 1406.81 1627.63 1270.3 1623.75 1089.69C1607.18 1073.5 1595.47 1049.81 1595.47 1049.81L1531.31 1099.53L1435.06 1041.56L1348.19 1185.25L1323.53 1171.72L1265.16 1139.72L1283.38 1303.53L1212.31 1322.75L1211.28 1325.34L1186.53 1388.09L1140.97 1328.06L1148.31 1302.41L1154.72 1279.94L1220.53 1253.38L1191.84 1118.47L1186.34 1092.66L1128.16 1069.91L1220.53 1040.78L1218.94 1035.72L1366.69 1109.44L1454.31 969.125L1549.03 1019.47L1615.84 975.219C1615.84 975.219 1629.11 997.789 1642.84 1010.28C1643.85 991.319 1643.55 969.426 1642.34 946C1641 919.77 1638.43 891.511 1634.75 862.344C1634.74 862.24 1634.73 862.135 1634.72 862.031C1634.69 861.794 1634.66 861.549 1634.62 861.312C1632.98 848.369 1631.12 835.335 1629.09 822.219C1628.7 819.68 1628.34 817.166 1627.94 814.625C1625.73 800.848 1623.36 787.075 1620.78 773.438C1604.9 689.55 1582.36 610.962 1558.69 570.719C1518.9 668.154 1465.25 815.406 1465.25 815.406L1430.59 783.75L1404.72 816.812L1392.19 832.812L1361.78 795.906L1307.75 793.281L1346.69 739L1380.75 768.906C1380.75 768.906 1381.38 766.818 1381.44 766.625C1381.88 765.138 1386.65 750.089 1390.31 738.438C1393.09 729.683 1396.37 719.549 1400.44 707.25C1403.11 699.179 1405.73 691.244 1408.97 681.75C1409.89 679.034 1410.81 676.352 1411.78 673.531C1417.68 656.375 1424.29 637.492 1431.84 616.688C1442.39 587.621 1454.41 555.655 1467.91 521.562C1467.09 519.505 1466.21 517.534 1465.38 515.5C1462.91 509.47 1460.39 503.541 1457.81 497.719C1455.23 491.889 1452.62 486.155 1449.94 480.531C1447.26 474.912 1444.53 469.384 1441.75 463.969C1438.97 458.554 1436.13 453.245 1433.25 448.031C1420.61 425.135 1407.07 404.149 1392.75 385C1392.64 384.857 1392.54 384.705 1392.44 384.562C1392.37 384.478 1392.31 384.397 1392.25 384.312C1386.72 376.942 1381.09 369.866 1375.34 363.031C1375.32 363.009 1375.3 362.991 1375.28 362.969C1375.25 362.934 1375.22 362.909 1375.19 362.875C1287.75 258.949 1176.37 216.226 1073.19 213.531C1066.33 213.352 1059.52 213.361 1052.75 213.531Z" fill="none" filter="url(#Filter_2)" opacity="0.424419" stroke="#ececff" stroke-linecap="butt" stroke-linejoin="round" stroke-width="123.452" vectornator:blendMode="screen" vectornator:blur="100" vectornator:layerName="Curve 3"/>
</g>
</svg>
