<?xml version="1.0" encoding="UTF-8" standalone="no"?>
<!DOCTYPE svg PUBLIC "-//W3C//DTD SVG 1.1//EN" "http://www.w3.org/Graphics/SVG/1.1/DTD/svg11.dtd">
<!-- Created with Vectornator (http://vectornator.io/) -->
<svg height="100%" stroke-miterlimit="10" style="fill-rule:nonzero;clip-rule:evenodd;stroke-linecap:round;stroke-linejoin:round;" version="1.1" viewBox="0 0 2000 2912.22" width="100%" xml:space="preserve" xmlns="http://www.w3.org/2000/svg" xmlns:vectornator="http://vectornator.io" xmlns:xlink="http://www.w3.org/1999/xlink">
<defs>
<path d="M1114.71 562.357L1136.44 641.627L1122.01 711.729L1098.05 639.271L1114.71 562.357ZM1080.8 812.897C1075.08 812.31 1066.92 832.17 1063.75 837.15C1059.51 843.811 1013.08 894.405 1014.93 896.495C1028.81 912.222 1061.01 935.356 1089.96 973.796C1224.63 1152.58 1265.24 1319.5 1266.22 1318.76C1270.95 1315.21 1266.67 1295.68 1266.67 1290.21C1266.67 1262.58 1246.36 1216.42 1238.79 1188.68C1213.24 1094.97 1189.04 1000.1 1150.82 910.939C1140.39 886.58 1120.54 841.216 1106.84 809.873C1101.59 802.224 1087.69 813.604 1080.8 812.897ZM956.519 811.824C906.061 822.847 874.255 895.824 847.017 946.209C844.627 950.629 835.604 983.562 835.746 983.99C835.95 984.6 848.9 989.283 849.028 989.155C853.677 984.506 854.668 975.239 858.621 969.97C862.286 965.083 876.621 960.19 882.99 957.642C892.394 953.881 904.727 947.749 912.487 941.93C919.973 936.315 931.464 930.476 939.731 927.169C957.686 919.987 970.905 907.771 990.703 902.822C992.221 902.442 992.526 903.686 992.916 901.346C994.69 890.704 976.961 833.258 968.159 826.657C964.384 823.825 960.187 811.023 956.519 811.824ZM1019.93 510.345C1024.36 510.345 1041.93 528.933 1047.46 532.738C1068.53 547.22 1090.25 554.926 1109.23 559.575C1129.39 564.511 1146.48 566.002 1156.46 568.498C1237.38 577.785 1241.43 532.423 1292.75 430.627C1294.43 427.273 1296.54 423.51 1298.92 419.532C1312.69 396.565 1335.59 366.42 1336.94 366.42C1337 366.42 1340.69 376.75 1349.46 386.801C1378.21 408.375 1401.58 442.941 1404.84 448.371C1405.85 450.058 1411.87 409.641 1413.92 402.453C1416.31 332.175 1391.84 296.788 1347.37 252.316C1271.53 169.887 1204.85 178.657 1100.91 238.408C1087.58 246.071 1040.99 279.135 1016.13 317.62C1012.94 322.56 997.551 397.693 1003.75 451.561C1006.14 472.355 1020.26 510.307 1018.65 512.238" id="Fill"/>
<path d="M1019.02 512.958C1014.59 512.958 997.024 531.546 991.488 535.352C948.049 565.208 901.873 566.265 882.489 571.111C801.573 580.398 797.519 535.036 746.197 433.24C744.521 429.887 742.41 426.124 740.026 422.145C726.261 399.178 703.363 369.033 702.013 369.033C701.951 369.033 698.259 379.364 689.494 389.414C660.738 410.988 637.368 445.554 634.11 450.984C633.098 452.671 627.085 412.254 625.031 405.066C622.638 334.788 647.111 299.401 691.583 254.929C767.419 172.5 834.104 181.271 938.042 241.021C951.373 248.684 997.961 281.748 1022.82 320.233C1026.01 325.174 1041.4 400.307 1035.2 454.174C1032.81 474.968 1018.69 512.92 1020.3 514.852" id="Fill_2"/>
<path d="M920.949 805.009C878.974 810.703 833.2 828.879 833.2 828.879L924.539 851.778L934.324 912.101L1011.79 873.143L1089.62 924.13L1106.23 856.536L1196.31 866.231C1196.31 866.231 1165.19 829.821 1125.35 804.022C1013.77 848.457 970.191 815.073 920.949 805.009Z" id="Fill_3"/>
<path d="M323.973 2220.37L323.973 2351.71L95.6291 2351.71L165.317 2483.02L95.6291 2582.15L444.004 2582.15L444.004 2483.02L1578.38 2483.02L1578.38 2582.15L1926.75 2582.15L1857.07 2483.02L1926.75 2351.71L1701.32 2351.71L1701.32 2220.37L323.973 2220.37Z" id="Fill_4"/>
<path d="M891.965 1188.55C886.149 1190.71 858.842 1197.26 852.835 1199.5C846.728 1201.77 815.944 1199.99 801.272 1197.81C797.533 1197.25 792.798 1196.72 789.491 1199.39C785.84 1202.33 788.622 1213.62 787.02 1217.98C782.861 1229.3 779.569 1237.9 780.631 1249.65C781.546 1259.76 777.573 1273.74 776.466 1284.04C773.927 1307.62 774.614 1331.45 772.119 1354.63C771.968 1356.04 769.036 1374.74 770.404 1374.89C770.572 1374.9 781.713 1357.74 784.008 1356.38C797.241 1348.51 803.402 1332.61 813.773 1321.49C817.001 1318.03 822.129 1317.28 825.683 1314.41C831.046 1310.09 833.554 1302.59 838.171 1297.64C847.601 1287.54 860.131 1280.79 870.621 1272.34C875.106 1268.72 878.617 1265.12 883.175 1261.45C890.456 1255.58 897.955 1251.56 905.177 1245.75C910.763 1241.25 921.113 1239.72 923.815 1235.51C927.504 1229.76 926.209 1210.55 926.001 1204.56C925.56 1191.83 927.701 1186.39 929.875 1173.94C930.95 1167.78 931.367 1174.2 930.388 1167.14C930.158 1165.48 914.464 1180.17 891.965 1188.55ZM1161.71 1075.14C1157.1 1116.46 1158.71 1162.6 1146.13 1202.59C1142.34 1214.67 1138.18 1223.83 1132.86 1245.75C1154.4 1258.16 1188.6 1287.18 1195.9 1294.43C1205.03 1303.49 1215.03 1312.18 1223.96 1321.05C1238.03 1335.02 1251.8 1350.92 1264.15 1366.25C1268.17 1371.24 1272.7 1378.4 1273.29 1384.88C1273.61 1388.42 1274.91 1382.66 1274.7 1380.39C1273.47 1366.72 1273.18 1349.76 1269.51 1336.26C1259.54 1299.57 1253.19 1272.47 1238.62 1241.99C1234.31 1232.96 1215 1176.58 1205.76 1162.1C1200.5 1153.84 1200.11 1144.05 1195.63 1135.46C1192.34 1129.16 1179.8 1105.05 1176.9 1100.7C1173.15 1095.07 1162.32 1078.75 1162.02 1076.57C1161.86 1075.46 1161.41 1072.13 1161.45 1073.25C1161.5 1074.82 1161.84 1073.91 1161.71 1075.14Z" id="Fill_5"/>
</defs>
<g id="Layer-2" vectornator:layerName="Layer 2">
<path d="M690.972 1711.99C690.972 1545.51 826.415 1410.54 993.491 1410.54C1160.57 1410.54 1296.01 1545.51 1296.01 1711.99C1296.01 1878.48 1160.57 2013.44 993.491 2013.44C826.415 2013.44 690.972 1878.48 690.972 1711.99Z" fill="#fee483" fill-rule="nonzero" opacity="1" stroke="none" vectornator:layerName="Oval 3"/>
<path d="M805.613 1472.63C824.536 1460.24 862.043 1438.55 871.226 1436.32C907.225 1427.56 984.125 1467.13 984.125 1467.13C984.125 1467.13 1068.6 1425.36 1120.76 1439.99C1134.29 1444.74 1165.48 1457.6 1170.08 1468.77C1092.74 1457.61 1056.25 1455.17 983.547 1463.45C916.195 1457.76 898.706 1449.51 805.613 1472.63Z" fill="#fe8388" fill-rule="nonzero" opacity="1" stroke="none" vectornator:layerName="Oval 6"/>
<path d="M936.604 1415C963.772 1406.3 1010.85 1409.2 1040.55 1414.99C1024.25 1429.48 995.995 1446.15 986.215 1459.55C969.552 1441.08 960.883 1423.58 936.604 1415Z" fill="#fe8388" fill-rule="nonzero" opacity="1" stroke="none" vectornator:layerName="Curve 32"/>
<path d="M690.972 1737.2C674.685 1585.51 826.415 1460.96 993.491 1460.96C1160.57 1460.96 1314.36 1585.74 1296.01 1737.2C1286.73 1813.75 1260.15 1866.27 1216.92 1914.05C1161.43 1975.36 1087.4 2013.44 993.491 2013.44C903.843 2013.44 821.765 1977.79 771.86 1916.32C727.121 1861.21 698.448 1806.83 690.972 1737.2Z" fill="#fe8388" fill-rule="nonzero" opacity="1" stroke="none" vectornator:layerName="Oval 2"/>
<path d="M799.661 1737.2C789.328 1585.51 885.593 1460.96 991.596 1460.96C1097.6 1460.96 1195.17 1585.74 1183.53 1737.2C1177.64 1813.75 1160.78 1866.27 1133.35 1914.05C1098.14 1975.36 1051.18 2013.44 991.596 2013.44C934.718 2013.44 882.643 1977.79 850.981 1916.32C822.596 1861.21 804.404 1806.83 799.661 1737.2Z" fill="#fee483" fill-rule="nonzero" opacity="1" stroke="none" vectornator:layerName="Oval 4"/>
<path d="M918.686 1737.2C915.073 1585.51 948.738 1460.96 985.809 1460.96C1022.88 1460.96 1057 1585.74 1052.93 1737.2C1050.87 1813.75 1044.98 1866.27 1035.38 1914.05C1023.07 1975.36 1006.65 2013.44 985.809 2013.44C965.918 2013.44 947.707 1977.79 936.634 1916.32C926.707 1861.21 920.345 1806.83 918.686 1737.2Z" fill="#fe8388" fill-rule="nonzero" opacity="1" stroke="none" vectornator:layerName="Oval 5"/>
<path d="M690.972 1711.99C690.972 1545.51 826.415 1410.54 993.491 1410.54C1160.57 1410.54 1296.01 1545.51 1296.01 1711.99C1296.01 1878.48 1160.57 2013.44 993.491 2013.44C826.415 2013.44 690.972 1878.48 690.972 1711.99Z" fill="none" opacity="1" stroke="#000000" stroke-linecap="round" stroke-linejoin="round" stroke-width="6.68076" vectornator:layerName="Oval 1"/>
<path d="M831.302 986.885C828.491 981.262 776.568 982.23 746.18 1005.03C714.099 1029.1 693.914 1064.42 694.961 1132.95C685.387 1123.27 655.562 1089.6 632.111 1077.97C620.356 1072.14 610.623 1074.79 605.002 1082.88C599.596 1090.65 592.424 1090.77 597.047 1121.62C629.498 1173.36 686.064 1226.47 708.104 1254.62C742.135 1264.04 757.835 1239.36 752 1201.34C775.716 1194.03 817.767 1197.87 853.539 1194.42C876.71 1188.1 909.972 1178.94 933.812 1148.47C939.783 1154.44 913.511 1303.23 1012.65 1358.68C1028.42 1374.22 871.853 1513.65 979.449 1505.95C1011.56 1503.65 1084.41 1384.12 1064.25 1342.57C1145.93 1274.75 1163.35 1135.92 1153.79 1025.62C1153.79 995.376 1105.69 900.069 1126.78 878.975C1152.12 853.642 1277.85 820.657 1326.89 781.316C1322.97 770.357 1315.46 772.303 1294.67 765.068C1271.76 765.907 1274.78 772.854 1233.2 782.002C1191.63 791.15 1151.91 794.42 1119.55 807.001C1144.71 788.443 1161.65 800.992 1211.67 734.672C1228.64 701.28 1224.23 660.681 1216.64 637.098C1259.59 674.847 1320.98 728.121 1370.28 717.405C1349.29 693.116 1294.64 506.359 1252.82 491.401C1155.22 410.069 934.933 406.547 800.504 502.716C760.424 531.388 754.84 550.503 721.969 638.928C700.417 734.068 691.591 692.536 689.079 722.803C717.904 761.513 824.558 657.811 838.371 636.161C840.056 633.522 801.611 679.033 816.219 728.765C862.087 812.107 946.893 804.295 936.669 811.364C918.597 823.859 784.886 856.23 784.886 856.23C784.886 856.23 763.529 856.441 742.619 861.991C725.892 866.43 709.451 874.286 704.459 888.184C692.509 923.216 905.807 886.786 905.807 900.464C905.807 900.754 826.483 946.068 835.728 992.295" fill="#ffffff" fill-rule="nonzero" opacity="1" stroke="none" vectornator:layerName="Curve 31"/>
<path d="M994.775 678.81C993.818 679.12 992.765 678.394 991.769 678.536C991.365 678.594 992.636 678.744 992.862 679.083C993.357 679.825 993.268 682.065 993.409 682.91C993.941 686.102 994.572 689.68 995.595 692.75C999.637 704.874 997.549 721.255 1012.54 725.004C1015.37 725.711 1019.79 726.4 1022.38 724.457C1024.64 722.767 1025.75 719.322 1026.76 716.803C1027.88 713.991 1030.4 711.536 1031.13 708.603C1032.55 702.914 1033.43 696.888 1036.05 691.656C1037.2 689.362 1040.99 681.033 1039.33 678.536C1037.57 675.899 1030.99 676.998 1028.4 676.35C1024.69 675.422 1018.93 670.883 1015.28 670.883C1011.88 670.883 996.771 678.163 994.775 678.81Z" fill="#ffbec1" fill-rule="nonzero" opacity="1" stroke="none" vectornator:layerName="Curve 27"/>
<path d="M921.39 551.54L946.023 640.487L931.593 710.588L907.634 638.131L921.39 551.54Z" fill="#8387fe" fill-rule="nonzero" opacity="1" stroke="none" vectornator:layerName="Curve 19"/>
<path d="M579.427 509.319C582.072 495.567 678.833 496.494 679.362 509.188C679.89 521.881 605.46 570.976 593.824 562.25C582.188 553.523 613.779 472.694 632.819 474.281C651.859 475.868 679.362 555.995 668.784 564.192C658.206 572.39 576.783 523.07 579.427 509.319ZM1459.76 507.642C1457.12 493.891 1360.36 494.818 1359.83 507.511C1359.3 520.205 1433.73 569.3 1445.37 560.573C1457 551.846 1425.41 471.018 1406.37 472.604C1387.33 474.191 1359.83 554.318 1370.41 562.516C1380.99 570.714 1462.41 521.393 1459.76 507.642Z" fill="#fee483" fill-rule="nonzero" opacity="1" stroke="none" vectornator:layerName="Curve 29"/>
<g opacity="1" vectornator:layerName="Group 5">
<use fill="#fe8388" fill-rule="nonzero" opacity="1" stroke="none" vectornator:layerName="Curve 30" xlink:href="#Fill"/>
<clipPath clip-rule="nonzero" id="ClipPath">
<use xlink:href="#Fill"/>
</clipPath>
<g clip-path="url(#ClipPath)">
<path d="M1088.81 290.552C1088.81 265.578 1109.64 245.334 1135.33 245.334C1161.03 245.334 1181.86 265.578 1181.86 290.552C1181.86 315.525 1161.03 335.77 1135.33 335.77C1109.64 335.77 1088.81 315.525 1088.81 290.552ZM1311.62 348.876C1311.62 324.265 1331.28 304.314 1355.53 304.314C1379.78 304.314 1399.43 324.265 1399.43 348.876C1399.43 373.487 1379.78 393.439 1355.53 393.439C1331.28 393.439 1311.62 373.487 1311.62 348.876ZM1235.6 217.81C1235.6 196.094 1254.08 178.49 1276.89 178.49C1299.69 178.49 1318.17 196.094 1318.17 217.81C1318.17 239.526 1299.69 257.13 1276.89 257.13C1254.08 257.13 1235.6 239.526 1235.6 217.81ZM1180.55 425.55C1180.55 399.853 1201.68 379.021 1227.74 379.021C1253.8 379.021 1274.92 399.853 1274.92 425.55C1274.92 451.247 1253.8 472.079 1227.74 472.079C1201.68 472.079 1180.55 451.247 1180.55 425.55ZM955.998 421.574C955.998 394.429 978.296 372.424 1005.8 372.424C1033.31 372.424 1055.61 394.429 1055.61 421.574C1055.61 448.718 1033.31 470.724 1005.8 470.724C978.296 470.724 955.998 448.718 955.998 421.574ZM1075.14 549.668C1076.16 526.519 1096.69 504.845 1124.19 504.845C1151.7 504.845 1174 526.264 1174 552.684C1174 579.105 1160.12 571.012 1129.36 568.26C1104.32 563.722 1088.48 555.176 1075.14 549.668Z" fill="#ffffff" fill-rule="nonzero" opacity="1" stroke="none" vectornator:layerName="Curve 31"/>
</g>
</g>
<g opacity="1" vectornator:layerName="Group 3">
<use fill="#9a9dff" fill-rule="nonzero" opacity="1" stroke="none" vectornator:layerName="Curve 23" xlink:href="#Fill_2"/>
<clipPath clip-rule="nonzero" id="ClipPath_2">
<use xlink:href="#Fill_2"/>
</clipPath>
<g clip-path="url(#ClipPath_2)">
<path d="M596.693 303.685C704.134 220.58 736.225 158.098 812.413 186.95C968.873 269.297 1066.18 450.474 1108.34 619.105M590.819 374.373C583.038 374.373 721.12 216.766 785.415 275.502C903.633 346.299 997.741 558.724 1027.76 708.837M641.166 516.574C631.252 506.66 661.207 332.574 756.623 375.363C797.483 393.687 872.322 500.452 908.732 635.587C916.082 662.866 911.534 711.639 932.538 732.643" fill="none" opacity="1" stroke="#000000" stroke-linecap="round" stroke-linejoin="round" stroke-width="52.0653" vectornator:layerName="Curve 25"/>
</g>
</g>
<path d="M991.991 676.177C996.258 676.354 1006.29 677.728 1015.93 668.177C1019.9 675.895 1034.33 675.731 1040.6 677.511C1029.48 751.357 997.521 740.565 991.991 676.177ZM894.388 635.396C894.283 635.061 893.462 634.768 893.741 634.526C896.721 631.949 900.019 629.659 903.439 627.568C904.958 626.639 909.581 625.006 911.843 624.668C924.154 622.828 941.689 629.983 949.987 637.426C951.245 638.554 958.42 647.826 957.099 649.604C953.313 654.698 931.656 640.678 925.42 639.745C917.957 638.63 910.705 636.412 902.792 637.426C901.214 637.628 893.184 639.245 891.802 638.006C890.469 636.811 894.961 637.229 894.388 635.396ZM899.56 633.947C905.597 632.141 909.236 629.775 915.076 628.727C916.771 628.423 918.649 628.285 920.248 627.568C921.066 627.201 923.005 626.195 922.188 625.828C921.373 625.463 909.885 629.893 907.964 630.467C906.339 630.953 904.962 631.524 903.439 632.207C903.008 632.4 901.715 632.593 902.146 632.787C904.703 633.934 910.562 631.432 913.136 631.047C918.078 630.308 924.051 630.831 928.653 632.207C929.557 632.477 935.118 633.46 935.118 635.106C935.118 636.282 932.549 635.686 931.239 635.686C927.484 635.686 923.802 635.589 920.248 634.526C919.147 634.197 918.141 633.619 917.015 633.367C916.597 633.273 915.337 633.539 915.722 633.367C922.518 630.319 935.032 637.677 940.936 640.325C941.64 640.641 949.327 643.817 948.048 644.964C947.159 645.761 945.893 643.805 944.815 643.225C943.857 642.709 937.057 637.738 937.057 636.846C937.057 636.563 940.918 639.152 940.936 639.166C943.461 641.053 945.717 642.874 948.048 644.964C949.682 646.43 949.068 645.635 949.987 647.284C950.203 647.671 951.065 648.637 950.634 648.444C946.103 646.412 942.711 639.706 939.643 636.266C938.73 635.242 937.376 634.232 936.411 633.367C936.07 633.061 934.777 632.481 935.118 632.787C940.059 637.219 945.754 641.168 950.634 645.544M1083.61 645.868C1087.62 643.861 1090.51 640.122 1093.95 637.249C1102.06 630.491 1113.21 625.758 1123.83 625.758C1127.31 625.758 1149.91 637.487 1146.24 642.995C1145.24 644.498 1138.7 643.57 1137.05 643.57C1129.74 643.57 1122.69 641.748 1115.21 642.995C1105.73 644.576 1096.97 650.32 1087.63 652.188C1086.17 652.481 1080.78 653.968 1079.59 652.188C1076.94 648.215 1086 642.328 1088.21 640.122C1098.2 630.13 1116.73 629.509 1129.58 632.078C1132.9 632.744 1138.41 635.958 1139.92 638.973C1140.3 639.739 1141.88 641 1141.07 641.271C1139.87 641.671 1136.58 640.332 1135.32 640.122C1126.44 638.643 1116.17 637.498 1107.17 638.398C1101.85 638.93 1097.86 641.904 1093.38 644.144C1092.23 644.719 1091.08 645.293 1089.93 645.868C1089.16 646.251 1087.03 647.623 1087.63 647.017C1090.02 644.627 1093.32 643.312 1096.25 641.846C1098.57 640.684 1100.74 639.467 1103.15 638.398C1103.59 638.2 1112.34 634.627 1112.34 635.526C1112.34 636.04 1107.21 638.029 1106.59 638.398C1101.67 641.354 1096.53 644.262 1091.08 646.442C1089.52 647.068 1085.92 649.894 1084.18 648.741C1083.87 648.528 1083.91 647.862 1084.18 647.592C1085.97 645.811 1098.56 643.405 1101.42 642.995C1102.95 642.777 1106.02 642.025 1106.02 643.57C1106.02 645.48 1092.61 648.166 1090.51 648.166C1089.93 648.166 1089.04 648.68 1088.78 648.166C1088.3 647.197 1090.23 646.545 1091.08 645.868C1094.54 643.103 1098.68 641.495 1102.57 639.548C1110.59 635.537 1121.98 633.339 1130.72 635.526C1133.8 636.295 1138.02 639.748 1141.07 641.271M1021.44 510.58C980.774 554.558 912.61 574.264 861.603 570.864C780.216 565.438 794.297 506.755 742.577 426.545C720.555 392.392 700.672 355.992 699.092 369.917C696.164 395.709 645.133 412.467 635.382 453.391C616.192 386.162 628.527 328.559 658.24 292.338C696.159 246.112 757.135 177.744 827.36 195.131C914.113 216.609 986.775 264.038 1025.92 326.392M1021.57 510.393C1062.53 553.032 1127.44 573.576 1177.34 570.249C1258.73 564.823 1244.65 506.141 1296.37 425.93C1318.39 391.777 1338.27 355.378 1339.85 369.303C1342.78 395.094 1393.81 411.853 1403.56 452.777C1422.75 385.547 1410.42 327.945 1380.7 291.723C1342.78 245.498 1281.81 177.13 1211.58 194.516C1129.23 214.906 1059.57 256.65 1019.23 316.259M960.343 813.826C856.974 799.179 776.852 741.976 831.568 643.042M1220.61 635.986C1221.97 651.668 1224.01 679.044 1221.98 697.897C1213.93 772.577 1145.5 802.533 1078.68 813.184M695.201 1136.22C684.987 1019 771.865 967.031 846.878 989.324C854.128 982.173 851.178 980.002 858.956 969.097M694.218 1239.63C642.491 1168.17 589.974 1130.83 594.42 1104.73C604.402 1046.12 659.613 1076.42 723.008 1176.57M932.198 1164.73C904.052 1295.33 953.853 1302.31 1005.59 1354.46M1013.76 1360.78C982.213 1426.76 945.141 1456.58 939.265 1489.12C950.706 1521.04 1008.95 1528.7 1064.05 1390.82C1075.49 1360.78 1064.54 1364.4 1064.54 1339.85C1125.81 1288.97 1160.91 1191.83 1158.6 1069.45M697.637 1243.44C707.866 1261.32 745.232 1265.29 752.172 1230.94C751.878 1211.14 745.24 1206.23 761.618 1198.47C791.84 1193.71 858.141 1216 932.954 1166.36M1094.83 810.567C1120.27 805.35 1175.24 789.88 1230.94 781.839C1268.95 768.582 1297.55 758.751 1310.35 769.689C1330.47 779.295 1338.66 790.926 1223.92 832.046C1194.07 844.596 1176.39 857.463 1134.62 873.216M1261.84 494.486C1317.52 564.097 1347.43 693.304 1361.91 705.295C1410.81 745.819 1226.74 709.713 1189.51 570.456M878.015 570.646C795.571 734.297 660.264 752.815 694.412 707.95C719.157 687.242 724.654 590.573 785.223 513.459M1128.87 1247.47C1165.39 1261.52 1244.23 1327.98 1278.18 1395.38C1266.29 1279.37 1169.19 1020.62 1015.75 896.961C1021.05 890.38 1025.86 884.27 1030.23 878.603M850.057 973.842C887.4 956.809 949.191 922.113 994.936 898.526C992.816 892.468 993.644 894.228 991.68 888.297M788.913 1199.02C778.978 1245.99 773.886 1297.35 770.574 1377.05C833.495 1292.38 877.705 1256.27 924.067 1237.46M866.309 835.874C841.036 841.324 820.415 846.867 788.137 856.675C748.09 860.806 718.022 864.044 711.076 879.379C696.935 896.618 694.454 910.626 815.805 899.155C837.521 898.279 849.889 897.876 873.979 897.196M906.043 847.505C873.24 888.431 843.384 953.304 834.323 980.488M1126.84 854.628C1196.54 1022.66 1274.02 1266.43 1276.35 1392.21" fill="none" opacity="1" stroke="#000000" stroke-linecap="round" stroke-linejoin="round" stroke-width="6.68076" vectornator:layerName="Curve 14"/>
<g opacity="1" vectornator:layerName="Group 4">
<use fill="#000000" fill-rule="nonzero" opacity="1" stroke="#000000" stroke-linecap="round" stroke-linejoin="round" stroke-width="6.68076" vectornator:layerName="Curve 25" xlink:href="#Fill_3"/>
<clipPath clip-rule="nonzero" id="ClipPath_3">
<use xlink:href="#Fill_3"/>
</clipPath>
<g clip-path="url(#ClipPath_3)">
<path d="M854.105 818.162L939.723 838.645L947.17 885.686L1013.83 856.899L1082 901.557L1097.42 839.109L1192.7 854.313" fill="none" opacity="1" stroke="#fee483" stroke-linecap="butt" stroke-linejoin="round" stroke-width="6.68076" vectornator:layerName="Curve 27"/>
</g>
</g>
<g opacity="1" vectornator:layerName="Group 2">
<g opacity="1" vectornator:layerName="Group 2">
<use fill="#9a9dff" fill-rule="nonzero" opacity="1" stroke="none" vectornator:layerName="Curve 1" xlink:href="#Fill_4"/>
<clipPath clip-rule="nonzero" id="ClipPath_4">
<use xlink:href="#Fill_4"/>
</clipPath>
<g clip-path="url(#ClipPath_4)">
<path d="M2004.78 2644.36C1999.79 2649.35 1996.69 2656.27 1991 2660.44C1982.42 2666.74 1973.18 2672.26 1963.43 2676.53C1952.64 2681.25 1929.55 2677.62 1917.48 2678.82C1905.74 2680 1896.41 2684.99 1885.32 2688.01C1869.73 2692.26 1852.88 2691.94 1837.07 2694.9C1784.03 2704.85 1731.85 2720.95 1678.55 2729.37C1625.43 2737.75 1571.03 2731.45 1517.73 2740.85C1498.21 2744.3 1479.53 2750.06 1460.3 2754.64C1426.7 2762.64 1391.15 2766.77 1356.91 2770.72C1326.17 2774.27 1295.8 2771.88 1265.02 2773.02C1209.26 2775.08 1153.17 2777.12 1097.31 2775.31C1048.59 2773.74 1001.08 2762.36 952.572 2759.23C882.927 2754.74 813.086 2756.89 743.508 2761.53C663.801 2766.84 583.812 2768.47 504.579 2777.61C475.317 2780.99 446.507 2787.74 417.277 2791.4C402.061 2793.3 386.643 2792.89 371.329 2793.69C306.72 2797.09 242.698 2799.33 180.645 2777.61C149.211 2766.61 116.501 2753.72 91.0462 2731.66C26.255 2675.51-2.03517 2593.01-14.6343 2511.11C-19.2518 2481.1-22.1778 2449.69-19.2291 2419.22C-5.85316 2281 78.1012 2154.04 192.132 2076.9C251.04 2037.05 318.764 2011.68 385.114 1987.31C446.493 1964.76 507.85 1943.96 571.203 1927.57C794.295 1869.88 1024.78 1870.14 1253.53 1870.14C1404.43 1870.14 1555.66 1863.14 1703.82 1897.71C1804.44 1921.18 1890.2 1965.38 1977.21 2019.47C2027.84 2050.94 2077.26 2085.62 2121.95 2125.15C2171.12 2168.65 2212.42 2214.99 2248.31 2269.89C2259.58 2287.12 2273.85 2309.74 2280.47 2329.62C2290.39 2359.37 2295.44 2394.84 2296.55 2426.11C2297.35 2448.42 2297.43 2470.86 2291.96 2492.73C2283.57 2526.27 2265.47 2561 2246.01 2589.22C2221.3 2625.06 2192.74 2662.79 2161.01 2692.61C2147.93 2704.89 2133.13 2715.22 2119.65 2727.07C2107.85 2737.44 2097.35 2749.28 2085.19 2759.23C2059.7 2780.09 2031.46 2797.35 2004.78 2816.67C1987.78 2828.98 1968.02 2846.81 1947.35 2853.43C1938.56 2856.24 1928.97 2854.96 1919.78 2855.72" fill="#9a9dff" fill-rule="nonzero" opacity="1" stroke="none" vectornator:layerName="Curve 2"/>
<path d="M2917.05 156.354C2920.9 154.427 2924.76 152.499 2928.61 150.572" fill="#bcbefd" fill-rule="nonzero" opacity="1" stroke="none" vectornator:blendMode="screen" vectornator:layerName="Curve 3"/>
<path d="M93.5747 2490.42L319.289 2490.42L319.289 2635.22L93.5747 2635.22L93.5747 2490.42Z" fill="#000000" fill-rule="nonzero" opacity="1" stroke="none" vectornator:layerName="Rectangle 9"/>
<path d="M1478.52 2482.68L1704.24 2482.68L1704.24 2627.48L1478.52 2627.48L1478.52 2482.68Z" fill="#000000" fill-rule="nonzero" opacity="1" stroke="none" vectornator:layerName="Rectangle 8"/>
<path d="M1700.79 2346.99L1926.5 2346.99L1926.5 2491.79L1700.79 2491.79L1700.79 2346.99Z" fill="#000000" fill-rule="nonzero" opacity="1" stroke="none" vectornator:layerName="Rectangle 7"/>
<path d="M1459.83 2199.94L1702.87 2199.94L1702.87 2340.62L1459.83 2340.62L1459.83 2199.94Z" fill="#000000" fill-rule="nonzero" opacity="1" stroke="none" vectornator:layerName="Rectangle 6"/>
<path d="M1229.81 2342.34L1455.52 2342.34L1455.52 2483.01L1229.81 2483.01L1229.81 2342.34Z" fill="#000000" fill-rule="nonzero" opacity="1" stroke="none" vectornator:layerName="Rectangle 5"/>
<path d="M1001.56 2201.67L1227.28 2201.67L1227.28 2342.34L1001.56 2342.34L1001.56 2201.67Z" fill="#000000" fill-rule="nonzero" opacity="1" stroke="none" vectornator:layerName="Rectangle 4"/>
<path d="M775.848 2342.34L1001.56 2342.34L1001.56 2483.01L775.848 2483.01L775.848 2342.34Z" fill="#000000" fill-rule="nonzero" opacity="1" stroke="none" vectornator:layerName="Rectangle 3"/>
<path d="M550.134 2199.94L775.848 2199.94L775.848 2340.62L550.134 2340.62L550.134 2199.94Z" fill="#000000" fill-rule="nonzero" opacity="1" stroke="none" vectornator:layerName="Rectangle 2"/>
<path d="M324.42 2340.62L550.134 2340.62L550.134 2481.29L324.42 2481.29L324.42 2340.62Z" fill="#000000" fill-rule="nonzero" opacity="1" stroke="none" vectornator:layerName="Rectangle 1"/>
</g>
</g>
<g opacity="1" vectornator:layerName="Group 3">
<path d="M95.6337 2351.7L322.866 2351.7L324.252 2483.01L444.006 2481.67L444.006 2582.14L95.6337 2582.14L165.308 2483.01L95.6337 2351.7Z" fill="none" opacity="1" stroke="#000000" stroke-linecap="butt" stroke-linejoin="round" stroke-width="4.90982" vectornator:layerName="Rectangle 2"/>
<path d="M1926.75 2351.7L1700.55 2351.7L1701.48 2483.01L1578.38 2482.79L1578.38 2582.14L1926.75 2582.14L1857.07 2483.01L1926.75 2351.7Z" fill="none" opacity="1" stroke="#000000" stroke-linecap="butt" stroke-linejoin="round" stroke-width="4.90982" vectornator:layerName="Rectangle 4"/>
<path d="M323.977 2220.38L1701.32 2220.38L1701.32 2483.01L323.977 2483.01L323.977 2220.38Z" fill="none" opacity="1" stroke="#000000" stroke-linecap="butt" stroke-linejoin="round" stroke-width="4.90982" vectornator:layerName="Rectangle 1"/>
<path d="M323.977 2483.01L444.006 2483.01L444.006 2582.14L323.977 2483.01Z" fill="none" opacity="1" stroke="#000000" stroke-linecap="butt" stroke-linejoin="round" stroke-width="4.90982" vectornator:layerName="Rectangle 3"/>
<path d="M1701.19 2483.01L1578.38 2483.01L1578.38 2582.14L1701.19 2483.01Z" fill="none" opacity="1" stroke="#000000" stroke-linecap="butt" stroke-linejoin="round" stroke-width="4.90982" vectornator:layerName="Rectangle 5"/>
</g>
<g fill="#ffffff" opacity="1" stroke="none" vectornator:layerName="Text 1">
<path d="M521.569 2367.87C523.418 2366.02 525.527 2364.95 527.896 2364.66C530.265 2364.38 532.432 2364.69 534.396 2365.62C536.361 2366.54 537.892 2368.02 538.99 2370.04C540.088 2372.06 540.348 2374.46 539.77 2377.23C539.077 2380.01 537.748 2382.58 535.783 2384.95C533.818 2387.31 531.854 2389.48 529.889 2391.45C525.382 2396.18 520.384 2399.68 514.895 2401.93C509.406 2404.19 503.859 2405.26 498.254 2405.14C492.65 2405.02 487.16 2403.7 481.787 2401.15C476.413 2398.61 471.588 2394.8 467.313 2389.71C464.77 2386.71 462.632 2383.53 460.899 2380.18C459.165 2376.83 457.836 2373.3 456.912 2369.6C455.525 2364.17 454.89 2358.51 455.005 2352.62C455.121 2346.72 456.045 2341 457.779 2335.46C459.512 2329.91 461.968 2324.68 465.146 2319.77C468.324 2314.86 472.224 2310.67 476.846 2307.2C480.198 2304.66 483.578 2302.46 486.987 2300.61C490.396 2298.77 494.007 2297.03 497.821 2295.41C500.017 2294.49 502.27 2293.59 504.581 2292.73C506.893 2291.86 509.262 2291.2 511.688 2290.73C514.115 2290.27 516.542 2290.1 518.969 2290.21C521.396 2290.33 523.765 2290.85 526.076 2291.77C527.694 2292.47 529.312 2293.42 530.929 2294.63C532.547 2295.85 534.05 2297.23 535.436 2298.79C536.823 2300.35 538.037 2302 539.077 2303.73C540.117 2305.47 540.868 2307.14 541.33 2308.76C541.677 2310.26 541.763 2311.8 541.59 2313.36C541.417 2314.92 540.954 2316.33 540.203 2317.6C539.452 2318.87 538.441 2319.94 537.17 2320.81C535.899 2321.68 534.454 2322.22 532.836 2322.46C530.178 2322.8 528.127 2322.51 526.683 2321.59C525.238 2320.66 524.082 2319.51 523.216 2318.12C522.349 2316.74 521.511 2315.38 520.702 2314.05C519.893 2312.72 518.738 2311.77 517.235 2311.19C516.311 2311.19 515.617 2311.25 515.155 2311.36C511.226 2312.4 507.268 2313.82 503.281 2315.61C499.294 2317.4 495.596 2319.57 492.187 2322.11C488.778 2324.65 485.802 2327.6 483.26 2330.95C480.718 2334.3 478.869 2338.06 477.713 2342.22C476.326 2347.19 475.806 2352.21 476.153 2357.3C476.5 2362.38 477.886 2367.18 480.313 2371.69C481.7 2374.34 483.549 2376.65 485.86 2378.62C488.171 2380.58 490.714 2382.06 493.487 2383.04C496.261 2384.02 499.092 2384.37 501.981 2384.08C504.87 2383.79 507.644 2382.78 510.302 2381.05C512.613 2379.43 514.693 2377.43 516.542 2375.07C518.391 2372.7 520.067 2370.3 521.569 2367.87Z"/>
<path d="M618.468 2381.57C621.126 2382.84 623.148 2384.45 624.535 2386.42C625.921 2388.38 626.586 2390.38 626.528 2392.4C626.47 2394.42 625.719 2396.33 624.275 2398.12C622.83 2399.91 620.606 2401.27 617.601 2402.19C616.445 2402.54 614.827 2402.74 612.747 2402.8C610.667 2402.86 607.778 2402.89 604.08 2402.89C600.382 2402.89 595.702 2402.89 590.039 2402.89C584.377 2402.89 577.385 2402.94 569.065 2403.06C566.985 2403.18 564.847 2403.23 562.651 2403.23C560.456 2403.23 558.549 2402.48 556.931 2400.98C555.544 2399.82 554.533 2398.06 553.897 2395.69C553.262 2393.32 552.857 2390.84 552.684 2388.24C552.511 2385.64 552.453 2383.04 552.511 2380.44C552.568 2377.84 552.597 2375.67 552.597 2373.94C552.597 2370.47 552.626 2366.48 552.684 2361.98C552.742 2357.47 552.8 2352.88 552.857 2348.2C552.915 2343.52 552.944 2338.92 552.944 2334.42C552.944 2329.91 552.944 2325.92 552.944 2322.46C552.944 2316.33 553.002 2311.39 553.117 2307.63C553.233 2303.88 553.493 2300.93 553.897 2298.79C554.302 2296.66 554.966 2295.1 555.891 2294.11C556.815 2293.13 558.087 2292.29 559.704 2291.6C561.091 2291.02 562.622 2290.82 564.298 2290.99C565.974 2291.17 567.534 2291.63 568.978 2292.38C570.423 2293.13 571.636 2294.17 572.618 2295.5C573.601 2296.83 574.092 2298.3 574.092 2299.92C574.323 2313.79 574.323 2327.54 574.092 2341.18C573.861 2354.81 573.745 2368.45 573.745 2382.09C581.026 2382.09 588.277 2382 595.5 2381.83C602.722 2381.65 610.032 2381.45 617.428 2381.22L618.468 2381.57Z"/>
<path d="M732.354 2354.18C730.39 2360.65 727.876 2366.98 724.814 2373.16C721.751 2379.34 718.024 2384.86 713.633 2389.71C709.242 2394.57 704.128 2398.5 698.292 2401.5C692.456 2404.5 685.783 2406.01 678.271 2406.01C673.417 2405.78 669.575 2405.34 666.744 2404.71C663.912 2404.07 661.168 2403.12 658.51 2401.85C653.772 2400.46 649.698 2398.24 646.289 2395.17C642.88 2392.11 640.02 2388.56 637.709 2384.51C635.398 2380.47 633.635 2376.16 632.422 2371.6C631.208 2367.03 630.428 2362.61 630.082 2358.34C629.504 2350.83 630.139 2343.2 631.988 2335.46C633.837 2327.71 636.784 2320.58 640.829 2314.05C644.874 2307.52 649.958 2301.91 656.083 2297.23C662.208 2292.55 669.199 2289.46 677.058 2287.96C681.102 2287.27 685.205 2287.04 689.365 2287.27C693.525 2287.5 697.57 2288.31 701.499 2289.69C704.735 2290.85 707.739 2292.18 710.513 2293.68C713.286 2295.18 715.944 2297.09 718.487 2299.4C721.838 2302.41 724.669 2305.87 726.98 2309.8C729.292 2313.73 730.967 2317.83 732.007 2322.11C733.279 2327.54 733.856 2332.91 733.741 2338.23C733.625 2343.55 733.163 2348.86 732.354 2354.18ZM687.458 2383.47C690.925 2381.97 693.959 2379.98 696.559 2377.49C699.159 2375.01 701.441 2372.26 703.406 2369.26C705.37 2366.25 707.017 2363.05 708.346 2359.64C709.675 2356.23 710.86 2352.79 711.9 2349.32C712.593 2344.93 712.969 2340.43 713.026 2335.8C713.084 2331.18 712.131 2326.79 710.166 2322.63C708.548 2319.16 706.093 2316.19 702.799 2313.7C699.506 2311.22 695.894 2309.48 691.965 2308.5C688.036 2307.52 684.078 2307.32 680.091 2307.89C676.104 2308.47 672.551 2310.03 669.431 2312.58C665.039 2316.27 661.486 2320.4 658.77 2324.97C656.054 2329.53 654.003 2334.59 652.616 2340.14C651.461 2344.53 650.825 2349.15 650.71 2354C650.594 2358.86 651.345 2363.48 652.963 2367.87C654.234 2371.11 656.112 2374.05 658.597 2376.71C661.081 2379.37 663.884 2381.45 667.004 2382.95C670.124 2384.45 673.446 2385.29 676.971 2385.47C680.496 2385.64 683.991 2384.97 687.458 2383.47Z"/>
<path d="M872.935 2297.84C873.86 2294.37 875.536 2291.95 877.962 2290.56C880.389 2289.17 882.874 2288.71 885.416 2289.17C887.958 2289.64 890.096 2290.94 891.83 2293.07C893.563 2295.21 894.199 2298.01 893.737 2301.48C893.043 2305.87 892.148 2310.26 891.05 2314.66C889.952 2319.05 888.767 2323.38 887.496 2327.66C885.763 2333.2 883.827 2338.63 881.689 2343.95C879.551 2349.27 877.558 2354.7 875.709 2360.24C873.86 2365.44 871.982 2370.62 870.075 2375.76C868.168 2380.9 866.175 2386.07 864.095 2391.27C863.401 2393.01 862.679 2394.83 861.928 2396.73C861.177 2398.64 860.224 2400.29 859.068 2401.67C857.334 2403.98 854.965 2405.37 851.961 2405.83C848.956 2406.3 846.298 2405.54 843.987 2403.58C842.138 2401.96 840.809 2399.97 840 2397.6C839.191 2395.23 838.325 2392.95 837.4 2390.75C836.36 2387.98 835.175 2384.92 833.846 2381.57C832.518 2378.21 831.391 2375.21 830.466 2372.55C828.502 2367.35 826.624 2362.12 824.833 2356.86C823.041 2351.61 821.164 2346.38 819.199 2341.18C817.581 2346.03 815.877 2350.74 814.085 2355.3C812.294 2359.87 810.59 2364.52 808.972 2369.26C807.701 2372.38 806.487 2375.5 805.332 2378.62C804.176 2381.74 802.963 2384.8 801.691 2387.81C800.882 2389.89 800.218 2391.48 799.698 2392.57C799.178 2393.67 798.34 2395.38 797.184 2397.69C796.375 2399.54 795.162 2401.18 793.544 2402.63C791.926 2404.07 790.222 2405.05 788.431 2405.57C786.639 2406.09 784.819 2406.06 782.97 2405.49C781.121 2404.91 779.503 2403.52 778.117 2401.33C776.152 2398.32 774.794 2394.8 774.043 2390.75C773.292 2386.71 772.396 2383.01 771.356 2379.66C770.663 2377.58 769.998 2375.5 769.363 2373.42C768.727 2371.34 768.063 2369.32 767.369 2367.35C766.676 2365.27 765.954 2363.19 765.203 2361.11C764.451 2359.03 763.729 2357.01 763.036 2355.04C760.725 2348.34 758.327 2341.73 755.842 2335.2C753.358 2328.67 750.844 2322.11 748.302 2315.52C747.839 2314.14 747.204 2312.72 746.395 2311.27C745.586 2309.83 744.835 2308.33 744.141 2306.77C743.448 2305.21 742.899 2303.65 742.495 2302.09C742.09 2300.53 741.946 2299 742.061 2297.49C742.292 2295.53 743.015 2293.85 744.228 2292.47C745.442 2291.08 746.857 2290.07 748.475 2289.43C750.093 2288.8 751.826 2288.57 753.675 2288.74C755.524 2288.91 757.2 2289.64 758.702 2290.91C761.822 2293.57 764.163 2297.09 765.723 2301.48C767.283 2305.87 768.756 2309.92 770.143 2313.62C771.761 2317.66 773.263 2321.73 774.65 2325.84C776.037 2329.94 777.539 2334.01 779.157 2338.06C780.775 2342.45 782.335 2346.78 783.837 2351.06C785.339 2355.33 786.784 2359.67 788.171 2364.06C788.633 2363.02 789.037 2361.95 789.384 2360.85C789.731 2359.75 790.135 2358.63 790.597 2357.47C792.909 2351.69 795.075 2345.97 797.098 2340.31C799.12 2334.65 800.998 2328.87 802.731 2322.98C803.309 2321.36 803.8 2319.71 804.205 2318.04C804.609 2316.36 805.043 2314.71 805.505 2313.1C806.314 2310.32 806.834 2308.15 807.065 2306.59C807.296 2305.03 807.989 2303.33 809.145 2301.48C810.185 2299.86 811.572 2298.68 813.305 2297.93C815.039 2297.18 816.83 2296.83 818.679 2296.89C820.528 2296.95 822.233 2297.44 823.793 2298.36C825.353 2299.29 826.537 2300.67 827.346 2302.52C827.693 2303.21 828.155 2304.28 828.733 2305.73C829.311 2307.17 829.888 2308.73 830.466 2310.41C831.044 2312.08 831.622 2313.64 832.2 2315.09C832.778 2316.53 833.182 2317.6 833.413 2318.3C834.8 2321.99 836.129 2325.63 837.4 2329.22C838.671 2332.8 839.942 2336.44 841.214 2340.14C842.831 2344.87 844.478 2349.53 846.154 2354.09C847.829 2358.66 849.534 2363.19 851.267 2367.7C852.308 2364.69 853.29 2361.63 854.214 2358.51C855.139 2355.39 856.179 2352.33 857.334 2349.32C860.455 2341 863.43 2332.68 866.262 2324.36C869.093 2316.04 871.26 2307.55 872.762 2298.88L872.935 2297.84Z"/>
<path d="M977.808 2295.59C978.501 2293.28 979.628 2291.37 981.188 2289.87C982.748 2288.36 984.453 2287.38 986.302 2286.92C988.151 2286.46 990.029 2286.57 991.935 2287.27C993.842 2287.96 995.489 2289.35 996.876 2291.43C997.338 2292.01 997.771 2292.7 998.176 2293.51C998.58 2294.32 998.782 2295.07 998.782 2295.76C999.014 2312.29 998.927 2328.78 998.522 2345.25C998.118 2361.72 997.453 2378.21 996.529 2394.74C996.529 2397.4 995.691 2399.48 994.016 2400.98C992.34 2402.48 990.433 2403.44 988.295 2403.84C986.157 2404.24 983.99 2404.01 981.795 2403.15C979.599 2402.28 977.981 2400.81 976.941 2398.73C976.826 2398.61 976.768 2398.5 976.768 2398.38L976.768 2398.73C969.256 2386.36 961.34 2374.49 953.02 2363.1C944.699 2351.72 936.032 2340.43 927.018 2329.22L927.018 2368.39C927.018 2373.71 927.018 2378.16 927.018 2381.74C927.018 2385.32 926.961 2388.24 926.845 2390.49C926.729 2392.75 926.585 2394.51 926.412 2395.78C926.238 2397.05 925.978 2398.15 925.632 2399.07C924.592 2401.85 923.003 2403.7 920.865 2404.62C918.727 2405.54 916.56 2405.78 914.364 2405.31C912.169 2404.85 910.262 2403.7 908.644 2401.85C907.026 2400 906.217 2397.69 906.217 2394.91C906.217 2393.3 906.217 2390.75 906.217 2387.29C906.217 2383.82 906.217 2379.89 906.217 2375.5C906.217 2371.11 906.217 2366.4 906.217 2361.37C906.217 2356.34 906.217 2351.4 906.217 2346.55C906.217 2341.7 906.188 2337.16 906.131 2332.94C906.073 2328.72 906.044 2325.17 906.044 2322.28C906.044 2318.35 905.986 2314.45 905.871 2310.58C905.755 2306.71 905.755 2302.81 905.871 2298.88C905.871 2296.92 906.362 2295.24 907.344 2293.85C908.326 2292.47 909.569 2291.4 911.071 2290.65C912.573 2289.9 914.191 2289.46 915.924 2289.35C917.658 2289.23 919.334 2289.46 920.951 2290.04C922.338 2290.5 923.754 2291.46 925.198 2292.9C926.643 2294.35 928.058 2295.91 929.445 2297.58C930.832 2299.26 932.132 2300.93 933.345 2302.61C934.559 2304.28 935.57 2305.64 936.379 2306.68C939.384 2310.38 942.85 2314.63 946.78 2319.42C950.709 2324.22 954.349 2328.75 957.7 2333.03C961.051 2337.42 964.316 2341.81 967.494 2346.2C970.672 2350.59 973.763 2354.99 976.768 2359.38C977.115 2348.86 977.346 2338.4 977.461 2328C977.577 2317.6 977.635 2307.14 977.635 2296.63L977.808 2295.59Z"/>
<path d="M1094.47 2402.54C1089.5 2401.96 1086.47 2400.32 1085.37 2397.6C1084.27 2394.88 1084.24 2391.91 1085.28 2388.67L1085.28 2318.3C1083.43 2318.3 1081.78 2317.8 1080.34 2316.82C1078.9 2315.84 1077.74 2314.6 1076.87 2313.1C1076.01 2311.59 1075.57 2309.95 1075.57 2308.15C1075.57 2306.36 1076.09 2304.72 1077.13 2303.21C1079.44 2299.75 1082.42 2297.03 1086.06 2295.07C1089.7 2293.1 1093.49 2291.48 1097.41 2290.21C1103.54 2288.25 1109.69 2287.15 1115.88 2286.92C1122.06 2286.69 1128.15 2287.96 1134.16 2290.73C1139.59 2293.28 1143.87 2296.57 1146.99 2300.61C1150.11 2304.66 1152.08 2308.96 1152.88 2313.53C1153.69 2318.09 1153.29 2322.77 1151.67 2327.57C1150.05 2332.37 1147.16 2336.84 1143 2341C1148.44 2344.47 1152.31 2348.6 1154.62 2353.4C1156.93 2358.19 1157.88 2363.13 1157.48 2368.22C1157.07 2373.3 1155.46 2378.21 1152.62 2382.95C1149.79 2387.69 1145.95 2391.79 1141.1 2395.26C1138.21 2397.34 1134.83 2398.93 1130.96 2400.03C1127.09 2401.12 1123.1 2401.9 1119 2402.37C1114.89 2402.83 1110.82 2403.06 1106.78 2403.06C1102.73 2403.06 1099.03 2402.94 1095.68 2402.71L1094.47 2402.54ZM1131.39 2358.51C1129.31 2357.12 1127.29 2356.08 1125.32 2355.39C1123.36 2354.7 1121.36 2354.24 1119.34 2354C1117.32 2353.77 1115.27 2353.72 1113.19 2353.83C1111.11 2353.95 1108.86 2354.06 1106.43 2354.18L1106.43 2381.91C1108.97 2381.91 1111.69 2381.83 1114.58 2381.65C1117.46 2381.48 1120.24 2381.02 1122.9 2380.27C1125.55 2379.51 1128.04 2378.45 1130.35 2377.06C1132.66 2375.67 1134.51 2373.77 1135.9 2371.34C1136.24 2368.56 1136.19 2366.17 1135.72 2364.14C1135.26 2362.12 1133.82 2360.24 1131.39 2358.51ZM1106.43 2331.82C1108.51 2331.82 1110.59 2331.82 1112.67 2331.82C1114.75 2331.82 1116.8 2331.61 1118.82 2331.21C1120.84 2330.8 1122.81 2330.14 1124.72 2329.22C1126.62 2328.29 1128.33 2326.96 1129.83 2325.23C1132.03 2322.8 1132.81 2320.23 1132.17 2317.52C1131.53 2314.8 1129.89 2312.63 1127.23 2311.01C1124.23 2309.05 1120.82 2308.04 1117 2307.98C1113.19 2307.92 1109.66 2308.36 1106.43 2309.28L1106.43 2331.82Z"/>
<path d="M1239.73 2299.05C1240.42 2296.74 1241.55 2294.84 1243.11 2293.33C1244.67 2291.83 1246.37 2290.85 1248.22 2290.39C1250.07 2289.92 1251.95 2290.04 1253.86 2290.73C1255.76 2291.43 1257.41 2292.81 1258.8 2294.89C1259.26 2295.47 1259.69 2296.17 1260.1 2296.97C1260.5 2297.78 1260.7 2298.53 1260.7 2299.23C1260.7 2300.5 1260.65 2302.64 1260.53 2305.64C1260.41 2308.65 1260.33 2311.71 1260.27 2314.83C1260.21 2317.95 1260.13 2320.72 1260.01 2323.15C1259.89 2325.58 1259.84 2326.85 1259.84 2326.96C1259.61 2333.2 1259.2 2339.41 1258.62 2345.6C1258.05 2351.78 1257.24 2357.99 1256.2 2364.23C1255.27 2369.08 1254.17 2373.56 1252.9 2377.67C1251.63 2381.77 1249.9 2385.41 1247.7 2388.59C1245.51 2391.76 1242.73 2394.51 1239.38 2396.82C1236.03 2399.13 1231.87 2400.98 1226.9 2402.37C1224.94 2402.94 1222.89 2403.35 1220.75 2403.58C1218.61 2403.81 1216.56 2403.93 1214.59 2403.93C1208.82 2403.93 1202.92 2402.83 1196.91 2400.63C1190.1 2397.98 1184.95 2393.58 1181.49 2387.46C1178.02 2381.33 1175.59 2374.49 1174.21 2366.92C1172.82 2359.35 1172.15 2351.69 1172.21 2343.95C1172.27 2336.21 1172.3 2329.39 1172.3 2323.5C1172.3 2321.07 1172.33 2318.61 1172.39 2316.13C1172.44 2313.64 1172.53 2311.19 1172.65 2308.76C1172.65 2307.03 1172.7 2305.21 1172.82 2303.3C1172.93 2301.39 1173.28 2299.57 1173.86 2297.84C1174.44 2296.11 1175.33 2294.61 1176.55 2293.33C1177.76 2292.06 1179.46 2291.2 1181.66 2290.73C1182.93 2290.5 1184.29 2290.62 1185.73 2291.08C1187.18 2291.54 1188.48 2292.21 1189.63 2293.07C1190.79 2293.94 1191.77 2294.98 1192.58 2296.19C1193.39 2297.41 1193.79 2298.71 1193.79 2300.09C1193.79 2301.94 1193.79 2303.42 1193.79 2304.51C1193.79 2305.61 1193.79 2306.59 1193.79 2307.46C1193.79 2308.33 1193.76 2309.22 1193.71 2310.15C1193.65 2311.07 1193.62 2312.29 1193.62 2313.79C1193.39 2321.42 1193.27 2329.01 1193.27 2336.58C1193.27 2344.15 1193.74 2351.69 1194.66 2359.2C1195.01 2362.32 1195.53 2365.56 1196.22 2368.91C1196.91 2372.26 1198.3 2375.15 1200.38 2377.58C1202.23 2379.77 1204.63 2381.31 1207.57 2382.17C1210.52 2383.04 1213.53 2383.3 1216.59 2382.95C1219.65 2382.61 1222.54 2381.74 1225.26 2380.35C1227.97 2378.97 1230.08 2377.12 1231.58 2374.81C1233.08 2372.49 1234.24 2369.78 1235.05 2366.66C1235.86 2363.54 1236.46 2360.3 1236.87 2356.95C1237.27 2353.6 1237.56 2350.28 1237.74 2346.98C1237.91 2343.69 1238.05 2340.66 1238.17 2337.88C1238.4 2334.65 1238.57 2331.87 1238.69 2329.56C1238.8 2327.25 1238.92 2324.48 1239.04 2321.24C1239.15 2318.82 1239.21 2316.39 1239.21 2313.96C1239.21 2311.53 1239.27 2309.11 1239.38 2306.68L1239.73 2299.05Z"/>
<path d="M1345.64 2295.59C1346.34 2293.28 1347.46 2291.37 1349.02 2289.87C1350.58 2288.36 1352.29 2287.38 1354.14 2286.92C1355.98 2286.46 1357.86 2286.57 1359.77 2287.27C1361.68 2287.96 1363.32 2289.35 1364.71 2291.43C1365.17 2292.01 1365.61 2292.7 1366.01 2293.51C1366.41 2294.32 1366.62 2295.07 1366.62 2295.76C1366.85 2312.29 1366.76 2328.78 1366.36 2345.25C1365.95 2361.72 1365.29 2378.21 1364.36 2394.74C1364.36 2397.4 1363.53 2399.48 1361.85 2400.98C1360.17 2402.48 1358.27 2403.44 1356.13 2403.84C1353.99 2404.24 1351.82 2404.01 1349.63 2403.15C1347.43 2402.28 1345.82 2400.81 1344.78 2398.73C1344.66 2398.61 1344.6 2398.5 1344.6 2398.38L1344.6 2398.73C1337.09 2386.36 1329.17 2374.49 1320.85 2363.1C1312.53 2351.72 1303.87 2340.43 1294.85 2329.22L1294.85 2368.39C1294.85 2373.71 1294.85 2378.16 1294.85 2381.74C1294.85 2385.32 1294.79 2388.24 1294.68 2390.49C1294.56 2392.75 1294.42 2394.51 1294.25 2395.78C1294.07 2397.05 1293.81 2398.15 1293.47 2399.07C1292.43 2401.85 1290.84 2403.7 1288.7 2404.62C1286.56 2405.54 1284.39 2405.78 1282.2 2405.31C1280 2404.85 1278.1 2403.7 1276.48 2401.85C1274.86 2400 1274.05 2397.69 1274.05 2394.91C1274.05 2393.3 1274.05 2390.75 1274.05 2387.29C1274.05 2383.82 1274.05 2379.89 1274.05 2375.5C1274.05 2371.11 1274.05 2366.4 1274.05 2361.37C1274.05 2356.34 1274.05 2351.4 1274.05 2346.55C1274.05 2341.7 1274.02 2337.16 1273.96 2332.94C1273.91 2328.72 1273.88 2325.17 1273.88 2322.28C1273.88 2318.35 1273.82 2314.45 1273.7 2310.58C1273.59 2306.71 1273.59 2302.81 1273.7 2298.88C1273.7 2296.92 1274.2 2295.24 1275.18 2293.85C1276.16 2292.47 1277.4 2291.4 1278.9 2290.65C1280.41 2289.9 1282.03 2289.46 1283.76 2289.35C1285.49 2289.23 1287.17 2289.46 1288.79 2290.04C1290.17 2290.5 1291.59 2291.46 1293.03 2292.9C1294.48 2294.35 1295.89 2295.91 1297.28 2297.58C1298.67 2299.26 1299.97 2300.93 1301.18 2302.61C1302.39 2304.28 1303.4 2305.64 1304.21 2306.68C1307.22 2310.38 1310.68 2314.63 1314.61 2319.42C1318.54 2324.22 1322.18 2328.75 1325.53 2333.03C1328.89 2337.42 1332.15 2341.81 1335.33 2346.2C1338.51 2350.59 1341.6 2354.99 1344.6 2359.38C1344.95 2348.86 1345.18 2338.4 1345.3 2328C1345.41 2317.6 1345.47 2307.14 1345.47 2296.63L1345.64 2295.59Z"/>
<path d="M1452.07 2295.59C1452.77 2293.28 1453.89 2291.37 1455.45 2289.87C1457.01 2288.36 1458.72 2287.38 1460.57 2286.92C1462.42 2286.46 1464.3 2286.57 1466.2 2287.27C1468.11 2287.96 1469.76 2289.35 1471.14 2291.43C1471.6 2292.01 1472.04 2292.7 1472.44 2293.51C1472.85 2294.32 1473.05 2295.07 1473.05 2295.76C1473.28 2312.29 1473.19 2328.78 1472.79 2345.25C1472.38 2361.72 1471.72 2378.21 1470.8 2394.74C1470.8 2397.4 1469.96 2399.48 1468.28 2400.98C1466.61 2402.48 1464.7 2403.44 1462.56 2403.84C1460.42 2404.24 1458.26 2404.01 1456.06 2403.15C1453.87 2402.28 1452.25 2400.81 1451.21 2398.73C1451.09 2398.61 1451.03 2398.5 1451.03 2398.38L1451.03 2398.73C1443.52 2386.36 1435.61 2374.49 1427.29 2363.1C1418.97 2351.72 1410.3 2340.43 1401.29 2329.22L1401.29 2368.39C1401.29 2373.71 1401.29 2378.16 1401.29 2381.74C1401.29 2385.32 1401.23 2388.24 1401.11 2390.49C1401 2392.75 1400.85 2394.51 1400.68 2395.78C1400.51 2397.05 1400.25 2398.15 1399.9 2399.07C1398.86 2401.85 1397.27 2403.7 1395.13 2404.62C1392.99 2405.54 1390.83 2405.78 1388.63 2405.31C1386.44 2404.85 1384.53 2403.7 1382.91 2401.85C1381.29 2400 1380.48 2397.69 1380.48 2394.91C1380.48 2393.3 1380.48 2390.75 1380.48 2387.29C1380.48 2383.82 1380.48 2379.89 1380.48 2375.5C1380.48 2371.11 1380.48 2366.4 1380.48 2361.37C1380.48 2356.34 1380.48 2351.4 1380.48 2346.55C1380.48 2341.7 1380.46 2337.16 1380.4 2332.94C1380.34 2328.72 1380.31 2325.17 1380.31 2322.28C1380.31 2318.35 1380.25 2314.45 1380.14 2310.58C1380.02 2306.71 1380.02 2302.81 1380.14 2298.88C1380.14 2296.92 1380.63 2295.24 1381.61 2293.85C1382.59 2292.47 1383.84 2291.4 1385.34 2290.65C1386.84 2289.9 1388.46 2289.46 1390.19 2289.35C1391.92 2289.23 1393.6 2289.46 1395.22 2290.04C1396.6 2290.5 1398.02 2291.46 1399.46 2292.9C1400.91 2294.35 1402.33 2295.91 1403.71 2297.58C1405.1 2299.26 1406.4 2300.93 1407.61 2302.61C1408.83 2304.28 1409.84 2305.64 1410.65 2306.68C1413.65 2310.38 1417.12 2314.63 1421.05 2319.42C1424.98 2324.22 1428.62 2328.75 1431.97 2333.03C1435.32 2337.42 1438.58 2341.81 1441.76 2346.2C1444.94 2350.59 1448.03 2354.99 1451.03 2359.38C1451.38 2348.86 1451.61 2338.4 1451.73 2328C1451.84 2317.6 1451.9 2307.14 1451.9 2296.63L1452.07 2295.59Z"/>
<path d="M1535.63 2392.66C1535.28 2395.55 1534.21 2397.92 1532.42 2399.77C1530.63 2401.62 1528.61 2402.77 1526.35 2403.23C1524.1 2403.7 1521.93 2403.41 1519.85 2402.37C1517.77 2401.33 1516.27 2399.3 1515.34 2396.3C1514.77 2394.34 1514.39 2392.2 1514.22 2389.89C1514.04 2387.57 1513.99 2385.29 1514.04 2383.04C1514.1 2380.79 1514.19 2378.62 1514.3 2376.54C1514.42 2374.46 1514.48 2372.73 1514.48 2371.34C1514.48 2367.99 1514.45 2364.69 1514.39 2361.46C1514.33 2358.22 1514.3 2354.93 1514.3 2351.58C1508.64 2346.15 1503.47 2340.4 1498.79 2334.33C1494.11 2328.26 1489.92 2321.76 1486.22 2314.83C1485.07 2312.75 1483.97 2310.47 1482.93 2307.98C1481.89 2305.5 1481.31 2303.04 1481.2 2300.61C1480.62 2298.42 1480.85 2296.43 1481.89 2294.63C1482.93 2292.84 1484.35 2291.46 1486.14 2290.47C1487.93 2289.49 1489.89 2289.03 1492.03 2289.09C1494.17 2289.14 1496.1 2289.87 1497.84 2291.25C1499.11 2292.29 1500.15 2293.51 1500.96 2294.89C1501.77 2296.28 1502.46 2297.75 1503.04 2299.31C1503.62 2300.87 1504.16 2302.46 1504.68 2304.08C1505.2 2305.7 1505.87 2307.2 1506.68 2308.59C1509.1 2312.98 1511.79 2317.05 1514.74 2320.81C1517.68 2324.56 1520.83 2328.29 1524.19 2331.99C1527.19 2327.94 1530.43 2324.16 1533.89 2320.64C1537.36 2317.11 1540.54 2313.33 1543.43 2309.28C1544 2308.36 1544.87 2306.94 1546.03 2305.03C1547.18 2303.13 1548.4 2301.13 1549.67 2299.05C1550.94 2296.97 1552.27 2295.04 1553.65 2293.25C1555.04 2291.46 1556.25 2290.27 1557.29 2289.69C1559.14 2288.54 1561.02 2288.02 1562.93 2288.13C1564.83 2288.25 1566.57 2288.83 1568.13 2289.87C1569.69 2290.91 1570.93 2292.32 1571.85 2294.11C1572.78 2295.91 1573.13 2297.84 1572.89 2299.92C1572.66 2302.12 1571.65 2304.77 1569.86 2307.89C1568.07 2311.01 1565.99 2314.19 1563.62 2317.43C1561.25 2320.66 1558.85 2323.73 1556.43 2326.62C1554 2329.5 1552.09 2331.82 1550.71 2333.55C1549.55 2334.94 1548.42 2336.29 1547.33 2337.62C1546.23 2338.95 1545.1 2340.25 1543.95 2341.52C1542.44 2343.26 1541 2344.99 1539.61 2346.72C1538.23 2348.46 1536.84 2350.19 1535.45 2351.92C1535.45 2358.51 1535.45 2365.1 1535.45 2371.69C1535.45 2378.27 1535.51 2384.86 1535.63 2391.45L1535.63 2392.66Z"/>
</g>
<g opacity="1" vectornator:layerName="Group 1">
<use fill="#fee483" fill-rule="nonzero" opacity="1" stroke="none" vectornator:layerName="Curve 56" xlink:href="#Fill_5"/>
<clipPath clip-rule="nonzero" id="ClipPath_5">
<use xlink:href="#Fill_5"/>
</clipPath>
<g clip-path="url(#ClipPath_5)">
<path d="M1430.4 1408.41C1407.86 1409.4 1384.66 1405.88 1362.76 1411.36C1351.92 1414.07 1345.08 1425.04 1336.29 1431.94C1331.36 1435.82 1326.81 1440.23 1321.59 1443.71C1296 1460.77 1264.97 1479.61 1236.3 1490.76C1218.09 1497.84 1198.84 1501.91 1180.42 1508.41C1164.28 1514.11 1149.39 1522.98 1133.36 1529C1105.39 1539.49 1071.54 1547.02 1042.19 1552.52C1001.71 1560.11 959.575 1562.68 918.671 1567.23C874.646 1572.12 827.733 1578.04 783.385 1573.11C771.333 1571.77 759.959 1566.79 748.093 1564.29C707.418 1555.72 666.437 1551.1 627.512 1534.88C561.72 1507.47 501.442 1449.8 492.225 1376.06C485.715 1323.98 504.385 1257.63 527.517 1211.37C549.061 1168.28 578.708 1129.58 606.925 1090.79C628.623 1060.95 652.143 1032.5 680.45 1008.44C702.079 990.054 721.738 979.933 745.152 964.324C766.196 950.294 784.586 935.328 806.913 923.15C847.977 900.751 901.892 883.2 948.081 876.094C1016.83 865.517 1088.41 878.554 1153.95 899.622C1207.33 916.781 1256.92 946.162 1303.94 976.088C1371.8 1019.27 1434.87 1063.71 1495.11 1117.26C1540.75 1157.82 1584.97 1205.15 1598.04 1267.25C1611.09 1329.21 1581.15 1411.32 1548.04 1464.29" fill="#8387fe" fill-rule="nonzero" opacity="1" stroke="none" vectornator:layerName="Curve 57"/>
<path d="M807.412 1198.23L842.263 1243.44L776.957 1290.85L788.26 1199.48L807.412 1198.23Z" fill="#000000" fill-rule="nonzero" opacity="1" stroke="none" vectornator:layerName="Curve 33"/>
<path d="M840.969 1243.25L912.763 1190.96L926.435 1210.28L923.061 1235.59L864.564 1275.01" fill="#000000" fill-rule="nonzero" opacity="1" stroke="none" vectornator:layerName="Curve 33"/>
<path d="M775.66 1301.54L801.821 1336.92L771.519 1377.58L775.66 1301.54Z" fill="#000000" fill-rule="nonzero" opacity="1" stroke="none" vectornator:layerName="Curve 33"/>
<path d="M906.088 1183.44L912.532 1192.19L928.595 1179.98L931.672 1167.86L906.088 1183.44Z" fill="#000000" fill-rule="nonzero" opacity="1" stroke="none" vectornator:layerName="Curve 34"/>
<path d="M1158.47 1124.72L1175.68 1110.92L1222.43 1190.38L1159.53 1237.12L1141.47 1211.63" fill="#000000" fill-rule="nonzero" opacity="1" stroke="none" vectornator:layerName="Curve 33"/>
<path d="M1159.87 1090.53L1175.5 1111.99L1180.12 1108.51L1163.27 1083.4L1159.87 1090.53Z" fill="#000000" fill-rule="nonzero" opacity="1" stroke="none" vectornator:layerName="Curve 34"/>
<path d="M1140.98 1250.12L1159.85 1236.35L1211.83 1307.2L1215.29 1310.05" fill="#000000" fill-rule="nonzero" opacity="1" stroke="none" vectornator:layerName="Curve 35"/>
<path d="M1215.13 1309.25L1252.02 1282.27L1273.09 1358.31L1277.14 1392.19L1253.8 1355.72L1215.54 1310.66" fill="#000000" fill-rule="nonzero" opacity="1" stroke="none" vectornator:layerName="Curve 36"/>
</g>
</g>
</g>
<path d="M993.968 899.011C1000.62 908.659 1006.61 919.305 1017.26 898.346M1004.95 908.326C934.416 927.29 986.316 986.842 1003.95 909.324C1006.03 910.822 1021.91 967.546 1021.91 967.546M1003.25 907.661C1073.78 926.625 1021.88 986.177 1004.25 908.659C1002.17 910.156 980.993 966.215 980.993 966.215" fill="none" opacity="1" stroke="#fee483" stroke-linecap="round" stroke-linejoin="round" stroke-width="6.68076" vectornator:layerName="Curve 26"/>
</g>
</svg>
