<?xml version="1.0" encoding="UTF-8" standalone="no"?>
<!DOCTYPE svg PUBLIC "-//W3C//DTD SVG 1.1//EN" "http://www.w3.org/Graphics/SVG/1.1/DTD/svg11.dtd">
<!-- Created with Vectornator (http://vectornator.io/) -->
<svg height="100%" stroke-miterlimit="10" style="fill-rule:nonzero;clip-rule:evenodd;stroke-linecap:round;stroke-linejoin:round;" version="1.1" viewBox="0 0 2000 2912.22" width="100%" xml:space="preserve" xmlns="http://www.w3.org/2000/svg" xmlns:vectornator="http://vectornator.io" xmlns:xlink="http://www.w3.org/1999/xlink">
<defs>
<filter color-interpolation-filters="sRGB" filterUnits="userSpaceOnUse" height="661.598" id="Filter" width="620.269" x="224.963" y="102.664">
<feGaussianBlur in="SourceGraphic" result="Blur" stdDeviation="49.6609"/>
</filter>
<filter color-interpolation-filters="sRGB" filterUnits="userSpaceOnUse" height="176.438" id="Filter_2" width="1369.07" x="329.557" y="2241.51">
<feGaussianBlur in="SourceGraphic" result="Blur" stdDeviation="12.5"/>
</filter>
</defs>
<g id="Layer-2" vectornator:layerName="Layer 2">
<path d="M837.254 604.883C835.188 605.257 834.609 601.179 832.572 600.67C832.058 600.541 824.628 620.758 824.145 622.206C817.545 642.008 812.02 662.374 802.609 681.196C792.052 702.311 769.603 710.948 756.643 732.548C747.684 747.48 732.214 767.672 728.699 785.247C727.444 791.526 716.777 803.13 712.719 808.54C688.882 840.324 637.959 862.233 650.688 913.148C656.242 962.841 695.533 964.7 687.438 1005.17C686.674 1008.99 653.814 1032.33 650.92 1032.33C642.826 1032.33 623.926 1008.68 614.402 1022.96C594.886 1052.24 570.666 1111.41 577.885 1147.5C584.886 1182.51 623.114 1215.2 646.238 1238.33C655.054 1247.14 663.475 1405.66 656.966 1418.51C635.457 1460.96 594.762 1536.13 672.163 1608.81C640.343 1622.86 573.698 1676.6 683.861 1694.33C720.014 1697.8 755.321 1695.83 931.871 1667.83C911.296 1730.92 1035.84 1708.31 1101.26 1709.12C1118.57 1690.8 1114.16 1680.73 1121.47 1662.12C1151.74 1649.63 1214.15 1640.36 1208.81 1619.02C1206.19 1608.54 1041.43 1030.79 1044.02 1017.84C1045.17 1012.08 1027.2 1009.39 1028.67 1003.51C1034.65 979.582 1059.73 926.142 1065.72 902.175C1070.14 884.531 1060.43 869.063 1064.79 851.612C1067.79 839.617 1080.19 830.759 1082.58 818.84C1086.28 800.354 1078.95 779.052 1083.51 760.786C1086.36 749.406 1100.96 734.402 1107.86 725.205C1118.87 710.52 1120.51 691.958 1134.08 678.387C1153.54 658.926 1162.64 587.541 1165.91 561.343C1168.7 539.069 1175.75 494.129 1149.06 482.689C1125.89 472.758 1092.22 485.428 1069.47 491.117C1006.97 506.741 937.316 525.223 883.135 561.343C868.258 571.262 844.622 603.549 837.254 604.883Z" fill="#fffaf1" fill-rule="nonzero" opacity="1" stroke="none" vectornator:layerName="Curve 38"/>
<path d="M1253.44 290.312C1233.68 291.108 1213.35 298.16 1191.25 302.719C1098.32 321.888 1014.13 376.17 940.531 434.125C850.874 497.46 826.637 557.802 814 554.438C795.259 544.173 702.628 498.12 640.375 490.25C627.092 486.713 600.914 481.898 592.938 498.094C588.206 507.702 571.24 546.85 570.594 557.125C596.487 624.578 643.662 672.719 751.531 734.312C762.832 732.947 782.835 697.028 806.781 669.5C820.994 636.228 831.676 603.099 830.438 607.75C830.17 608.754 878.458 662.141 879.219 662.562C902.323 704.592 960.424 772.801 969.375 795C1048.6 905.821 1243.49 1026.31 1312.81 991.188C1364.96 939.93 1263.29 857.771 1191.53 792.438C1190.47 787.278 1285.13 483.839 1303.44 432.5C1319.73 433.129 1349.98 473.977 1355.16 473.469C1357.39 473.008 1350.04 453.63 1349.72 452.5C1345.94 439.357 1328.99 379.069 1320.84 360.562C1314.46 346.055 1300.91 308.389 1288.62 297.531C1276.94 291.615 1265.29 289.835 1253.44 290.312ZM1143.47 504.281C1147.03 504.428 1150.57 504.933 1154.06 505.812C1163.59 508.213 1161.16 543.138 1161.69 551.938C1164.52 598.929 1151.32 644.002 1129.78 684.844C1123.88 696.028 1082.03 777.072 1076.28 775.281C1067.34 772.494 993.345 716.838 984.5 708.625C974.737 699.559 962.282 679.43 958.562 666.281C956.702 659.705 991.042 617.588 996.875 611.688C1029.84 578.342 1090.05 502.082 1143.47 504.281ZM806.379 1075.71C817.05 1088.92 830.958 1108.94 839.988 1122.89C1055.36 1455.47 1200.31 1638.37 1249.26 1654.68C1266.39 1660.39 1326.14 1694.72 1344.22 1697.73C1376.18 1703.06 1470.76 1718.04 1514.4 1678.37C1529.09 1665.01 1503.83 1647.63 1489.87 1639.26C1478.57 1632.48 1459.35 1624.76 1447.18 1620.39C1365.29 1590.95 1382.39 1529.64 1375.73 1471.48C1369.61 1439.8 1277.12 1419.12 1247.31 1351.71C1210.18 1277.29 1178.7 1229.1 1160.56 1178.75C1170.98 1160.17 1167.14 1151.68 1163.2 1146.42C1151.79 1124.14 1084.39 1107.84 1092.27 1039.84C1083.95 1013.83 1041.36 1017.06 1024.25 1016.96C972.26 1016.68 935.027 1019 886.985 1027.01C864.055 1030.83 846.047 1031.24 824.236 1039.96C800.971 1049.27 790.312 1055.84 806.379 1075.71ZM648.371 1246.33C634.004 1289.43 635.603 1335.59 626.866 1379.27C617.665 1425.28 602.397 1470.85 581.901 1507.32C561.313 1558.79 487.084 1594.22 487.084 1655.9C487.084 1672.38 515.305 1669.88 524.229 1668.61C547.985 1665.22 562.2 1658.47 584.834 1653.95C607.116 1649.49 616.113 1649.06 634.686 1643.19C631.486 1632.92 653.471 1616.72 663.033 1612.89C664.438 1612.33 672.808 1608 672.808 1608C672.808 1608 655.188 1583.79 648.371 1578.68C638.586 1571.34 629.83 1544.65 627.843 1532.74C619.22 1481 645.438 1443.78 659.123 1410.55C654.236 1369.5 656.191 1336.92 656.191 1302.05" fill="#e5effa" fill-rule="nonzero" opacity="1" stroke="none" vectornator:layerName="Curve 93"/>
<path d="M521.983 343.874C513.879 399.791 496.356 488.152 487.441 578.915C497.601 598.637 548.773 692.173 572.532 740.183C577.645 743.591 601.968 741.542 606.569 736.941C613.862 688.318 615.465 628.837 623.644 558.607C596.59 502.165 555.209 410.326 521.983 343.874Z" fill="#dcfe98" fill-rule="nonzero" opacity="1" stroke="#a4f600" stroke-linecap="round" stroke-linejoin="round" stroke-width="6.04097" vectornator:layerName="Curve 43"/>
<path d="M571.023 738.269C579.783 736.564 594.836 730.963 608.338 732.871C610.021 734.554 634.235 870.628 661.741 1024.38C652.956 1033.18 646.219 1046.04 648.347 1057.92C650.421 1069.5 664.417 1085.39 674.329 1094.67C696.787 1219.87 719.498 1345.13 732.598 1410.64C736.271 1429 750.173 1430.85 751.544 1453.4C755.11 1467.67 748.19 1481.18 748.19 1494.19C756.292 1510.02 763.885 1532.58 742.604 1553.86C742.137 1554.32 707.024 1538.29 711.073 1518.05C717.558 1485.62 696.997 1495.4 691.745 1469.14C687.534 1448.09 702.343 1422.44 700.684 1414.15C690.868 1365.07 570.32 747.839 571.023 738.269Z" fill="#cdd9d9" fill-rule="nonzero" opacity="1" stroke="none" vectornator:layerName="Curve 42"/>
<path d="M797.438 1062.66C812.626 1097.97 1089.83 1172.79 1163.49 1176.59C1181.04 1129.06 1113.37 1117.73 1098.18 1082.42C1082.99 1047.11 1100.43 1054.33 1086.26 1028.87C1074.53 1000.19 782.251 1027.35 797.438 1062.66ZM803.142 1070.42C912.209 1215.61 1070.37 1503.34 1242.46 1650.44C1373.74 1731.95 1521.96 1705.63 1516.74 1664.96C1492.87 1614.2 1428.51 1636.39 1394.34 1580.58C1360.17 1524.76 1396.16 1507.15 1366.54 1460.07C1336.33 1429.96 1322.48 1432.73 1275.88 1392.25C1223.48 1326.18 1187.84 1232.42 1155.95 1176.98M648.401 1236.52C637.256 1294 637.256 1368.2 603.823 1466.45C570.389 1564.69 506.915 1573.72 489.5 1653.19C477.452 1690.78 602.133 1639.34 628.821 1647.55M617.069 634.721C622.335 640.337 622.512 640.245 628.673 646.165C662.63 676.301 702.825 709.466 752.703 734.369M1306.47 907.054C1342.96 964.458 1330.83 1013.42 1255.57 993.991C1204.91 982.391 1145.51 960.227 1045.54 876.632C1007.75 845.031 968.788 797.208 898.607 696.267C877.978 662.026 855.203 632.435 831.507 607.238C741.192 511.204 642.86 476.495 593.678 494.028M1105.91 732.386C1228.67 820.008 1285.73 865.804 1319.24 928.209M596.715 496.297C638.282 470.304 732.64 513.859 815.538 552.659C887.78 586.472 934.506 627.003 964.677 647.302M817.154 551.828C929.258 418.743 1088.03 307.146 1258.36 289.843C1301.61 279.029 1323.43 361.214 1355.03 473.039C1324.56 447.998 1325.91 438.747 1303.33 432.312C1298.98 439.057 1290.35 465.28 1279.55 501.046C1252.65 590.126 1212.26 738.4 1190.78 792.354" fill="none" opacity="1" stroke="#96b6d8" stroke-linecap="round" stroke-linejoin="round" stroke-width="6.04097" vectornator:layerName="Curve 91"/>
<path d="M1014.79 732.042C1021.81 713.619 1041.68 710.264 1067.16 670.121C1077.43 653.95 1096.29 620.401 1109.54 607.154C1114.72 601.971 1137.27 566.26 1152.73 551.667C1156.1 548.487 1147.3 598.337 1146.6 601.127C1142.41 617.908 1135.36 635.399 1128.94 651.445C1113.59 689.817 1084.19 729.299 1058.23 761.743M958.495 924.782C978.841 930.068 984.68 953.916 970.134 966.077C952.216 981.058 916.068 959.862 915.15 934.478C918.566 921.331 944.542 921.157 958.495 924.782ZM697.182 823.956C698.813 816.544 718.53 797.897 730.145 816.653C738.762 830.569 744.743 850.255 717.755 854.622C699.336 844.917 685.742 831.869 697.182 823.956Z" fill="#ffceb6" fill-rule="nonzero" opacity="1" stroke="none" vectornator:layerName="Curve 94"/>
<path d="M736.303 852.122C732.513 840.511 717.676 800.541 741.19 800.806C758.109 800.996 761.239 840.363 753.287 850.72C747.557 858.185 741.241 857.966 736.303 852.122ZM903.849 900.715C925.23 893.353 975.451 886.216 970.594 911.328C965.98 935.18 917.825 935.556 901.696 926.474C894.926 922.662 894.286 910.781 903.849 900.715Z" fill="#000000" fill-rule="nonzero" opacity="1" stroke="#000000" stroke-linecap="butt" stroke-linejoin="round" stroke-width="6.04097" vectornator:layerName="Curve 37"/>
<path d="M1391.99 1599.15C1335.56 1574.06 1246.85 1554.72 1211.1 1513.86C1188.72 1488.28 1232.86 1482.17 1248.95 1487.53C1273.05 1495.57 1336.13 1530.4 1336.13 1530.4M985.688 1207.82C974.539 1200.39 1001.28 1230.81 1005.43 1235.79C1017.88 1250.73 1029.72 1264.37 1044.92 1276.93C1102.61 1324.58 1145.66 1345.38 1219.33 1355.9M1062.49 1092.29C1021.82 1075.46 975.731 1100.93 934.269 1087.35C925.069 1084.34 913.758 1076.79 905.469 1070.99C905.194 1070.79 897.212 1064.12 900.726 1062.22C914.458 1054.79 973.118 1066.9 988.368 1072.38" fill="none" opacity="1" stroke="#96b6d8" stroke-linecap="round" stroke-linejoin="round" stroke-width="4.36379" vectornator:layerName="Curve 35"/>
<path d="M1076.99 777.453C1117.38 701.473 1184.41 635.256 1157.52 507.937C1126.83 480.465 1034.01 554.881 957.592 659.872C955.677 662.503 968.984 694.101 1003.53 724.718C1029.76 747.956 1077.36 774.92 1075.93 776.966M975.049 1411.27C932.316 1444.51 895.914 1574.29 957.639 1631.27C916.981 1650.56 931.868 1672.89 933.899 1694.58M762.889 937.057L772.848 917.364L785.575 937.751M744.526 1552.8C747.522 1556.06 752.388 1561.15 756.806 1565.26C786.708 1594.09 818.904 1614.61 856.287 1634.19C872.119 1642.48 916.573 1648.69 933.265 1655.37M663.032 1022.96C633.8 866.703 608.333 734.139 608.333 734.139M570.896 736.454C570.896 736.454 670.257 1247.16 702.619 1416.37C696.301 1434.44 675.649 1457.73 713.332 1501.76C701.861 1534.3 733.592 1553.93 742.824 1552.92C751.672 1551.96 766.7 1517.74 747.889 1494.38C761.181 1447.39 742.58 1429.66 732.352 1412.87C721.927 1342.94 700.236 1222.77 677.053 1097.64M608.333 734.139L609.24 723.96M565.039 725.215L570.896 736.454M1041.27 1017.06C1037.25 1010.06 1036.39 1009.96 1031.76 1002.91C1046.6 964.665 1057.73 941.058 1067.07 895.131M625.173 1020.56C621.246 1022.08 623.424 1020.83 618.23 1023.49C543.59 1142.62 585.088 1174.35 649.508 1240.6C659.167 1338.57 651.808 1324.77 656.868 1415.38C586.309 1534.41 654.526 1593.26 672.055 1608.2C601.844 1634.15 610.719 1696.74 678.345 1692.55C732.621 1709.57 861.498 1671.53 924.053 1669.69C944.984 1688.32 916.573 1700.52 958.605 1704.24C998.305 1711.7 1062.4 1716.47 1105.88 1700.15C1121.15 1679.58 1101.38 1681.63 1130.67 1659.36C1144.33 1648.96 1169.69 1649.23 1193.47 1633.64C1202 1628.05 1200.37 1629.77 1219.75 1629.81M831.003 608.702C825.441 621.935 823.254 626.973 808.587 672.106C755.054 729.131 757.184 727.633 713.617 807.064C603.396 893.626 665.644 943.668 683.626 973.68C693.082 993.109 688.178 1009.3 680.367 1013.22M762.173 1220.75C762.173 1220.75 701.012 1118.32 656.599 1076.02C640.833 1052 649.489 1033.37 664.165 1022.02C676.703 1012.32 693.636 1007.93 703.489 1010.04C743.906 1018.69 803.619 1073.55 803.619 1073.55" fill="none" opacity="1" stroke="#000000" stroke-linecap="round" stroke-linejoin="round" stroke-width="6.04097" vectornator:layerName="Curve 99"/>
<path d="M516.808 253.766C514.797 241.771 514.287 229.56 513.704 217.413C511.299 167.284 524.418 299.162 516.808 253.766ZM403.411 370.108C400.238 366.223 352.597 349.413 348.473 346.558C318.907 326.095 417.039 386.795 403.411 370.108ZM705.403 312.007C688.563 321.927 666.818 335.22 656.882 341.647M388.654 563.178C412.173 536.643 425.295 527.216 439.228 509.658M672.015 483.985C694.912 490.381 700.82 491.103 715.591 494.725M613.223 265.934C606.77 278.285 601.718 287.597 599.154 292.83M428.231 290.878C426.971 290.377 419.969 285.775 419.037 284.73C417.71 283.242 443.396 303.147 448.955 308.935M366.634 456.208C361.974 457.446 390.133 448.839 397.757 447.936M708.513 411.835C694.964 412.979 680.922 417.804 673.991 418.439M610.994 704.261L623.904 559.31L520.202 339.241L487.052 575.558L557.894 711.503M527.576 383.346C526.742 374.54 529.336 395.804 529.478 396.855C531.197 409.562 532.946 422.24 534.951 434.916M539.639 458.118C539.615 457.868 540.778 466.951 542.508 475.269M545.17 496.796C543.234 476.362 552.805 555.002 555.772 556.15M560.427 585.577C558.923 569.699 567.507 618.097 568.308 622.787C573.582 653.635 582.899 684.833 585.824 715.71M515.268 391.357C521.304 401.025 515.364 427.202 515.333 438.02C515.235 473.376 511.094 511.484 514.4 546.38M514.595 568.14C514.829 570.607 514.128 563.207 513.894 560.74C513.504 556.628 515.452 577.186 515.062 573.074C514.712 569.374 514.361 565.674 514.595 568.14ZM520.457 590.608C516.479 584.237 525.663 602.775 526.06 603.767C529.168 611.536 532.178 619.344 535.123 627.176C545.467 654.686 555.48 681.856 568.913 707.979M528.757 369.545C523.049 356.631 528.616 360.559 532.691 371.661C539.419 389.989 545.038 408.725 551.635 427.113C565.378 465.421 578.436 510.845 600.208 545.717M601.429 571.736C599.97 569.399 600.396 561.788 602.519 563.543C603.818 564.617 600.314 615.591 600.261 618.515C599.651 651.889 596.145 686.722 599.301 720.033" fill="none" opacity="1" stroke="#a4f600" stroke-linecap="round" stroke-linejoin="round" stroke-width="6.04097" vectornator:layerName="Curve 98"/>
<path d="M1357.21 493.626C1359.34 497.885 1358.55 495.3 1358.55 501.631M1358.55 526.983C1358.55 522.129 1358.81 545.973 1358.55 549.665C1357.33 566.66 1355.88 584.995 1355.88 601.702M1332.53 656.408C1338.45 657.741 1351.32 620.382 1354.55 620.382C1362.31 620.382 1358.36 635.448 1359.88 643.065C1361.21 649.69 1366.74 657.332 1367.89 663.079C1368.16 664.458 1367 665.748 1366.55 667.082C1365.65 669.8 1351.99 721.787 1347.87 721.787C1345.61 721.787 1346.91 717.353 1346.54 715.116C1344.17 700.887 1341.37 686.621 1338.53 672.419C1337.76 668.546 1327 655.164 1332.53 656.408ZM1345.8 742.284C1343.7 740.376 1342.87 746.335 1342.02 747.814C1341.78 748.248 1336.96 755.82 1337 755.859C1338.86 757.717 1340.44 759.927 1342.53 763.4C1342.95 764.103 1344.25 769.433 1345.04 769.433C1346.62 769.433 1350.87 758.79 1351.58 757.367C1351.74 757.044 1346.86 743.25 1345.8 742.284Z" fill="#a1f600" fill-rule="nonzero" opacity="1" stroke="#a4f600" stroke-linecap="round" stroke-linejoin="round" stroke-width="6.04097" vectornator:layerName="Curve 97"/>
<path d="M317.027 1630.94C327.689 1633.76 344.658 1622.91 355.226 1619.74C361.249 1617.93 367.784 1617.26 373.666 1615.79C374.518 1615.58 376.301 1615.79 376.301 1615.79C376.301 1615.79 373.666 1614.91 373.666 1615.79C373.666 1618.37 386.68 1620.81 388.155 1621.06C394.471 1622.11 400.434 1626.1 406.596 1627.64C407.448 1627.86 409.23 1627.64 409.23 1627.64C409.23 1627.64 404.723 1628.13 402.644 1628.96C399.02 1630.41 395.538 1633.59 392.107 1635.55C385.884 1639.1 371.711 1651.35 364.446 1651.35C358.324 1651.35 338.412 1640.25 331.516 1638.18C327.527 1636.98 323.49 1635.87 319.662 1634.23C317.488 1633.3 310.743 1631.98 313.076 1631.6C316.54 1631.02 313.988 1630.13 317.027 1630.94ZM1593.38 1691.53C1593.12 1681.69 1622.13 1681.11 1631.58 1679.01C1639.54 1677.24 1647.35 1674.01 1655.29 1672.43C1657.06 1672.07 1660.56 1671.11 1660.56 1671.11C1660.56 1671.11 1657.48 1671.55 1657.92 1672.43C1658.64 1673.86 1669.01 1679.98 1669.78 1680.33C1672.25 1681.46 1699.74 1687.92 1697.44 1694.82C1697.37 1695.01 1674.29 1700.7 1672.41 1701.41C1665.98 1703.82 1649.91 1714.88 1643.43 1713.26C1634.67 1711.07 1626.85 1703.66 1617.09 1701.41C1605.77 1698.79 1593.63 1700.96 1593.38 1691.53ZM1179.12 1705.36C1178.38 1703.75 1175.14 1704.38 1174.51 1702.72C1173.48 1699.97 1179.62 1699.7 1182.42 1698.77C1187.18 1697.18 1192.26 1691.8 1196.91 1690.87C1197.87 1690.68 1199 1691.37 1199.54 1692.19C1204.52 1699.65 1204.7 1702.72 1215.35 1702.72C1216.23 1702.72 1213.59 1702.72 1212.71 1702.72C1209.2 1702.72 1205.69 1702.72 1202.18 1702.72C1196.03 1702.72 1181.1 1709.65 1179.12 1705.36ZM797.8 1721.16C795.134 1722.06 778.161 1734.66 772.773 1736.97C770.066 1738.13 767.396 1739.41 764.87 1740.92C763.679 1741.64 759.937 1741.26 760.918 1742.24C763.73 1745.05 768.916 1742.59 772.773 1743.56C787.959 1747.35 802.478 1748.44 817.557 1751.46C822.088 1752.37 823.73 1759 829.412 1756.73C835.877 1754.14 843.022 1747.24 849.17 1743.56C851.743 1742.01 870.245 1738.34 870.245 1735.65C870.245 1734.67 868.582 1734.47 867.61 1734.34C857.081 1732.83 846.76 1731.22 835.998 1729.07C832.448 1728.36 801.196 1717.77 800.434 1718.53C798.851 1720.11 801.522 1719.91 797.8 1721.16ZM629.2 1735.65C625.268 1735.26 621.22 1734.88 617.345 1735.65C587.538 1741.61 607.584 1746.89 621.297 1751.46C625.816 1752.97 638.654 1761.04 643.689 1759.36C655.17 1755.54 665.101 1744.87 679.253 1744.87C681.448 1744.87 674.82 1745.3 672.667 1744.87C669.26 1744.19 665.57 1743.39 662.13 1742.24C649.557 1738.05 638.736 1736.61 629.2 1735.65ZM1050.04 1757.39C1038.55 1753.21 1035.39 1759.08 1025.67 1764.63C1023.12 1766.09 1015.69 1766.5 1017.77 1768.58C1019.45 1770.26 1029.61 1768.14 1032.26 1768.58C1036.54 1769.3 1045.26 1777.52 1049.38 1776.49C1052.09 1775.81 1055.47 1771.15 1058.6 1769.9C1060.8 1769.02 1065.19 1769.63 1065.19 1767.27C1065.19 1766.02 1056.43 1763.73 1055.97 1763.31C1052.5 1760.19 1051.09 1757.77 1050.04 1757.39Z" fill="#dcfe98" fill-rule="nonzero" opacity="1" stroke="#a1f600" stroke-linecap="round" stroke-linejoin="round" stroke-width="6.04097" vectornator:layerName="Curve 96"/>
<path d="M349.116 433.464C349.116 319.336 432.383 226.817 535.098 226.817C637.813 226.817 721.08 319.336 721.08 433.464C721.08 547.592 637.813 640.111 535.098 640.111C432.383 640.111 349.116 547.592 349.116 433.464Z" fill="#ebffc3" fill-rule="nonzero" filter="url(#Filter)" opacity="0.337209" stroke="none" vectornator:blendMode="screen" vectornator:blur="99.3218" vectornator:layerName="Oval 1"/>
<g opacity="1" vectornator:layerName="Group 2">
<g opacity="1" vectornator:layerName="Group 1">
<path d="M89.5248 2330.54L437.897 2330.54L437.897 2560.98L89.5248 2560.98L159.199 2461.86L89.5248 2330.54Z" fill="#d4f293" fill-rule="nonzero" opacity="1" stroke="#9ddf17" stroke-linecap="butt" stroke-linejoin="round" stroke-width="4.90982" vectornator:layerName="Rectangle 2"/>
<path d="M1920.64 2330.54L1572.27 2330.54L1572.27 2560.98L1920.64 2560.98L1850.97 2461.86L1920.64 2330.54Z" fill="#d4f293" fill-rule="nonzero" opacity="1" stroke="#9ddf17" stroke-linecap="butt" stroke-linejoin="round" stroke-width="4.90982" vectornator:layerName="Rectangle 4"/>
<path d="M317.868 2199.23L1695.21 2199.23L1695.21 2461.86L317.868 2461.86L317.868 2199.23Z" fill="#d4f293" fill-rule="nonzero" opacity="1" stroke="#9ddf17" stroke-linecap="butt" stroke-linejoin="round" stroke-width="4.90982" vectornator:layerName="Rectangle 1"/>
<path d="M317.868 2461.86L437.897 2461.86L437.897 2560.98L317.868 2461.86Z" fill="#d4f293" fill-rule="nonzero" opacity="1" stroke="#9ddf17" stroke-linecap="butt" stroke-linejoin="round" stroke-width="4.90982" vectornator:layerName="Rectangle 3"/>
<path d="M1692.3 2461.86L1572.27 2461.86L1572.27 2560.98L1692.3 2461.86Z" fill="#d4f293" fill-rule="nonzero" opacity="1" stroke="#9ddf17" stroke-linecap="butt" stroke-linejoin="round" stroke-width="4.90982" vectornator:layerName="Rectangle 5"/>
</g>
<g fill="#9de11c" filter="url(#Filter_2)" opacity="1" stroke="none" vectornator:blur="25" vectornator:layerName="Text 1">
<path d="M483.168 2375.52C482.836 2377.96 481.951 2380.03 480.512 2381.75C479.073 2383.46 477.413 2384.65 475.532 2385.32C473.651 2385.98 471.714 2386.01 469.722 2385.4C467.73 2384.79 466.069 2383.32 464.741 2381C463.635 2379.12 462.998 2377.15 462.832 2375.11C462.666 2373.06 462.473 2370.93 462.251 2368.72C462.03 2366.28 461.781 2364.15 461.504 2362.32C461.227 2360.5 460.923 2358.37 460.591 2355.93C459.595 2349.29 458.488 2342.74 457.271 2336.26C456.054 2329.79 454.67 2323.28 453.121 2316.75C450.907 2322.29 448.804 2327.77 446.812 2333.19C444.82 2338.61 442.828 2344.09 440.836 2349.62C439.287 2353.72 437.765 2357.84 436.271 2361.99C434.777 2366.14 433.034 2370.15 431.041 2374.03C430.377 2375.36 429.271 2376.44 427.721 2377.27C426.172 2378.1 424.512 2378.57 422.741 2378.68C420.97 2378.79 419.31 2378.54 417.761 2377.93C416.211 2377.32 415.049 2376.3 414.274 2374.86C409.516 2365.67 404.812 2356.54 400.164 2347.47C395.515 2338.39 390.867 2329.26 386.219 2320.07C385.666 2325.72 385.167 2331.39 384.725 2337.09C384.282 2342.79 383.784 2348.46 383.231 2354.11C383.12 2355.88 383.009 2358.04 382.899 2360.58C382.788 2363.13 382.594 2365.7 382.318 2368.3C382.041 2370.9 381.709 2373.39 381.322 2375.77C380.934 2378.15 380.298 2380 379.412 2381.33C378.084 2383.55 376.341 2384.98 374.183 2385.65C372.025 2386.31 369.922 2386.37 367.875 2385.81C365.827 2385.26 364.112 2384.13 362.729 2382.41C361.345 2380.7 360.709 2378.51 360.819 2375.85C361.041 2371.32 361.428 2366.83 361.982 2362.41C362.535 2357.98 363.033 2353.5 363.476 2348.96C364.361 2339.11 365.274 2329.32 366.215 2319.58C367.155 2309.84 368.069 2299.99 368.954 2290.03C369.175 2287.15 369.756 2284.49 370.697 2282.06C371.638 2279.62 373.658 2277.91 376.756 2276.91C377.974 2276.47 379.246 2276.3 380.575 2276.41C381.903 2276.53 383.12 2276.91 384.227 2277.58C386.662 2279.13 388.571 2281.26 389.954 2283.97C391.338 2286.68 392.638 2289.25 393.855 2291.69C395.958 2295.67 398.006 2299.68 399.998 2303.72C401.99 2307.76 403.982 2311.77 405.974 2315.76C408.409 2320.85 410.871 2325.86 413.361 2330.78C415.852 2335.71 418.425 2340.66 421.081 2345.64C421.745 2343.98 422.381 2342.32 422.99 2340.66C423.599 2339 424.235 2337.34 424.899 2335.68C426.116 2332.8 427.251 2329.9 428.302 2326.96C429.354 2324.03 430.433 2321.13 431.539 2318.25C433.089 2314.49 434.555 2310.78 435.939 2307.13C437.322 2303.47 438.678 2299.77 440.006 2296C441.113 2293.24 442.164 2290.25 443.16 2287.04C444.156 2283.83 445.761 2281.12 447.974 2278.9C449.524 2277.24 451.212 2276.25 453.038 2275.92C454.864 2275.58 456.579 2275.72 458.184 2276.33C459.789 2276.94 461.227 2277.96 462.5 2279.4C463.773 2280.84 464.686 2282.5 465.239 2284.38C465.903 2286.93 466.678 2289.81 467.564 2293.02C468.449 2296.22 469.224 2299.1 469.888 2301.65C471.105 2306.3 472.212 2310.86 473.208 2315.34C474.204 2319.83 475.145 2324.39 476.03 2329.04C477.579 2336.68 478.935 2344.23 480.097 2351.7C481.259 2359.17 482.283 2366.72 483.168 2374.36L483.168 2375.52Z"/>
<path d="M581.114 2375.02C580.782 2377.46 579.952 2379.53 578.624 2381.25C577.296 2382.96 575.774 2384.15 574.059 2384.82C572.343 2385.48 570.517 2385.57 568.58 2385.07C566.643 2384.57 564.845 2383.27 563.185 2381.17C561.746 2379.4 560.944 2377.43 560.778 2375.27C560.612 2373.11 560.307 2370.98 559.865 2368.88C558.758 2362.79 557.153 2356.54 555.05 2350.12C548.189 2350.23 541.382 2350.29 534.631 2350.29C527.88 2350.29 521.129 2350.34 514.378 2350.45C513.382 2353.33 512.524 2356.26 511.805 2359.25C511.086 2362.24 510.394 2365.17 509.73 2368.05C509.177 2370.27 508.678 2372.56 508.236 2374.94C507.793 2377.32 506.797 2379.4 505.248 2381.17C503.366 2383.38 501.346 2384.62 499.188 2384.9C497.03 2385.18 495.093 2384.82 493.378 2383.82C491.663 2382.83 490.279 2381.3 489.228 2379.26C488.176 2377.21 487.817 2374.86 488.149 2372.2C488.481 2368.77 489.145 2365.4 490.141 2362.08C491.137 2358.76 492.078 2355.43 492.963 2352.11C497.943 2333.08 504.362 2314.65 512.22 2296.83C512.884 2295.28 513.576 2293.79 514.295 2292.35C515.015 2290.91 515.706 2289.47 516.37 2288.04C517.145 2286.49 517.92 2284.83 518.694 2283.05C519.469 2281.28 520.382 2279.65 521.434 2278.16C522.485 2276.66 523.73 2275.39 525.169 2274.34C526.608 2273.29 528.378 2272.76 530.481 2272.76C533.248 2272.76 535.572 2273.65 537.453 2275.42C544.979 2282.94 551.177 2291.44 556.047 2300.9C560.916 2310.36 565.288 2320.02 569.161 2329.87C571.485 2329.76 573.754 2329.76 575.968 2329.87C578.181 2329.98 580.173 2330.98 581.944 2332.86C583.493 2334.41 584.406 2336.07 584.683 2337.84C584.96 2339.61 584.794 2341.32 584.185 2342.98C583.576 2344.64 582.58 2346.08 581.197 2347.3C579.814 2348.52 578.126 2349.35 576.134 2349.79C577.24 2353.66 578.209 2357.62 579.039 2361.66C579.869 2365.7 580.561 2369.77 581.114 2373.86L581.114 2375.02ZM547.248 2329.87C545.145 2324.89 542.904 2319.94 540.525 2315.01C538.145 2310.09 535.461 2305.41 532.473 2300.98C530.26 2305.85 528.185 2310.7 526.248 2315.51C524.311 2320.32 522.513 2325.22 520.853 2330.2C526.054 2330.09 530.619 2330.04 534.548 2330.04C538.477 2330.04 542.71 2329.98 547.248 2329.87Z"/>
<path d="M678.063 2320.74C680.277 2321.4 682.158 2322.48 683.708 2323.98C685.257 2325.47 686.281 2327.13 686.779 2328.96C687.277 2330.78 687.166 2332.61 686.447 2334.43C685.728 2336.26 684.206 2337.89 681.882 2339.33C681.66 2339.66 681.605 2341.02 681.716 2343.4C681.826 2345.78 681.909 2348.52 681.965 2351.62C682.02 2354.72 681.937 2357.84 681.716 2361C681.494 2364.15 680.996 2366.61 680.222 2368.38C679.447 2369.82 678.506 2371.1 677.399 2372.2C676.293 2373.31 675.131 2374.36 673.913 2375.36C669.818 2378.79 665.447 2381.42 660.798 2383.24C656.15 2385.07 651.391 2386.15 646.522 2386.48C641.652 2386.81 636.755 2386.31 631.83 2384.98C626.905 2383.66 622.174 2381.55 617.636 2378.68C611.881 2375.02 607.039 2370.32 603.11 2364.57C599.181 2358.81 596.331 2352.61 594.561 2345.97C593.454 2341.77 592.818 2337.37 592.652 2332.77C592.486 2328.18 592.845 2323.64 593.731 2319.16C594.616 2314.68 596.055 2310.39 598.047 2306.3C600.039 2302.2 602.529 2298.49 605.517 2295.17C609.059 2291.3 613.126 2288.09 617.719 2285.54C622.312 2283 627.043 2280.79 631.913 2278.9C635.676 2277.36 639.549 2276.19 643.533 2275.42C647.518 2274.64 651.557 2274.37 655.652 2274.59C658.751 2274.81 662.099 2275.34 665.696 2276.17C669.293 2277 672.364 2278.46 674.909 2280.56C676.127 2281.56 677.15 2282.78 677.98 2284.22C678.81 2285.66 679.309 2287.12 679.475 2288.62C679.641 2290.11 679.447 2291.55 678.893 2292.93C678.34 2294.32 677.344 2295.56 675.905 2296.67C674.467 2297.77 672.945 2298.41 671.34 2298.58C669.735 2298.74 668.103 2298.63 666.443 2298.24C664.783 2297.86 663.123 2297.33 661.463 2296.67C659.802 2296 658.253 2295.45 656.814 2295.01C655.597 2294.56 654.296 2294.37 652.913 2294.43C651.53 2294.48 650.174 2294.62 648.846 2294.84C644.972 2295.95 641.071 2297.3 637.142 2298.91C633.213 2300.51 629.589 2302.48 626.269 2304.8C622.948 2307.13 620.098 2309.89 617.719 2313.1C615.34 2316.31 613.818 2320.19 613.154 2324.72C612.268 2330.37 612.545 2335.98 613.984 2341.57C615.423 2347.16 618.079 2352.06 621.952 2356.26C624.498 2359.03 627.458 2361.27 630.834 2362.99C634.209 2364.7 637.723 2365.73 641.375 2366.06C645.028 2366.39 648.624 2366 652.166 2364.9C655.708 2363.79 658.862 2361.85 661.629 2359.09L661.629 2341.16C659.415 2341.27 657.119 2341.46 654.739 2341.74C652.36 2342.02 649.98 2342.18 647.601 2342.24C645.221 2342.29 642.897 2342.13 640.628 2341.74C638.36 2341.35 636.229 2340.6 634.237 2339.5C632.356 2338.39 631.055 2336.92 630.336 2335.1C629.616 2333.27 629.423 2331.45 629.755 2329.62C630.087 2327.79 630.861 2326.11 632.079 2324.56C633.296 2323.01 634.956 2321.96 637.059 2321.4C638.055 2321.18 639.3 2321.04 640.794 2320.99C642.288 2320.93 643.782 2320.9 645.277 2320.9C646.771 2320.9 648.126 2320.93 649.344 2320.99C650.561 2321.04 651.502 2321.07 652.166 2321.07C656.482 2321.07 660.771 2321.02 665.032 2320.9C669.293 2320.79 673.637 2320.74 678.063 2320.74Z"/>
<path d="M742.475 2362.41C745.353 2362.52 747.732 2363.38 749.614 2364.98C751.495 2366.59 752.712 2368.44 753.266 2370.54C753.819 2372.64 753.653 2374.72 752.768 2376.77C751.882 2378.81 750.056 2380.39 747.289 2381.5C745.297 2382.27 742.945 2382.77 740.234 2382.99C737.522 2383.21 734.811 2383.3 732.1 2383.24C729.388 2383.19 726.87 2383.08 724.546 2382.91C722.222 2382.74 720.451 2382.66 719.234 2382.66L709.439 2382.66C707.115 2382.66 705.123 2382.02 703.463 2380.75C701.803 2379.48 700.613 2377.96 699.894 2376.19C699.174 2374.42 699.008 2372.53 699.396 2370.54C699.783 2368.55 700.807 2366.72 702.467 2365.06C704.016 2363.51 706.064 2362.63 708.609 2362.41C711.155 2362.19 713.7 2362.19 716.246 2362.41L716.246 2296.67C713.7 2296.67 711.321 2296.64 709.107 2296.58C706.894 2296.53 704.68 2295.73 702.467 2294.18C700.807 2292.96 699.7 2291.55 699.147 2289.94C698.593 2288.34 698.51 2286.73 698.898 2285.13C699.285 2283.53 700.032 2282 701.139 2280.56C702.245 2279.13 703.629 2278.07 705.289 2277.41C706.838 2276.75 708.443 2276.41 710.103 2276.41C715.748 2276.41 721.42 2276.39 727.119 2276.33C732.819 2276.28 738.546 2276.3 744.301 2276.41C744.855 2276.41 745.38 2276.58 745.878 2276.91C746.376 2277.24 746.902 2277.52 747.455 2277.74C750.001 2279.18 751.716 2281.23 752.602 2283.88C753.487 2286.54 753.155 2289.14 751.606 2291.69C750.831 2293.02 749.863 2294.04 748.7 2294.76C747.538 2295.48 746.266 2295.98 744.882 2296.25C743.499 2296.53 742.088 2296.67 740.649 2296.67C739.21 2296.67 737.827 2296.67 736.499 2296.67L736.499 2362.74C737.384 2362.74 738.187 2362.71 738.906 2362.66C739.625 2362.6 740.428 2362.52 741.313 2362.41L742.475 2362.41Z"/>
<path d="M830.294 2350.62C832.065 2348.85 834.085 2347.83 836.353 2347.55C838.622 2347.27 840.697 2347.58 842.579 2348.46C844.46 2349.35 845.927 2350.76 846.978 2352.7C848.029 2354.63 848.278 2356.93 847.725 2359.59C847.061 2362.24 845.788 2364.7 843.907 2366.97C842.025 2369.24 840.144 2371.32 838.263 2373.2C833.946 2377.74 829.16 2381.08 823.903 2383.24C818.646 2385.4 813.333 2386.42 807.966 2386.31C802.598 2386.2 797.341 2384.93 792.195 2382.49C787.049 2380.06 782.428 2376.41 778.333 2371.54C775.898 2368.66 773.851 2365.62 772.191 2362.41C770.531 2359.2 769.258 2355.82 768.373 2352.28C767.044 2347.08 766.436 2341.66 766.546 2336.01C766.657 2330.37 767.543 2324.89 769.203 2319.58C770.863 2314.26 773.215 2309.26 776.258 2304.55C779.302 2299.85 783.037 2295.84 787.464 2292.52C790.673 2290.08 793.91 2287.98 797.175 2286.21C800.44 2284.44 803.899 2282.78 807.551 2281.23C809.654 2280.34 811.812 2279.49 814.025 2278.66C816.239 2277.83 818.507 2277.19 820.832 2276.75C823.156 2276.3 825.48 2276.14 827.804 2276.25C830.128 2276.36 832.397 2276.86 834.61 2277.74C836.16 2278.41 837.709 2279.32 839.259 2280.48C840.808 2281.64 842.247 2282.97 843.575 2284.47C844.903 2285.96 846.065 2287.54 847.061 2289.2C848.057 2290.86 848.776 2292.46 849.219 2294.01C849.551 2295.45 849.634 2296.92 849.468 2298.41C849.302 2299.9 848.859 2301.26 848.14 2302.48C847.421 2303.7 846.452 2304.72 845.235 2305.55C844.018 2306.38 842.634 2306.9 841.085 2307.13C838.539 2307.46 836.575 2307.18 835.191 2306.3C833.808 2305.41 832.701 2304.3 831.871 2302.98C831.041 2301.65 830.239 2300.35 829.464 2299.07C828.689 2297.8 827.583 2296.89 826.144 2296.34C825.258 2296.34 824.594 2296.39 824.152 2296.5C820.389 2297.5 816.598 2298.85 812.78 2300.57C808.962 2302.28 805.42 2304.36 802.155 2306.79C798.891 2309.23 796.041 2312.05 793.606 2315.26C791.171 2318.47 789.4 2322.07 788.294 2326.05C786.966 2330.81 786.468 2335.62 786.8 2340.49C787.132 2345.36 788.46 2349.96 790.784 2354.27C792.112 2356.82 793.883 2359.03 796.096 2360.91C798.31 2362.79 800.744 2364.21 803.401 2365.15C806.057 2366.09 808.768 2366.42 811.535 2366.14C814.302 2365.87 816.958 2364.9 819.503 2363.24C821.717 2361.69 823.709 2359.78 825.48 2357.51C827.251 2355.24 828.855 2352.94 830.294 2350.62Z"/>
<path d="M903.836 2362.41C906.714 2362.52 909.093 2363.38 910.975 2364.98C912.856 2366.59 914.074 2368.44 914.627 2370.54C915.18 2372.64 915.014 2374.72 914.129 2376.77C913.243 2378.81 911.417 2380.39 908.651 2381.5C906.658 2382.27 904.307 2382.77 901.595 2382.99C898.884 2383.21 896.172 2383.3 893.461 2383.24C890.749 2383.19 888.231 2383.08 885.907 2382.91C883.583 2382.74 881.812 2382.66 880.595 2382.66L870.8 2382.66C868.476 2382.66 866.484 2382.02 864.824 2380.75C863.164 2379.48 861.974 2377.96 861.255 2376.19C860.535 2374.42 860.369 2372.53 860.757 2370.54C861.144 2368.55 862.168 2366.72 863.828 2365.06C865.377 2363.51 867.425 2362.63 869.97 2362.41C872.516 2362.19 875.061 2362.19 877.607 2362.41L877.607 2296.67C875.061 2296.67 872.682 2296.64 870.468 2296.58C868.255 2296.53 866.041 2295.73 863.828 2294.18C862.168 2292.96 861.061 2291.55 860.508 2289.94C859.954 2288.34 859.871 2286.73 860.259 2285.13C860.646 2283.53 861.393 2282 862.5 2280.56C863.607 2279.13 864.99 2278.07 866.65 2277.41C868.2 2276.75 869.804 2276.41 871.464 2276.41C877.109 2276.41 882.781 2276.39 888.48 2276.33C894.18 2276.28 899.907 2276.3 905.662 2276.41C906.216 2276.41 906.741 2276.58 907.239 2276.91C907.737 2277.24 908.263 2277.52 908.817 2277.74C911.362 2279.18 913.077 2281.23 913.963 2283.88C914.848 2286.54 914.516 2289.14 912.967 2291.69C912.192 2293.02 911.224 2294.04 910.062 2294.76C908.9 2295.48 907.627 2295.98 906.243 2296.25C904.86 2296.53 903.449 2296.67 902.01 2296.67C900.571 2296.67 899.188 2296.67 897.86 2296.67L897.86 2362.74C898.745 2362.74 899.548 2362.71 900.267 2362.66C900.986 2362.6 901.789 2362.52 902.674 2362.41L903.836 2362.41Z"/>
<path d="M1018.22 2375.02C1017.88 2377.46 1017.05 2379.53 1015.73 2381.25C1014.4 2382.96 1012.88 2384.15 1011.16 2384.82C1009.45 2385.48 1007.62 2385.57 1005.68 2385.07C1003.75 2384.57 1001.95 2383.27 1000.29 2381.17C998.849 2379.4 998.047 2377.43 997.881 2375.27C997.715 2373.11 997.41 2370.98 996.968 2368.88C995.861 2362.79 994.256 2356.54 992.153 2350.12C985.292 2350.23 978.485 2350.29 971.734 2350.29C964.983 2350.29 958.232 2350.34 951.481 2350.45C950.485 2353.33 949.627 2356.26 948.908 2359.25C948.188 2362.24 947.497 2365.17 946.833 2368.05C946.279 2370.27 945.781 2372.56 945.339 2374.94C944.896 2377.32 943.9 2379.4 942.35 2381.17C940.469 2383.38 938.449 2384.62 936.291 2384.9C934.133 2385.18 932.196 2384.82 930.481 2383.82C928.765 2382.83 927.382 2381.3 926.331 2379.26C925.279 2377.21 924.919 2374.86 925.251 2372.2C925.583 2368.77 926.248 2365.4 927.244 2362.08C928.24 2358.76 929.18 2355.43 930.066 2352.11C935.046 2333.08 941.465 2314.65 949.323 2296.83C949.987 2295.28 950.679 2293.79 951.398 2292.35C952.117 2290.91 952.809 2289.47 953.473 2288.04C954.248 2286.49 955.022 2284.83 955.797 2283.05C956.572 2281.28 957.485 2279.65 958.536 2278.16C959.588 2276.66 960.833 2275.39 962.272 2274.34C963.71 2273.29 965.481 2272.76 967.584 2272.76C970.351 2272.76 972.675 2273.65 974.556 2275.42C982.082 2282.94 988.28 2291.44 993.149 2300.9C998.019 2310.36 1002.39 2320.02 1006.26 2329.87C1008.59 2329.76 1010.86 2329.76 1013.07 2329.87C1015.28 2329.98 1017.28 2330.98 1019.05 2332.86C1020.6 2334.41 1021.51 2336.07 1021.79 2337.84C1022.06 2339.61 1021.9 2341.32 1021.29 2342.98C1020.68 2344.64 1019.68 2346.08 1018.3 2347.3C1016.92 2348.52 1015.23 2349.35 1013.24 2349.79C1014.34 2353.66 1015.31 2357.62 1016.14 2361.66C1016.97 2365.7 1017.66 2369.77 1018.22 2373.86L1018.22 2375.02ZM984.351 2329.87C982.248 2324.89 980.007 2319.94 977.627 2315.01C975.248 2310.09 972.564 2305.41 969.576 2300.98C967.363 2305.85 965.287 2310.7 963.351 2315.51C961.414 2320.32 959.615 2325.22 957.955 2330.2C963.157 2330.09 967.722 2330.04 971.651 2330.04C975.58 2330.04 979.813 2329.98 984.351 2329.87Z"/>
<path d="M1097.4 2281.39C1098.07 2279.18 1099.15 2277.36 1100.64 2275.92C1102.13 2274.48 1103.77 2273.54 1105.54 2273.09C1107.31 2272.65 1109.11 2272.76 1110.93 2273.43C1112.76 2274.09 1114.34 2275.42 1115.66 2277.41C1116.11 2277.96 1116.52 2278.63 1116.91 2279.4C1117.3 2280.18 1117.49 2280.9 1117.49 2281.56C1117.71 2297.39 1117.63 2313.19 1117.24 2328.96C1116.85 2344.73 1116.22 2360.53 1115.33 2376.35C1115.33 2378.9 1114.53 2380.89 1112.93 2382.33C1111.32 2383.77 1109.49 2384.68 1107.45 2385.07C1105.4 2385.45 1103.32 2385.23 1101.22 2384.4C1099.12 2383.57 1097.57 2382.16 1096.57 2380.17C1096.46 2380.06 1096.41 2379.95 1096.41 2379.84L1096.41 2380.17C1089.21 2368.33 1081.63 2356.96 1073.66 2346.06C1065.7 2335.15 1057.39 2324.34 1048.76 2313.6L1048.76 2351.12C1048.76 2356.21 1048.76 2360.47 1048.76 2363.9C1048.76 2367.33 1048.71 2370.13 1048.6 2372.28C1048.49 2374.44 1048.35 2376.13 1048.18 2377.35C1048.02 2378.57 1047.77 2379.62 1047.43 2380.5C1046.44 2383.16 1044.92 2384.93 1042.87 2385.81C1040.82 2386.7 1038.75 2386.92 1036.64 2386.48C1034.54 2386.04 1032.71 2384.93 1031.17 2383.16C1029.62 2381.39 1028.84 2379.17 1028.84 2376.52C1028.84 2374.97 1028.84 2372.53 1028.84 2369.21C1028.84 2365.89 1028.84 2362.13 1028.84 2357.93C1028.84 2353.72 1028.84 2349.21 1028.84 2344.4C1028.84 2339.58 1028.84 2334.85 1028.84 2330.2C1028.84 2325.55 1028.81 2321.21 1028.76 2317.17C1028.7 2313.13 1028.68 2309.73 1028.68 2306.96C1028.68 2303.2 1028.62 2299.46 1028.51 2295.75C1028.4 2292.05 1028.4 2288.31 1028.51 2284.55C1028.51 2282.67 1028.98 2281.06 1029.92 2279.73C1030.86 2278.41 1032.05 2277.38 1033.49 2276.66C1034.93 2275.94 1036.48 2275.53 1038.14 2275.42C1039.8 2275.31 1041.4 2275.53 1042.95 2276.08C1044.28 2276.53 1045.64 2277.44 1047.02 2278.82C1048.4 2280.2 1049.76 2281.7 1051.09 2283.3C1052.41 2284.91 1053.66 2286.51 1054.82 2288.12C1055.98 2289.72 1056.95 2291.02 1057.73 2292.02C1060.6 2295.56 1063.92 2299.63 1067.69 2304.22C1071.45 2308.81 1074.94 2313.16 1078.15 2317.25C1081.36 2321.46 1084.48 2325.66 1087.53 2329.87C1090.57 2334.07 1093.53 2338.28 1096.41 2342.49C1096.74 2332.41 1096.96 2322.4 1097.07 2312.44C1097.18 2302.48 1097.24 2292.46 1097.24 2282.39L1097.4 2281.39Z"/>
<path d="M1209.13 2383.82C1204.37 2383.27 1201.46 2381.69 1200.41 2379.09C1199.36 2376.49 1199.33 2373.64 1200.33 2370.54L1200.33 2303.14C1198.56 2303.14 1196.98 2302.67 1195.6 2301.73C1194.21 2300.79 1193.11 2299.6 1192.28 2298.16C1191.45 2296.72 1191.03 2295.15 1191.03 2293.43C1191.03 2291.71 1191.53 2290.14 1192.53 2288.7C1194.74 2285.38 1197.59 2282.78 1201.08 2280.9C1204.56 2279.02 1208.19 2277.47 1211.95 2276.25C1217.82 2274.37 1223.71 2273.32 1229.63 2273.09C1235.55 2272.87 1241.39 2274.09 1247.14 2276.75C1252.35 2279.18 1256.44 2282.34 1259.43 2286.21C1262.42 2290.08 1264.3 2294.21 1265.07 2298.58C1265.85 2302.95 1265.46 2307.43 1263.91 2312.02C1262.36 2316.62 1259.59 2320.9 1255.61 2324.89C1260.81 2328.21 1264.52 2332.17 1266.73 2336.76C1268.95 2341.35 1269.86 2346.08 1269.47 2350.95C1269.08 2355.82 1267.54 2360.53 1264.82 2365.06C1262.11 2369.6 1258.43 2373.53 1253.78 2376.85C1251.02 2378.84 1247.78 2380.36 1244.07 2381.42C1240.37 2382.47 1236.55 2383.21 1232.62 2383.66C1228.69 2384.1 1224.79 2384.32 1220.91 2384.32C1217.04 2384.32 1213.5 2384.21 1210.29 2383.99L1209.13 2383.82ZM1244.49 2341.66C1242.5 2340.33 1240.56 2339.33 1238.68 2338.67C1236.8 2338 1234.89 2337.56 1232.95 2337.34C1231.01 2337.12 1229.05 2337.06 1227.06 2337.17C1225.06 2337.28 1222.91 2337.4 1220.58 2337.51L1220.58 2364.07C1223.02 2364.07 1225.62 2363.98 1228.38 2363.82C1231.15 2363.65 1233.81 2363.21 1236.35 2362.49C1238.9 2361.77 1241.28 2360.75 1243.49 2359.42C1245.7 2358.09 1247.48 2356.26 1248.8 2353.94C1249.14 2351.28 1249.08 2348.99 1248.64 2347.05C1248.2 2345.11 1246.81 2343.32 1244.49 2341.66ZM1220.58 2316.09C1222.57 2316.09 1224.57 2316.09 1226.56 2316.09C1228.55 2316.09 1230.52 2315.9 1232.45 2315.51C1234.39 2315.12 1236.27 2314.49 1238.1 2313.6C1239.92 2312.72 1241.55 2311.44 1242.99 2309.78C1245.1 2307.46 1245.84 2305 1245.23 2302.39C1244.63 2299.79 1243.05 2297.72 1240.5 2296.17C1237.63 2294.29 1234.36 2293.32 1230.71 2293.26C1227.06 2293.21 1223.68 2293.62 1220.58 2294.51L1220.58 2316.09Z"/>
<path d="M1348.24 2284.71C1348.91 2282.5 1349.99 2280.68 1351.48 2279.24C1352.97 2277.8 1354.61 2276.86 1356.38 2276.41C1358.15 2275.97 1359.95 2276.08 1361.77 2276.75C1363.6 2277.41 1365.18 2278.74 1366.5 2280.73C1366.95 2281.28 1367.36 2281.95 1367.75 2282.72C1368.14 2283.5 1368.33 2284.22 1368.33 2284.88C1368.33 2286.1 1368.28 2288.15 1368.16 2291.02C1368.05 2293.9 1367.97 2296.83 1367.92 2299.82C1367.86 2302.81 1367.78 2305.47 1367.67 2307.79C1367.56 2310.11 1367.5 2311.33 1367.5 2311.44C1367.28 2317.42 1366.89 2323.37 1366.34 2329.29C1365.79 2335.21 1365.01 2341.16 1364.01 2347.13C1363.13 2351.78 1362.08 2356.07 1360.86 2360C1359.64 2363.93 1357.98 2367.42 1355.88 2370.46C1353.78 2373.5 1351.12 2376.13 1347.91 2378.34C1344.7 2380.56 1340.72 2382.33 1335.96 2383.66C1334.08 2384.21 1332.11 2384.6 1330.07 2384.82C1328.02 2385.04 1326.05 2385.15 1324.17 2385.15C1318.64 2385.15 1312.99 2384.1 1307.24 2382C1300.71 2379.45 1295.78 2375.25 1292.46 2369.38C1289.14 2363.51 1286.82 2356.96 1285.49 2349.71C1284.16 2342.46 1283.53 2335.13 1283.58 2327.71C1283.64 2320.3 1283.67 2313.77 1283.67 2308.12C1283.67 2305.8 1283.69 2303.45 1283.75 2301.07C1283.8 2298.69 1283.89 2296.34 1284 2294.01C1284 2292.35 1284.05 2290.61 1284.16 2288.78C1284.27 2286.96 1284.61 2285.21 1285.16 2283.55C1285.71 2281.89 1286.57 2280.45 1287.73 2279.24C1288.9 2278.02 1290.53 2277.19 1292.63 2276.75C1293.85 2276.53 1295.15 2276.64 1296.53 2277.08C1297.91 2277.52 1299.16 2278.16 1300.27 2278.99C1301.37 2279.82 1302.31 2280.81 1303.09 2281.98C1303.86 2283.14 1304.25 2284.38 1304.25 2285.71C1304.25 2287.48 1304.25 2288.89 1304.25 2289.94C1304.25 2291 1304.25 2291.94 1304.25 2292.77C1304.25 2293.6 1304.22 2294.45 1304.17 2295.34C1304.11 2296.22 1304.08 2297.39 1304.08 2298.83C1303.86 2306.13 1303.75 2313.41 1303.75 2320.66C1303.75 2327.9 1304.2 2335.13 1305.08 2342.32C1305.41 2345.31 1305.91 2348.41 1306.58 2351.62C1307.24 2354.83 1308.57 2357.59 1310.56 2359.92C1312.33 2362.02 1314.63 2363.49 1317.45 2364.32C1320.27 2365.15 1323.15 2365.4 1326.08 2365.06C1329.01 2364.73 1331.78 2363.9 1334.38 2362.57C1336.98 2361.25 1339 2359.47 1340.44 2357.26C1341.88 2355.05 1342.99 2352.45 1343.76 2349.46C1344.54 2346.47 1345.12 2343.37 1345.5 2340.16C1345.89 2336.95 1346.17 2333.77 1346.33 2330.62C1346.5 2327.46 1346.64 2324.56 1346.75 2321.9C1346.97 2318.8 1347.14 2316.15 1347.25 2313.93C1347.36 2311.72 1347.47 2309.06 1347.58 2305.96C1347.69 2303.64 1347.75 2301.32 1347.75 2298.99C1347.75 2296.67 1347.8 2294.34 1347.91 2292.02L1348.24 2284.71Z"/>
<path d="M1449.68 2281.39C1450.34 2279.18 1451.42 2277.36 1452.91 2275.92C1454.41 2274.48 1456.04 2273.54 1457.81 2273.09C1459.58 2272.65 1461.38 2272.76 1463.2 2273.43C1465.03 2274.09 1466.61 2275.42 1467.94 2277.41C1468.38 2277.96 1468.79 2278.63 1469.18 2279.4C1469.57 2280.18 1469.76 2280.9 1469.76 2281.56C1469.98 2297.39 1469.9 2313.19 1469.51 2328.96C1469.13 2344.73 1468.49 2360.53 1467.6 2376.35C1467.6 2378.9 1466.8 2380.89 1465.2 2382.33C1463.59 2383.77 1461.77 2384.68 1459.72 2385.07C1457.67 2385.45 1455.6 2385.23 1453.49 2384.4C1451.39 2383.57 1449.84 2382.16 1448.85 2380.17C1448.73 2380.06 1448.68 2379.95 1448.68 2379.84L1448.68 2380.17C1441.49 2368.33 1433.9 2356.96 1425.94 2346.06C1417.97 2335.15 1409.67 2324.34 1401.03 2313.6L1401.03 2351.12C1401.03 2356.21 1401.03 2360.47 1401.03 2363.9C1401.03 2367.33 1400.98 2370.13 1400.87 2372.28C1400.76 2374.44 1400.62 2376.13 1400.45 2377.35C1400.29 2378.57 1400.04 2379.62 1399.71 2380.5C1398.71 2383.16 1397.19 2384.93 1395.14 2385.81C1393.09 2386.7 1391.02 2386.92 1388.92 2386.48C1386.81 2386.04 1384.99 2384.93 1383.44 2383.16C1381.89 2381.39 1381.11 2379.17 1381.11 2376.52C1381.11 2374.97 1381.11 2372.53 1381.11 2369.21C1381.11 2365.89 1381.11 2362.13 1381.11 2357.93C1381.11 2353.72 1381.11 2349.21 1381.11 2344.4C1381.11 2339.58 1381.11 2334.85 1381.11 2330.2C1381.11 2325.55 1381.09 2321.21 1381.03 2317.17C1380.97 2313.13 1380.95 2309.73 1380.95 2306.96C1380.95 2303.2 1380.89 2299.46 1380.78 2295.75C1380.67 2292.05 1380.67 2288.31 1380.78 2284.55C1380.78 2282.67 1381.25 2281.06 1382.19 2279.73C1383.13 2278.41 1384.32 2277.38 1385.76 2276.66C1387.2 2275.94 1388.75 2275.53 1390.41 2275.42C1392.07 2275.31 1393.67 2275.53 1395.22 2276.08C1396.55 2276.53 1397.91 2277.44 1399.29 2278.82C1400.67 2280.2 1402.03 2281.7 1403.36 2283.3C1404.69 2284.91 1405.93 2286.51 1407.09 2288.12C1408.26 2289.72 1409.22 2291.02 1410 2292.02C1412.88 2295.56 1416.2 2299.63 1419.96 2304.22C1423.72 2308.81 1427.21 2313.16 1430.42 2317.25C1433.63 2321.46 1436.75 2325.66 1439.8 2329.87C1442.84 2334.07 1445.8 2338.28 1448.68 2342.49C1449.01 2332.41 1449.23 2322.4 1449.34 2312.44C1449.45 2302.48 1449.51 2292.46 1449.51 2282.39L1449.68 2281.39Z"/>
<path d="M1551.61 2281.39C1552.27 2279.18 1553.35 2277.36 1554.84 2275.92C1556.34 2274.48 1557.97 2273.54 1559.74 2273.09C1561.51 2272.65 1563.31 2272.76 1565.13 2273.43C1566.96 2274.09 1568.54 2275.42 1569.87 2277.41C1570.31 2277.96 1570.72 2278.63 1571.11 2279.4C1571.5 2280.18 1571.69 2280.9 1571.69 2281.56C1571.91 2297.39 1571.83 2313.19 1571.44 2328.96C1571.06 2344.73 1570.42 2360.53 1569.53 2376.35C1569.53 2378.9 1568.73 2380.89 1567.13 2382.33C1565.52 2383.77 1563.7 2384.68 1561.65 2385.07C1559.6 2385.45 1557.53 2385.23 1555.42 2384.4C1553.32 2383.57 1551.77 2382.16 1550.77 2380.17C1550.66 2380.06 1550.61 2379.95 1550.61 2379.84L1550.61 2380.17C1543.42 2368.33 1535.83 2356.96 1527.87 2346.06C1519.9 2335.15 1511.6 2324.34 1502.96 2313.6L1502.96 2351.12C1502.96 2356.21 1502.96 2360.47 1502.96 2363.9C1502.96 2367.33 1502.91 2370.13 1502.8 2372.28C1502.69 2374.44 1502.55 2376.13 1502.38 2377.35C1502.22 2378.57 1501.97 2379.62 1501.64 2380.5C1500.64 2383.16 1499.12 2384.93 1497.07 2385.81C1495.02 2386.7 1492.95 2386.92 1490.85 2386.48C1488.74 2386.04 1486.92 2384.93 1485.37 2383.16C1483.82 2381.39 1483.04 2379.17 1483.04 2376.52C1483.04 2374.97 1483.04 2372.53 1483.04 2369.21C1483.04 2365.89 1483.04 2362.13 1483.04 2357.93C1483.04 2353.72 1483.04 2349.21 1483.04 2344.4C1483.04 2339.58 1483.04 2334.85 1483.04 2330.2C1483.04 2325.55 1483.02 2321.21 1482.96 2317.17C1482.9 2313.13 1482.88 2309.73 1482.88 2306.96C1482.88 2303.2 1482.82 2299.46 1482.71 2295.75C1482.6 2292.05 1482.6 2288.31 1482.71 2284.55C1482.71 2282.67 1483.18 2281.06 1484.12 2279.73C1485.06 2278.41 1486.25 2277.38 1487.69 2276.66C1489.13 2275.94 1490.68 2275.53 1492.34 2275.42C1494 2275.31 1495.6 2275.53 1497.15 2276.08C1498.48 2276.53 1499.84 2277.44 1501.22 2278.82C1502.6 2280.2 1503.96 2281.7 1505.29 2283.3C1506.62 2284.91 1507.86 2286.51 1509.02 2288.12C1510.19 2289.72 1511.15 2291.02 1511.93 2292.02C1514.81 2295.56 1518.13 2299.63 1521.89 2304.22C1525.65 2308.81 1529.14 2313.16 1532.35 2317.25C1535.56 2321.46 1538.68 2325.66 1541.73 2329.87C1544.77 2334.07 1547.73 2338.28 1550.61 2342.49C1550.94 2332.41 1551.16 2322.4 1551.27 2312.44C1551.38 2302.48 1551.44 2292.46 1551.44 2282.39L1551.61 2281.39Z"/>
<path d="M1631.62 2374.36C1631.29 2377.13 1630.27 2379.4 1628.55 2381.17C1626.83 2382.94 1624.9 2384.04 1622.74 2384.49C1620.58 2384.93 1618.51 2384.65 1616.51 2383.66C1614.52 2382.66 1613.08 2380.72 1612.2 2377.85C1611.65 2375.96 1611.29 2373.92 1611.12 2371.7C1610.95 2369.49 1610.9 2367.3 1610.95 2365.15C1611.01 2362.99 1611.09 2360.91 1611.2 2358.92C1611.31 2356.93 1611.37 2355.27 1611.37 2353.94C1611.37 2350.73 1611.34 2347.58 1611.29 2344.48C1611.23 2341.38 1611.2 2338.23 1611.2 2335.02C1605.78 2329.81 1600.83 2324.31 1596.34 2318.5C1591.86 2312.69 1587.85 2306.46 1584.31 2299.82C1583.2 2297.83 1582.15 2295.64 1581.15 2293.26C1580.16 2290.88 1579.61 2288.53 1579.49 2286.21C1578.94 2284.11 1579.16 2282.2 1580.16 2280.48C1581.15 2278.77 1582.51 2277.44 1584.23 2276.5C1585.94 2275.56 1587.82 2275.11 1589.87 2275.17C1591.92 2275.22 1593.77 2275.92 1595.43 2277.24C1596.65 2278.24 1597.64 2279.4 1598.42 2280.73C1599.19 2282.06 1599.86 2283.47 1600.41 2284.96C1600.97 2286.46 1601.49 2287.98 1601.99 2289.53C1602.49 2291.08 1603.12 2292.52 1603.9 2293.85C1606.22 2298.05 1608.8 2301.95 1611.62 2305.55C1614.44 2309.15 1617.46 2312.72 1620.66 2316.26C1623.54 2312.38 1626.64 2308.76 1629.96 2305.38C1633.28 2302.01 1636.33 2298.38 1639.09 2294.51C1639.65 2293.62 1640.48 2292.27 1641.58 2290.44C1642.69 2288.62 1643.85 2286.71 1645.07 2284.71C1646.29 2282.72 1647.56 2280.87 1648.89 2279.15C1650.21 2277.44 1651.38 2276.3 1652.37 2275.75C1654.14 2274.64 1655.94 2274.15 1657.77 2274.26C1659.59 2274.37 1661.25 2274.92 1662.75 2275.92C1664.24 2276.91 1665.43 2278.27 1666.32 2279.98C1667.2 2281.7 1667.53 2283.55 1667.31 2285.54C1667.09 2287.65 1666.12 2290.19 1664.41 2293.18C1662.69 2296.17 1660.7 2299.21 1658.43 2302.31C1656.16 2305.41 1653.87 2308.34 1651.54 2311.11C1649.22 2313.88 1647.39 2316.09 1646.06 2317.75C1644.96 2319.08 1643.88 2320.38 1642.83 2321.65C1641.78 2322.92 1640.7 2324.17 1639.59 2325.39C1638.15 2327.05 1636.77 2328.71 1635.44 2330.37C1634.11 2332.03 1632.78 2333.69 1631.46 2335.35C1631.46 2341.66 1631.46 2347.96 1631.46 2354.27C1631.46 2360.58 1631.51 2366.89 1631.62 2373.2L1631.62 2374.36Z"/>
</g>
<g fill="#ffffff" opacity="1" stroke="none" vectornator:layerName="Text 2">
<path d="M497.042 2370.03C496.724 2372.36 495.877 2374.35 494.5 2375.99C493.123 2377.63 491.534 2378.77 489.733 2379.41C487.932 2380.04 486.079 2380.07 484.172 2379.48C482.265 2378.9 480.676 2377.5 479.405 2375.27C478.346 2373.47 477.737 2371.59 477.578 2369.63C477.419 2367.67 477.234 2365.64 477.022 2363.52C476.81 2361.19 476.572 2359.15 476.307 2357.4C476.042 2355.65 475.751 2353.61 475.433 2351.28C474.48 2344.93 473.421 2338.65 472.255 2332.45C471.09 2326.26 469.766 2320.03 468.283 2313.79C466.165 2319.08 464.152 2324.32 462.245 2329.51C460.339 2334.71 458.432 2339.95 456.526 2345.24C455.043 2349.16 453.586 2353.11 452.156 2357.08C450.726 2361.05 449.058 2364.89 447.151 2368.6C446.516 2369.87 445.456 2370.91 443.974 2371.7C442.491 2372.49 440.902 2372.94 439.207 2373.05C437.512 2373.16 435.923 2372.92 434.44 2372.34C432.957 2371.75 431.845 2370.77 431.104 2369.4C426.549 2360.6 422.047 2351.87 417.598 2343.18C413.149 2334.49 408.701 2325.75 404.252 2316.96C403.722 2322.37 403.245 2327.79 402.822 2333.25C402.398 2338.7 401.921 2344.13 401.392 2349.53C401.286 2351.23 401.18 2353.3 401.074 2355.73C400.968 2358.17 400.783 2360.63 400.518 2363.12C400.253 2365.61 399.935 2367.99 399.565 2370.27C399.194 2372.55 398.585 2374.32 397.737 2375.59C396.466 2377.71 394.798 2379.09 392.732 2379.72C390.667 2380.36 388.654 2380.41 386.695 2379.88C384.735 2379.35 383.093 2378.27 381.769 2376.62C380.445 2374.98 379.836 2372.89 379.942 2370.35C380.154 2366.01 380.525 2361.72 381.054 2357.48C381.584 2353.24 382.061 2348.95 382.484 2344.61C383.332 2335.18 384.206 2325.81 385.106 2316.49C386.006 2307.16 386.88 2297.74 387.728 2288.2C387.939 2285.45 388.495 2282.91 389.396 2280.58C390.296 2278.25 392.229 2276.61 395.195 2275.65C396.36 2275.23 397.579 2275.07 398.85 2275.18C400.121 2275.28 401.286 2275.65 402.345 2276.29C404.675 2277.77 406.503 2279.81 407.827 2282.41C409.151 2285 410.395 2287.46 411.561 2289.79C413.573 2293.61 415.533 2297.45 417.439 2301.31C419.346 2305.18 421.253 2309.02 423.159 2312.83C425.49 2317.7 427.846 2322.5 430.23 2327.21C432.613 2331.92 435.076 2336.66 437.618 2341.43C438.254 2339.84 438.863 2338.25 439.445 2336.66C440.028 2335.08 440.637 2333.49 441.272 2331.9C442.438 2329.14 443.523 2326.36 444.53 2323.56C445.536 2320.75 446.569 2317.97 447.628 2315.22C449.111 2311.61 450.514 2308.07 451.838 2304.57C453.162 2301.07 454.46 2297.53 455.731 2293.92C456.79 2291.28 457.797 2288.42 458.75 2285.34C459.703 2282.27 461.239 2279.68 463.358 2277.56C464.841 2275.97 466.456 2275.02 468.204 2274.7C469.952 2274.38 471.593 2274.51 473.129 2275.1C474.665 2275.68 476.042 2276.66 477.26 2278.04C478.478 2279.41 479.352 2281 479.882 2282.8C480.517 2285.24 481.259 2287.99 482.106 2291.06C482.954 2294.14 483.695 2296.89 484.331 2299.33C485.496 2303.78 486.555 2308.14 487.509 2312.43C488.462 2316.72 489.362 2321.09 490.21 2325.54C491.693 2332.85 492.99 2340.08 494.102 2347.23C495.215 2354.38 496.194 2361.61 497.042 2368.92L497.042 2370.03Z"/>
<path d="M590.785 2369.55C590.467 2371.88 589.673 2373.87 588.402 2375.51C587.131 2377.15 585.674 2378.29 584.032 2378.93C582.39 2379.56 580.643 2379.64 578.789 2379.17C576.935 2378.69 575.214 2377.45 573.625 2375.43C572.248 2373.74 571.48 2371.86 571.321 2369.79C571.162 2367.73 570.871 2365.69 570.447 2363.68C569.388 2357.85 567.852 2351.87 565.84 2345.72C559.272 2345.83 552.758 2345.88 546.297 2345.88C539.835 2345.88 533.374 2345.93 526.912 2346.04C525.959 2348.79 525.138 2351.6 524.45 2354.46C523.761 2357.32 523.099 2360.13 522.464 2362.88C521.934 2365 521.457 2367.2 521.034 2369.48C520.61 2371.75 519.657 2373.74 518.174 2375.43C516.373 2377.55 514.44 2378.74 512.374 2379.01C510.309 2379.27 508.455 2378.93 506.813 2377.98C505.171 2377.02 503.847 2375.57 502.841 2373.61C501.835 2371.65 501.491 2369.4 501.808 2366.85C502.126 2363.57 502.762 2360.34 503.715 2357.16C504.668 2353.98 505.569 2350.81 506.416 2347.63C511.183 2329.41 517.326 2311.77 524.847 2294.72C525.482 2293.24 526.145 2291.81 526.833 2290.43C527.522 2289.05 528.184 2287.67 528.819 2286.3C529.561 2284.81 530.302 2283.23 531.044 2281.53C531.785 2279.84 532.659 2278.27 533.665 2276.84C534.671 2275.41 535.863 2274.2 537.24 2273.19C538.617 2272.18 540.312 2271.68 542.325 2271.68C544.973 2271.68 547.197 2272.53 548.998 2274.22C556.201 2281.43 562.132 2289.55 566.793 2298.61C571.454 2307.67 575.638 2316.91 579.345 2326.34C581.57 2326.23 583.741 2326.23 585.86 2326.34C587.978 2326.44 589.885 2327.4 591.579 2329.2C593.062 2330.68 593.936 2332.27 594.201 2333.96C594.466 2335.66 594.307 2337.3 593.724 2338.89C593.142 2340.48 592.189 2341.86 590.864 2343.02C589.54 2344.19 587.925 2344.98 586.018 2345.4C587.078 2349.11 588.005 2352.9 588.799 2356.76C589.593 2360.63 590.255 2364.52 590.785 2368.44L590.785 2369.55ZM558.372 2326.34C556.36 2321.57 554.215 2316.83 551.937 2312.12C549.66 2307.4 547.091 2302.93 544.231 2298.69C542.113 2303.35 540.127 2307.99 538.273 2312.59C536.419 2317.2 534.698 2321.89 533.109 2326.66C538.088 2326.55 542.457 2326.5 546.217 2326.5C549.978 2326.5 554.029 2326.44 558.372 2326.34Z"/>
<path d="M683.575 2317.6C685.693 2318.23 687.494 2319.27 688.977 2320.7C690.46 2322.13 691.44 2323.72 691.917 2325.46C692.393 2327.21 692.287 2328.96 691.599 2330.71C690.91 2332.45 689.454 2334.02 687.229 2335.39C687.018 2335.71 686.965 2337.01 687.071 2339.29C687.176 2341.56 687.256 2344.19 687.309 2347.15C687.362 2350.12 687.282 2353.11 687.071 2356.13C686.859 2359.15 686.382 2361.5 685.641 2363.2C684.899 2364.58 683.999 2365.79 682.939 2366.85C681.88 2367.91 680.768 2368.92 679.603 2369.87C675.684 2373.16 671.5 2375.67 667.051 2377.42C662.602 2379.17 658.047 2380.2 653.386 2380.52C648.726 2380.84 644.039 2380.36 639.325 2379.09C634.611 2377.82 630.083 2375.8 625.74 2373.05C620.232 2369.55 615.598 2365.05 611.838 2359.54C608.077 2354.04 605.35 2348.1 603.655 2341.75C602.596 2337.72 601.987 2333.51 601.828 2329.12C601.669 2324.72 602.013 2320.38 602.86 2316.09C603.708 2311.8 605.085 2307.69 606.991 2303.78C608.898 2299.86 611.281 2296.31 614.141 2293.13C617.531 2289.42 621.424 2286.35 625.82 2283.91C630.215 2281.48 634.744 2279.36 639.404 2277.56C643.006 2276.08 646.713 2274.96 650.527 2274.22C654.34 2273.48 658.206 2273.22 662.125 2273.43C665.091 2273.64 668.295 2274.14 671.738 2274.94C675.18 2275.73 678.12 2277.14 680.556 2279.15C681.721 2280.1 682.701 2281.27 683.496 2282.64C684.29 2284.02 684.767 2285.42 684.926 2286.85C685.084 2288.28 684.899 2289.66 684.369 2290.98C683.84 2292.31 682.886 2293.5 681.509 2294.56C680.132 2295.62 678.676 2296.23 677.14 2296.39C675.604 2296.55 674.042 2296.44 672.453 2296.07C670.864 2295.7 669.275 2295.2 667.686 2294.56C666.097 2293.92 664.614 2293.39 663.237 2292.97C662.072 2292.55 660.828 2292.36 659.504 2292.41C658.18 2292.47 656.882 2292.6 655.611 2292.81C651.904 2293.87 648.17 2295.17 644.409 2296.7C640.649 2298.24 637.18 2300.12 634.002 2302.35C630.825 2304.57 628.097 2307.22 625.82 2310.29C623.542 2313.36 622.086 2317.07 621.45 2321.41C620.603 2326.81 620.868 2332.19 622.245 2337.54C623.622 2342.89 626.164 2347.58 629.871 2351.6C632.307 2354.25 635.141 2356.39 638.372 2358.04C641.602 2359.68 644.965 2360.66 648.461 2360.97C651.956 2361.29 655.399 2360.92 658.789 2359.86C662.178 2358.8 665.197 2356.95 667.845 2354.3L667.845 2337.14C665.727 2337.25 663.529 2337.43 661.251 2337.7C658.974 2337.96 656.697 2338.12 654.419 2338.17C652.142 2338.23 649.917 2338.07 647.746 2337.7C645.575 2337.33 643.535 2336.61 641.629 2335.55C639.828 2334.49 638.584 2333.09 637.895 2331.34C637.206 2329.59 637.021 2327.85 637.339 2326.1C637.657 2324.35 638.398 2322.74 639.563 2321.25C640.728 2319.77 642.317 2318.76 644.33 2318.23C645.283 2318.02 646.475 2317.89 647.905 2317.84C649.335 2317.78 650.765 2317.76 652.195 2317.76C653.625 2317.76 654.922 2317.78 656.088 2317.84C657.253 2317.89 658.153 2317.92 658.789 2317.92C662.92 2317.92 667.024 2317.86 671.102 2317.76C675.18 2317.65 679.338 2317.6 683.575 2317.6Z"/>
<path d="M745.223 2357.48C747.977 2357.59 750.255 2358.41 752.055 2359.94C753.856 2361.48 755.021 2363.25 755.551 2365.26C756.08 2367.28 755.922 2369.26 755.074 2371.22C754.227 2373.18 752.479 2374.69 749.831 2375.75C747.924 2376.49 745.673 2376.97 743.078 2377.18C740.483 2377.39 737.888 2377.47 735.293 2377.42C732.698 2377.37 730.288 2377.26 728.063 2377.1C725.839 2376.94 724.144 2376.86 722.979 2376.86L713.605 2376.86C711.38 2376.86 709.474 2376.25 707.885 2375.04C706.296 2373.82 705.157 2372.36 704.469 2370.67C703.78 2368.97 703.621 2367.17 703.992 2365.26C704.363 2363.36 705.343 2361.61 706.931 2360.02C708.414 2358.54 710.374 2357.69 712.81 2357.48C715.246 2357.27 717.683 2357.27 720.119 2357.48L720.119 2294.56C717.683 2294.56 715.405 2294.53 713.287 2294.48C711.168 2294.43 709.05 2293.66 706.931 2292.18C705.343 2291.01 704.283 2289.66 703.754 2288.12C703.224 2286.59 703.145 2285.05 703.515 2283.52C703.886 2281.98 704.601 2280.52 705.66 2279.15C706.72 2277.77 708.044 2276.76 709.632 2276.13C711.115 2275.49 712.651 2275.18 714.24 2275.18C719.642 2275.18 725.071 2275.15 730.526 2275.1C735.981 2275.04 741.463 2275.07 746.971 2275.18C747.501 2275.18 748.004 2275.33 748.48 2275.65C748.957 2275.97 749.46 2276.23 749.99 2276.45C752.426 2277.82 754.068 2279.78 754.915 2282.33C755.763 2284.87 755.445 2287.36 753.962 2289.79C753.22 2291.06 752.294 2292.04 751.181 2292.73C750.069 2293.42 748.851 2293.9 747.527 2294.16C746.203 2294.43 744.852 2294.56 743.475 2294.56C742.098 2294.56 740.774 2294.56 739.503 2294.56L739.503 2357.8C740.351 2357.8 741.119 2357.77 741.807 2357.72C742.496 2357.66 743.264 2357.59 744.111 2357.48L745.223 2357.48Z"/>
<path d="M829.274 2346.2C830.969 2344.5 832.902 2343.52 835.074 2343.26C837.245 2342.99 839.231 2343.29 841.032 2344.13C842.833 2344.98 844.236 2346.33 845.242 2348.18C846.249 2350.04 846.487 2352.24 845.957 2354.78C845.322 2357.32 844.104 2359.68 842.303 2361.85C840.502 2364.02 838.702 2366.01 836.901 2367.81C832.77 2372.15 828.189 2375.35 823.157 2377.42C818.126 2379.48 813.041 2380.46 807.904 2380.36C802.767 2380.25 797.735 2379.03 792.81 2376.7C787.884 2374.37 783.462 2370.88 779.543 2366.22C777.212 2363.46 775.253 2360.55 773.664 2357.48C772.075 2354.41 770.857 2351.18 770.009 2347.79C768.738 2342.81 768.156 2337.62 768.262 2332.22C768.368 2326.81 769.215 2321.57 770.804 2316.49C772.393 2311.4 774.644 2306.61 777.557 2302.11C780.47 2297.61 784.044 2293.77 788.281 2290.59C791.353 2288.26 794.452 2286.24 797.576 2284.55C800.701 2282.86 804.011 2281.27 807.507 2279.78C809.519 2278.94 811.585 2278.12 813.703 2277.32C815.822 2276.53 817.993 2275.92 820.218 2275.49C822.442 2275.07 824.667 2274.91 826.891 2275.02C829.115 2275.12 831.287 2275.6 833.405 2276.45C834.888 2277.08 836.371 2277.96 837.854 2279.07C839.337 2280.18 840.714 2281.45 841.985 2282.88C843.256 2284.31 844.369 2285.82 845.322 2287.41C846.275 2289 846.964 2290.53 847.387 2292.02C847.705 2293.39 847.785 2294.8 847.626 2296.23C847.467 2297.66 847.043 2298.96 846.355 2300.12C845.666 2301.29 844.739 2302.27 843.574 2303.06C842.409 2303.85 841.085 2304.36 839.602 2304.57C837.166 2304.89 835.286 2304.62 833.961 2303.78C832.637 2302.93 831.578 2301.87 830.784 2300.6C829.989 2299.33 829.221 2298.08 828.48 2296.86C827.738 2295.65 826.679 2294.77 825.302 2294.24C824.455 2294.24 823.819 2294.3 823.395 2294.4C819.794 2295.35 816.166 2296.65 812.512 2298.29C808.857 2299.94 805.468 2301.92 802.343 2304.25C799.218 2306.58 796.491 2309.28 794.16 2312.36C791.83 2315.43 790.135 2318.87 789.076 2322.68C787.805 2327.24 787.328 2331.85 787.646 2336.51C787.964 2341.17 789.235 2345.56 791.459 2349.69C792.73 2352.13 794.425 2354.25 796.544 2356.05C798.662 2357.85 800.992 2359.2 803.535 2360.1C806.077 2361 808.672 2361.32 811.32 2361.05C813.968 2360.79 816.51 2359.86 818.947 2358.27C821.065 2356.79 822.972 2354.96 824.667 2352.79C826.361 2350.62 827.897 2348.42 829.274 2346.2Z"/>
<path d="M899.661 2357.48C902.415 2357.59 904.693 2358.41 906.493 2359.94C908.294 2361.48 909.459 2363.25 909.989 2365.26C910.518 2367.28 910.36 2369.26 909.512 2371.22C908.665 2373.18 906.917 2374.69 904.269 2375.75C902.362 2376.49 900.111 2376.97 897.516 2377.18C894.921 2377.39 892.326 2377.47 889.731 2377.42C887.136 2377.37 884.726 2377.26 882.501 2377.1C880.277 2376.94 878.582 2376.86 877.417 2376.86L868.043 2376.86C865.818 2376.86 863.912 2376.25 862.323 2375.04C860.734 2373.82 859.595 2372.36 858.907 2370.67C858.218 2368.97 858.059 2367.17 858.43 2365.26C858.801 2363.36 859.781 2361.61 861.369 2360.02C862.852 2358.54 864.812 2357.69 867.248 2357.48C869.685 2357.27 872.121 2357.27 874.557 2357.48L874.557 2294.56C872.121 2294.56 869.843 2294.53 867.725 2294.48C865.606 2294.43 863.488 2293.66 861.369 2292.18C859.781 2291.01 858.721 2289.66 858.192 2288.12C857.662 2286.59 857.583 2285.05 857.953 2283.52C858.324 2281.98 859.039 2280.52 860.098 2279.15C861.158 2277.77 862.482 2276.76 864.071 2276.13C865.553 2275.49 867.089 2275.18 868.678 2275.18C874.08 2275.18 879.509 2275.15 884.964 2275.1C890.419 2275.04 895.901 2275.07 901.409 2275.18C901.939 2275.18 902.442 2275.33 902.918 2275.65C903.395 2275.97 903.898 2276.23 904.428 2276.45C906.864 2277.82 908.506 2279.78 909.353 2282.33C910.201 2284.87 909.883 2287.36 908.4 2289.79C907.659 2291.06 906.732 2292.04 905.619 2292.73C904.507 2293.42 903.289 2293.9 901.965 2294.16C900.641 2294.43 899.29 2294.56 897.913 2294.56C896.536 2294.56 895.212 2294.56 893.941 2294.56L893.941 2357.8C894.789 2357.8 895.557 2357.77 896.245 2357.72C896.934 2357.66 897.702 2357.59 898.549 2357.48L899.661 2357.48Z"/>
<path d="M1009.13 2369.55C1008.82 2371.88 1008.02 2373.87 1006.75 2375.51C1005.48 2377.15 1004.02 2378.29 1002.38 2378.93C1000.74 2379.56 998.992 2379.64 997.138 2379.17C995.285 2378.69 993.563 2377.45 991.975 2375.43C990.598 2373.74 989.83 2371.86 989.671 2369.79C989.512 2367.73 989.22 2365.69 988.797 2363.68C987.738 2357.85 986.202 2351.87 984.189 2345.72C977.622 2345.83 971.107 2345.88 964.646 2345.88C958.185 2345.88 951.723 2345.93 945.262 2346.04C944.308 2348.79 943.488 2351.6 942.799 2354.46C942.111 2357.32 941.448 2360.13 940.813 2362.88C940.283 2365 939.807 2367.2 939.383 2369.48C938.959 2371.75 938.006 2373.74 936.523 2375.43C934.722 2377.55 932.789 2378.74 930.724 2379.01C928.658 2379.27 926.804 2378.93 925.163 2377.98C923.521 2377.02 922.197 2375.57 921.19 2373.61C920.184 2371.65 919.84 2369.4 920.158 2366.85C920.475 2363.57 921.111 2360.34 922.064 2357.16C923.018 2353.98 923.918 2350.81 924.765 2347.63C929.532 2329.41 935.676 2311.77 943.196 2294.72C943.832 2293.24 944.494 2291.81 945.182 2290.43C945.871 2289.05 946.533 2287.67 947.168 2286.3C947.91 2284.81 948.651 2283.23 949.393 2281.53C950.134 2279.84 951.008 2278.27 952.014 2276.84C953.021 2275.41 954.212 2274.2 955.589 2273.19C956.966 2272.18 958.661 2271.68 960.674 2271.68C963.322 2271.68 965.546 2272.53 967.347 2274.22C974.55 2281.43 980.482 2289.55 985.142 2298.61C989.803 2307.67 993.987 2316.91 997.694 2326.34C999.919 2326.23 1002.09 2326.23 1004.21 2326.34C1006.33 2326.44 1008.23 2327.4 1009.93 2329.2C1011.41 2330.68 1012.29 2332.27 1012.55 2333.96C1012.82 2335.66 1012.66 2337.3 1012.07 2338.89C1011.49 2340.48 1010.54 2341.86 1009.21 2343.02C1007.89 2344.19 1006.27 2344.98 1004.37 2345.4C1005.43 2349.11 1006.35 2352.9 1007.15 2356.76C1007.94 2360.63 1008.6 2364.52 1009.13 2368.44L1009.13 2369.55ZM976.721 2326.34C974.709 2321.57 972.564 2316.83 970.286 2312.12C968.009 2307.4 965.44 2302.93 962.58 2298.69C960.462 2303.35 958.476 2307.99 956.622 2312.59C954.769 2317.2 953.047 2321.89 951.458 2326.66C956.437 2326.55 960.806 2326.5 964.567 2326.5C968.327 2326.5 972.378 2326.44 976.721 2326.34Z"/>
<path d="M1084.92 2279.94C1085.56 2277.82 1086.59 2276.08 1088.02 2274.7C1089.45 2273.32 1091.01 2272.42 1092.71 2272C1094.4 2271.57 1096.12 2271.68 1097.87 2272.32C1099.62 2272.95 1101.13 2274.22 1102.4 2276.13C1102.82 2276.66 1103.22 2277.29 1103.59 2278.04C1103.96 2278.78 1104.15 2279.47 1104.15 2280.1C1104.36 2295.25 1104.28 2310.37 1103.91 2325.46C1103.54 2340.56 1102.93 2355.68 1102.08 2370.83C1102.08 2373.26 1101.32 2375.17 1099.78 2376.55C1098.24 2377.92 1096.5 2378.8 1094.54 2379.17C1092.58 2379.54 1090.59 2379.33 1088.58 2378.53C1086.57 2377.74 1085.08 2376.39 1084.13 2374.48C1084.02 2374.37 1083.97 2374.27 1083.97 2374.16L1083.97 2374.48C1077.08 2363.15 1069.83 2352.26 1062.2 2341.83C1054.58 2331.4 1046.63 2321.04 1038.37 2310.77L1038.37 2346.67C1038.37 2351.55 1038.37 2355.63 1038.37 2358.91C1038.37 2362.19 1038.32 2364.87 1038.21 2366.93C1038.1 2369 1037.97 2370.61 1037.81 2371.78C1037.65 2372.94 1037.42 2373.95 1037.1 2374.8C1036.15 2377.34 1034.69 2379.03 1032.73 2379.88C1030.77 2380.73 1028.78 2380.94 1026.77 2380.52C1024.76 2380.09 1023.01 2379.03 1021.53 2377.34C1020.04 2375.65 1019.3 2373.53 1019.3 2370.98C1019.3 2369.5 1019.3 2367.17 1019.3 2363.99C1019.3 2360.82 1019.3 2357.21 1019.3 2353.19C1019.3 2349.16 1019.3 2344.85 1019.3 2340.24C1019.3 2335.63 1019.3 2331.1 1019.3 2326.66C1019.3 2322.21 1019.28 2318.05 1019.22 2314.18C1019.17 2310.32 1019.14 2307.06 1019.14 2304.41C1019.14 2300.81 1019.09 2297.23 1018.99 2293.69C1018.88 2290.14 1018.88 2286.56 1018.99 2282.96C1018.99 2281.16 1019.44 2279.62 1020.34 2278.35C1021.24 2277.08 1022.37 2276.1 1023.75 2275.41C1025.13 2274.73 1026.61 2274.33 1028.2 2274.22C1029.79 2274.12 1031.33 2274.33 1032.81 2274.86C1034.08 2275.28 1035.38 2276.16 1036.7 2277.48C1038.03 2278.8 1039.32 2280.23 1040.59 2281.77C1041.87 2283.31 1043.06 2284.84 1044.17 2286.38C1045.28 2287.91 1046.21 2289.16 1046.95 2290.11C1049.7 2293.5 1052.88 2297.39 1056.48 2301.79C1060.08 2306.19 1063.42 2310.34 1066.49 2314.26C1069.56 2318.29 1072.56 2322.31 1075.47 2326.34C1078.38 2330.36 1081.22 2334.39 1083.97 2338.41C1084.29 2328.77 1084.5 2319.19 1084.61 2309.65C1084.71 2300.12 1084.76 2290.53 1084.76 2280.9L1084.92 2279.94Z"/>
<path d="M1191.85 2377.98C1187.3 2377.45 1184.52 2375.94 1183.51 2373.45C1182.51 2370.96 1182.48 2368.23 1183.43 2365.26L1183.43 2300.76C1181.74 2300.76 1180.23 2300.31 1178.9 2299.41C1177.58 2298.51 1176.52 2297.37 1175.73 2295.99C1174.93 2294.61 1174.54 2293.1 1174.54 2291.46C1174.54 2289.82 1175.01 2288.31 1175.97 2286.93C1178.08 2283.76 1180.81 2281.27 1184.15 2279.47C1187.48 2277.66 1190.95 2276.18 1194.56 2275.02C1200.17 2273.22 1205.81 2272.21 1211.48 2272C1217.14 2271.79 1222.73 2272.95 1228.24 2275.49C1233.22 2277.82 1237.14 2280.84 1240 2284.55C1242.86 2288.26 1244.66 2292.2 1245.4 2296.39C1246.14 2300.57 1245.77 2304.86 1244.29 2309.26C1242.8 2313.65 1240.16 2317.76 1236.34 2321.57C1241.32 2324.75 1244.87 2328.54 1246.99 2332.93C1249.11 2337.33 1249.98 2341.86 1249.61 2346.52C1249.24 2351.18 1247.76 2355.68 1245.16 2360.02C1242.57 2364.36 1239.04 2368.12 1234.59 2371.3C1231.95 2373.21 1228.85 2374.67 1225.3 2375.67C1221.75 2376.68 1218.1 2377.39 1214.34 2377.82C1210.58 2378.24 1206.84 2378.45 1203.14 2378.45C1199.43 2378.45 1196.04 2378.35 1192.97 2378.13L1191.85 2377.98ZM1225.7 2337.62C1223.79 2336.35 1221.94 2335.39 1220.14 2334.76C1218.34 2334.12 1216.51 2333.7 1214.65 2333.49C1212.8 2333.28 1210.92 2333.22 1209.01 2333.33C1207.11 2333.43 1205.04 2333.54 1202.82 2333.65L1202.82 2359.07C1205.15 2359.07 1207.64 2358.99 1210.29 2358.83C1212.93 2358.67 1215.48 2358.25 1217.91 2357.56C1220.35 2356.87 1222.63 2355.89 1224.74 2354.62C1226.86 2353.35 1228.56 2351.6 1229.83 2349.38C1230.15 2346.83 1230.09 2344.64 1229.67 2342.78C1229.25 2340.93 1227.92 2339.21 1225.7 2337.62ZM1202.82 2313.15C1204.72 2313.15 1206.63 2313.15 1208.54 2313.15C1210.44 2313.15 1212.32 2312.96 1214.18 2312.59C1216.03 2312.22 1217.83 2311.61 1219.58 2310.77C1221.33 2309.92 1222.89 2308.7 1224.27 2307.11C1226.28 2304.89 1226.99 2302.53 1226.41 2300.04C1225.83 2297.55 1224.32 2295.57 1221.88 2294.08C1219.13 2292.28 1216.01 2291.36 1212.51 2291.3C1209.01 2291.25 1205.78 2291.65 1202.82 2292.49L1202.82 2313.15Z"/>
<path d="M1325 2283.12C1325.64 2281 1326.67 2279.25 1328.1 2277.88C1329.53 2276.5 1331.09 2275.6 1332.79 2275.18C1334.48 2274.75 1336.2 2274.86 1337.95 2275.49C1339.7 2276.13 1341.21 2277.4 1342.48 2279.31C1342.9 2279.84 1343.3 2280.47 1343.67 2281.21C1344.04 2281.95 1344.23 2282.64 1344.23 2283.28C1344.23 2284.44 1344.17 2286.4 1344.07 2289.16C1343.96 2291.91 1343.88 2294.72 1343.83 2297.58C1343.78 2300.44 1343.7 2302.98 1343.59 2305.21C1343.49 2307.43 1343.43 2308.59 1343.43 2308.7C1343.22 2314.42 1342.85 2320.11 1342.32 2325.78C1341.79 2331.45 1341.05 2337.14 1340.1 2342.86C1339.25 2347.31 1338.24 2351.41 1337.08 2355.18C1335.91 2358.94 1334.32 2362.27 1332.31 2365.19C1330.3 2368.1 1327.76 2370.61 1324.68 2372.73C1321.61 2374.85 1317.8 2376.55 1313.24 2377.82C1311.44 2378.35 1309.56 2378.72 1307.6 2378.93C1305.64 2379.14 1303.76 2379.25 1301.96 2379.25C1296.67 2379.25 1291.26 2378.24 1285.76 2376.23C1279.51 2373.79 1274.79 2369.77 1271.62 2364.15C1268.44 2358.54 1266.21 2352.26 1264.94 2345.32C1263.67 2338.39 1263.06 2331.37 1263.12 2324.27C1263.17 2317.17 1263.19 2310.93 1263.19 2305.52C1263.19 2303.3 1263.22 2301.05 1263.27 2298.77C1263.33 2296.49 1263.41 2294.24 1263.51 2292.02C1263.51 2290.43 1263.57 2288.76 1263.67 2287.01C1263.78 2285.26 1264.09 2283.6 1264.62 2282.01C1265.15 2280.42 1265.98 2279.04 1267.09 2277.88C1268.2 2276.71 1269.76 2275.92 1271.77 2275.49C1272.94 2275.28 1274.18 2275.39 1275.51 2275.81C1276.83 2276.23 1278.02 2276.84 1279.08 2277.64C1280.14 2278.43 1281.04 2279.39 1281.78 2280.5C1282.53 2281.61 1282.9 2282.8 1282.9 2284.07C1282.9 2285.77 1282.9 2287.12 1282.9 2288.12C1282.9 2289.13 1282.9 2290.03 1282.9 2290.83C1282.9 2291.62 1282.87 2292.44 1282.82 2293.29C1282.76 2294.14 1282.74 2295.25 1282.74 2296.63C1282.53 2303.62 1282.42 2310.58 1282.42 2317.52C1282.42 2324.46 1282.84 2331.37 1283.69 2338.25C1284.01 2341.11 1284.49 2344.08 1285.12 2347.15C1285.76 2350.22 1287.03 2352.87 1288.93 2355.1C1290.63 2357.11 1292.83 2358.51 1295.53 2359.31C1298.23 2360.1 1300.98 2360.34 1303.79 2360.02C1306.6 2359.7 1309.25 2358.91 1311.73 2357.64C1314.22 2356.37 1316.16 2354.67 1317.53 2352.55C1318.91 2350.44 1319.97 2347.95 1320.71 2345.09C1321.45 2342.23 1322.01 2339.26 1322.38 2336.19C1322.75 2333.12 1323.02 2330.07 1323.17 2327.05C1323.33 2324.03 1323.47 2321.25 1323.57 2318.71C1323.78 2315.74 1323.94 2313.2 1324.05 2311.08C1324.15 2308.97 1324.26 2306.42 1324.37 2303.46C1324.47 2301.23 1324.52 2299.01 1324.52 2296.78C1324.52 2294.56 1324.58 2292.34 1324.68 2290.11L1325 2283.12Z"/>
<path d="M1422.08 2279.94C1422.72 2277.82 1423.75 2276.08 1425.18 2274.7C1426.61 2273.32 1428.17 2272.42 1429.87 2272C1431.56 2271.57 1433.28 2271.68 1435.03 2272.32C1436.78 2272.95 1438.29 2274.22 1439.56 2276.13C1439.98 2276.66 1440.38 2277.29 1440.75 2278.04C1441.12 2278.78 1441.31 2279.47 1441.31 2280.1C1441.52 2295.25 1441.44 2310.37 1441.07 2325.46C1440.7 2340.56 1440.09 2355.68 1439.24 2370.83C1439.24 2373.26 1438.47 2375.17 1436.94 2376.55C1435.4 2377.92 1433.65 2378.8 1431.69 2379.17C1429.73 2379.54 1427.75 2379.33 1425.74 2378.53C1423.72 2377.74 1422.24 2376.39 1421.29 2374.48C1421.18 2374.37 1421.13 2374.27 1421.13 2374.16L1421.13 2374.48C1414.24 2363.15 1406.99 2352.26 1399.36 2341.83C1391.73 2331.4 1383.79 2321.04 1375.53 2310.77L1375.53 2346.67C1375.53 2351.55 1375.53 2355.63 1375.53 2358.91C1375.53 2362.19 1375.47 2364.87 1375.37 2366.93C1375.26 2369 1375.13 2370.61 1374.97 2371.78C1374.81 2372.94 1374.57 2373.95 1374.26 2374.8C1373.3 2377.34 1371.85 2379.03 1369.89 2379.88C1367.93 2380.73 1365.94 2380.94 1363.93 2380.52C1361.92 2380.09 1360.17 2379.03 1358.69 2377.34C1357.2 2375.65 1356.46 2373.53 1356.46 2370.98C1356.46 2369.5 1356.46 2367.17 1356.46 2363.99C1356.46 2360.82 1356.46 2357.21 1356.46 2353.19C1356.46 2349.16 1356.46 2344.85 1356.46 2340.24C1356.46 2335.63 1356.46 2331.1 1356.46 2326.66C1356.46 2322.21 1356.43 2318.05 1356.38 2314.18C1356.33 2310.32 1356.3 2307.06 1356.3 2304.41C1356.3 2300.81 1356.25 2297.23 1356.14 2293.69C1356.04 2290.14 1356.04 2286.56 1356.14 2282.96C1356.14 2281.16 1356.59 2279.62 1357.49 2278.35C1358.39 2277.08 1359.53 2276.1 1360.91 2275.41C1362.29 2274.73 1363.77 2274.33 1365.36 2274.22C1366.95 2274.12 1368.48 2274.33 1369.97 2274.86C1371.24 2275.28 1372.54 2276.16 1373.86 2277.48C1375.18 2278.8 1376.48 2280.23 1377.75 2281.77C1379.02 2283.31 1380.21 2284.84 1381.33 2286.38C1382.44 2287.91 1383.37 2289.16 1384.11 2290.11C1386.86 2293.5 1390.04 2297.39 1393.64 2301.79C1397.24 2306.19 1400.58 2310.34 1403.65 2314.26C1406.72 2318.29 1409.71 2322.31 1412.63 2326.34C1415.54 2330.36 1418.37 2334.39 1421.13 2338.41C1421.45 2328.77 1421.66 2319.19 1421.76 2309.65C1421.87 2300.12 1421.92 2290.53 1421.92 2280.9L1422.08 2279.94Z"/>
<path d="M1519.64 2279.94C1520.27 2277.82 1521.31 2276.08 1522.74 2274.7C1524.17 2273.32 1525.73 2272.42 1527.42 2272C1529.12 2271.57 1530.84 2271.68 1532.59 2272.32C1534.34 2272.95 1535.84 2274.22 1537.12 2276.13C1537.54 2276.66 1537.94 2277.29 1538.31 2278.04C1538.68 2278.78 1538.86 2279.47 1538.86 2280.1C1539.08 2295.25 1539 2310.37 1538.63 2325.46C1538.25 2340.56 1537.65 2355.68 1536.8 2370.83C1536.8 2373.26 1536.03 2375.17 1534.49 2376.55C1532.96 2377.92 1531.21 2378.8 1529.25 2379.17C1527.29 2379.54 1525.3 2379.33 1523.29 2378.53C1521.28 2377.74 1519.8 2376.39 1518.84 2374.48C1518.74 2374.37 1518.68 2374.27 1518.68 2374.16L1518.68 2374.48C1511.8 2363.15 1504.54 2352.26 1496.92 2341.83C1489.29 2331.4 1481.35 2321.04 1473.08 2310.77L1473.08 2346.67C1473.08 2351.55 1473.08 2355.63 1473.08 2358.91C1473.08 2362.19 1473.03 2364.87 1472.93 2366.93C1472.82 2369 1472.69 2370.61 1472.53 2371.78C1472.37 2372.94 1472.13 2373.95 1471.81 2374.8C1470.86 2377.34 1469.4 2379.03 1467.44 2379.88C1465.48 2380.73 1463.5 2380.94 1461.49 2380.52C1459.47 2380.09 1457.73 2379.03 1456.24 2377.34C1454.76 2375.65 1454.02 2373.53 1454.02 2370.98C1454.02 2369.5 1454.02 2367.17 1454.02 2363.99C1454.02 2360.82 1454.02 2357.21 1454.02 2353.19C1454.02 2349.16 1454.02 2344.85 1454.02 2340.24C1454.02 2335.63 1454.02 2331.1 1454.02 2326.66C1454.02 2322.21 1453.99 2318.05 1453.94 2314.18C1453.89 2310.32 1453.86 2307.06 1453.86 2304.41C1453.86 2300.81 1453.81 2297.23 1453.7 2293.69C1453.59 2290.14 1453.59 2286.56 1453.7 2282.96C1453.7 2281.16 1454.15 2279.62 1455.05 2278.35C1455.95 2277.08 1457.09 2276.1 1458.47 2275.41C1459.84 2274.73 1461.33 2274.33 1462.92 2274.22C1464.5 2274.12 1466.04 2274.33 1467.52 2274.86C1468.79 2275.28 1470.09 2276.16 1471.42 2277.48C1472.74 2278.8 1474.04 2280.23 1475.31 2281.77C1476.58 2283.31 1477.77 2284.84 1478.88 2286.38C1480 2287.91 1480.92 2289.16 1481.66 2290.11C1484.42 2293.5 1487.6 2297.39 1491.2 2301.79C1494.8 2306.19 1498.14 2310.34 1501.21 2314.26C1504.28 2318.29 1507.27 2322.31 1510.18 2326.34C1513.1 2330.36 1515.93 2334.39 1518.68 2338.41C1519 2328.77 1519.21 2319.19 1519.32 2309.65C1519.43 2300.12 1519.48 2290.53 1519.48 2280.9L1519.64 2279.94Z"/>
<path d="M1596.22 2368.92C1595.9 2371.57 1594.92 2373.74 1593.28 2375.43C1591.64 2377.13 1589.79 2378.19 1587.72 2378.61C1585.66 2379.03 1583.67 2378.77 1581.76 2377.82C1579.86 2376.86 1578.48 2375.01 1577.63 2372.26C1577.1 2370.45 1576.76 2368.5 1576.6 2366.38C1576.44 2364.26 1576.39 2362.17 1576.44 2360.1C1576.49 2358.04 1576.57 2356.05 1576.68 2354.14C1576.78 2352.24 1576.84 2350.65 1576.84 2349.38C1576.84 2346.3 1576.81 2343.29 1576.76 2340.32C1576.7 2337.35 1576.68 2334.33 1576.68 2331.26C1571.49 2326.28 1566.75 2321.01 1562.46 2315.45C1558.17 2309.89 1554.33 2303.93 1550.94 2297.58C1549.88 2295.67 1548.87 2293.58 1547.92 2291.3C1546.97 2289.03 1546.44 2286.77 1546.33 2284.55C1545.8 2282.54 1546.01 2280.71 1546.97 2279.07C1547.92 2277.43 1549.22 2276.16 1550.86 2275.26C1552.5 2274.35 1554.3 2273.93 1556.26 2273.98C1558.22 2274.04 1560 2274.7 1561.58 2275.97C1562.75 2276.92 1563.7 2278.04 1564.44 2279.31C1565.19 2280.58 1565.82 2281.93 1566.35 2283.36C1566.88 2284.79 1567.38 2286.24 1567.86 2287.73C1568.34 2289.21 1568.95 2290.59 1569.69 2291.86C1571.91 2295.88 1574.37 2299.62 1577.08 2303.06C1579.78 2306.5 1582.66 2309.92 1585.73 2313.31C1588.49 2309.6 1591.45 2306.13 1594.63 2302.9C1597.81 2299.67 1600.72 2296.2 1603.37 2292.49C1603.9 2291.65 1604.7 2290.35 1605.75 2288.6C1606.81 2286.85 1607.93 2285.03 1609.09 2283.12C1610.26 2281.21 1611.47 2279.44 1612.75 2277.8C1614.02 2276.16 1615.13 2275.07 1616.08 2274.54C1617.78 2273.48 1619.5 2273 1621.25 2273.11C1622.99 2273.22 1624.58 2273.75 1626.01 2274.7C1627.44 2275.65 1628.58 2276.95 1629.43 2278.59C1630.28 2280.23 1630.59 2282.01 1630.38 2283.91C1630.17 2285.93 1629.24 2288.36 1627.6 2291.22C1625.96 2294.08 1624.05 2297 1621.88 2299.96C1619.71 2302.93 1617.51 2305.73 1615.29 2308.38C1613.06 2311.03 1611.32 2313.15 1610.04 2314.74C1608.99 2316.01 1607.95 2317.25 1606.95 2318.47C1605.94 2319.69 1604.91 2320.88 1603.85 2322.05C1602.47 2323.64 1601.15 2325.23 1599.88 2326.81C1598.6 2328.4 1597.33 2329.99 1596.06 2331.58C1596.06 2337.62 1596.06 2343.66 1596.06 2349.69C1596.06 2355.73 1596.12 2361.77 1596.22 2367.81L1596.22 2368.92Z"/>
</g>
</g>
</g>
</svg>
