<?xml version="1.0" encoding="UTF-8" standalone="no"?>
<!DOCTYPE svg PUBLIC "-//W3C//DTD SVG 1.1//EN" "http://www.w3.org/Graphics/SVG/1.1/DTD/svg11.dtd">
<!-- Created with Vectornator (http://vectornator.io/) -->
<svg height="100%" stroke-miterlimit="10" style="fill-rule:nonzero;clip-rule:evenodd;stroke-linecap:round;stroke-linejoin:round;" version="1.1" viewBox="0 0 2000 2000" width="100%" xml:space="preserve" xmlns="http://www.w3.org/2000/svg" xmlns:vectornator="http://vectornator.io" xmlns:xlink="http://www.w3.org/1999/xlink">
<defs>
<path d="M571.707 1429.74C569.333 1418.27 549.334 1559.34 561.099 1576.99C820.8 1683.92 1092.75 1641.54 1105.96 1643.19C1251.09 1621.97 1282.49 1616.88 1379.24 1570.2C1394.52 1548.98 1398.76 1524.37 1407.25 1475.99C1409.03 1467.11 1337.73 1489.68 1332.57 1491.27C1282.49 1498.06 1244.7 1502.67 1199.32 1505.7C1033.06 1516.78 993.935 1510.79 846.261 1492.12C716.41 1481.93 575.533 1448.21 571.707 1429.74ZM574.985 1159.42C569.178 1167.78 573.631 1159.44 588.524 1205.77C601.341 1237.19 597.09 1250.45 606.372 1259.73C627.912 1281.27 737.718 1247 762.361 1239.42C779.797 1234.06 821.57 1226.99 836.697 1206.2C839.056 1190.96 833.956 1174.45 830.729 1164.39C825.875 1149.26 820.817 1143.62 809.443 1133.52C774.198 1102.23 714.762 1094.23 678.071 1101.86C631.785 1111.48 580.464 1151.55 574.985 1159.42ZM1096.11 1013C1094.34 1017.16 1146.61 1125.21 1153.78 1125.21C1155.28 1125.21 1158.66 1089.13 1159.61 1084.41C1165.41 1055.42 1183.48 1039.06 1202.08 1017.37C1216.8 1000.19 1235.8 989.475 1266.61 967.825C1278.86 959.222 1305.98 950.94 1315.74 941.178C1317.92 939.001 1325.74 941.178 1320.74 932.018C1314.03 919.721 1309.17 909.8 1302.84 898.709C1296.42 887.475 1278.85 861.471 1264.95 859.155C1254.73 857.451 1246.06 859.845 1236.22 862.486C1185.01 876.226 1125.47 944.092 1096.11 1013Z" id="Fill"/>
<path d="M1071.25 469.724C1066.84 471.084 1060.88 484.484 1067.71 491.177C1071.23 494.62 1080.8 487.88 1080.34 478.03C1080.03 471.265 1075.41 468.438 1071.25 469.724ZM1120.35 492.971C1122.11 497.709 1129.94 501.63 1131.43 500.911C1135.63 498.886 1141.92 497.982 1142.19 488.873C1141.82 480.756 1138.45 477.008 1129.89 476.094C1121.97 476.955 1118.16 487.063 1120.35 492.971ZM1188.84 495.78C1184.71 498.551 1181.43 504.812 1183.16 509.717C1184.65 513.925 1190.78 517.027 1192.32 517.303C1199.26 518.555 1210.93 509.52 1204.74 501.054C1200.61 495.389 1194.18 492.2 1188.84 495.78ZM1030.66 958.094C1022.33 957.422 1014.85 958.921 1009 965.75C996.713 980.096 997.869 993.063 1002.03 1003.47C1011.15 1026.26 1048.48 1020.19 1057.47 1002.22C1066.86 983.443 1056.16 962.762 1039.22 959.375C1036.28 958.787 1033.43 958.318 1030.66 958.094Z" id="Fill_2"/>
<filter color-interpolation-filters="sRGB" filterUnits="userSpaceOnUse" height="297.451" id="Filter" width="293.733" x="883.185" y="838.793">
<feGaussianBlur in="SourceGraphic" result="Blur" stdDeviation="45.3488"/>
</filter>
</defs>
<g id="Layer-3" vectornator:layerName="Layer 3">
<path d="M1437.14 491.473C1424.74 319.217 1377.39 211.819 1228.54 203.749C957.008 177.258 857.667 197.126 707 212.027C448.715 265.009 548.055 510.049 544.744 1053.11C377.521 1301.46 389.11 1160.73 440.436 1781.61C721.902 1839.56 1136.76 1847.59 1529.15 1786.33C1580.87 1186.11 1633.16 1290.7 1433.84 1047.36C1433.08 829.536 1447.63 637.272 1437.14 491.473" fill="#7b2222" fill-rule="nonzero" opacity="1" stroke="none" vectornator:blendMode="lighten" vectornator:layerName="Curve 83"/>
<path d="M723.569 903.91C691.636 921.182 668.95 946.728 645.524 972.608C636.353 982.739 622.969 987.513 613.676 997.779C607.816 1004.25 605.015 1014.19 601.599 1021.97C598.704 1028.56 589.763 1037.46 585.47 1044.37C570.716 1068.13 565.281 1105.94 567.338 1134.07C569.265 1160.43 589.804 1190.82 603.719 1211.94C610.773 1222.65 622.577 1237.1 618.361 1251.25C612.485 1270.97 604.819 1278.64 596.412 1297.77C588.199 1316.47 591.503 1344.29 585.743 1363.63C573.091 1406.09 562.617 1454.73 565.904 1499.71C567.613 1523.09 546.948 1554.68 560.204 1576.24C568.618 1589.92 594.287 1590.66 608.36 1594.85C632.815 1602.14 653.841 1608.69 679.152 1612.54C707.738 1616.88 733.91 1633.5 762.731 1636.16C853.529 1644.55 944.505 1655.93 1035.9 1650.39C1113.08 1645.72 1176.44 1641.16 1250.35 1619.24C1277.8 1611.09 1298.44 1604.26 1325.32 1595.57C1339.73 1590.91 1371.09 1581.73 1381.56 1570.15C1403.98 1545.39 1402.66 1490.71 1408.6 1460.17C1416.36 1420.18 1415.07 1367.69 1415.45 1325.88C1416 1264.91 1414.28 1216.08 1397.28 1158.78C1386.15 1121.24 1383.77 1080.08 1365.64 1044.8C1358.92 1031.72 1356.53 1013.29 1351.14 999.449C1339.85 970.479 1328.44 946.141 1312.6 918.997C1308.64 912.203 1287.31 886.151 1287.77 881.087C1288.36 874.716 1298.14 863.492 1302.42 861.824C1314.53 857.111 1321.86 808.891 1321.03 797.472C1319.78 780.45 1316.02 765.814 1307.03 751.193C1301.47 742.151 1299.96 734.303 1295.09 725.315C1293.38 722.143 1304.53 707.516 1306.08 704.487C1314.13 688.757 1318.68 634.196 1304.09 607.822C1290.44 583.15 1284.04 610.639 1313.92 580.657C1329.19 565.344 1339.82 545.992 1352.37 528.868C1374.82 498.252 1396.66 468.348 1414.98 435.03C1424.41 417.883 1430.25 406.191 1437.32 381.013C1413.3 378.715 1391.68 382.188 1376.85 391.307C1365.83 398.08 1349.22 402.134 1337.81 407.446C1297.2 426.341 1279.95 438.728 1259.44 460.014C1246.41 473.533 1232.39 486.19 1219.2 499.874C1217.3 501.845 1206.35 512.602 1202.71 511.002C1199.25 509.481 1197.69 483.334 1194.52 477.912C1184.56 460.838 1171.35 438.166 1181.81 417.694C1187.51 406.563 1199.3 394.489 1203.28 383.128C1209.76 364.652 1207.72 345.578 1214.18 327.139C1218.84 313.847 1226.58 256.452 1212.73 252.324C1202 249.128 1155.32 275.718 1147.29 281.242C1120.51 299.663 1094.44 326.957 1075.33 353.025C1060.48 373.285 1033.92 396.365 1025.3 420.957C1018.77 439.583 1006.03 458.614 1000.99 477.784C997.475 491.124 1003.14 507.359 990.844 517.57C974.007 531.558 956.205 548.366 944.469 567.26C935.101 582.341 925.104 601.49 920.058 618.423C917.99 625.366 916.282 624.821 910.093 629.962C902.796 636.025 882.437 637.687 873.539 645.079C859.545 656.705 854.795 659.5 842.561 673.015C825.592 691.761 831.83 739.372 837.998 760.168C840.559 768.802 854.12 796.532 855.015 805.003C855.113 805.931 855.627 807.452 854.757 807.791C851.518 809.053 842.294 793.403 840.842 791.041C835.523 782.392 819.24 726.226 805.573 731.55C800.759 733.425 777.238 762.843 771.172 769.137C757.207 783.628 743.542 801.754 732.823 819.012C726.792 828.721 724.187 840.536 717.314 849.912C695.132 880.17 660.612 914.761 676.599 955.799" fill="#fffafa" fill-rule="nonzero" opacity="1" stroke="none" vectornator:blendMode="lighten" vectornator:layerName="Curve 95"/>
<path d="M702.81 924.07C704.09 921.511 659.279 955.182 650.299 960.171C616.095 998.952 572.849 1040.21 565.66 1083.34C553.552 1156 583.351 1178.22 599.798 1244.01C603.15 1257.42 594.618 1298.64 592.318 1312.43C582.4 1371.94 574.331 1422.5 564.388 1482.16C561.252 1500.98 551.232 1552.39 560.546 1571.02C586.34 1598.89 727.503 1628.65 768.067 1635.6C905.34 1648.02 1023.65 1663.03 1171.26 1632.36C1223.72 1621.46 1330.61 1610.09 1384.38 1563.81C1411.17 1511.89 1413.68 1433.44 1415.6 1388.53C1420.64 1270.97 1404.95 1159.45 1366.6 1044.39C1358.95 1021.47 1344.78 989.138 1335.93 967.022C1321.08 929.904 1305.03 885.298 1272 860.526C1253 846.277 1193.18 881.207 1179.79 891.25C1155.73 909.294 1116.29 976.707 1094.98 998.016C1065.29 1027.71 1102.54 1063.45 1051.79 1076.13C1035.83 1080.13 1011.82 1020.53 999.281 1010.49C953.265 973.682 853.913 847.971 780.483 884.686" fill="#403f91" fill-rule="nonzero" opacity="1" stroke="none" vectornator:layerName="Curve 96"/>
<path d="M786.946 966.433C757.178 971.177 852.037 1035.26 854.214 1041.75C865.125 1074.33 893.799 1086.27 920.929 1105.94C934.773 1115.98 944.912 1147.34 957.093 1156.17C965.385 1162.18 986.064 1162.94 991.652 1170.47C995.688 1188.68 1014.24 1185.57 1054.45 1180.57C1075.74 1177.92 1090.44 1166.19 1110.36 1159.52C1116.71 1157.39 1131.41 1153.64 1137.95 1149.73C1143.55 1146.38 1157.15 1149.36 1161.03 1145.35C1166.18 1140.03 1125.49 1072.3 1119.18 1060.16C1117.88 1057.67 1092.99 1005.98 1094.57 1004.85C1116.16 989.373 1122.97 967.821 1137.14 945.379C1164.05 902.723 1197.95 877.739 1241.34 861.631C1250.97 858.06 1263.71 854.167 1273.67 861.293C1315.23 891.03 1355.47 1000.01 1365.47 1032.32C1369.49 1045.31 1378.8 1086.74 1380.52 1087.29C1389.8 1090.21 1396.86 1075.5 1400.39 1070.64C1405.83 1063.14 1417.55 1069.54 1420.02 1058.6C1421.77 1050.87 1413.12 1025.15 1423 1020.01C1425.33 1018.8 1440.34 1010.8 1437.43 998.009C1432.75 977.436 1452.53 978.843 1451.81 953.559C1450.79 917.553 1423.86 886.154 1412.58 855.779C1404.77 834.731 1391.83 843.202 1385.46 824.174C1382.62 815.711 1390.29 810.751 1384.6 801.226C1380.36 794.125 1369.65 802.009 1366.38 792.238C1364.7 787.24 1370.58 774.237 1370.48 774.096C1368 770.633 1323.69 766.016 1323.1 773.232C1319.97 811.68 1330.3 841.184 1290.24 875.622C1287.85 877.68 1280.93 864.721 1271.38 859.696C1263.11 855.339 1252.33 858.647 1249.99 859.266C1225.57 865.702 1188.04 881.318 1162.06 912.411C1153.5 917.41 1128.18 907.006 1123.93 912.069C1109.12 929.692 1091.93 939.996 1080.49 959.21C1061.91 990.439 1037.89 1007.73 1020.4 1029.84C1007.09 1018.52 994.408 1003.75 984.389 974.549C980.075 946.564 970.261 906.813 948.078 887.473C902.785 865.052 910.549 804.446 859.342 777.955C832.344 772.839 830.234 712.225 811.466 712.092C797.228 709.888 770.254 705.536 712.058 773.275C640.771 813.037 631.701 878.373 636.727 897.337C648.988 926.094 730.659 944.464 763.406 954.795" fill="#fffef7" fill-rule="nonzero" opacity="1" stroke="none" vectornator:layerName="Curve 97"/>
<path d="M1304.66 266.382C1302.25 271.177 1297.99 281.231 1293.75 291.663C1282.58 287.738 1272.43 284.339 1272.85 284.413L1293.63 291.976C1289.42 302.348 1285.23 313.097 1282.85 319.444L1294.06 292.132L1317.85 300.757C1312.54 298.382 1303.08 294.947 1294.19 291.819L1304.66 266.382Z" fill="none" opacity="1" stroke="#f2b63c" stroke-linecap="round" stroke-linejoin="round" stroke-width="20.5441" vectornator:layerName="Curve 81"/>
<path d="M1238.84 689.369C1247.27 668.292 1305.04 708.106 1288.66 730.714C1258.73 772.009 1197.16 727.64 1206.87 705.902C1210.23 698.371 1207.94 690.802 1229.49 690.802M944.59 622.544C977.238 610.301 1038.24 670.991 985.771 688.802C930.168 707.677 901.393 622.723 944.382 622.723M1255.63 573.692C1268.88 535.185 1327.88 487.822 1362.65 468.855C1367.5 466.213 1408.09 438.925 1404 446.477C1391.36 469.828 1380.93 487.181 1377.25 492.206C1346.6 534.044 1318.87 580.746 1291.63 608.476C1282.61 617.657 1253.67 579.37 1255.63 573.692Z" fill="#ffd1d2" fill-rule="nonzero" opacity="1" stroke="none" vectornator:layerName="Curve 105"/>
<path d="M1041.38 664.171C1041.37 664.245 1016.49 652.62 1014 651.623C1007.42 648.992 1000.69 647.68 993.923 645.691C984.22 642.837 971.905 631.261 989.36 628.352C1008.66 625.135 1043.27 642.896 1041.38 664.171ZM992.554 634.284C1003.42 639.717 1016.79 643.458 1025.41 652.079M1174.62 695.031C1169.9 690.932 1185.68 685.619 1191.17 684.348C1205.15 681.114 1213.94 678.289 1226.49 678.682C1236.54 680.487 1241.56 681.114 1247.63 689.965C1249.66 692.929 1219.95 692.122 1216.26 692.047C1209.68 691.913 1177.94 697.919 1174.62 695.031Z" fill="none" opacity="1" stroke="#000000" stroke-linecap="round" stroke-linejoin="round" stroke-width="16.2344" vectornator:layerName="Eyes"/>
<path d="M1074.98 462.152C1077.69 473.76 1074.18 475.475 1070.91 495.302C1079.31 496.408 1113.61 502.94 1116.84 503.402C1148.22 507.885 1170.79 517.784 1201.07 524.645C1213.1 507.678 1244.42 471.195 1266.27 452.189C1291.8 429.988 1359.77 399.05 1359.25 397.472C1352.42 376.988 1301.7 371.701 1285.5 373.354C1274.07 360.066 1266.9 349.871 1235.48 355.01C1201.18 315.172 1136.65 319.186 1106.99 339.377C1087.67 352.536 1065.59 375.747 1065.59 415.174C1065.59 435.194 1071.98 449.272 1074.98 462.152ZM1383.03 492.588C1383.73 492.898 1382.58 495.838 1381.8 499.084C1378.03 514.66 1361.83 536.638 1347.06 542.993C1346.75 543.124 1345.24 543.602 1344.98 543.169C1341.91 538.145 1363.25 516.866 1366.37 513.696C1369.3 510.725 1380.76 491.59 1383.03 492.588Z" fill="#b34141" fill-rule="nonzero" opacity="1" stroke="none" vectornator:layerName="Curve 100"/>
<path d="M1130.78 445.075C1131.84 389.387 1159.65 347.487 1165.9 335.21C1168.57 329.965 1176.83 317.547 1185.96 308.163C1188.03 320.058 1181.84 346.992 1181.67 351.37C1180.57 380.066 1167.25 402.851 1158.66 429.27C1155.92 437.699 1145.82 448.415 1146.69 457.533C1148.1 472.158 1158.51 476.607 1175.18 480.842C1180.5 482.192 1200.97 472.515 1201.64 469.925C1208.19 444.709 1199.84 441.524 1244.55 371.572C1246.34 368.773 1269.53 338.525 1271.69 341.452C1277.1 348.771 1252.47 409.3 1248.23 422.319C1241.68 442.493 1226.97 461.044 1217.89 473.745C1219.09 489.645 1227.55 491.141 1213.71 503.453C1208.84 507.785 1206.43 525.273 1199.93 525.377C1179.41 525.706 1167.79 511.723 1134.03 506.927C1120.19 504.96 1080.93 501.577 1072.1 489.625C1068.06 484.154 1076.89 469.625 1076.3 463.504C1074.88 448.705 1066.14 433.09 1062.97 418.203C1058.18 395.686 1072.27 361.209 1081.2 340.963C1083.61 335.488 1093.29 311.891 1102.49 298.38C1103.03 298.462 1099.85 321.452 1099.53 323.584C1095.54 350.111 1091.89 377.846 1091.23 404.522C1090.86 419.451 1082.06 445.34 1095.83 462.025C1111.76 471.59 1130.3 458.379 1130.78 445.075Z" fill="#f2b63c" fill-rule="nonzero" opacity="1" stroke="none" vectornator:layerName="Curve 99"/>
<path d="M1074.56 470.294C1073.94 477.626 1072.74 482.512 1070.38 495.705C1109.57 499.871 1160.55 512.057 1198.16 525.338M1084.45 465.353C1084.45 465.353 1148.03 467.322 1217.3 497.959M1076.24 463.137C1040.33 392.481 1083.83 334.486 1103.04 297.621C1092.69 359.456 1097.52 391.675 1087.64 437.759C1084.82 450.925 1101.66 464.956 1101.66 464.956M1111.54 467.993C1119.82 461.856 1126.21 458.306 1130.88 446.178C1128.01 375.313 1186.71 307.311 1186.71 307.311C1186.71 307.311 1182.58 405.175 1148.02 450.81C1145.18 463.402 1156.4 476.033 1156.4 476.033M1181.81 481.378C1198.69 476.971 1203.17 468.018 1203.4 464.178C1206.37 404.456 1274.24 337.578 1274.24 337.578C1274.24 337.578 1249 443.445 1219.42 471.29C1216.72 478.125 1216.68 486.248 1223.15 491.728" fill="none" opacity="1" stroke="#f2b63c" stroke-linecap="round" stroke-linejoin="round" stroke-width="6.86483" vectornator:layerName="Curve 94"/>
<g opacity="1" vectornator:layerName="Group 2">
<use fill="#f2b63c" fill-rule="nonzero" opacity="1" stroke="none" vectornator:layerName="Curve 106" xlink:href="#Fill"/>
<clipPath clip-rule="nonzero" id="ClipPath">
<use xlink:href="#Fill"/>
</clipPath>
<g clip-path="url(#ClipPath)">
<path d="M702.726 1372.7L676.195 1703.48M886.366 1353.84L865.969 1744.47M1062.29 1348.94L1049.91 1750.02M1231.58 1336.14L1224.67 1749.08M1406.41 1334.39L1391.04 1714.09M612.496 1073.22L679.191 1317.23M742.633 1047.19L823.969 1294.45M1107.02 899.16L1224.14 1138.29M1214.38 830.838L1341.27 1094.37" fill="none" opacity="1" stroke="#ffe1a5" stroke-linecap="round" stroke-linejoin="round" stroke-width="80.3311" vectornator:layerName="Curve 107"/>
</g>
</g>
<path d="M819.231 715.287C813.379 709.435 803.154 710.03 796.53 714.447M782.493 719.661L776.56 711.092M766.672 733.505L758.761 725.594M744.917 741.416C738.89 735.388 721.516 763.498 718.549 768.444M704.046 779.65C699.4 779.65 693.785 780.166 689.543 782.287M665.811 807.337L677.677 802.723M665.811 821.84C650.323 816.677 641.256 859.085 636.806 867.985M698.772 939.181L692.839 942.477M715.912 942.477C715.912 944.242 727.399 946.082 729.755 947.092M742.94 954.343C732.109 948.927 767.407 956.824 778.538 961.594C799.784 970.7 755.516 980.052 792.381 980.052M798.973 991.259C814.495 1001.61 820.045 1030.81 842.482 1030.81M853.688 1042.02L855.007 1045.32M868.894 1058.46C836.425 1047.87 923.619 1101.9 940.855 1131.38M849.837 774.865C886.036 774.865 913.593 832.619 913.593 861.873M922.593 868.624C928.58 868.624 925.226 868.065 932.344 871.624M939.095 882.125C946.935 885.261 953.359 890.579 958.597 897.127M958.597 908.378C947.37 897.15 974.578 936.069 979.599 951.132M977.349 965.383L987.85 969.133M984.849 981.885L993.85 988.635M996.101 1001.39C1001.34 1011.86 1016.35 1021.26 1016.35 1033.64M1017.85 1046.39L1012.6 1050.89M1328.32 773.159C1335.28 771.733 1369.37 768.126 1373.1 778.549M1369.32 793.238C1361 792.238 1385.36 800.699 1389.77 807.816M1390.84 824.1C1376.06 835.707 1414.45 836.662 1408.27 855.478M1417.3 872.719C1418.3 885.612 1483.56 965.932 1438.29 975.202M1438.08 985.275L1447.12 1002.52M1432.82 1003.83C1433.17 1011.41 1432.41 1008 1434.61 1014.14M1421.23 1024.64C1421.53 1031.16 1422.62 1060.15 1411.07 1058.76M1406.64 1070.34C1400.27 1075.35 1393.13 1079.15 1386.81 1084.11M1024.94 1045.61C1026.59 1031.87 1040.03 1014.1 1053.77 1015.76M1060.82 1007.52C1063.47 1007.84 1066.13 1008.16 1068.78 1008.48M942.736 1124.56C950.793 1188.58 985.362 1143.87 999.328 1182.87M1002.95 1186.33C1001.46 1186.64 1029.2 1177.88 1039.5 1184.67M1059.01 1181.97C1065.07 1182.7 1091.23 1161.19 1105.43 1165.35M1115.47 1157.47L1130.04 1162.25M1135.46 1150.79C1139.51 1144.65 1156.46 1149.19 1162.93 1149.05M638.451 882.104C636.39 871.803 633.608 907.938 642.616 913.342M652.681 922.714C652.681 932.937 652.717 929.425 661.359 926.185M670.73 932.779L670.036 933.821L668.648 935.903L668.3 936.597L670.036 936.944L671.771 936.944L673.507 936.944L674.895 936.944L675.936 936.944M1107.99 865.579C1173.68 866.735 1201.68 859.878 1243.71 830.76M1123.98 865.798C1121.78 868.75 1120.8 869.408 1118.93 871.691C1089.41 907.773 1123.34 913.277 1157.71 913.277M1233.3 837.201C1243.87 840.892 1251.06 851.992 1254.99 857.188M1053.49 734.253C1066.59 736.695 1074.7 730.373 1083.34 724.744C1085.3 739.235 1085.05 742.457 1091.33 746.115M1386.94 479.713C1385.59 500.948 1362.2 535.972 1338.1 550.534M1085.22 757.318C1089.35 747.938 1097.47 736.291 1116.88 730.924M1131.78 917.024C1135.56 911.345 1105.07 924.343 1102.45 929.594M1089.28 948.748C1078.34 954.218 1076.46 953.285 1083.29 960.121M1082.09 972.692C1078.33 972.692 1080.85 972.448 1074.91 975.086M1070.12 988.255C1069.22 986.439 1068.06 999.842 1067.13 1002.62M848.912 774.706C819.43 738.231 820.973 646.08 913.204 630.239C920.474 606.037 941.709 546.579 995.627 514.819M1305.26 599.247C1321.74 651.419 1311.7 694.75 1296.27 726.614C1335.56 786.437 1330.54 850.491 1289.01 877.029M1198.87 529.81C1256.6 422.907 1420.35 365.514 1437.86 382.084C1426.54 422.184 1378.47 502.047 1287.89 614.178M995.618 513.546C995.618 513.546 996.997 508.035 999.254 491.301C1004.06 455.699 1029.11 404.503 1065.95 358.044M690.063 932.097C484.402 1093.22 585.613 1155.57 602.617 1255.16M599.378 1265.69C589.208 1343.12 549.643 1505.51 558.698 1575.42C716.755 1662.5 1177.58 1690.35 1386.32 1564.99C1476.35 1287.76 1353.55 934.547 1268.77 856.819C1175.05 867.449 1142.13 932.015 1095.28 1009.45C1123.14 1067.48 1159.27 1133.88 1180.6 1175.35M612.257 1259.64C612.257 1290.06 803.408 1228.4 825.618 1217.3M586.521 1150.05C647.134 1089.44 762.293 1083.4 820.637 1141.75M827.279 1156.69C821.21 1144.55 838.902 1182.14 838.902 1195.71M1158.53 1105.22C1158.53 1031.72 1259.48 963.089 1321.25 942.5M596.993 1447.48C614.602 1458.07 802.176 1487.48 855.766 1493.83C1010.41 1512.14 1216.26 1519.25 1369.45 1480.95M821.777 1125.91C812.099 1096.87 800.977 1092.72 818.139 1066.97M1102.05 344.334C1119.68 330.938 1141.87 323.078 1164.97 323.698M1191.22 328.148C1206.99 333.173 1222.55 342.605 1236.75 357.362C1241.91 354.647 1247.2 353.66 1252.32 353.888M1273.76 361.885C1278.6 365.428 1282.33 369.643 1284.27 373.448C1323.95 368.39 1350.05 384.461 1358.02 395.139M1105.66 314.624C1137.09 284.976 1173.19 261.237 1210.81 250.996C1228.06 260.082 1213.74 327.908 1213.74 327.908" fill="none" opacity="1" stroke="#000000" stroke-linecap="round" stroke-linejoin="round" stroke-width="6.86483" vectornator:layerName="Outline"/>
<path d="M885.398 811.955C884.153 812.071 901.165 825.567 898.864 823.656M929.413 855.729C929.212 855.406 940.603 864.865 943.54 868.495M1111.3 929.035C1112.73 926.712 1098.9 938.177 1094.73 940.271M977.251 907.939C980.717 911.888 990.418 924.107 986.302 920.842M1023.03 975.288C1034.67 957.272 1060.71 986.099 1048.09 1002.43C1030.35 1025.36 990.607 1004.28 1011.57 975.925C1034.41 945.046 1068.23 984.71 1046.14 1002.11C1039.42 1007.4 1027.47 1015.11 1018.86 1009.03" fill="none" opacity="1" stroke="#f2b63c" stroke-linecap="round" stroke-linejoin="round" stroke-width="36.515" vectornator:layerName="Curve 93"/>
<path d="M597.032 867.161C606.75 874.935 635.634 904.06 648.69 918.252M647.732 919.236L947.864 1204.17M648.123 920.522C587.382 944.364 559.149 928.085 564.825 887.78C566.268 877.539 578.279 869.281 586.814 867.729C589.427 867.254 593.574 869.537 594.762 867.161C594.952 866.78 592.033 859.743 591.923 858.646C591.053 849.947 597.25 841.507 604.98 837.642C644.717 817.774 659.476 868.632 659.476 886.462C659.476 896.678 659.126 916.203 648.123 920.522ZM589.653 854.672C589.653 864.472 565.569 868.223 562.972 855.24C559.844 839.6 582.423 830.044 589.085 845.59C592.437 853.411 590.059 860.349 581.137 860.349C578.656 860.349 575.851 860.958 573.758 859.214C568.234 854.611 573.063 843.661 579.434 842.751C586.122 841.796 581.574 853.603 578.299 855.24C572.419 858.18 574.986 851.425 578.867 850.131M640.459 929.605C638.755 929.545 635.366 929.586 635.634 927.902C636.302 923.702 640.055 920.632 642.446 917.116C645.954 911.957 655.492 904.049 661.747 910.304C670.536 919.094 644.688 938.957 638.472 935.849C630.586 931.906 643.455 914.577 650.393 913.71C656.965 912.889 656.076 920.61 653.232 923.928C647.67 930.417 644.795 929.758 640.459 929.605ZM763.076 1040.02C758.37 1032.21 772.544 1023.6 775.281 1027.24C778.93 1032.11 764.776 1047.11 760.521 1044.27C759.564 1043.64 760.622 1041.92 761.089 1040.87C762.418 1037.88 768.233 1026.52 773.578 1030.08C775.414 1031.31 767.684 1047.66 763.076 1040.02ZM659.192 934.43C655.967 928.165 668.683 922.918 669.126 923.361C673.244 927.478 658.461 943.319 653.799 939.823C650.046 937.008 662.083 926.767 664.585 926.767C667.646 926.767 664.029 943.826 659.192 934.43Z" fill="none" opacity="1" stroke="#f2b63c" stroke-linecap="round" stroke-linejoin="round" stroke-width="16.506" vectornator:layerName="Curve 92"/>
<g opacity="1" vectornator:layerName="Group 1">
<use fill="#1ddb48" fill-rule="nonzero" opacity="1" stroke="none" vectornator:layerName="Curve 108" xlink:href="#Fill_2"/>
<clipPath clip-rule="nonzero" id="ClipPath_2">
<use xlink:href="#Fill_2"/>
</clipPath>
<g clip-path="url(#ClipPath_2)">
<path d="M1047.66 958.28C1046.15 957.237 1042.91 966.016 1041.02 968.193C1039.86 969.519 1031.74 976.493 1031.98 978.757C1032.2 980.85 1048.41 980.732 1049.75 980.919C1054.8 981.627 1064.19 988.092 1064.9 983.042C1065.58 978.173 1057.31 956.346 1051.34 955.509C1050.74 955.425 1010.51 997.517 1005.62 1002.67C1005.27 1003.04 999.316 1009.49 998.917 1008.3C998.296 1006.46 1034.6 971.704 1036.41 984.637C1036.55 985.653 1039.26 998.63 1039.03 998.806C1033.88 1002.69 1020.92 991.996 1020.92 991.996C1020.92 991.996 1029.54 980.059 1035.62 980.911C1038.63 981.333 1034.72 986.941 1034.68 989.98C1034.57 997.264 1032.61 991.236 1026.75 987.884C1024.25 986.45 1032.77 996.573 1033.17 993.712C1034.54 983.896 1027.2 976.411 1039.5 969.624C1044.07 967.105 1039.69 978.523 1038.6 978.372C1030.72 977.267 1052.5 958.958 1052.5 958.958L1035.74 975.341C1035.74 975.341 1046.2 952.679 1053.05 957.392C1058.4 961.078 1044.3 979.784 1042.23 973.621C1041.73 972.139 1053.92 959.757 1054.62 960.241C1058.7 963.049 1040.82 971.452 1045.72 972.139C1049.75 972.704 1059.73 964.049 1055.87 965.347C1050.34 967.207 1042.47 976.612 1042.47 976.612C1042.47 976.612 1051.05 965.598 1052.34 969.452C1053.95 974.245 1033.87 975.736 1038.87 976.438C1043.96 977.151 1049.75 974.718 1054.93 974.416C1055.71 974.371 1064.99 975.766 1064.92 975.816C1062.78 977.432 1047.18 972.068 1049.07 969.323C1051.99 965.089 1057.83 986.585 1058.54 981.494C1058.91 978.889 1052.71 972.255 1054.64 969.446C1054.72 969.333 1064.02 989.581 1057.49 965.572C1057.41 965.276 1057.24 964.88 1056.93 964.837C1051.4 964.062 1064.06 975.933 1061.58 980.934C1061.31 981.467 1044.87 973.488 1044.44 976.561C1043.8 981.192 1063.07 978.186 1058.44 977.536C1053.75 976.879 1045.44 971.772 1045.44 971.772C1045.44 971.772 1037.5 981.556 1037.96 978.281C1038.5 974.435 1049.54 968.198 1046.04 969.883C1043.78 970.97 1032.56 978.241 1033.9 976.727C1041.6 968.083 1030.1 978.508 1032.53 979.492C1033.14 979.74 1035.07 980.177 1034.42 980.086C1020.37 978.117 1000.06 950.904 996.169 978.668C996.135 978.909 1014.83 972.451 1014.79 972.405C1013.64 970.878 993.29 967.091 1007.05 969.02C1009.36 969.343 1000.02 974.659 1000.02 974.608C1000.42 971.775 1035.28 976.07 1035.39 980.221C1035.45 982.824 1036.07 1000.21 1034.89 1002.5C1032.36 1007.43 1021.9 1020.08 1026.32 1016.74C1028.64 1015 1036.17 1000.05 1038.16 1000.33C1039.06 1000.45 1045.03 1013.45 1043.99 1014.95C1039.89 1020.91 1022.51 1018.18 1022.51 1018.18L1042.42 1012.1C1042.42 1012.1 1030.37 1023.07 1030.98 1018.71C1031.06 1018.12 1032.98 1016.05 1033.41 1015.44C1039.64 1006.38 1029.12 1019.91 1030.56 1017.01C1044.12 989.707 1026.7 1023.79 1035.61 1013.77C1041.47 1007.19 1042.63 1007.59 1037.97 1015.75C1036.8 1017.79 1034.42 1015.42 1041.89 1020.57M1030.16 987.047C1029.44 986.091 1027.36 995.32 1027.46 994.556C1027.82 991.969 1020.53 987.669 1023.12 988.032C1026.43 988.496 1031.09 984.463 1033.1 987.131C1034.92 989.541 1041.35 1018.51 1038.69 1010.59" fill="none" opacity="1" stroke="#ffffff" stroke-linecap="round" stroke-linejoin="round" stroke-width="5.21985" vectornator:blendMode="overlay" vectornator:layerName="Curve 106"/>
<path d="M1012 981.993C1015.99 975.339 1014.78 961.237 1022.54 961.237C1025.06 961.237 1049.93 997.142 1044.66 1002.41C1043.89 1003.18 1029.92 1001.98 1026.97 1003.09C1026.14 1003.4 1015.24 1010.25 1015.06 1009.9C1014.61 1009 1003.37 983.585 1004.17 981.993C1004.4 981.531 1012.74 983.601 1013.36 983.695C1018.76 984.526 1058.12 992.698 1062.7 988.118C1064.29 986.527 1060.92 976.034 1060.31 973.827C1057.55 963.701 1051.21 976.619 1045.34 981.313C1044.82 981.734 1039.68 983.937 1039.9 984.375C1040.59 985.756 1054.04 975.041 1057.25 978.251C1059.5 980.499 1048.02 984.669 1048.06 984.716C1048.82 985.475 1061.25 981.993 1057.93 981.993C1053.49 981.993 1057.09 975.394 1058.27 981.313C1058.53 982.597 1043.51 983.511 1041.94 984.035C1039.7 984.782 1036.91 998.2 1036.15 1001.05C1035.59 1003.16 1029.62 1014.53 1030.37 1016.02C1032.94 1021.15 1046.7 1016.31 1046.7 1010.58C1046.7 1008.79 1041.6 994.263 1041.6 1007.51C1041.6 1008.08 1041.6 1009.78 1041.6 1009.21C1041.6 1004.22 1040.02 989.508 1041.6 994.243C1043.35 999.498 1041.01 1015.53 1038.54 1010.58C1037.2 1007.9 1042.74 991.009 1040.24 999.347C1038.92 1003.75 1035.13 1009.77 1035.13 1014.32C1035.13 1020.77 1036.51 996.625 1042.96 996.625C1045.7 996.625 1044.25 1007.52 1043.98 1004.79C1043.85 1003.45 1042.2 995.621 1044.32 999.007C1046.09 1001.84 1050.37 1010.03 1047.38 1008.53C1045.18 1007.43 1044.05 996.625 1042.62 996.625C1039.33 996.625 1043.96 1009.5 1042.62 1006.49C1042.19 1005.51 1040.79 998.941 1040.24 998.666C1032.15 994.623 1014.8 1015.88 1008.59 1010.92C1003.26 1006.65 1020.85 991.197 1023.91 997.305C1024.59 998.671 1018.45 1010.09 1018.8 1009.21C1020.35 1005.35 1027.97 996.126 1024.25 997.986C1021.79 999.211 1008.32 1017.94 1015.06 1006.15C1016.2 1004.16 1006.97 1006.91 1008.59 1008.53C1009.48 1009.42 1014.67 1005.52 1015.4 1005.13C1017.85 1003.82 1023.57 1003.43 1023.57 1003.43C1023.57 1003.43 1014.74 972.943 1022.54 961.237C1023.56 959.72 1039.9 961.888 1039.9 959.196C1039.9 953.75 1032.81 977.337 1030.37 972.466C1028.92 969.561 1030.12 960.642 1032.41 962.939C1033.61 964.138 1029.94 970.313 1029.69 969.063C1028.79 964.55 1024.66 963.96 1031.39 963.96C1032.56 963.96 1034.45 962.258 1034.45 962.258C1034.45 962.258 1030.96 962.635 1029.35 963.279C1026.76 964.315 1024.02 964.505 1022.54 968.043C1022.21 968.849 1017.24 978.733 1017.1 978.591C1014.94 976.431 1020.5 967.03 1020.5 970.084C1020.5 974.508 1010.98 982.334 1015.4 982.334C1016.16 982.334 1018.06 975.805 1019.14 976.889C1021.8 979.552 1017.28 981.004 1015.74 981.313C1013.98 981.664 1018.35 981.13 1014.04 981.993C1012.84 982.233 1003.74 983.264 1003.15 982.674C1002.28 981.809 1006.66 968.043 1007.91 968.043C1008.1 968.043 1007.91 981.098 1007.91 982.334C1007.91 985.178 1007.23 976.672 1007.23 973.827C1007.23 971.231 1007.91 982.442 1007.91 979.952C1007.91 976.758 1006.89 970.424 1006.89 970.424C1006.89 970.424 1008.12 978.609 1007.91 976.549C1007.62 973.648 1004.57 982.448 1005.87 985.056M1020.33 1001.9C1018.5 1002.48 1017.63 1003.52 1016.08 1004.45C1013 1006.3 1022.13 994.168 1018.12 1002.75C1014.41 1010.71 1012.66 1006.51 1017.78 1001.39C1021.34 997.833 1012.38 1011.37 1018.46 1003.77C1018.57 1003.63 1020.98 1001.7 1020.33 1001.9ZM1056.23 978.591C1054.34 977.643 1059.02 986.532 1057.93 984.716C1053.19 976.812 1057.93 971.813 1057.93 983.695C1057.93 990.781 1055.23 965.887 1056.57 979.271C1057.8 991.522 1042.31 983.354 1053.17 983.354C1055 983.354 1046.43 984.577 1048.06 985.396M1043.3 1004.45C1043.3 1004.13 1036.4 1010.94 1043.64 1008.87C1045.17 1008.44 1038.06 1012.35 1037.52 1013.98" fill="none" opacity="1" stroke="#ffffff" stroke-linecap="round" stroke-linejoin="round" stroke-width="5.21985" vectornator:blendMode="overlay" vectornator:layerName="Curve 107"/>
</g>
</g>
<path d="M1297.26 302.66C1279.01 311.783 1282.12 278.749 1295 281.325C1313.15 284.955 1304.61 309.566 1289.5 302.014" fill="#1ddb48" fill-rule="nonzero" opacity="1" stroke="none" vectornator:layerName="Curve 109"/>
<path d="M1007.23 961.31C1015.68 950.632 1027.26 951.075 1040 953.832C1058.35 957.805 1069.93 982.06 1059.76 1004.08C1050.02 1025.16 1009.56 1032.25 999.685 1005.52C995.176 993.322 993.916 978.134 1007.23 961.31Z" fill="#acffbf" fill-rule="nonzero" filter="url(#Filter)" opacity="1" stroke="none" vectornator:blendMode="lighten" vectornator:blur="90.6977" vectornator:layerName="Curve 104"/>
</g>
</svg>
