<?xml version="1.0" encoding="UTF-8" standalone="no"?>
<!DOCTYPE svg PUBLIC "-//W3C//DTD SVG 1.1//EN" "http://www.w3.org/Graphics/SVG/1.1/DTD/svg11.dtd">
<!-- Created with Vectornator (http://vectornator.io/) -->
<svg height="100%" stroke-miterlimit="10" style="fill-rule:nonzero;clip-rule:evenodd;stroke-linecap:round;stroke-linejoin:round;" version="1.1" viewBox="0 0 2000 2000" width="100%" xml:space="preserve" xmlns="http://www.w3.org/2000/svg" xmlns:vectornator="http://vectornator.io" xmlns:xlink="http://www.w3.org/1999/xlink">
<defs>
<path d="M899.055 836.86C933 597.393 1473.54 636.464 1558.71 866.056C1643.88 1095.65 1269.17 1672.84 1150.05 1682.72C1030.94 1692.59 865.11 1076.33 899.055 836.86Z" id="Fill"/>
<path d="M504.738 419.219C585.596 484.832 599.918 517.252 750.559 598.273C737.897 609.439 725.536 625.794 725.536 625.794C725.536 625.794 541.076 507.246 395.923 692.878C390.257 701.692 427.381 713.903 519.609 720.483C564.05 723.653 617.691 713.537 675.043 695.016C656.038 804.765 671.254 843.368 691.957 906.741C682.21 1050.43 808.798 1051.23 808.798 1051.23L779.457 1121.48C779.457 1121.48 712.901 1181.86 660.269 1261.57C588.002 1254.96 509.966 1411.1 601.613 1467.54C608.853 1497.8 625.968 1526.38 656.801 1551.39C599.275 1666.37 643.531 1710.6 739.644 1614.48C799.302 1631.74 816.047 1625.35 895.426 1620.42C1052.76 1762.76 1017.7 1707.67 1057.14 1594.76C1096.33 1482.6 1125.46 1249.08 1087.11 1101.47C1218.42 933.905 1183.46 891.357 1118.27 931.668C1149.7 885.604 1167.55 764.487 1074.21 733.918C1065.94 711.026 1024.68 550.857 819.761 564.619C743.733 426.313 634.887 368.448 504.738 419.219ZM1116.83 932.239L1038.03 985.335L993.176 1015.56" id="Fill_2"/>
<path d="M1285.88 686.337C1294.66 607.288 1410.19 551.885 1478.28 543.375C1500.72 540.57 1538.01 570.296 1557.11 560.744C1579.25 549.672 1588.37 519.525 1615.9 512.645C1640.22 506.564 1720.84 522.951 1726.79 552.727C1730.13 569.411 1717.44 581.205 1717.44 595.482C1717.44 604.849 1753.76 632.716 1756.19 656.943C1757.99 674.984 1747.26 695.709 1736.15 709.051C1728.57 718.144 1724.12 731.001 1713.43 737.109C1676.14 758.419 1586.3 717.256 1545.08 710.387C1524.18 706.902 1506.73 728.856 1486.3 723.748C1464.69 718.347 1451.44 692.159 1430.18 691.681C1380.55 711.548 1284.29 716.12 1284.29 710.923C1284.29 706.817 1285.03 693.977 1285.88 686.337Z" id="Fill_3"/>
<path d="M1234.5 704.912C1242.77 690.519 1200.62 643.56 1206.75 612.905C1211.69 588.221 1246.54 548.77 1266.68 533.666C1275.41 527.113 1285.96 531.447 1294.24 527.304C1297.27 525.792 1300.25 488.545 1302.72 482.775C1309.83 466.192 1329.32 435.012 1345.13 425.524C1354.28 420.033 1368.01 410.403 1379.06 408.561C1393.31 406.185 1419.96 415.526 1432.07 406.44C1462.43 383.671 1440.84 345.972 1499.92 338.587C1519.59 336.128 1523.38 370.843 1542.33 374.634C1560.45 378.257 1581.04 345.587 1595.34 351.309C1616.67 359.84 1617.12 419.552 1601.7 431.885C1587.59 443.177 1559.04 446.197 1542.33 450.969C1538.67 452.015 1530.53 451.599 1531.73 455.21C1533.46 460.393 1550.99 467.09 1555.06 472.173C1577.51 500.239 1565.83 536.106 1538.09 552.749C1534.51 554.898 1520.31 555.69 1519.01 556.99C1518.18 557.821 1537.31 596.609 1506.29 612.121C1481 624.762 1416.14 612.952 1406.63 624.844C1391.84 643.326 1413.41 660.9 1404.51 675.734C1388.73 702.028 1333.21 688.457 1311.21 688.457C1304.81 688.457 1295.02 692.736 1286.16 697.873C1280.84 700.956 1275.87 704.347 1272.16 707.309C1262.21 715.272 1225.65 720.331 1234.5 704.912ZM1229.92 682.361C1200.91 668.864 1153.12 676.684 1133.09 656.65C1093.19 616.746 1154.49 555.833 1145.81 544.268C1118.16 507.403 980.219 516.3 961.337 478.535C948.755 453.371 1002.93 438.584 1010.11 417.042C1022.34 380.336 941.354 370.501 1020.71 325.864C1028.43 321.522 1036.11 317.102 1044.03 313.142C1048.03 311.142 1052.29 308.901 1056.76 308.901C1068.28 308.901 1074.32 321.676 1082.2 327.985C1108.52 349.036 1138.06 362.374 1171.26 351.309C1174.19 350.332 1180.8 349.182 1181.86 344.948C1185.62 329.894 1130.06 307.916 1147.93 285.576C1173.09 254.132 1227.55 279.424 1241.23 306.78C1247.08 318.47 1239.11 326.116 1239.11 334.346C1239.11 344.637 1262.62 317.631 1268.8 325.864C1285.01 347.481 1219.04 386.411 1228.51 402.199C1237.51 417.191 1306.95 421.202 1309.09 429.765C1311.45 439.229 1243.57 454.154 1247.59 474.294C1251.94 496.023 1281.64 500.307 1296.74 516.241" id="Fill_4"/>
</defs>
<g id="All" vectornator:layerName="All">
<g opacity="1" vectornator:layerName="Carrot">
<use fill="#e1c36e" fill-rule="nonzero" opacity="1" stroke="#000000" stroke-linecap="butt" stroke-linejoin="round" stroke-width="4.79416" vectornator:layerName="Base carrot" xlink:href="#Fill"/>
<clipPath clip-rule="nonzero" id="ClipPath">
<use xlink:href="#Fill"/>
</clipPath>
<g clip-path="url(#ClipPath)">
<path d="M859.562 896.434C855.915 889.141 874.476 887.059 879.77 885.735C892.738 882.493 905.918 880.167 918.999 877.414C981.311 864.295 1046.99 865.526 1110.39 865.526C1261.53 865.526 1373.84 898.182 1506.24 968.947C1552.97 993.924 1612.32 1026.58 1637 1075.93M1213.81 1108.03C1265.46 1112.72 1303.34 1137.93 1348.13 1160.33C1425.07 1198.8 1493.84 1249.26 1559.73 1304.17M884.525 1317.25C1013.05 1296.95 1141.53 1320.1 1253.03 1383.82M1209.05 1528.84C1249.04 1539.75 1278.61 1558.74 1308.9 1584.71M1125.87 1001.05C1187.54 1009.87 1250.65 1014.39 1306.31 1045.31M1445.22 1013.94C1442.6 1013.94 1451.03 1012.32 1453.09 1013.94C1466.85 1024.74 1478.18 1038.33 1490.19 1051.04C1491.89 1052.83 1493.47 1057.59 1494.69 1060.03M1440.73 1040.92C1450.71 1050.9 1492.01 1077.49 1489.07 1089.26C1488.87 1090.07 1488.77 1091.34 1487.94 1091.51C1480.79 1092.94 1461.13 1069.19 1456.47 1064.53C1452.49 1060.55 1442.98 1048.79 1442.98 1054.41C1442.98 1062.99 1487.94 1088.47 1487.94 1110.62M1440.73 1080.27C1440.44 1079.7 1501.79 1140.59 1466.58 1122.99M1442.98 1098.25C1436.69 1094.06 1480.33 1129.91 1474.45 1138.72C1468.99 1146.92 1414.87 1101.35 1451.97 1122.99C1453.14 1123.67 1454.2 1124.51 1455.34 1125.23C1458.33 1127.13 1461.34 1128.98 1464.34 1130.86M1347.19 1348.4C1345.32 1342.8 1351.08 1387.31 1355.7 1401.15M1331.87 1380.73C1319.1 1361.57 1335.27 1406.24 1338.68 1416.47C1340.51 1421.96 1346.17 1437.58 1342.08 1433.48C1334.47 1425.88 1325.99 1397.75 1311.45 1397.75C1306.9 1397.75 1324.45 1448.34 1323.36 1450.5C1320.29 1456.64 1299.45 1433.4 1297.84 1431.78C1294.7 1428.65 1287.35 1417.61 1289.33 1421.57C1298.73 1440.37 1296.97 1462.38 1306.34 1481.13M1284.22 1468.37C1283.81 1471.52 1281.75 1480.81 1282.52 1477.73C1284.31 1470.56 1284.92 1463 1284.22 1468.37ZM1332.53 798.786C1325.1 780.194 1344.18 832.972 1346.78 838.176M1391.2 812.196C1385.59 789.774 1408.68 839.494 1415.5 844.042C1417.27 845.222 1420.09 848.259 1421.37 846.556C1423.84 843.263 1389.04 781.354 1418.85 823.09C1420.02 824.73 1421 826.507 1422.21 828.119C1430.91 839.723 1423.4 828.653 1428.07 835.662M1451.54 823.09C1445.91 806.202 1472.3 849.528 1475.84 856.613M1111.83 740.203C1101.28 745.479 1085.04 763.309 1079.56 774.273M1160.25 759.928C1160.25 755.789 1141.53 791.987 1136.94 801.171M1133.35 741.996C1126.8 738.721 1096.75 790.676 1095.7 792.205C1092.56 796.736 1102.56 783.55 1106.45 779.653M1188.94 754.548C1183.3 765.825 1183.1 792.663 1174.6 801.171C1171.92 803.844 1176.08 793.557 1178.18 790.412C1178.94 789.271 1205.28 749.565 1206.87 752.755C1213.37 765.754 1199.7 798.819 1199.7 813.723" fill="none" opacity="1" stroke="#b97c25" stroke-linecap="round" stroke-linejoin="round" stroke-width="4.79416" vectornator:layerName="Carrot outline"/>
<path d="M1115.4 1647.37C1115.4 1651.06 1115.54 1633.28 1118.83 1625.04C1125.55 1608.26 1136.28 1592 1146.32 1576.94C1178.21 1529.11 1212.83 1499.36 1232.21 1441.24C1242.2 1411.27 1258.2 1383.13 1270 1353.63C1282.42 1322.59 1297.52 1294.64 1309.99 1263.48C1320.28 1237.74 1332.86 1210.97 1343.86 1185.29C1358.66 1150.77 1365.74 1111.03 1385.09 1078.78C1399.62 1054.57 1414.11 1029.43 1424.6 1003.2C1438.28 968.992 1504.21 857.009 1553.85 871.191C1600.32 884.467 1569.36 1042.79 1558.59 1080.5C1522.41 1207.12 1474.51 1340.58 1409.14 1454.98C1399.01 1472.71 1382.49 1485.93 1369.63 1501.36C1350.9 1523.84 1339.06 1550.14 1321.53 1573.51C1313.2 1584.62 1300.01 1592.1 1288.9 1600.99C1255.45 1627.75 1196.72 1703.96 1154.91 1710.93C1129.89 1715.1 1114.85 1698.72 1108.53 1676.57C1107.72 1673.76 1104.29 1645.65 1108.53 1645.65C1112.66 1645.65 1115.4 1644.51 1115.4 1647.37ZM1197.85 1104.55C1188.81 1095.5 1116.56 1088.43 1099.94 1085.65C1098.98 1085.49 1059.87 1079.34 1063.87 1075.35C1072.06 1067.15 1173.65 1082.94 1187.55 1083.94C1191.15 1084.19 1288.5 1111.1 1259.67 1111.1M1513.08 959.198C1496.33 973.216 1422.79 928.959 1403.99 920.11C1394.33 915.565 1386.07 913.349 1324.28 890.894C1322.58 890.275 1358.28 891.514 1360.09 891.449C1390.91 890.355 1395.98 892.009 1409.14 893.262C1433.24 895.557 1453.87 914.607 1476.13 922.464C1482.29 924.637 1491.96 921.857 1495.03 927.618C1498.36 933.867 1516.92 955.985 1513.08 959.198ZM1412.45 1183.49C1383.9 1181.07 1334.97 1158.51 1312.01 1143.2C1308.42 1140.81 1259.04 1118.46 1259.04 1118.46C1259.04 1118.46 1217.58 1103.89 1220.01 1102.67C1238.24 1093.56 1341.61 1119 1357.61 1128.6C1359.77 1129.9 1387.43 1155.86 1386.81 1156.08C1379.73 1158.66 1417.16 1183.88 1412.45 1183.49ZM1293.35 1400.57C1284.83 1397.73 1258.42 1385.73 1250.26 1381.92C1236.54 1375.52 1218.8 1365.03 1205.49 1359.67C1137.19 1332.19 1300.92 1368.96 1300.92 1394.86M1239.08 1484.18C1225.28 1478.66 1214.36 1479.2 1200.12 1474.96C1190.28 1472.04 1184.13 1471.34 1162.63 1456.14C1100.44 1412.17 1078.81 1388.82 1136.05 1413.57C1169.36 1427.96 1245.68 1450.55 1275.15 1465.29M1113.76 1671.01C1105.68 1654.86 1073.61 1641.8 1087.91 1625.04C1108.6 1600.82 1143.88 1586.86 1179.74 1522.33C1182.99 1516.5 1194.2 1500.45 1203.98 1477.19C1207.45 1468.93 1210.5 1464.24 1214.93 1465.72C1224.34 1468.86 1230.45 1475.91 1233.95 1485.67C1252.43 1537.18 1198.32 1664.09 1173.8 1688.6" fill="#af822d" fill-opacity="0.33287" fill-rule="nonzero" opacity="1" stroke="none" vectornator:layerName="Carrot shadow"/>
</g>
</g>
<g opacity="1" vectornator:layerName="Rabbit">
<use fill="#fff0ed" fill-rule="nonzero" opacity="1" stroke="none" vectornator:layerName="Base" xlink:href="#Fill_2"/>
<clipPath clip-rule="nonzero" id="ClipPath_2">
<use xlink:href="#Fill_2"/>
</clipPath>
<g clip-path="url(#ClipPath_2)">
<path d="M842.091 915.886C829.06 916.084 817.059 916.648 805.576 910.269C750.022 879.405 839.795 826.201 878.659 845.633C906.775 859.691 913.072 897.375 876.499 909.566M1069.26 772.634C1027.93 744.207 1075.13 675.447 1116.66 704.519C1161.47 735.885 1108.68 799.751 1069.26 772.634ZM724.651 669.481C741.269 663.253 669.664 653.259 654.132 650.153C586.607 636.648 533.1 655.713 487.626 701.187C485.545 703.268 478.424 705.458 476.168 708.842C473.765 712.447 500.639 712.933 503.498 713.886C523.21 720.457 541.559 713.469 561.2 713.469C590.802 713.469 611.123 704.704 638.457 693.77C649.775 689.243 663.28 688.019 675.884 684.43C692.202 679.783 708.248 675.63 724.651 669.481Z" fill="#ffc2b6" fill-rule="nonzero" opacity="1" stroke="none" vectornator:layerName="Cheek"/>
</g>
</g>
<path d="M877.097 841.818C876.271 835.117 888.499 828.095 904.409 826.135C920.319 824.174 933.886 828.017 934.712 834.719C935.537 841.42 923.309 848.442 907.399 850.403C891.489 852.363 877.922 848.52 877.097 841.818ZM1035.03 743.242C1038.88 731.529 1046.26 723.436 1051.53 725.165C1056.8 726.894 1057.96 737.79 1054.12 749.503C1050.28 761.215 1042.89 769.309 1037.62 767.58C1032.35 765.851 1031.19 754.954 1035.03 743.242Z" fill="#000000" fill-rule="nonzero" opacity="1" stroke="#000000" stroke-linecap="butt" stroke-linejoin="round" stroke-width="6.89346" vectornator:layerName="Eyes"/>
<g opacity="1" vectornator:layerName="Leave">
<use fill="#cde16e" fill-rule="nonzero" opacity="1" stroke="#000000" stroke-linecap="round" stroke-linejoin="round" stroke-width="4.74671" vectornator:layerName="Curve 16" xlink:href="#Fill_3"/>
<clipPath clip-rule="nonzero" id="ClipPath_3">
<use xlink:href="#Fill_3"/>
</clipPath>
<g clip-path="url(#ClipPath_3)">
<path d="M1573 550.306C1558.24 565.066 1550.21 606.921 1526.32 622.844C1509.19 634.262 1482.51 643.491 1461.44 638.224C1456.94 637.097 1430.85 638.19 1426.4 641.158C1410.56 651.713 1437.27 701.421 1401.77 710.295C1360.41 720.635 1237.88 746.233 1250.72 669.219C1257.01 631.49 1309.83 604.871 1339.5 587.069C1384.37 560.144 1425.31 527.19 1477.3 514.193C1514.72 504.836 1560.19 511.835 1595.22 494.318" fill="#9db13f" fill-opacity="0.538774" fill-rule="nonzero" opacity="1" stroke="none" vectornator:layerName="Curve 46"/>
</g>
</g>
<g opacity="1" vectornator:layerName="Two leaves">
<use fill="#cde16e" fill-rule="nonzero" opacity="1" stroke="#000000" stroke-linecap="round" stroke-linejoin="round" stroke-width="4.74671" vectornator:layerName="Curve 17" xlink:href="#Fill_4"/>
<clipPath clip-rule="nonzero" id="ClipPath_4">
<use xlink:href="#Fill_4"/>
</clipPath>
<g clip-path="url(#ClipPath_4)">
<path d="M1226.51 677.532C1194.18 677.532 1196.15 627.185 1200.04 603.854C1204.6 576.508 1249.07 512.538 1277.58 505.28C1284.97 508.981 1293.74 516.073 1294.87 518.018C1293.68 521.456 1293.88 525.101 1291.99 526.033C1285 528.258 1271.53 525.934 1266.88 531.116C1258.93 536.018 1248.82 545.44 1237.14 559.108C1225.65 572.551 1207.74 594.464 1206.02 611.668C1196.59 625.986 1222.36 670.846 1221.41 672.252" fill="#9db13f" fill-opacity="0.538774" fill-rule="nonzero" opacity="1" stroke="none" vectornator:layerName="Curve 46"/>
</g>
</g>
<path d="M1268.67 666.629C1264.79 658.886 1267.62 651.462 1266.42 643.055C1264.96 632.836 1258.18 621.001 1260.81 610.501C1274.94 553.953 1351.34 553.5 1384.29 513.959C1398.71 496.661 1382.52 483.822 1391.03 466.811C1399.28 450.309 1427.19 438.022 1442.67 429.766C1471.57 414.352 1506.05 412.105 1535.84 397.212M1539.21 418.541C1515.14 418.541 1451.52 439.762 1443.79 466.811C1440.34 478.876 1453.56 516.86 1452.77 518.45C1446.38 531.235 1388.76 540.352 1374.19 547.637C1355.13 557.163 1342.76 570.453 1342.76 591.417C1342.76 595.181 1346.83 601.226 1345 604.888C1336.39 622.1 1297.91 608.745 1286.63 622.849C1274.92 637.484 1293.68 662.303 1282.14 676.733C1277.06 683.076 1238.4 688.347 1243.97 690.203M1130.59 364.657C1129.45 362.368 1151.4 369.551 1154.16 371.393C1164.97 378.596 1188.71 397.342 1185.6 412.928C1183.46 423.606 1146.39 439.434 1149.67 444.36C1168.03 471.896 1204.87 452.84 1223.76 478.037C1232.92 490.248 1246.08 510.146 1242.85 526.308C1239.62 542.438 1217.51 556.332 1221.76 573.343M1194.58 619.481C1169.1 578.726 1223.02 539.29 1211.41 508.346C1200.65 479.634 1139.75 473.027 1114.87 475.792C1106.07 476.771 1091.27 484.73 1084.56 475.792C1043.01 420.381 1118.8 426.68 1133.96 403.947C1135.61 401.471 1129.64 395.14 1128.34 393.844C1116.22 381.717 1079.32 343.357 1068.85 374.76M1409.15 631.371C1418.62 627.728 1418.7 628.884 1426.03 623.495M1410.6 662.493C1432.27 665.07 1450.48 667.018 1468.48 661.017C1498.04 651.164 1473.82 635.682 1485.17 622.721M1522.04 606.927C1544.5 603.718 1563.33 604.721 1581.86 620.604C1585.36 623.596 1622.38 657.582 1625.64 655.404C1640.91 645.227 1646.16 632.646 1669.42 630.707C1708.83 627.423 1717 670.042 1700.86 696.939M1529.69 581.756C1551.83 586.562 1567.22 597.264 1590.84 592.54C1601.47 590.415 1616.14 588.138 1625.64 582.436C1637.14 575.537 1632.76 564.208 1650.34 566.72C1668.6 569.329 1676.55 584.005 1680.65 600.398M1161.45 489.92C1163.23 488.137 1156.26 489.091 1153.88 489.92C1147.84 492.02 1138.46 494.246 1133.71 498.999M1140.26 486.894C1134.62 488.304 1127.79 492.308 1123.62 496.477M1062.59 435.447C1064.33 434.576 1045.44 432.421 1041.4 433.43M1064.1 421.325C1058.55 418.549 1048.74 422.333 1042.41 422.333M1208.35 445.03C1209.08 443.577 1222 432.749 1218.44 433.934M1201.8 435.951C1200.2 439.149 1205.18 434.086 1205.33 433.934C1208.34 430.919 1211.5 427.823 1215.41 425.864M1190.7 636.693C1183.88 634.42 1176.89 638.207 1170.02 638.207M1182.13 626.606C1186.67 624.333 1171.24 625.093 1168 625.093M1510.79 632.346C1509.92 631.473 1517.34 643.905 1520.03 649.286M1523.88 625.416C1523.88 619.565 1531.7 644.126 1533.12 646.976M1638.61 669.306C1638.61 677.25 1640.92 684.449 1640.92 692.405M1656.03 668.414C1659.24 675.241 1658.01 682.62 1656.54 689.701M1629.57 538.511C1630.28 544.516 1629.77 554.841 1625.94 559.698M1639.8 540.249C1643.02 539.393 1636.44 558.028 1635.31 560.122M1431.78 549.421C1430.76 545.581 1455.74 546.163 1460.1 549.606M1441.96 536.776C1449.42 534.793 1459.06 536.909 1466.57 538.463M1387.85 436.328C1389.17 429.936 1391.49 449.367 1386.48 455.714M1398.7 431.387C1404.37 434.676 1401.1 445.73 1397.93 449.76M1518.06 373.622C1518.53 371.353 1520.37 378.905 1519.97 380.826C1518.83 386.335 1516.21 395.536 1509.77 397.248M1528.63 379.212C1533.77 372.69 1530.21 391.195 1523.94 396.396M1309.56 522.255C1310.38 529.143 1309.06 538.61 1306 544.967M1323.86 524.455C1324.53 530.183 1322.41 534.5 1319.98 539.538M1302.22 656.513C1310.71 650.935 1319.99 656.407 1328.36 658.137M1315.52 643.38C1313.07 639.642 1329.73 645.94 1332.28 646.468" fill="none" opacity="1" stroke="#97ab39" stroke-linecap="round" stroke-linejoin="round" stroke-width="4.74671" vectornator:layerName="Leave outline"/>
<path d="M1037.64 859.825L1030.74 887.055L1037.64 859.825ZM1038.38 857.943L1063.92 862.635M805.092 1056.5L797.801 1065.87M804.051 1074.2L796.76 1081.49M790.511 1093.99C788.493 1098.03 779.096 1123.15 773.846 1123.15M761.348 1136.69C752.337 1141.2 744.656 1154.43 737.393 1161.69C706.498 1192.59 682.939 1218.52 663.445 1257.51M648.864 1261.68C638.806 1261.68 629.217 1269.47 620.743 1274.17C605.78 1282.49 585.023 1295.52 575.958 1310.63C554.501 1346.39 554.595 1430.66 597.83 1452.27M608.245 1457.48L605.12 1466.86M624.909 1460.09C624.845 1460.71 623.67 1462.24 623.868 1461.65C624.773 1458.93 625.32 1456.1 624.909 1460.09ZM698.857 1267.93C733.988 1285.49 728.437 1302.51 738.435 1332.5M740.518 1359.58L741.559 1365.83M732.186 1380.41C732.186 1383.19 732.186 1385.96 732.186 1388.74M713.438 1409.57C705.671 1425.11 690.923 1434.37 675.944 1441.86C672.384 1443.64 654.979 1450.46 657.196 1446.03M607.135 1479.72C602.281 1492.01 639.734 1540.86 655.041 1546.9M663.563 1556.33C672.717 1566.85 692.609 1585.28 700.075 1590.92C742.567 1623.06 811.735 1628.27 895.608 1616.53M656.574 1554.49C655.457 1553.05 644.8 1588.32 643.618 1592.65C641.857 1599.08 629.225 1650.29 633.98 1654.55C663.52 1681.03 712.063 1635.39 734.78 1617.75M879.764 1599.38C876.969 1594.48 975.242 1710.2 1009.72 1703.49C1044.87 1696.65 1040.35 1627.55 1057.89 1564.09M1089.64 1118.5C1104.31 1202.12 1102.51 1248.08 1104.79 1285.47C1110.85 1384.59 1079.36 1533.28 1048.98 1608.65M693.9 913.878C689.937 916.886 687.372 921.119 683.397 924.137M695.823 931.471L689.991 942.304M697.539 955.317C692.749 990.295 746.418 1059.39 809.348 1047.69M1079.38 735.631C1086.69 737.717 1090.68 736.721 1097.94 736.922M1098.8 747.57C1106.06 747.834 1111.84 748.083 1114.68 748.473M1115.05 760.621C1141.51 792.504 1163.31 866.477 1116.19 930.438M997.348 996.378C997.033 994.702 1038.83 969.244 1044.82 966.055C1054.76 960.773 1078.42 947.035 1103.35 935.865C1107.37 934.066 1111.42 932.333 1115.45 930.714C1156.39 914.254 1168.92 915.265 1175.41 929.618C1183.37 947.232 1147.72 1017.01 1138.39 1029.22C1122.61 1049.88 1111.93 1066.38 1095.6 1088.08M1087.82 1093.36C1088.47 1093.97 1092.64 1095.49 1091.91 1094.99C1089.92 1093.63 1086.24 1091.89 1087.82 1093.36ZM1087.58 1103.93C1091.4 1105.62 1091.51 1105.85 1093.67 1106.61C1095.19 1107.15 1085.45 1102.98 1087.58 1103.93ZM678.406 692.631C661.075 747.325 661.555 829.059 689.144 904.066M820.913 565.823C835.802 560.128 902.38 568.528 915.391 572.594C992.158 596.584 1042.32 651.848 1072.22 726.589M721.439 675.328C710.61 678.938 699.562 682.8 688.366 686.708C685.469 687.72 682.563 688.734 679.647 689.748C649.515 700.227 618.445 710.66 587.759 717.12C561.243 722.702 538.611 724.968 502.615 721.738C437.863 702.256 370.369 715.929 402.638 679.718C463.487 621.891 539.194 573.532 615.611 588.815C653.89 596.471 737.201 615.72 747.648 657.506M756.575 595.067C735.869 593.533 668.333 547.187 646.573 536.307C611.021 518.531 585.018 492.986 555.96 466.35C536.085 448.131 480.595 432.863 514.642 414.46C568.85 385.161 663.978 401.382 713.052 438.4C787.875 501.219 783.353 500.292 820.819 566.473M766.829 591.08C742.248 598.227 727.832 620.844 723.271 625.405M669.62 1260.77C671.437 1260.16 673.076 1258.91 674.801 1258.04M684.62 1263.5C683.081 1263.5 690.907 1261.32 693.347 1261.32" fill="none" opacity="1" stroke="#000000" stroke-linecap="round" stroke-linejoin="round" stroke-width="4.90982" vectornator:layerName="Curve 46"/>
</g>
</svg>
