<?xml version="1.0" encoding="UTF-8" standalone="no"?>
<!DOCTYPE svg PUBLIC "-//W3C//DTD SVG 1.1//EN" "http://www.w3.org/Graphics/SVG/1.1/DTD/svg11.dtd">
<!-- Created with Vectornator (http://vectornator.io/) -->
<svg height="100%" stroke-miterlimit="10" style="fill-rule:nonzero;clip-rule:evenodd;stroke-linecap:round;stroke-linejoin:round;" version="1.1" viewBox="0 0 2000 2912.22" width="100%" xml:space="preserve" xmlns="http://www.w3.org/2000/svg" xmlns:vectornator="http://vectornator.io" xmlns:xlink="http://www.w3.org/1999/xlink">
<defs>
<path d="M823.707 836.325C857.652 596.858 1398.19 635.929 1483.36 865.521C1568.53 1095.11 1193.82 1672.31 1074.71 1682.18C955.59 1692.06 789.761 1075.79 823.707 836.325Z" id="Fill"/>
<path d="M429.389 418.684C510.247 484.298 524.569 516.717 675.211 597.738C662.549 608.905 650.187 625.26 650.187 625.26C650.187 625.26 465.728 506.711 320.575 692.344C314.909 701.157 352.032 713.369 444.261 719.948C488.702 723.119 542.343 713.002 599.694 694.481C580.69 804.23 595.905 842.833 616.608 906.206C606.861 1049.9 733.449 1050.7 733.449 1050.7L704.108 1120.95C704.108 1120.95 637.553 1181.32 584.921 1261.04C512.653 1254.42 434.617 1410.57 526.264 1467.01C533.504 1497.27 550.619 1525.84 581.452 1550.85C523.926 1665.84 568.183 1710.06 664.296 1613.95C723.953 1631.2 740.698 1624.81 820.077 1619.88C977.409 1762.23 942.353 1707.13 981.796 1594.23C1020.98 1482.06 1050.11 1248.55 1011.76 1100.93C1143.07 933.37 1108.11 890.822 1042.92 931.133C1074.35 885.069 1092.2 763.952 998.858 733.383C990.587 710.492 949.331 550.323 744.412 564.084C668.384 425.778 559.539 367.913 429.389 418.684ZM1041.48 931.705L962.678 984.801L917.827 1015.02" id="Fill_2"/>
<path d="M1210.53 685.802C1219.32 606.753 1334.85 551.35 1402.93 542.84C1425.37 540.035 1462.66 569.761 1481.76 560.209C1503.9 549.137 1513.02 518.99 1540.55 512.11C1564.87 506.029 1645.49 522.416 1651.44 552.193C1654.78 568.876 1642.09 580.671 1642.09 594.948C1642.09 604.314 1678.42 632.181 1680.84 656.408C1682.64 674.449 1671.91 695.174 1660.8 708.516C1653.22 717.609 1648.77 730.466 1638.08 736.574C1600.79 757.884 1510.95 716.722 1469.73 709.852C1448.83 706.367 1431.38 728.321 1410.95 723.213C1389.35 717.813 1376.1 691.625 1354.83 691.147C1305.2 711.013 1208.94 715.585 1208.94 710.388C1208.94 706.282 1209.68 693.442 1210.53 685.802Z" id="Fill_3"/>
<path d="M1159.15 704.377C1167.42 689.984 1125.27 643.025 1131.4 612.37C1136.34 587.686 1171.19 548.235 1191.33 533.131C1200.07 526.578 1210.61 530.912 1218.89 526.77C1221.92 525.258 1224.9 488.01 1227.38 482.241C1234.48 465.657 1253.97 434.477 1269.78 424.989C1278.94 419.499 1292.66 409.868 1303.71 408.026C1317.96 405.65 1344.61 414.991 1356.72 405.905C1387.08 383.136 1365.49 345.438 1424.58 338.052C1444.24 335.593 1448.03 370.308 1466.98 374.099C1485.1 377.722 1505.69 345.052 1519.99 350.774C1541.32 359.306 1541.77 419.017 1526.36 431.35C1512.24 442.642 1483.69 445.662 1466.98 450.434C1463.32 451.48 1455.18 451.064 1456.38 454.675C1458.11 459.858 1475.64 466.555 1479.71 471.639C1502.16 499.704 1490.48 535.571 1462.74 552.215C1459.16 554.363 1444.96 555.155 1443.66 556.455C1442.83 557.286 1461.96 596.075 1430.94 611.587C1405.66 624.227 1340.79 612.418 1331.28 624.309C1316.49 642.791 1338.06 660.365 1329.16 675.199C1313.38 701.493 1257.86 687.922 1235.86 687.922C1229.46 687.922 1219.67 692.201 1210.81 697.339C1205.49 700.421 1200.52 703.812 1196.81 706.774C1186.86 714.737 1150.3 719.796 1159.15 704.377ZM1154.57 681.826C1125.56 668.329 1077.78 676.149 1057.74 656.115C1017.84 616.211 1079.14 555.298 1070.46 543.733C1042.82 506.868 904.871 515.765 885.988 478C873.406 452.836 927.577 438.049 934.758 416.508C946.993 379.801 866.006 369.966 945.36 325.329C953.079 320.987 960.763 316.567 968.684 312.607C972.683 310.608 976.937 308.366 981.407 308.366C992.928 308.366 998.967 321.142 1006.85 327.45C1033.17 348.501 1062.71 361.839 1095.91 350.774C1098.84 349.797 1105.45 348.647 1106.51 344.413C1110.28 329.36 1054.71 307.382 1072.59 285.041C1097.74 253.597 1152.21 278.889 1165.88 306.245C1171.73 317.935 1163.76 325.581 1163.76 333.811C1163.76 344.102 1187.27 317.096 1193.45 325.329C1209.66 346.946 1143.69 385.876 1153.16 401.665C1162.16 416.657 1231.6 420.667 1233.74 429.23C1236.1 438.694 1168.22 453.619 1172.25 473.759C1176.59 495.488 1206.3 499.772 1221.39 515.706" id="Fill_4"/>
<filter color-interpolation-filters="sRGB" filterUnits="userSpaceOnUse" height="75.4359" id="Filter" width="69.4163" x="12136.7" y="-218.993">
<feGaussianBlur in="SourceGraphic" result="Blur" stdDeviation="12.5"/>
</filter>
<filter color-interpolation-filters="sRGB" filterUnits="userSpaceOnUse" height="71.1196" id="Filter_2" width="71.1196" x="12111.8" y="-235.896">
<feGaussianBlur in="SourceGraphic" result="Blur" stdDeviation="12.5"/>
</filter>
</defs>
<clipPath id="ArtboardFrame">
<rect height="2912.22" width="2000" x="0" y="0"/>
</clipPath>
<g clip-path="url(#ArtboardFrame)" id="All" vectornator:layerName="All">
<g opacity="1" vectornator:layerName="Group 2">
<g opacity="1" vectornator:layerName="Carrot">
<use fill="#e1c36e" fill-rule="nonzero" opacity="1" stroke="#000000" stroke-linecap="butt" stroke-linejoin="round" stroke-width="4.79416" vectornator:layerName="Base carrot" xlink:href="#Fill"/>
<clipPath clip-rule="nonzero" id="ClipPath">
<use xlink:href="#Fill"/>
</clipPath>
<g clip-path="url(#ClipPath)">
<path d="M784.213 895.899C780.567 888.606 799.127 886.524 804.422 885.2C817.389 881.958 830.57 879.633 843.65 876.879C905.962 863.761 971.638 864.992 1035.04 864.992C1186.19 864.992 1298.49 897.647 1430.89 968.412C1477.62 993.389 1536.97 1026.04 1561.65 1075.4M1138.46 1107.49C1190.11 1112.19 1227.99 1137.4 1272.78 1159.8C1349.72 1198.27 1418.49 1248.73 1484.38 1303.64M809.176 1316.71C937.705 1296.42 1066.18 1319.57 1177.69 1383.28M1133.7 1528.31C1173.69 1539.21 1203.26 1558.21 1233.56 1584.18M1050.52 1000.52C1112.2 1009.33 1175.3 1013.85 1230.96 1044.78M1369.88 1013.4C1367.25 1013.4 1375.68 1011.78 1377.75 1013.4C1391.5 1024.21 1402.83 1037.8 1414.84 1050.5C1416.54 1052.29 1418.12 1057.05 1419.34 1059.49M1365.38 1040.38C1375.36 1050.36 1416.66 1076.95 1413.72 1088.72C1413.52 1089.54 1413.42 1090.81 1412.6 1090.97C1405.44 1092.4 1385.78 1068.66 1381.12 1063.99C1377.14 1060.02 1367.63 1048.25 1367.63 1053.87C1367.63 1062.46 1412.6 1087.93 1412.6 1110.08M1365.38 1079.73C1365.09 1079.16 1426.45 1140.06 1391.24 1122.45M1367.63 1097.72C1361.34 1093.53 1404.98 1129.38 1399.11 1138.19C1393.65 1146.38 1339.52 1100.81 1376.62 1122.45C1377.79 1123.13 1378.85 1123.97 1379.99 1124.7C1382.98 1126.6 1385.99 1128.45 1388.99 1130.32M1271.84 1347.86C1269.97 1342.27 1275.73 1386.77 1280.35 1400.62M1256.52 1380.2C1243.75 1361.04 1259.92 1405.7 1263.33 1415.93C1265.16 1421.42 1270.82 1437.04 1266.73 1432.95C1259.12 1425.34 1250.64 1397.21 1236.1 1397.21C1231.55 1397.21 1249.1 1447.8 1248.01 1449.97C1244.94 1456.11 1224.1 1432.87 1222.49 1431.25C1219.35 1428.12 1212 1417.08 1213.98 1421.04C1223.38 1439.84 1221.62 1461.85 1231 1480.6M1208.87 1467.84C1208.46 1470.98 1206.4 1480.27 1207.17 1477.2C1208.97 1470.02 1209.57 1462.46 1208.87 1467.84ZM1257.18 798.252C1249.75 779.659 1268.83 832.437 1271.43 837.641M1315.85 811.661C1310.24 789.239 1333.33 838.959 1340.15 843.507C1341.92 844.688 1344.74 847.724 1346.02 846.022C1348.49 842.728 1313.69 780.819 1343.5 822.556C1344.68 824.195 1345.65 825.973 1346.86 827.584C1355.56 839.189 1348.05 828.119 1352.72 835.127M1376.19 822.556C1370.56 805.667 1396.95 848.993 1400.49 856.079M1036.49 739.668C1025.93 744.944 1009.69 762.775 1004.21 773.739M1084.9 759.393C1084.9 755.254 1066.18 791.452 1061.59 800.636M1058 741.461C1051.45 738.186 1021.41 790.142 1020.35 791.67C1017.21 796.201 1027.21 783.015 1031.11 779.118M1113.59 754.014C1107.95 765.291 1107.75 792.129 1099.25 800.636C1096.57 803.309 1100.74 793.023 1102.83 789.877C1103.59 788.736 1129.93 749.03 1131.52 752.22C1138.02 765.219 1124.35 798.284 1124.35 813.189" fill="none" opacity="1" stroke="#b97c25" stroke-linecap="round" stroke-linejoin="round" stroke-width="4.79416" vectornator:layerName="Carrot outline"/>
<path d="M1040.05 1646.84C1040.05 1650.52 1040.19 1632.75 1043.49 1624.51C1050.2 1607.73 1060.93 1591.46 1070.97 1576.41C1102.86 1528.57 1137.49 1498.83 1156.86 1440.7C1166.85 1410.73 1182.85 1382.59 1194.65 1353.09C1207.07 1322.05 1222.18 1294.11 1234.64 1262.94C1244.94 1237.21 1257.51 1210.44 1268.52 1184.75C1283.31 1150.24 1290.4 1110.49 1309.74 1078.25C1324.27 1054.04 1338.76 1028.9 1349.25 1002.67C1362.94 968.457 1428.86 856.474 1478.5 870.657C1524.97 883.932 1494.01 1042.25 1483.24 1079.97C1447.06 1206.59 1399.16 1340.05 1333.79 1454.44C1323.66 1472.17 1307.14 1485.39 1294.28 1500.82C1275.55 1523.31 1263.71 1549.61 1246.18 1572.97C1237.85 1584.08 1224.66 1591.57 1213.55 1600.46C1180.1 1627.21 1121.37 1703.43 1079.56 1710.39C1054.54 1714.56 1039.51 1698.18 1033.18 1676.04C1032.37 1673.22 1028.94 1645.12 1033.18 1645.12C1037.31 1645.12 1040.05 1643.97 1040.05 1646.84ZM1122.5 1104.02C1113.46 1094.97 1041.22 1087.89 1024.59 1085.12C1023.63 1084.96 984.52 1078.81 988.516 1074.81C996.712 1066.62 1098.3 1082.41 1112.2 1083.4C1115.8 1083.66 1213.16 1110.57 1184.32 1110.57M1437.73 958.664C1420.98 972.681 1347.44 928.425 1328.64 919.575C1318.98 915.03 1310.72 912.814 1248.94 890.359C1247.23 889.741 1282.93 890.979 1284.74 890.915C1315.56 889.82 1320.63 891.474 1333.79 892.727C1357.89 895.022 1378.52 914.072 1400.79 921.929C1406.94 924.102 1416.61 921.322 1419.68 927.083C1423.01 933.332 1441.57 955.45 1437.73 958.664ZM1337.1 1182.95C1308.55 1180.54 1259.62 1157.97 1236.66 1142.66C1233.07 1140.27 1183.69 1117.93 1183.69 1117.93C1183.69 1117.93 1142.23 1103.35 1144.66 1102.14C1162.89 1093.02 1266.26 1118.46 1282.26 1128.06C1284.43 1129.36 1312.09 1155.32 1311.46 1155.55C1304.38 1158.12 1341.81 1183.35 1337.1 1182.95ZM1218 1400.03C1209.48 1397.2 1183.07 1385.2 1174.91 1381.39C1161.2 1374.99 1143.45 1364.49 1130.14 1359.14C1061.84 1331.66 1225.57 1368.43 1225.57 1394.32M1163.73 1483.65C1149.93 1478.13 1139.02 1478.66 1124.77 1474.43C1114.93 1471.5 1108.78 1470.8 1087.28 1455.6C1025.09 1411.64 1003.46 1388.28 1060.7 1413.03C1094.01 1427.43 1170.33 1450.02 1199.8 1464.75M1038.41 1670.48C1030.33 1654.32 998.256 1641.26 1012.57 1624.51C1033.25 1600.29 1068.53 1586.32 1104.4 1521.8C1107.64 1515.97 1118.85 1499.92 1128.63 1476.66C1132.1 1468.4 1135.15 1463.71 1139.58 1465.18C1148.99 1468.32 1155.1 1475.37 1158.6 1485.14C1177.08 1536.65 1122.97 1663.55 1098.45 1688.06" fill="#af822d" fill-opacity="0.33287" fill-rule="nonzero" opacity="1" stroke="none" vectornator:layerName="Carrot shadow"/>
</g>
</g>
<g opacity="1" vectornator:layerName="Rabbit">
<use fill="#fff0ed" fill-rule="nonzero" opacity="1" stroke="none" vectornator:layerName="Base" xlink:href="#Fill_2"/>
<clipPath clip-rule="nonzero" id="ClipPath_2">
<use xlink:href="#Fill_2"/>
</clipPath>
<g clip-path="url(#ClipPath_2)">
<path d="M766.742 915.351C753.712 915.55 741.711 916.114 730.227 909.734C674.673 878.87 764.446 825.666 803.31 845.098C831.426 859.156 837.723 896.841 801.151 909.031M993.909 772.099C952.578 743.672 999.777 674.912 1041.31 703.984C1086.12 735.351 1033.33 799.217 993.909 772.099ZM649.303 668.947C665.92 662.718 594.316 652.724 578.784 649.618C511.258 636.113 457.752 655.178 412.277 700.653C410.196 702.733 403.076 704.923 400.819 708.307C398.416 711.912 425.29 712.398 428.149 713.351C447.862 719.922 466.21 712.935 485.851 712.935C515.453 712.935 535.774 704.169 563.108 693.236C574.427 688.708 587.931 687.485 600.535 683.895C616.853 679.248 632.899 675.095 649.303 668.947Z" fill="#ffc2b6" fill-rule="nonzero" opacity="1" stroke="none" vectornator:layerName="Cheek"/>
</g>
</g>
<path d="M801.748 841.283C800.922 834.582 813.15 827.56 829.06 825.6C844.97 823.639 858.537 827.483 859.363 834.184C860.189 840.886 847.961 847.907 832.051 849.868C816.141 851.828 802.574 847.985 801.748 841.283ZM959.684 742.707C963.526 730.994 970.914 722.901 976.184 724.63C981.455 726.359 982.613 737.255 978.771 748.968C974.929 760.68 967.542 768.774 962.271 767.045C957 765.316 955.842 754.419 959.684 742.707Z" fill="#000000" fill-rule="nonzero" opacity="1" stroke="#000000" stroke-linecap="butt" stroke-linejoin="round" stroke-width="6.89346" vectornator:layerName="Eyes"/>
<g opacity="1" vectornator:layerName="Leave">
<use fill="#cde16e" fill-rule="nonzero" opacity="1" stroke="#000000" stroke-linecap="round" stroke-linejoin="round" stroke-width="4.74671" vectornator:layerName="Curve 16" xlink:href="#Fill_3"/>
<clipPath clip-rule="nonzero" id="ClipPath_3">
<use xlink:href="#Fill_3"/>
</clipPath>
<g clip-path="url(#ClipPath_3)">
<path d="M1497.65 549.771C1482.89 564.531 1474.86 606.386 1450.97 622.309C1433.85 633.727 1407.16 642.956 1386.1 637.689C1381.59 636.562 1355.5 637.655 1351.05 640.623C1335.22 651.179 1361.92 700.886 1326.42 709.76C1285.06 720.1 1162.54 745.698 1175.37 668.684C1181.66 630.955 1234.48 604.336 1264.15 586.534C1309.02 559.61 1349.96 526.655 1401.95 513.658C1439.38 504.301 1484.84 511.3 1519.87 493.783" fill="#9db13f" fill-opacity="0.538774" fill-rule="nonzero" opacity="1" stroke="none" vectornator:layerName="Curve 46"/>
</g>
</g>
<g opacity="1" vectornator:layerName="Two leaves">
<use fill="#cde16e" fill-rule="nonzero" opacity="1" stroke="#000000" stroke-linecap="round" stroke-linejoin="round" stroke-width="4.74671" vectornator:layerName="Curve 17" xlink:href="#Fill_4"/>
<clipPath clip-rule="nonzero" id="ClipPath_4">
<use xlink:href="#Fill_4"/>
</clipPath>
<g clip-path="url(#ClipPath_4)">
<path d="M1151.16 676.998C1118.83 676.998 1120.8 626.65 1124.69 603.319C1129.25 575.973 1173.72 512.004 1202.24 504.745C1209.62 508.446 1218.39 515.538 1219.52 517.483C1218.34 520.922 1218.53 524.566 1216.64 525.498C1209.65 527.723 1196.18 525.399 1191.53 530.582C1183.59 535.483 1173.47 544.905 1161.79 558.574C1150.31 572.016 1132.39 593.929 1130.67 611.134C1121.24 625.451 1147.01 670.312 1146.06 671.717" fill="#9db13f" fill-opacity="0.538774" fill-rule="nonzero" opacity="1" stroke="none" vectornator:layerName="Curve 46"/>
</g>
</g>
<path d="M1193.32 666.095C1189.45 658.351 1192.27 650.927 1191.07 642.521C1189.61 632.301 1182.83 620.466 1185.46 609.966C1199.6 553.419 1275.99 552.966 1308.94 513.425C1323.36 496.126 1307.17 483.287 1315.68 466.276C1323.93 449.774 1351.84 437.487 1367.32 429.232C1396.22 413.817 1430.7 411.57 1460.49 396.677M1463.86 418.006C1439.79 418.006 1376.17 439.228 1368.44 466.276C1364.99 478.341 1378.21 516.325 1377.42 517.915C1371.03 530.7 1313.41 539.817 1298.84 547.102C1279.79 556.628 1267.41 569.918 1267.41 590.882C1267.41 594.646 1271.48 600.691 1269.65 604.353C1261.05 621.566 1222.56 608.211 1211.28 622.314C1199.57 636.949 1218.33 661.768 1206.79 676.198C1201.71 682.541 1163.05 687.812 1168.62 689.669M1055.24 364.122C1054.1 361.834 1076.05 369.016 1078.81 370.858C1089.62 378.061 1113.36 396.807 1110.25 412.393C1108.11 423.071 1071.04 438.899 1074.32 443.825C1092.68 471.361 1129.52 452.305 1148.41 477.502C1157.57 489.713 1170.73 509.611 1167.5 525.773C1164.27 541.903 1142.16 555.798 1146.41 572.808M1119.23 618.946C1093.76 578.191 1147.67 538.756 1136.07 507.812C1125.3 479.099 1064.41 472.492 1039.52 475.257C1030.72 476.236 1015.92 484.195 1009.22 475.257C967.657 419.846 1043.45 426.145 1058.61 403.412C1060.26 400.937 1054.29 394.605 1053 393.309C1040.87 381.182 1003.97 342.823 993.499 374.225M1333.8 630.836C1343.27 627.193 1343.35 628.35 1350.68 622.961M1335.25 661.958C1356.92 664.536 1375.13 666.483 1393.14 660.482C1422.69 650.629 1398.47 635.147 1409.82 622.186M1446.69 606.393C1469.15 603.183 1487.98 604.186 1506.52 620.069C1510.01 623.062 1547.03 657.047 1550.3 654.869C1565.56 644.693 1570.81 632.111 1594.08 630.172C1633.48 626.888 1641.65 669.507 1625.51 696.404M1454.34 581.221C1476.48 586.028 1491.87 596.729 1515.5 592.005C1526.12 589.881 1540.79 587.604 1550.3 581.902C1561.79 575.002 1557.41 563.673 1574.99 566.186C1593.25 568.794 1601.2 583.47 1605.3 599.863M1086.1 489.385C1087.88 487.602 1080.91 488.557 1078.53 489.385C1072.5 491.485 1063.11 493.711 1058.36 498.464M1064.91 486.359C1059.27 487.769 1052.44 491.773 1048.27 495.942M987.24 434.912C988.983 434.041 970.092 431.886 966.056 432.895M988.753 420.79C983.202 418.014 973.392 421.799 967.065 421.799M1133 444.495C1133.73 443.043 1146.65 432.214 1143.09 433.399M1126.45 435.417C1124.85 438.614 1129.83 433.551 1129.98 433.399C1132.99 430.385 1136.15 427.288 1140.07 425.329M1115.35 636.159C1108.53 633.885 1101.54 637.672 1094.67 637.672M1106.78 626.071C1111.32 623.799 1095.89 624.558 1092.65 624.558M1435.44 631.811C1434.57 630.938 1441.99 643.37 1444.68 648.751M1448.53 624.881C1448.53 619.03 1456.35 643.591 1457.77 646.441M1563.26 668.771C1563.26 676.715 1565.57 683.914 1565.57 691.871M1580.68 667.88C1583.89 674.706 1582.66 682.085 1581.2 689.166M1554.22 537.977C1554.93 543.981 1554.42 554.306 1550.59 559.163M1564.45 539.714C1567.67 538.858 1561.09 557.493 1559.96 559.587M1356.43 548.886C1355.41 545.046 1380.39 545.628 1384.76 549.072M1366.61 536.241C1374.07 534.258 1383.71 536.374 1391.22 537.928M1312.5 435.794C1313.82 429.401 1316.14 448.832 1311.13 455.179M1323.35 430.853C1329.02 434.141 1325.75 445.195 1322.58 449.225M1442.71 373.087C1443.18 370.818 1445.02 378.37 1444.62 380.291C1443.48 385.8 1440.86 395.001 1434.42 396.713M1453.28 378.677C1458.42 372.155 1454.86 390.66 1448.59 395.861M1234.21 521.72C1235.03 528.608 1233.71 538.075 1230.65 544.432M1248.51 523.92C1249.19 529.648 1247.06 533.965 1244.63 539.003M1226.87 655.978C1235.36 650.4 1244.64 655.872 1253.01 657.602M1240.18 642.845C1237.72 639.107 1254.38 645.405 1256.94 645.933" fill="none" opacity="1" stroke="#97ab39" stroke-linecap="round" stroke-linejoin="round" stroke-width="4.74671" vectornator:layerName="Leave outline"/>
<path d="M962.295 859.29L955.393 886.521L962.295 859.29ZM963.034 857.408L988.576 862.1M729.743 1055.96L722.453 1065.34M728.702 1073.67L721.411 1080.96M715.162 1093.46C713.144 1097.49 703.747 1122.62 698.498 1122.62M686 1136.16C676.988 1140.66 669.307 1153.89 662.045 1161.16C631.149 1192.05 607.59 1217.99 588.097 1256.98M573.515 1261.14C563.457 1261.14 553.869 1268.93 545.394 1273.64C530.431 1281.95 509.674 1294.98 500.609 1310.09C479.152 1345.85 479.246 1430.12 522.481 1451.74M532.896 1456.95L529.771 1466.32M549.56 1459.55C549.496 1460.17 548.321 1461.71 548.519 1461.11C549.424 1458.4 549.971 1455.56 549.56 1459.55ZM623.508 1267.39C658.639 1284.96 653.088 1301.97 663.086 1331.96M665.169 1359.04L666.211 1365.29M656.837 1379.87C656.837 1382.65 656.837 1385.43 656.837 1388.21M638.09 1409.04C630.322 1424.57 615.575 1433.83 600.595 1441.32C597.036 1443.1 579.63 1449.93 581.847 1445.49M531.787 1479.18C526.933 1491.48 564.385 1540.32 579.692 1546.36M588.215 1555.79C597.368 1566.32 617.261 1584.74 624.726 1590.39C667.218 1622.53 736.386 1627.73 820.26 1615.99M581.225 1553.95C580.108 1552.52 569.452 1587.79 568.269 1592.11C566.509 1598.55 553.876 1649.76 558.631 1654.02C588.171 1680.49 636.714 1634.86 659.432 1617.22M804.415 1598.84C801.62 1593.94 899.893 1709.67 934.371 1702.96C969.52 1696.12 965.004 1627.02 982.543 1563.55M1014.29 1117.96C1028.96 1201.59 1027.16 1247.55 1029.45 1284.93C1035.5 1384.05 1004.01 1532.75 973.63 1608.11M618.551 913.343C614.588 916.351 612.023 920.585 608.048 923.602M620.474 930.936L614.642 941.769M622.19 954.782C617.4 989.76 671.069 1058.85 734 1047.16M1004.03 735.096C1011.34 737.182 1015.33 736.186 1022.59 736.388M1023.46 747.035C1030.71 747.299 1036.49 747.548 1039.33 747.938M1039.7 760.087C1066.16 791.969 1087.96 865.943 1040.85 929.903M921.999 995.843C921.684 994.168 963.476 968.709 969.476 965.52C979.414 960.238 1003.07 946.5 1028 935.33C1032.02 933.531 1036.07 931.799 1040.1 930.179C1081.04 913.719 1093.57 914.73 1100.06 929.083C1108.02 946.697 1072.37 1016.47 1063.05 1028.69C1047.26 1049.35 1036.58 1065.85 1020.25 1087.55M1012.48 1092.83C1013.12 1093.43 1017.29 1094.95 1016.56 1094.45C1014.58 1093.1 1010.89 1091.36 1012.48 1092.83ZM1012.23 1103.39C1016.05 1105.09 1016.16 1105.31 1018.32 1106.08C1019.84 1106.62 1010.1 1102.44 1012.23 1103.39ZM603.058 692.097C585.726 746.79 586.206 828.525 613.795 903.531M745.564 565.288C760.454 559.593 827.031 567.994 840.042 572.06C916.809 596.049 966.971 651.313 996.867 726.054M646.09 674.793C635.261 678.403 624.214 682.265 613.017 686.174C610.12 687.185 607.214 688.199 604.299 689.213C574.167 699.692 543.096 710.125 512.41 716.585C485.895 722.167 463.263 724.433 427.266 721.203C362.514 701.721 295.021 715.395 327.29 679.183C388.138 621.356 463.845 572.997 540.262 588.28C578.541 595.936 661.853 615.186 672.299 656.971M681.227 594.532C660.52 592.998 592.985 546.652 571.225 535.772C535.673 517.996 509.669 492.451 480.611 465.815C460.736 447.596 405.246 432.328 439.294 413.925C493.501 384.627 588.63 400.848 637.704 437.865C712.526 500.684 708.005 499.757 745.471 565.938M691.48 590.545C666.9 597.692 652.483 620.309 647.922 624.87M594.271 1260.24C596.088 1259.63 597.727 1258.37 599.453 1257.51M609.271 1262.96C607.733 1262.96 615.558 1260.78 617.998 1260.78" fill="none" opacity="1" stroke="#000000" stroke-linecap="round" stroke-linejoin="round" stroke-width="4.90982" vectornator:layerName="Curve 46"/>
</g>
<g opacity="1" vectornator:layerName="Group 1">
<path d="M84.4421 2330.9L432.815 2330.9L432.815 2561.33L84.4421 2561.33L154.117 2462.21L84.4421 2330.9Z" fill="#e2ce9e" fill-rule="nonzero" opacity="1" stroke="#000000" stroke-linecap="butt" stroke-linejoin="round" stroke-width="4.90982" vectornator:layerName="Rectangle 2"/>
<path d="M1915.56 2330.9L1567.19 2330.9L1567.19 2561.33L1915.56 2561.33L1845.88 2462.21L1915.56 2330.9Z" fill="#e2ce9e" fill-rule="nonzero" opacity="1" stroke="#000000" stroke-linecap="butt" stroke-linejoin="round" stroke-width="4.90982" vectornator:layerName="Rectangle 4"/>
<path d="M312.786 2199.58L1690.13 2199.58L1690.13 2462.21L312.786 2462.21L312.786 2199.58Z" fill="#e2ce9e" fill-rule="nonzero" opacity="1" stroke="#000000" stroke-linecap="butt" stroke-linejoin="round" stroke-width="4.90982" vectornator:layerName="Rectangle 1"/>
<path d="M312.786 2462.21L432.815 2462.21L432.815 2561.33L312.786 2462.21Z" fill="#e2ce9e" fill-rule="nonzero" opacity="1" stroke="#000000" stroke-linecap="butt" stroke-linejoin="round" stroke-width="4.90982" vectornator:layerName="Rectangle 3"/>
<path d="M1687.21 2462.21L1567.19 2462.21L1567.19 2561.33L1687.21 2462.21Z" fill="#e2ce9e" fill-rule="nonzero" opacity="1" stroke="#000000" stroke-linecap="butt" stroke-linejoin="round" stroke-width="4.90982" vectornator:layerName="Rectangle 5"/>
<g fill="#756831" opacity="1" stroke="none" vectornator:layerName="Text 1">
<path d="M483.683 2347.07C485.532 2345.22 487.641 2344.15 490.01 2343.86C492.379 2343.57 494.545 2343.89 496.51 2344.82C498.474 2345.74 500.006 2347.21 501.103 2349.24C502.201 2351.26 502.461 2353.66 501.884 2356.43C501.19 2359.2 499.861 2361.77 497.897 2364.14C495.932 2366.51 493.968 2368.68 492.003 2370.64C487.496 2375.38 482.498 2378.88 477.009 2381.13C471.52 2383.38 465.973 2384.45 460.368 2384.34C454.763 2384.22 449.274 2382.89 443.9 2380.35C438.527 2377.81 433.702 2374 429.426 2368.91C426.884 2365.91 424.746 2362.73 423.012 2359.38C421.279 2356.03 419.95 2352.5 419.026 2348.8C417.639 2343.37 417.003 2337.71 417.119 2331.82C417.234 2325.92 418.159 2320.2 419.892 2314.65C421.626 2309.11 424.081 2303.88 427.259 2298.97C430.437 2294.06 434.338 2289.87 438.96 2286.4C442.311 2283.86 445.691 2281.66 449.101 2279.81C452.51 2277.96 456.121 2276.23 459.935 2274.61C462.13 2273.69 464.384 2272.79 466.695 2271.93C469.006 2271.06 471.375 2270.39 473.802 2269.93C476.229 2269.47 478.656 2269.3 481.082 2269.41C483.509 2269.53 485.878 2270.05 488.189 2270.97C489.807 2271.67 491.425 2272.62 493.043 2273.83C494.661 2275.05 496.163 2276.43 497.55 2277.99C498.937 2279.55 500.15 2281.2 501.19 2282.93C502.23 2284.67 502.981 2286.34 503.444 2287.96C503.79 2289.46 503.877 2290.99 503.704 2292.55C503.53 2294.11 503.068 2295.53 502.317 2296.8C501.566 2298.07 500.555 2299.14 499.283 2300.01C498.012 2300.87 496.568 2301.42 494.95 2301.65C492.292 2302 490.241 2301.71 488.796 2300.79C487.352 2299.86 486.196 2298.71 485.329 2297.32C484.463 2295.93 483.625 2294.58 482.816 2293.25C482.007 2291.92 480.851 2290.96 479.349 2290.39C478.424 2290.39 477.731 2290.44 477.269 2290.56C473.34 2291.6 469.382 2293.02 465.395 2294.81C461.408 2296.6 457.71 2298.76 454.301 2301.31C450.892 2303.85 447.916 2306.8 445.374 2310.15C442.831 2313.5 440.982 2317.25 439.827 2321.41C438.44 2326.38 437.92 2331.41 438.267 2336.5C438.613 2341.58 440 2346.38 442.427 2350.88C443.814 2353.54 445.663 2355.85 447.974 2357.82C450.285 2359.78 452.827 2361.25 455.601 2362.24C458.374 2363.22 461.206 2363.57 464.095 2363.28C466.984 2362.99 469.757 2361.98 472.415 2360.24C474.726 2358.63 476.807 2356.63 478.656 2354.26C480.505 2351.89 482.18 2349.5 483.683 2347.07Z"/>
<path d="M607.103 2372.55C606.756 2375.09 605.889 2377.26 604.503 2379.05C603.116 2380.84 601.527 2382.08 599.736 2382.78C597.945 2383.47 596.038 2383.56 594.015 2383.04C591.993 2382.52 590.115 2381.16 588.382 2378.96C586.879 2377.12 586.042 2375.06 585.868 2372.81C585.695 2370.56 585.377 2368.33 584.915 2366.14C583.759 2359.78 582.084 2353.25 579.888 2346.55C572.723 2346.67 565.616 2346.72 558.567 2346.72C551.517 2346.72 544.468 2346.78 537.419 2346.9C536.379 2349.9 535.483 2352.96 534.732 2356.08C533.981 2359.2 533.259 2362.27 532.565 2365.27C531.987 2367.58 531.467 2369.98 531.005 2372.46C530.543 2374.95 529.503 2377.12 527.885 2378.96C525.92 2381.28 523.811 2382.58 521.558 2382.86C519.305 2383.15 517.282 2382.78 515.491 2381.74C513.7 2380.7 512.255 2379.11 511.157 2376.97C510.06 2374.83 509.684 2372.38 510.031 2369.6C510.377 2366.02 511.071 2362.5 512.111 2359.03C513.151 2355.56 514.133 2352.1 515.058 2348.63C520.258 2328.75 526.961 2309.51 535.165 2290.91C535.859 2289.29 536.581 2287.73 537.332 2286.23C538.083 2284.72 538.806 2283.22 539.499 2281.72C540.308 2280.1 541.117 2278.37 541.926 2276.52C542.735 2274.67 543.688 2272.97 544.786 2271.41C545.884 2269.85 547.184 2268.52 548.686 2267.42C550.188 2266.32 552.037 2265.77 554.233 2265.77C557.122 2265.77 559.549 2266.7 561.514 2268.55C569.372 2276.4 575.843 2285.27 580.928 2295.15C586.013 2305.03 590.577 2315.12 594.622 2325.4C597.049 2325.29 599.418 2325.29 601.729 2325.4C604.04 2325.52 606.121 2326.56 607.97 2328.52C609.587 2330.14 610.541 2331.87 610.83 2333.72C611.119 2335.57 610.945 2337.36 610.31 2339.1C609.674 2340.83 608.634 2342.33 607.189 2343.6C605.745 2344.87 603.983 2345.74 601.903 2346.2C603.058 2350.25 604.069 2354.38 604.936 2358.6C605.803 2362.81 606.525 2367.06 607.103 2371.34L607.103 2372.55ZM571.741 2325.4C569.545 2320.2 567.205 2315.03 564.72 2309.89C562.236 2304.74 559.433 2299.86 556.313 2295.24C554.002 2300.32 551.835 2305.38 549.813 2310.41C547.791 2315.43 545.913 2320.55 544.179 2325.75C549.611 2325.63 554.378 2325.57 558.48 2325.57C562.583 2325.57 567.003 2325.52 571.741 2325.4Z"/>
<path d="M642.291 2373.24C641.945 2376.13 640.731 2378.5 638.651 2380.35C636.571 2382.2 634.318 2383.38 631.891 2383.9C629.464 2384.42 627.239 2384.16 625.217 2383.12C623.195 2382.08 622.126 2380 622.01 2376.88C621.432 2363.59 621.144 2349.81 621.144 2335.54C621.144 2321.27 621.144 2307.09 621.144 2292.99C619.295 2292.29 617.908 2291.25 616.983 2289.87C616.059 2288.48 615.51 2286.95 615.337 2285.27C615.163 2283.6 615.365 2281.89 615.943 2280.16C616.521 2278.43 617.388 2276.92 618.543 2275.65C619.815 2274.27 621.548 2272.99 623.744 2271.84C625.939 2270.68 628.337 2269.61 630.937 2268.63C633.538 2267.65 636.109 2266.81 638.651 2266.12C641.194 2265.42 643.332 2264.9 645.065 2264.56C652.345 2263.06 659.684 2263.08 667.08 2264.64C674.475 2266.2 680.976 2269.01 686.581 2273.05C692.185 2277.1 696.374 2282.35 699.148 2288.83C701.921 2295.3 702.21 2302.69 700.015 2311.01C699.321 2313.33 698.455 2315.64 697.415 2317.95C696.374 2320.26 695.161 2322.4 693.774 2324.36C691.81 2327.37 689.499 2330.02 686.841 2332.34C684.183 2334.65 681.294 2336.78 678.173 2338.75C680.369 2341.06 682.449 2343.49 684.414 2346.03C686.378 2348.57 688.574 2350.88 691.001 2352.96C691.925 2353.77 693.283 2355.04 695.074 2356.78C696.866 2358.51 698.599 2360.36 700.275 2362.32C701.95 2364.29 703.424 2366.22 704.695 2368.13C705.966 2370.04 706.544 2371.63 706.428 2372.9C706.313 2375.09 705.706 2377.09 704.608 2378.88C703.51 2380.67 702.181 2382.06 700.621 2383.04C699.061 2384.02 697.357 2384.51 695.508 2384.51C693.659 2384.51 691.81 2383.88 689.961 2382.6C687.881 2380.99 685.916 2379.08 684.067 2376.88C682.218 2374.69 680.427 2372.67 678.693 2370.82C674.88 2366.66 671.153 2362.47 667.513 2358.25C663.873 2354.03 660.146 2349.9 656.332 2345.86C654.021 2346.32 651.681 2346.64 649.312 2346.81C646.943 2346.98 644.603 2347.19 642.291 2347.42L642.291 2372.03L642.291 2373.24ZM673.32 2289.35C668.697 2286.57 663.642 2285.01 658.152 2284.67C652.663 2284.32 647.376 2285.07 642.291 2286.92L642.291 2326.09C647.492 2325.75 652.605 2325.08 657.632 2324.1C662.659 2323.12 667.311 2320.95 671.586 2317.6C673.898 2315.75 675.776 2313.59 677.22 2311.1C678.665 2308.62 679.531 2306.07 679.82 2303.47C680.109 2300.87 679.762 2298.33 678.78 2295.85C677.798 2293.36 675.978 2291.2 673.32 2289.35Z"/>
<path d="M743.697 2373.24C743.35 2376.13 742.137 2378.5 740.057 2380.35C737.977 2382.2 735.723 2383.38 733.297 2383.9C730.87 2384.42 728.645 2384.16 726.623 2383.12C724.601 2382.08 723.532 2380 723.416 2376.88C722.838 2363.59 722.549 2349.81 722.549 2335.54C722.549 2321.27 722.549 2307.09 722.549 2292.99C720.7 2292.29 719.314 2291.25 718.389 2289.87C717.465 2288.48 716.916 2286.95 716.742 2285.27C716.569 2283.6 716.771 2281.89 717.349 2280.16C717.927 2278.43 718.794 2276.92 719.949 2275.65C721.22 2274.27 722.954 2272.99 725.149 2271.84C727.345 2270.68 729.743 2269.61 732.343 2268.63C734.943 2267.65 737.515 2266.81 740.057 2266.12C742.599 2265.42 744.737 2264.9 746.471 2264.56C753.751 2263.06 761.089 2263.08 768.485 2264.64C775.881 2266.2 782.382 2269.01 787.986 2273.05C793.591 2277.1 797.78 2282.35 800.554 2288.83C803.327 2295.3 803.616 2302.69 801.42 2311.01C800.727 2313.33 799.86 2315.64 798.82 2317.95C797.78 2320.26 796.567 2322.4 795.18 2324.36C793.215 2327.37 790.904 2330.02 788.246 2332.34C785.588 2334.65 782.699 2336.78 779.579 2338.75C781.775 2341.06 783.855 2343.49 785.82 2346.03C787.784 2348.57 789.98 2350.88 792.407 2352.96C793.331 2353.77 794.689 2355.04 796.48 2356.78C798.271 2358.51 800.005 2360.36 801.68 2362.32C803.356 2364.29 804.829 2366.22 806.101 2368.13C807.372 2370.04 807.95 2371.63 807.834 2372.9C807.719 2375.09 807.112 2377.09 806.014 2378.88C804.916 2380.67 803.587 2382.06 802.027 2383.04C800.467 2384.02 798.762 2384.51 796.913 2384.51C795.064 2384.51 793.215 2383.88 791.367 2382.6C789.286 2380.99 787.322 2379.08 785.473 2376.88C783.624 2374.69 781.833 2372.67 780.099 2370.82C776.286 2366.66 772.559 2362.47 768.919 2358.25C765.278 2354.03 761.551 2349.9 757.738 2345.86C755.427 2346.32 753.087 2346.64 750.718 2346.81C748.349 2346.98 746.008 2347.19 743.697 2347.42L743.697 2372.03L743.697 2373.24ZM774.726 2289.35C770.103 2286.57 765.047 2285.01 759.558 2284.67C754.069 2284.32 748.782 2285.07 743.697 2286.92L743.697 2326.09C748.897 2325.75 754.011 2325.08 759.038 2324.1C764.065 2323.12 768.716 2320.95 772.992 2317.6C775.303 2315.75 777.181 2313.59 778.626 2311.1C780.07 2308.62 780.937 2306.07 781.226 2303.47C781.515 2300.87 781.168 2298.33 780.186 2295.85C779.204 2293.36 777.383 2291.2 774.726 2289.35Z"/>
<path d="M919.987 2333.38C918.023 2339.85 915.509 2346.17 912.447 2352.36C909.384 2358.54 905.657 2364.06 901.266 2368.91C896.875 2373.76 891.761 2377.69 885.925 2380.7C880.089 2383.7 873.416 2385.2 865.904 2385.2C861.05 2384.97 857.208 2384.54 854.377 2383.9C851.545 2383.27 848.801 2382.32 846.143 2381.04C841.405 2379.66 837.331 2377.43 833.922 2374.37C830.513 2371.31 827.653 2367.76 825.342 2363.71C823.031 2359.67 821.268 2355.36 820.055 2350.8C818.841 2346.23 818.061 2341.81 817.715 2337.54C817.137 2330.02 817.772 2322.4 819.621 2314.65C821.47 2306.91 824.417 2299.78 828.462 2293.25C832.507 2286.72 837.591 2281.11 843.716 2276.43C849.841 2271.75 856.832 2268.66 864.691 2267.16C868.735 2266.46 872.838 2266.23 876.998 2266.46C881.158 2266.7 885.203 2267.51 889.132 2268.89C892.368 2270.05 895.372 2271.38 898.146 2272.88C900.919 2274.38 903.577 2276.29 906.12 2278.6C909.471 2281.6 912.302 2285.07 914.613 2289C916.925 2292.93 918.6 2297.03 919.64 2301.31C920.912 2306.74 921.489 2312.11 921.374 2317.43C921.258 2322.74 920.796 2328.06 919.987 2333.38ZM875.091 2362.67C878.558 2361.17 881.592 2359.17 884.192 2356.69C886.792 2354.21 889.074 2351.46 891.039 2348.46C893.003 2345.45 894.65 2342.24 895.979 2338.84C897.308 2335.43 898.493 2331.99 899.533 2328.52C900.226 2324.13 900.602 2319.62 900.659 2315C900.717 2310.38 899.764 2305.99 897.799 2301.83C896.181 2298.36 893.726 2295.38 890.432 2292.9C887.139 2290.42 883.527 2288.68 879.598 2287.7C875.669 2286.72 871.711 2286.51 867.724 2287.09C863.737 2287.67 860.184 2289.23 857.064 2291.77C852.672 2295.47 849.119 2299.6 846.403 2304.17C843.687 2308.73 841.636 2313.79 840.249 2319.33C839.094 2323.73 838.458 2328.35 838.342 2333.2C838.227 2338.06 838.978 2342.68 840.596 2347.07C841.867 2350.31 843.745 2353.25 846.23 2355.91C848.714 2358.57 851.517 2360.65 854.637 2362.15C857.757 2363.65 861.079 2364.49 864.604 2364.66C868.129 2364.84 871.624 2364.17 875.091 2362.67Z"/>
<path d="M1012.21 2270.97C1014.4 2271.9 1016.22 2273.37 1017.67 2275.39C1019.11 2277.41 1019.98 2279.49 1020.27 2281.63C1020.55 2283.77 1020.15 2285.71 1019.05 2287.44C1017.95 2289.17 1016.02 2290.33 1013.25 2290.91C1007.93 2291.83 1002.93 2292.24 998.251 2292.12C993.571 2292 989.498 2291.95 986.031 2291.95C986.031 2305.81 986.089 2319.45 986.204 2332.86C986.32 2346.26 986.262 2360.42 986.031 2375.32C986.031 2378.56 984.933 2380.9 982.737 2382.34C980.542 2383.79 978.144 2384.4 975.544 2384.16C972.943 2383.93 970.545 2382.89 968.35 2381.04C966.154 2379.2 965.056 2376.65 965.056 2373.42C964.941 2359.78 964.883 2346.2 964.883 2332.68C964.883 2319.16 964.883 2305.58 964.883 2291.95C963.843 2291.95 962.081 2292 959.596 2292.12C957.111 2292.24 954.396 2292.26 951.449 2292.21C948.502 2292.15 945.469 2291.92 942.348 2291.51C939.228 2291.11 936.512 2290.33 934.201 2289.17C932.352 2288.25 931.139 2286.89 930.561 2285.1C929.983 2283.31 929.954 2281.49 930.474 2279.64C930.994 2277.79 931.948 2276.06 933.334 2274.44C934.721 2272.82 936.455 2271.72 938.535 2271.15C948.242 2270.57 957.631 2270.37 966.703 2270.54C975.775 2270.71 984.991 2270.8 994.351 2270.8C997.125 2270.8 999.898 2270.77 1002.67 2270.71C1005.45 2270.65 1008.28 2270.63 1011.17 2270.63L1012.21 2270.97Z"/>
<path d="M1109.97 2381.74C1105 2381.16 1101.97 2379.51 1100.87 2376.8C1099.77 2374.08 1099.74 2371.11 1100.78 2367.87L1100.78 2297.49C1098.93 2297.49 1097.29 2297 1095.84 2296.02C1094.4 2295.04 1093.24 2293.8 1092.38 2292.29C1091.51 2290.79 1091.08 2289.14 1091.08 2287.35C1091.08 2285.56 1091.6 2283.91 1092.64 2282.41C1094.95 2278.95 1097.92 2276.23 1101.56 2274.27C1105.2 2272.3 1108.99 2270.68 1112.92 2269.41C1119.04 2267.45 1125.2 2266.35 1131.38 2266.12C1137.56 2265.89 1143.66 2267.16 1149.67 2269.93C1155.1 2272.47 1159.37 2275.77 1162.49 2279.81C1165.61 2283.86 1167.58 2288.16 1168.39 2292.73C1169.2 2297.29 1168.79 2301.97 1167.17 2306.77C1165.56 2311.56 1162.67 2316.04 1158.51 2320.2C1163.94 2323.67 1167.81 2327.8 1170.12 2332.6C1172.43 2337.39 1173.39 2342.33 1172.98 2347.42C1172.58 2352.5 1170.96 2357.41 1168.13 2362.15C1165.3 2366.89 1161.45 2370.99 1156.6 2374.46C1153.71 2376.54 1150.33 2378.13 1146.46 2379.22C1142.59 2380.32 1138.6 2381.1 1134.5 2381.56C1130.4 2382.03 1126.32 2382.26 1122.28 2382.26C1118.23 2382.26 1114.54 2382.14 1111.18 2381.91L1109.97 2381.74ZM1146.89 2337.71C1144.81 2336.32 1142.79 2335.28 1140.83 2334.59C1138.86 2333.9 1136.87 2333.43 1134.85 2333.2C1132.82 2332.97 1130.77 2332.91 1128.69 2333.03C1126.61 2333.14 1124.36 2333.26 1121.93 2333.38L1121.93 2361.11C1124.47 2361.11 1127.19 2361.02 1130.08 2360.85C1132.97 2360.68 1135.74 2360.21 1138.4 2359.46C1141.06 2358.71 1143.54 2357.64 1145.85 2356.26C1148.16 2354.87 1150.01 2352.96 1151.4 2350.54C1151.75 2347.76 1151.69 2345.36 1151.23 2343.34C1150.76 2341.32 1149.32 2339.44 1146.89 2337.71ZM1121.93 2311.01C1124.01 2311.01 1126.09 2311.01 1128.17 2311.01C1130.25 2311.01 1132.3 2310.81 1134.33 2310.41C1136.35 2310 1138.31 2309.34 1140.22 2308.41C1142.13 2307.49 1143.83 2306.16 1145.33 2304.43C1147.53 2302 1148.31 2299.43 1147.67 2296.71C1147.04 2294 1145.39 2291.83 1142.73 2290.21C1139.73 2288.25 1136.32 2287.24 1132.51 2287.18C1128.69 2287.12 1125.17 2287.56 1121.93 2288.48L1121.93 2311.01Z"/>
<path d="M1255.23 2278.25C1255.93 2275.94 1257.05 2274.03 1258.61 2272.53C1260.17 2271.03 1261.88 2270.05 1263.73 2269.59C1265.58 2269.12 1267.45 2269.24 1269.36 2269.93C1271.27 2270.63 1272.91 2272.01 1274.3 2274.09C1274.76 2274.67 1275.2 2275.36 1275.6 2276.17C1276 2276.98 1276.21 2277.73 1276.21 2278.43C1276.21 2279.7 1276.15 2281.83 1276.03 2284.84C1275.92 2287.84 1275.83 2290.91 1275.77 2294.03C1275.72 2297.15 1275.63 2299.92 1275.51 2302.35C1275.4 2304.77 1275.34 2306.04 1275.34 2306.16C1275.11 2312.4 1274.7 2318.61 1274.13 2324.79C1273.55 2330.98 1272.74 2337.19 1271.7 2343.43C1270.78 2348.28 1269.68 2352.76 1268.41 2356.86C1267.14 2360.97 1265.4 2364.61 1263.21 2367.78C1261.01 2370.96 1258.24 2373.71 1254.89 2376.02C1251.53 2378.33 1247.37 2380.18 1242.41 2381.56C1240.44 2382.14 1238.39 2382.55 1236.25 2382.78C1234.11 2383.01 1232.06 2383.12 1230.1 2383.12C1224.32 2383.12 1218.43 2382.03 1212.42 2379.83C1205.6 2377.17 1200.46 2372.78 1196.99 2366.66C1193.52 2360.53 1191.1 2353.69 1189.71 2346.12C1188.32 2338.55 1187.66 2330.89 1187.72 2323.15C1187.77 2315.41 1187.8 2308.59 1187.8 2302.69C1187.8 2300.27 1187.83 2297.81 1187.89 2295.33C1187.95 2292.84 1188.03 2290.39 1188.15 2287.96C1188.15 2286.23 1188.21 2284.41 1188.32 2282.5C1188.44 2280.59 1188.78 2278.77 1189.36 2277.04C1189.94 2275.31 1190.84 2273.8 1192.05 2272.53C1193.26 2271.26 1194.97 2270.39 1197.16 2269.93C1198.43 2269.7 1199.79 2269.82 1201.24 2270.28C1202.68 2270.74 1203.98 2271.41 1205.14 2272.27C1206.29 2273.14 1207.27 2274.18 1208.08 2275.39C1208.89 2276.61 1209.3 2277.91 1209.3 2279.29C1209.3 2281.14 1209.3 2282.61 1209.3 2283.71C1209.3 2284.81 1209.3 2285.79 1209.3 2286.66C1209.3 2287.53 1209.27 2288.42 1209.21 2289.35C1209.15 2290.27 1209.12 2291.48 1209.12 2292.99C1208.89 2300.61 1208.78 2308.21 1208.78 2315.78C1208.78 2323.35 1209.24 2330.89 1210.16 2338.4C1210.51 2341.52 1211.03 2344.76 1211.72 2348.11C1212.42 2351.46 1213.8 2354.35 1215.88 2356.78C1217.73 2358.97 1220.13 2360.5 1223.08 2361.37C1226.02 2362.24 1229.03 2362.5 1232.09 2362.15C1235.15 2361.8 1238.04 2360.94 1240.76 2359.55C1243.47 2358.16 1245.58 2356.31 1247.09 2354C1248.59 2351.69 1249.74 2348.98 1250.55 2345.86C1251.36 2342.74 1251.97 2339.5 1252.37 2336.15C1252.78 2332.8 1253.07 2329.48 1253.24 2326.18C1253.41 2322.89 1253.56 2319.85 1253.67 2317.08C1253.9 2313.85 1254.08 2311.07 1254.19 2308.76C1254.31 2306.45 1254.42 2303.68 1254.54 2300.44C1254.65 2298.01 1254.71 2295.59 1254.71 2293.16C1254.71 2290.73 1254.77 2288.31 1254.89 2285.88L1255.23 2278.25Z"/>
<path d="M1361.15 2274.79C1361.84 2272.47 1362.97 2270.57 1364.53 2269.07C1366.09 2267.56 1367.79 2266.58 1369.64 2266.12C1371.49 2265.66 1373.37 2265.77 1375.27 2266.46C1377.18 2267.16 1378.83 2268.55 1380.21 2270.63C1380.68 2271.2 1381.11 2271.9 1381.51 2272.71C1381.92 2273.51 1382.12 2274.27 1382.12 2274.96C1382.35 2291.48 1382.26 2307.98 1381.86 2324.45C1381.46 2340.92 1380.79 2357.41 1379.87 2373.94C1379.87 2376.6 1379.03 2378.68 1377.35 2380.18C1375.68 2381.68 1373.77 2382.63 1371.63 2383.04C1369.49 2383.44 1367.33 2383.21 1365.13 2382.34C1362.94 2381.48 1361.32 2380 1360.28 2377.92C1360.16 2377.81 1360.11 2377.69 1360.11 2377.58L1360.11 2377.92C1352.59 2365.56 1344.68 2353.69 1336.36 2342.3C1328.04 2330.92 1319.37 2319.62 1310.36 2308.41L1310.36 2347.59C1310.36 2352.91 1310.36 2357.35 1310.36 2360.94C1310.36 2364.52 1310.3 2367.44 1310.18 2369.69C1310.07 2371.94 1309.92 2373.71 1309.75 2374.98C1309.58 2376.25 1309.32 2377.35 1308.97 2378.27C1307.93 2381.04 1306.34 2382.89 1304.2 2383.82C1302.06 2384.74 1299.9 2384.97 1297.7 2384.51C1295.51 2384.05 1293.6 2382.89 1291.98 2381.04C1290.36 2379.2 1289.55 2376.88 1289.55 2374.11C1289.55 2372.49 1289.55 2369.95 1289.55 2366.48C1289.55 2363.02 1289.55 2359.09 1289.55 2354.7C1289.55 2350.31 1289.55 2345.6 1289.55 2340.57C1289.55 2335.54 1289.55 2330.6 1289.55 2325.75C1289.55 2320.89 1289.53 2316.36 1289.47 2312.14C1289.41 2307.92 1289.38 2304.37 1289.38 2301.48C1289.38 2297.55 1289.32 2293.65 1289.21 2289.78C1289.09 2285.91 1289.09 2282.01 1289.21 2278.08C1289.21 2276.11 1289.7 2274.44 1290.68 2273.05C1291.66 2271.67 1292.91 2270.6 1294.41 2269.85C1295.91 2269.09 1297.53 2268.66 1299.26 2268.55C1301 2268.43 1302.67 2268.66 1304.29 2269.24C1305.68 2269.7 1307.09 2270.65 1308.54 2272.1C1309.98 2273.54 1311.4 2275.1 1312.78 2276.78C1314.17 2278.45 1315.47 2280.13 1316.68 2281.81C1317.9 2283.48 1318.91 2284.84 1319.72 2285.88C1322.72 2289.58 1326.19 2293.82 1330.12 2298.62C1334.05 2303.42 1337.69 2307.95 1341.04 2312.23C1344.39 2316.62 1347.65 2321.01 1350.83 2325.4C1354.01 2329.79 1357.1 2334.18 1360.11 2338.58C1360.45 2328.06 1360.68 2317.6 1360.8 2307.2C1360.91 2296.8 1360.97 2286.34 1360.97 2275.83L1361.15 2274.79Z"/>
<path d="M1467.58 2274.79C1468.27 2272.47 1469.4 2270.57 1470.96 2269.07C1472.52 2267.56 1474.22 2266.58 1476.07 2266.12C1477.92 2265.66 1479.8 2265.77 1481.71 2266.46C1483.61 2267.16 1485.26 2268.55 1486.65 2270.63C1487.11 2271.2 1487.54 2271.9 1487.95 2272.71C1488.35 2273.51 1488.55 2274.27 1488.55 2274.96C1488.78 2291.48 1488.7 2307.98 1488.29 2324.45C1487.89 2340.92 1487.22 2357.41 1486.3 2373.94C1486.3 2376.6 1485.46 2378.68 1483.79 2380.18C1482.11 2381.68 1480.2 2382.63 1478.07 2383.04C1475.93 2383.44 1473.76 2383.21 1471.56 2382.34C1469.37 2381.48 1467.75 2380 1466.71 2377.92C1466.6 2377.81 1466.54 2377.69 1466.54 2377.58L1466.54 2377.92C1459.03 2365.56 1451.11 2353.69 1442.79 2342.3C1434.47 2330.92 1425.8 2319.62 1416.79 2308.41L1416.79 2347.59C1416.79 2352.91 1416.79 2357.35 1416.79 2360.94C1416.79 2364.52 1416.73 2367.44 1416.62 2369.69C1416.5 2371.94 1416.36 2373.71 1416.18 2374.98C1416.01 2376.25 1415.75 2377.35 1415.4 2378.27C1414.36 2381.04 1412.77 2382.89 1410.63 2383.82C1408.5 2384.74 1406.33 2384.97 1404.13 2384.51C1401.94 2384.05 1400.03 2382.89 1398.41 2381.04C1396.8 2379.2 1395.99 2376.88 1395.99 2374.11C1395.99 2372.49 1395.99 2369.95 1395.99 2366.48C1395.99 2363.02 1395.99 2359.09 1395.99 2354.7C1395.99 2350.31 1395.99 2345.6 1395.99 2340.57C1395.99 2335.54 1395.99 2330.6 1395.99 2325.75C1395.99 2320.89 1395.96 2316.36 1395.9 2312.14C1395.84 2307.92 1395.81 2304.37 1395.81 2301.48C1395.81 2297.55 1395.76 2293.65 1395.64 2289.78C1395.52 2285.91 1395.52 2282.01 1395.64 2278.08C1395.64 2276.11 1396.13 2274.44 1397.11 2273.05C1398.1 2271.67 1399.34 2270.6 1400.84 2269.85C1402.34 2269.09 1403.96 2268.66 1405.69 2268.55C1407.43 2268.43 1409.1 2268.66 1410.72 2269.24C1412.11 2269.7 1413.52 2270.65 1414.97 2272.1C1416.41 2273.54 1417.83 2275.1 1419.22 2276.78C1420.6 2278.45 1421.9 2280.13 1423.12 2281.81C1424.33 2283.48 1425.34 2284.84 1426.15 2285.88C1429.15 2289.58 1432.62 2293.82 1436.55 2298.62C1440.48 2303.42 1444.12 2307.95 1447.47 2312.23C1450.82 2316.62 1454.09 2321.01 1457.26 2325.4C1460.44 2329.79 1463.53 2334.18 1466.54 2338.58C1466.88 2328.06 1467.12 2317.6 1467.23 2307.2C1467.35 2296.8 1467.4 2286.34 1467.4 2275.83L1467.58 2274.79Z"/>
<path d="M1551.13 2371.86C1550.78 2374.75 1549.71 2377.12 1547.92 2378.96C1546.13 2380.81 1544.11 2381.97 1541.86 2382.43C1539.6 2382.89 1537.44 2382.6 1535.36 2381.56C1533.27 2380.52 1531.77 2378.5 1530.85 2375.5C1530.27 2373.53 1529.89 2371.4 1529.72 2369.08C1529.55 2366.77 1529.49 2364.49 1529.55 2362.24C1529.61 2359.98 1529.69 2357.82 1529.81 2355.74C1529.92 2353.66 1529.98 2351.92 1529.98 2350.54C1529.98 2347.19 1529.95 2343.89 1529.89 2340.66C1529.84 2337.42 1529.81 2334.13 1529.81 2330.78C1524.15 2325.34 1518.97 2319.59 1514.29 2313.53C1509.61 2307.46 1505.42 2300.96 1501.73 2294.03C1500.57 2291.95 1499.47 2289.66 1498.43 2287.18C1497.39 2284.69 1496.82 2282.24 1496.7 2279.81C1496.12 2277.62 1496.35 2275.62 1497.39 2273.83C1498.43 2272.04 1499.85 2270.65 1501.64 2269.67C1503.43 2268.69 1505.4 2268.23 1507.53 2268.29C1509.67 2268.34 1511.61 2269.07 1513.34 2270.45C1514.61 2271.49 1515.65 2272.71 1516.46 2274.09C1517.27 2275.48 1517.96 2276.95 1518.54 2278.51C1519.12 2280.07 1519.67 2281.66 1520.19 2283.28C1520.71 2284.9 1521.37 2286.4 1522.18 2287.79C1524.61 2292.18 1527.29 2296.25 1530.24 2300.01C1533.19 2303.76 1536.34 2307.49 1539.69 2311.19C1542.69 2307.14 1545.93 2303.36 1549.4 2299.83C1552.86 2296.31 1556.04 2292.52 1558.93 2288.48C1559.51 2287.56 1560.37 2286.14 1561.53 2284.23C1562.69 2282.33 1563.9 2280.33 1565.17 2278.25C1566.44 2276.17 1567.77 2274.24 1569.16 2272.45C1570.54 2270.65 1571.76 2269.47 1572.8 2268.89C1574.65 2267.74 1576.52 2267.22 1578.43 2267.33C1580.34 2267.45 1582.07 2268.03 1583.63 2269.07C1585.19 2270.11 1586.43 2271.52 1587.36 2273.31C1588.28 2275.1 1588.63 2277.04 1588.4 2279.12C1588.17 2281.31 1587.16 2283.97 1585.36 2287.09C1583.57 2290.21 1581.49 2293.39 1579.12 2296.63C1576.76 2299.86 1574.36 2302.92 1571.93 2305.81C1569.5 2308.7 1567.6 2311.01 1566.21 2312.75C1565.05 2314.13 1563.93 2315.49 1562.83 2316.82C1561.73 2318.15 1560.61 2319.45 1559.45 2320.72C1557.95 2322.45 1556.5 2324.19 1555.12 2325.92C1553.73 2327.66 1552.34 2329.39 1550.96 2331.12C1550.96 2337.71 1550.96 2344.3 1550.96 2350.88C1550.96 2357.47 1551.01 2364.06 1551.13 2370.64L1551.13 2371.86Z"/>
</g>
</g>
<path d="M12172.4-177.262C12171.7-179.937 12171.1-182.612 12170.4-185.288" fill="none" filter="url(#Filter)" opacity="1" stroke="#000000" stroke-linecap="round" stroke-linejoin="round" stroke-width="4.90982" vectornator:blur="25" vectornator:layerName="Curve 1"/>
<path d="M12150.3-197.327C12145-200.002 12147-197.996 12144.3-203.346" fill="none" filter="url(#Filter_2)" opacity="1" stroke="#000000" stroke-linecap="round" stroke-linejoin="round" stroke-width="2.60004" vectornator:blur="25" vectornator:layerName="Curve 2"/>
</g>
</svg>
