<?xml version="1.0" encoding="UTF-8" standalone="no"?>
<!DOCTYPE svg PUBLIC "-//W3C//DTD SVG 1.1//EN" "http://www.w3.org/Graphics/SVG/1.1/DTD/svg11.dtd">
<!-- Created with Vectornator (http://vectornator.io/) -->
<svg height="100%" stroke-miterlimit="10" style="fill-rule:nonzero;clip-rule:evenodd;stroke-linecap:round;stroke-linejoin:round;" version="1.1" viewBox="0 0 2000 2912.22" width="100%" xml:space="preserve" xmlns="http://www.w3.org/2000/svg" xmlns:vectornator="http://vectornator.io" xmlns:xlink="http://www.w3.org/1999/xlink">
<defs>
<path d="M479.998 1310.89C476.772 1270.89 539.809 1230.46 596.249 1262.6C655.98 1174.35 811.258 1205.67 876.82 1241.73C978.634 1173.18 1070.67 1145.83 1237.68 1199.5C1275.86 1158.88 1462.87 1173.67 1485.88 1241.05C1575.59 1236.3 1603.16 1257.7 1624.56 1323.05C1785.03 1381.99 1723.81 1454.64 1711.63 1488.67C1741.21 1538.61 1710.53 1548.55 1666.9 1562.18C1650.8 1665.74 1570.52 1658.54 1439.39 1630.66C1362.11 1705.17 1258.63 1786.68 1030.89 1694.87C999.833 1744.93 934.271 1717.53 909.535 1675.86C751.388 1724.05 488.995 1769.56 465.482 1584.65C379.216 1570.77 388.418 1514.66 432.126 1476.35C353.912 1437.68 415.586 1359.64 479.998 1310.89Z" id="Fill"/>
</defs>
<g id="All" vectornator:layerName="All">
<g opacity="1" vectornator:layerName="Group 1">
<use fill="#e7c9f3" fill-rule="nonzero" opacity="1" stroke="#000000" stroke-linecap="round" stroke-linejoin="round" stroke-width="4.74671" vectornator:layerName="Curve 16" xlink:href="#Fill"/>
<clipPath clip-rule="nonzero" id="ClipPath">
<use xlink:href="#Fill"/>
</clipPath>
<g clip-path="url(#ClipPath)">
<path d="M474.791 1175.52C471.565 1135.52 534.602 1095.09 591.042 1127.22C650.773 1038.98 806.051 1070.3 871.613 1106.36C973.428 1037.8 1065.46 1010.46 1232.48 1064.13C1270.65 1023.5 1457.66 1038.29 1480.67 1105.67C1570.39 1100.93 1597.95 1122.33 1619.35 1187.68C1779.83 1246.62 1718.6 1319.27 1706.42 1353.3C1736 1403.24 1705.32 1413.18 1661.69 1426.81C1645.59 1530.37 1565.31 1523.17 1434.19 1495.29C1356.91 1569.79 1253.42 1651.31 1025.68 1559.5C994.626 1609.56 929.064 1582.15 904.328 1540.49C746.181 1588.68 483.788 1634.18 460.275 1449.28C374.01 1435.4 383.211 1379.29 426.919 1340.98C348.705 1302.3 410.38 1224.27 474.791 1175.52Z" fill="#f3defa" fill-rule="nonzero" opacity="1" stroke="#a46eb8" stroke-linecap="round" stroke-linejoin="round" stroke-width="4.74671" vectornator:layerName="Curve 27"/>
</g>
</g>
<path d="M859.997 364.949C579.56 442.545 414.907 731.955 492.221 1011.37C569.536 1290.79 855.904 1439.81 1139.97 1376.8C1425.83 1341.62 1582.8 1045.23 1498.17 783.468C1474.41 722.556 1470.69 753.969 1475.22 773.207C1488.56 966.53 1418 1045.31 1242.27 1136.57C1001.65 1182.17 809.243 1081.26 792.834 878.164C774.937 656.645 860.044 513.642 1014.47 443.556C1173.74 377.118 1315.51 466.095 1352.08 493.557C1370.09 496.301 1350.85 478.402 1344.83 473.135C1235.96 365.643 1039.74 315.216 859.997 364.949Z" fill="#f6ed99" fill-rule="nonzero" opacity="1" stroke="#ebcd73" stroke-linecap="round" stroke-linejoin="round" stroke-width="5.88205" vectornator:layerName="Moon"/>
<path d="M845.235 1016.34C762.246 1078.86 767.573 965.298 481.333 1055.87C441.275 1085 612.298 1147 685.001 1132.87C643.133 1235.1 657.789 1255.66 666.628 1331.44C613.399 1388.17 664.097 1434.29 718.883 1438.2C766.381 1467.41 865.456 1458.67 953.05 1434.54C1029.71 1412.27 933.78 1433.1 1049.67 1429.53C1154.94 1432.8 1257.99 1461.04 1375.25 1402.6C1492.5 1344.15 1480.08 1259.33 1481.25 1189.14C1483.72 1143.97 1441.02 1074.22 1421.89 1049.86C1474.43 982.616 1443.28 914.047 1360.83 888.936C1324.89 874.831 1196.14 869.501 1291.37 948.626C1255.78 931.543 1219.78 921.961 1187.93 923.407C1099.05 943.273 1079.22 958.691 997.704 1030.86C1027.47 968.602 850.166 785.796 805.58 796.978C790.699 878.3 844.66 973.007 845.235 1016.34ZM659.63 1339.43C646.836 1339.43 636.184 1353.14 624.077 1356.16C601.531 1361.8 560.417 1365.15 567.612 1401.13C573.131 1428.72 642.6 1412.03 653.356 1408.45" fill="#f7efff" fill-rule="nonzero" opacity="1" stroke="none" vectornator:layerName="Base rabbit"/>
<path d="M913.515 1334.57C932.814 1320.79 999.529 1304 995.12 1348.09C991.82 1381.09 961.037 1394.55 932.84 1399.25C920.038 1401.38 901.331 1403.88 895.028 1388.12C889.706 1374.82 906.818 1339.36 913.515 1334.57ZM652.357 1347.06C658.524 1350.24 658.473 1328.38 665.479 1333.63C673.931 1339.97 677.539 1352.9 679.108 1362.31C683.401 1388.07 677.619 1399.53 649.245 1394.8C642.167 1377.08 639.754 1374.27 652.357 1347.06ZM876.949 1021.12C871.057 1015.23 866.614 992.259 864.268 984.635C860.944 973.834 808.3 892.369 816.084 831.261C834.584 834.344 917.205 989.624 925.987 1007.19M681.034 1129.16C668.44 1129.1 658.551 1124.01 646.133 1124.45C625.058 1125.21 569.27 1112.62 552.225 1100.32C545.564 1095.51 506.086 1087.43 507.007 1076.59C507.894 1066.15 562.239 1072.63 568.479 1072.86C599.657 1074.02 632.128 1069.53 663.029 1068.96C671.467 1068.81 713.239 1067.57 718.91 1075.45" fill="#ffc2b6" fill-rule="nonzero" opacity="1" stroke="none" vectornator:layerName="Cheek"/>
<path d="M845.235 1016.34C762.246 1078.86 767.573 965.298 481.333 1055.87C441.275 1085 612.298 1147 685.001 1132.87C643.133 1235.1 657.789 1255.66 666.628 1331.44C613.399 1388.17 664.097 1434.29 718.883 1438.2C766.381 1467.41 865.456 1458.67 953.05 1434.54C1029.71 1412.27 933.78 1433.1 1049.67 1429.53C1154.94 1432.8 1257.99 1461.04 1375.25 1402.6C1492.5 1344.15 1480.08 1259.33 1481.25 1189.14C1483.72 1143.97 1441.02 1074.22 1421.89 1049.86C1474.43 982.616 1443.28 914.047 1360.83 888.936C1324.89 874.831 1196.14 869.501 1291.37 948.626C1255.78 931.543 1219.78 921.961 1187.93 923.407C1099.05 943.273 1079.22 958.691 997.704 1030.86C1027.47 968.602 850.166 785.796 805.58 796.978C790.699 878.3 844.66 973.007 845.235 1016.34ZM1192.61 1307.72C1198.87 1295.22 1229.05 1349.82 1232.63 1356.97C1241.68 1375.07 1264.07 1374.45 1295.63 1369.76C1315.94 1349.48 1335.19 1354.29 1348.05 1380.05C1357.1 1398.2 1352.77 1410.47 1332.63 1418.3M659.63 1339.43C646.836 1339.43 636.184 1353.14 624.077 1356.16C601.531 1361.8 560.417 1365.15 567.612 1401.13C573.131 1428.72 642.6 1412.03 653.356 1408.45" fill="none" opacity="1" stroke="#000000" stroke-linecap="round" stroke-linejoin="round" stroke-width="4.74671" vectornator:layerName="Rabbit outline"/>
<path d="M842.072 1383.49C836.168 1375.65 834.873 1351.66 853.382 1341.6C871.891 1331.55 921.687 1334.36 920.521 1342.38C901.024 1350.96 857.99 1373.21 842.072 1383.49ZM694.04 1365.1C695.352 1360.58 680.853 1326.42 673.858 1321.46C666.862 1316.51 668.367 1326.71 663.186 1342.41C674.111 1344.58 692.729 1369.62 694.04 1365.1Z" fill="#000000" fill-rule="nonzero" opacity="1" stroke="#000000" stroke-linecap="round" stroke-linejoin="round" stroke-width="4.74671" vectornator:layerName="Eyes"/>
<path d="M1075.79 1258.43C1075.79 1329.39 1068.7 1370.32 998.907 1412.2M1060.98 1245.03C1066.88 1243.07 1076.18 1247.59 1082.14 1249.97M1055.34 1221.05C1061.04 1221.05 1066.73 1221.08 1072.26 1222.46M1009.96 1061.56L1006.96 1062.56L1003.97 1063.56L1011.95 1059.56L1018.94 1055.57L1023.93 1052.58L1025.93 1051.58L1027.93 1051.58L1026.93 1054.57L1024.93 1057.57L1023.93 1059.56L1020.94 1063.56L1018.94 1066.55L1015.95 1068.55L1013.95 1071.54L1016.94 1070.55L1020.94 1068.55L1023.93 1066.55L1028.92 1063.56M928.093 1016.64L913.118 1004.66M914.116 1015.64C911.384 1010.17 889.576 1011.81 887.161 1016.64M712.453 1084.52C708.774 1084.52 690.785 1096.21 686.497 1100.5M699.475 1106.49L685.498 1117.47M592.713 1413.41C590.902 1414.32 586.908 1397.9 593.246 1394.73M613.523 1414.48C611.059 1409.55 614.876 1390.5 617.258 1395.27M1404.12 1008.14C1402.14 1014.66 1399.92 1020.85 1396.78 1026.92M1413.4 1020.55C1411.8 1025.82 1407.55 1029.02 1404.17 1033.15" fill="none" opacity="1" stroke="#000000" stroke-linecap="round" stroke-linejoin="round" stroke-width="4.74671" vectornator:layerName="Fur line"/>
<path d="M579.374 412.448C571.685 412.448 568.458 394.821 563.997 381.291C549.498 379.653 531.988 383.607 529.612 376.295C527.236 368.982 542.756 360.271 554.493 352.042C550.34 337.098 542.399 322.316 548.62 317.796C554.84 313.277 566.772 323.615 579.374 333.965C593.316 322.773 603.908 313.277 610.128 317.796C616.349 322.316 610.591 339.205 604.255 352.042C615.226 359.429 631.511 368.982 629.136 376.295C626.76 383.607 606.378 381.759 594.751 381.291C589.524 395.242 587.063 412.448 579.374 412.448ZM1620.62 606.463C1611.38 596.739 1629.79 571.462 1641.54 549.552C1626.17 529.246 1600.12 511.858 1606.51 500.061C1612.9 488.264 1642.58 497.417 1667.1 502.364C1681 479.144 1690.15 451.327 1703.34 453.759C1716.54 456.191 1717.81 483.712 1719.88 512.092C1750.79 516.266 1775.54 518.243 1777.3 531.543C1779.07 544.844 1750.79 557.87 1726.93 565.293C1730.78 588.049 1738.28 620.132 1726.18 625.919C1714.08 631.707 1691.9 603.71 1678.52 588.444C1654.59 598.609 1629.87 616.186 1620.62 606.463ZM259.457 891.231C250.212 881.508 268.623 856.23 280.369 834.321C265.007 814.015 238.953 796.627 245.343 784.83C251.734 773.033 281.411 782.185 305.931 787.133C319.835 763.912 328.981 736.095 342.176 738.527C355.37 740.96 356.644 768.481 358.708 796.861C389.626 801.035 414.371 803.012 416.135 816.312C417.899 829.612 389.618 842.639 365.765 850.062C369.615 872.818 377.116 904.9 365.012 910.688C352.908 916.476 330.736 888.479 317.349 873.213C293.421 883.378 268.702 900.954 259.457 891.231ZM1606.34 1656.95C1591.11 1654.79 1589.68 1618.97 1584.66 1590.93C1556.41 1583.6 1520.63 1586.5 1517.98 1571.36C1515.34 1556.21 1548.52 1543.33 1574.08 1530.34C1570.06 1499.58 1558.5 1468.07 1572.08 1460.88C1585.67 1453.68 1606.39 1477.51 1628.43 1501.55C1659.19 1483.31 1682.83 1467.49 1693.88 1478.19C1704.92 1488.89 1688.77 1520.71 1672.61 1544.34C1692.25 1562.06 1721.81 1585.56 1715.05 1599.37C1708.28 1613.18 1668.45 1603.79 1645.56 1599.59C1631.28 1625.74 1621.56 1659.12 1606.34 1656.95ZM378.161 1694.34C370.472 1694.34 367.244 1676.71 362.783 1663.18C348.284 1661.54 330.775 1665.49 328.399 1658.18C326.023 1650.87 341.543 1642.16 353.28 1633.93C349.127 1618.99 341.186 1604.2 347.406 1599.68C353.626 1595.16 365.559 1605.5 378.161 1615.85C392.103 1604.66 402.695 1595.16 408.915 1599.68C415.135 1604.2 409.377 1621.09 403.041 1633.93C414.012 1641.32 430.298 1650.87 427.922 1658.18C425.546 1665.49 405.164 1663.65 393.538 1663.18C388.311 1677.13 385.849 1694.34 378.161 1694.34Z" fill="#f6e299" fill-rule="nonzero" opacity="1" stroke="#ebcd73" stroke-linecap="round" stroke-linejoin="round" stroke-width="5.88205" vectornator:layerName="Stars"/>
<path d="M724.534 1440.38C713.181 1429.02 734.37 1418.23 743.727 1418.95C766.633 1420.72 796.06 1457.37 768.115 1452.59" fill="#d78d7f" fill-rule="nonzero" opacity="1" stroke="none" vectornator:layerName="Mouth"/>
<path d="M743.937 1419.16C743.937 1419.16 736.694 1420.03 736.867 1420.74C736.04 1424.16 735.997 1431.78 738.698 1432.56C740.538 1433.1 743.097 1432.59 745.47 1431.89C746.728 1428.05 745.147 1423.07 745.863 1424.06C746.578 1425.06 745.099 1429.22 746.777 1432.03C748.471 1432.15 752.577 1433.21 753.578 1432.16C755.937 1429.7 755.232 1424.7 755.143 1423.01C752.941 1420.62 745.725 1419.12 745.081 1419.14" fill="#ffffff" fill-rule="nonzero" opacity="1" stroke="none" vectornator:layerName="Teeth"/>
<g opacity="1" vectornator:layerName="Group 2">
<g opacity="1" vectornator:layerName="Group 1">
<path d="M95.3093 2333.83L443.682 2333.83L443.682 2564.27L95.3093 2564.27L164.984 2465.15L95.3093 2333.83Z" fill="#e7c9f3" fill-rule="nonzero" opacity="1" stroke="#e2c05a" stroke-linecap="butt" stroke-linejoin="round" stroke-width="4.90982" vectornator:layerName="Rectangle 2"/>
<path d="M1926.43 2333.83L1578.05 2333.83L1578.05 2564.27L1926.43 2564.27L1856.75 2465.15L1926.43 2333.83Z" fill="#e7c9f3" fill-rule="nonzero" opacity="1" stroke="#e2c05a" stroke-linecap="butt" stroke-linejoin="round" stroke-width="4.90982" vectornator:layerName="Rectangle 4"/>
<path d="M323.653 2202.51L1701 2202.51L1701 2465.15L323.653 2465.15L323.653 2202.51Z" fill="#e7c9f3" fill-rule="nonzero" opacity="1" stroke="#e2c05a" stroke-linecap="butt" stroke-linejoin="round" stroke-width="4.90982" vectornator:layerName="Rectangle 1"/>
<path d="M323.653 2465.15L443.682 2465.15L443.682 2564.27L323.653 2465.15Z" fill="#e7c9f3" fill-rule="nonzero" opacity="1" stroke="#e2c05a" stroke-linecap="butt" stroke-linejoin="round" stroke-width="4.90982" vectornator:layerName="Rectangle 3"/>
<path d="M1698.08 2465.15L1578.05 2465.15L1578.05 2564.27L1698.08 2465.15Z" fill="#e7c9f3" fill-rule="nonzero" opacity="1" stroke="#e2c05a" stroke-linecap="butt" stroke-linejoin="round" stroke-width="4.90982" vectornator:layerName="Rectangle 5"/>
</g>
<g fill="#ffffff" opacity="1" stroke="none" vectornator:layerName="Text 1">
<path d="M621.264 2376.01C620.917 2378.55 619.992 2380.72 618.49 2382.51C616.988 2384.3 615.254 2385.54 613.29 2386.23C611.325 2386.93 609.303 2386.96 607.223 2386.32C605.143 2385.68 603.409 2384.15 602.022 2381.73C600.867 2379.76 600.202 2377.71 600.029 2375.57C599.856 2373.43 599.653 2371.21 599.422 2368.9C599.191 2366.36 598.931 2364.13 598.642 2362.23C598.353 2360.32 598.036 2358.09 597.689 2355.55C596.649 2348.62 595.493 2341.77 594.222 2335.01C592.951 2328.25 591.506 2321.46 589.888 2314.64C587.577 2320.42 585.381 2326.14 583.301 2331.8C581.221 2337.47 579.141 2343.19 577.061 2348.96C575.443 2353.24 573.854 2357.54 572.294 2361.88C570.734 2366.21 568.914 2370.4 566.834 2374.45C566.14 2375.83 564.985 2376.96 563.367 2377.83C561.749 2378.69 560.016 2379.18 558.167 2379.3C556.318 2379.41 554.584 2379.15 552.966 2378.52C551.348 2377.88 550.135 2376.81 549.326 2375.31C544.357 2365.72 539.446 2356.19 534.592 2346.71C529.738 2337.23 524.885 2327.7 520.031 2318.11C519.453 2324 518.933 2329.93 518.471 2335.88C518.009 2341.83 517.489 2347.75 516.911 2353.64C516.795 2355.49 516.68 2357.75 516.564 2360.4C516.449 2363.06 516.246 2365.75 515.958 2368.47C515.669 2371.18 515.322 2373.78 514.918 2376.27C514.513 2378.75 513.849 2380.69 512.924 2382.07C511.537 2384.38 509.717 2385.89 507.464 2386.58C505.21 2387.27 503.015 2387.33 500.877 2386.75C498.739 2386.18 496.948 2384.99 495.503 2383.2C494.059 2381.41 493.394 2379.13 493.51 2376.35C493.741 2371.61 494.145 2366.93 494.723 2362.31C495.301 2357.69 495.821 2353.01 496.283 2348.27C497.208 2337.99 498.161 2327.76 499.143 2317.59C500.126 2307.42 501.079 2297.13 502.003 2286.73C502.235 2283.73 502.841 2280.96 503.824 2278.41C504.806 2275.87 506.915 2274.08 510.151 2273.04C511.422 2272.58 512.751 2272.4 514.137 2272.52C515.524 2272.64 516.795 2273.04 517.951 2273.73C520.493 2275.35 522.487 2277.58 523.931 2280.41C525.376 2283.24 526.734 2285.93 528.005 2288.47C530.201 2292.63 532.339 2296.82 534.419 2301.03C536.499 2305.25 538.579 2309.44 540.659 2313.6C543.201 2318.92 545.773 2324.15 548.373 2329.29C550.973 2334.43 553.66 2339.6 556.433 2344.8C557.127 2343.07 557.791 2341.34 558.427 2339.6C559.062 2337.87 559.727 2336.14 560.42 2334.4C561.691 2331.4 562.876 2328.37 563.974 2325.3C565.071 2322.24 566.198 2319.21 567.354 2316.2C568.972 2312.27 570.503 2308.4 571.947 2304.59C573.392 2300.77 574.808 2296.9 576.194 2292.97C577.35 2290.09 578.448 2286.97 579.488 2283.61C580.528 2280.26 582.204 2277.43 584.515 2275.12C586.133 2273.39 587.895 2272.35 589.802 2272C591.709 2271.65 593.5 2271.8 595.175 2272.43C596.851 2273.07 598.353 2274.14 599.682 2275.64C601.011 2277.14 601.965 2278.88 602.542 2280.84C603.236 2283.5 604.045 2286.5 604.969 2289.85C605.894 2293.21 606.703 2296.21 607.396 2298.87C608.667 2303.72 609.823 2308.49 610.863 2313.17C611.903 2317.85 612.885 2322.62 613.81 2327.47C615.428 2335.44 616.843 2343.33 618.057 2351.13C619.27 2358.93 620.339 2366.82 621.264 2374.79L621.264 2376.01Z"/>
<path d="M732.03 2336.31C730.065 2342.78 727.552 2349.11 724.489 2355.29C721.427 2361.47 717.7 2366.99 713.309 2371.85C708.917 2376.7 703.804 2380.63 697.968 2383.63C692.132 2386.64 685.458 2388.14 677.947 2388.14C673.093 2387.91 669.251 2387.48 666.419 2386.84C663.588 2386.2 660.844 2385.25 658.186 2383.98C653.448 2382.59 649.374 2380.37 645.965 2377.31C642.556 2374.24 639.696 2370.69 637.384 2366.65C635.073 2362.6 633.311 2358.3 632.097 2353.73C630.884 2349.17 630.104 2344.75 629.757 2340.47C629.18 2332.96 629.815 2325.33 631.664 2317.59C633.513 2309.85 636.46 2302.71 640.505 2296.18C644.549 2289.65 649.634 2284.05 655.759 2279.37C661.884 2274.69 668.875 2271.6 676.733 2270.09C680.778 2269.4 684.88 2269.17 689.041 2269.4C693.201 2269.63 697.246 2270.44 701.175 2271.83C704.41 2272.98 707.415 2274.31 710.189 2275.81C712.962 2277.32 715.62 2279.22 718.162 2281.53C721.514 2284.54 724.345 2288.01 726.656 2291.93C728.967 2295.86 730.643 2299.97 731.683 2304.24C732.954 2309.67 733.532 2315.05 733.416 2320.36C733.301 2325.68 732.839 2330.99 732.03 2336.31ZM687.134 2365.61C690.601 2364.1 693.634 2362.11 696.234 2359.62C698.835 2357.14 701.117 2354.4 703.081 2351.39C705.046 2348.39 706.693 2345.18 708.022 2341.77C709.351 2338.36 710.535 2334.92 711.575 2331.46C712.269 2327.07 712.644 2322.56 712.702 2317.94C712.76 2313.31 711.806 2308.92 709.842 2304.76C708.224 2301.29 705.768 2298.32 702.475 2295.83C699.181 2293.35 695.57 2291.62 691.641 2290.63C687.712 2289.65 683.754 2289.45 679.767 2290.03C675.78 2290.61 672.226 2292.17 669.106 2294.71C664.715 2298.41 661.161 2302.54 658.446 2307.1C655.73 2311.67 653.679 2316.72 652.292 2322.27C651.136 2326.66 650.501 2331.28 650.385 2336.14C650.27 2340.99 651.021 2345.61 652.639 2350C653.91 2353.24 655.788 2356.19 658.272 2358.84C660.757 2361.5 663.559 2363.58 666.679 2365.09C669.8 2366.59 673.122 2367.43 676.647 2367.6C680.171 2367.77 683.667 2367.11 687.134 2365.61Z"/>
<path d="M849.383 2336.31C847.418 2342.78 844.905 2349.11 841.843 2355.29C838.78 2361.47 835.053 2366.99 830.662 2371.85C826.271 2376.7 821.157 2380.63 815.321 2383.63C809.485 2386.64 802.812 2388.14 795.3 2388.14C790.446 2387.91 786.604 2387.48 783.773 2386.84C780.941 2386.2 778.197 2385.25 775.539 2383.98C770.801 2382.59 766.727 2380.37 763.318 2377.31C759.909 2374.24 757.049 2370.69 754.738 2366.65C752.426 2362.6 750.664 2358.3 749.451 2353.73C748.237 2349.17 747.457 2344.75 747.111 2340.47C746.533 2332.96 747.168 2325.33 749.017 2317.59C750.866 2309.85 753.813 2302.71 757.858 2296.18C761.903 2289.65 766.987 2284.05 773.112 2279.37C779.237 2274.69 786.228 2271.6 794.087 2270.09C798.131 2269.4 802.234 2269.17 806.394 2269.4C810.554 2269.63 814.599 2270.44 818.528 2271.83C821.764 2272.98 824.768 2274.31 827.542 2275.81C830.315 2277.32 832.973 2279.22 835.516 2281.53C838.867 2284.54 841.698 2288.01 844.009 2291.93C846.321 2295.86 847.996 2299.97 849.036 2304.24C850.308 2309.67 850.885 2315.05 850.77 2320.36C850.654 2325.68 850.192 2330.99 849.383 2336.31ZM804.487 2365.61C807.954 2364.1 810.988 2362.11 813.588 2359.62C816.188 2357.14 818.47 2354.4 820.435 2351.39C822.399 2348.39 824.046 2345.18 825.375 2341.77C826.704 2338.36 827.888 2334.92 828.929 2331.46C829.622 2327.07 829.997 2322.56 830.055 2317.94C830.113 2313.31 829.16 2308.92 827.195 2304.76C825.577 2301.29 823.122 2298.32 819.828 2295.83C816.534 2293.35 812.923 2291.62 808.994 2290.63C805.065 2289.65 801.107 2289.45 797.12 2290.03C793.133 2290.61 789.58 2292.17 786.459 2294.71C782.068 2298.41 778.515 2302.54 775.799 2307.1C773.083 2311.67 771.032 2316.72 769.645 2322.27C768.49 2326.66 767.854 2331.28 767.738 2336.14C767.623 2340.99 768.374 2345.61 769.992 2350C771.263 2353.24 773.141 2356.19 775.626 2358.84C778.11 2361.5 780.912 2363.58 784.033 2365.09C787.153 2366.59 790.475 2367.43 794 2367.6C797.525 2367.77 801.02 2367.11 804.487 2365.61Z"/>
<path d="M936.228 2277.72C936.921 2275.41 938.048 2273.5 939.608 2272C941.168 2270.5 942.873 2269.52 944.722 2269.05C946.571 2268.59 948.449 2268.71 950.355 2269.4C952.262 2270.09 953.909 2271.48 955.296 2273.56C955.758 2274.14 956.191 2274.83 956.596 2275.64C957 2276.45 957.202 2277.2 957.202 2277.89C957.434 2294.42 957.347 2310.92 956.942 2327.38C956.538 2343.85 955.873 2360.35 954.949 2376.87C954.949 2379.53 954.111 2381.61 952.435 2383.11C950.76 2384.62 948.853 2385.57 946.715 2385.97C944.577 2386.38 942.41 2386.15 940.215 2385.28C938.019 2384.41 936.401 2382.94 935.361 2380.86C935.246 2380.74 935.188 2380.63 935.188 2380.51L935.188 2380.86C927.676 2368.49 919.76 2356.62 911.44 2345.24C903.119 2333.85 894.452 2322.56 885.438 2311.35L885.438 2350.52C885.438 2355.84 885.438 2360.29 885.438 2363.87C885.438 2367.45 885.381 2370.37 885.265 2372.63C885.149 2374.88 885.005 2376.64 884.832 2377.91C884.658 2379.18 884.398 2380.28 884.052 2381.21C883.012 2383.98 881.423 2385.83 879.285 2386.75C877.147 2387.68 874.98 2387.91 872.784 2387.45C870.589 2386.98 868.682 2385.83 867.064 2383.98C865.446 2382.13 864.637 2379.82 864.637 2377.05C864.637 2375.43 864.637 2372.89 864.637 2369.42C864.637 2365.95 864.637 2362.02 864.637 2357.63C864.637 2353.24 864.637 2348.53 864.637 2343.5C864.637 2338.48 864.637 2333.54 864.637 2328.68C864.637 2323.83 864.608 2319.29 864.551 2315.08C864.493 2310.86 864.464 2307.3 864.464 2304.42C864.464 2300.49 864.406 2296.59 864.291 2292.71C864.175 2288.84 864.175 2284.94 864.291 2281.01C864.291 2279.05 864.782 2277.37 865.764 2275.99C866.746 2274.6 867.989 2273.53 869.491 2272.78C870.993 2272.03 872.611 2271.6 874.344 2271.48C876.078 2271.36 877.754 2271.6 879.371 2272.17C880.758 2272.64 882.174 2273.59 883.618 2275.03C885.063 2276.48 886.478 2278.04 887.865 2279.71C889.252 2281.39 890.552 2283.07 891.765 2284.74C892.979 2286.42 893.99 2287.77 894.799 2288.81C897.804 2292.51 901.27 2296.76 905.199 2301.55C909.129 2306.35 912.769 2310.89 916.12 2315.16C919.471 2319.55 922.736 2323.95 925.914 2328.34C929.092 2332.73 932.183 2337.12 935.188 2341.51C935.535 2330.99 935.766 2320.54 935.881 2310.14C935.997 2299.73 936.055 2289.28 936.055 2278.76L936.228 2277.72Z"/>
<path d="M1052.89 2384.67C1047.92 2384.1 1044.89 2382.45 1043.79 2379.73C1042.69 2377.02 1042.66 2374.04 1043.7 2370.81L1043.7 2300.43C1041.85 2300.43 1040.2 2299.94 1038.76 2298.95C1037.32 2297.97 1036.16 2296.73 1035.29 2295.23C1034.43 2293.73 1033.99 2292.08 1033.99 2290.29C1033.99 2288.5 1034.51 2286.85 1035.55 2285.35C1037.86 2281.88 1040.84 2279.16 1044.48 2277.2C1048.12 2275.24 1051.91 2273.62 1055.83 2272.35C1061.96 2270.38 1068.11 2269.28 1074.3 2269.05C1080.48 2268.82 1086.57 2270.09 1092.58 2272.87C1098.01 2275.41 1102.29 2278.7 1105.41 2282.75C1108.53 2286.79 1110.5 2291.1 1111.3 2295.66C1112.11 2300.23 1111.71 2304.91 1110.09 2309.7C1108.47 2314.5 1105.58 2318.98 1101.42 2323.14C1106.86 2326.6 1110.73 2330.73 1113.04 2335.53C1115.35 2340.33 1116.3 2345.27 1115.9 2350.35C1115.49 2355.44 1113.88 2360.35 1111.04 2365.09C1108.21 2369.82 1104.37 2373.93 1099.52 2377.39C1096.63 2379.47 1093.25 2381.06 1089.38 2382.16C1085.51 2383.26 1081.52 2384.04 1077.42 2384.5C1073.31 2384.96 1069.24 2385.19 1065.2 2385.19C1061.15 2385.19 1057.45 2385.08 1054.1 2384.85L1052.89 2384.67ZM1089.81 2340.64C1087.73 2339.26 1085.71 2338.22 1083.74 2337.52C1081.78 2336.83 1079.78 2336.37 1077.76 2336.14C1075.74 2335.91 1073.69 2335.85 1071.61 2335.96C1069.53 2336.08 1067.28 2336.19 1064.85 2336.31L1064.85 2364.05C1067.39 2364.05 1070.11 2363.96 1073 2363.79C1075.88 2363.61 1078.66 2363.15 1081.32 2362.4C1083.97 2361.65 1086.46 2360.58 1088.77 2359.19C1091.08 2357.8 1092.93 2355.9 1094.32 2353.47C1094.66 2350.7 1094.61 2348.3 1094.14 2346.28C1093.68 2344.26 1092.24 2342.38 1089.81 2340.64ZM1064.85 2313.95C1066.93 2313.95 1069.01 2313.95 1071.09 2313.95C1073.17 2313.95 1075.22 2313.75 1077.24 2313.34C1079.26 2312.94 1081.23 2312.27 1083.14 2311.35C1085.04 2310.42 1086.75 2309.1 1088.25 2307.36C1090.45 2304.94 1091.23 2302.36 1090.59 2299.65C1089.95 2296.93 1088.31 2294.77 1085.65 2293.15C1082.65 2291.18 1079.24 2290.17 1075.42 2290.11C1071.61 2290.06 1068.08 2290.49 1064.85 2291.41L1064.85 2313.95Z"/>
<path d="M1198.15 2281.19C1198.84 2278.88 1199.97 2276.97 1201.53 2275.47C1203.09 2273.96 1204.79 2272.98 1206.64 2272.52C1208.49 2272.06 1210.37 2272.17 1212.28 2272.87C1214.18 2273.56 1215.83 2274.95 1217.22 2277.03C1217.68 2277.6 1218.11 2278.3 1218.52 2279.11C1218.92 2279.92 1219.12 2280.67 1219.12 2281.36C1219.12 2282.63 1219.07 2284.77 1218.95 2287.77C1218.83 2290.78 1218.75 2293.84 1218.69 2296.96C1218.63 2300.08 1218.55 2302.86 1218.43 2305.28C1218.31 2307.71 1218.26 2308.98 1218.26 2309.1C1218.03 2315.34 1217.62 2321.55 1217.04 2327.73C1216.47 2333.91 1215.66 2340.12 1214.62 2346.36C1213.69 2351.22 1212.59 2355.7 1211.32 2359.8C1210.05 2363.9 1208.32 2367.54 1206.12 2370.72C1203.93 2373.9 1201.15 2376.64 1197.8 2378.95C1194.45 2381.26 1190.29 2383.11 1185.32 2384.5C1183.36 2385.08 1181.31 2385.48 1179.17 2385.71C1177.03 2385.94 1174.98 2386.06 1173.01 2386.06C1167.24 2386.06 1161.34 2384.96 1155.33 2382.77C1148.52 2380.11 1143.37 2375.72 1139.91 2369.59C1136.44 2363.47 1134.01 2356.62 1132.63 2349.05C1131.24 2341.48 1130.57 2333.83 1130.63 2326.08C1130.69 2318.34 1130.72 2311.52 1130.72 2305.63C1130.72 2303.2 1130.75 2300.75 1130.81 2298.26C1130.86 2295.78 1130.95 2293.32 1131.07 2290.89C1131.07 2289.16 1131.12 2287.34 1131.24 2285.43C1131.35 2283.53 1131.7 2281.71 1132.28 2279.97C1132.86 2278.24 1133.75 2276.74 1134.97 2275.47C1136.18 2274.2 1137.88 2273.33 1140.08 2272.87C1141.35 2272.64 1142.71 2272.75 1144.15 2273.21C1145.6 2273.68 1146.9 2274.34 1148.05 2275.21C1149.21 2276.07 1150.19 2277.11 1151 2278.33C1151.81 2279.54 1152.21 2280.84 1152.21 2282.23C1152.21 2284.08 1152.21 2285.55 1152.21 2286.65C1152.21 2287.75 1152.21 2288.73 1152.21 2289.59C1152.21 2290.46 1152.18 2291.36 1152.13 2292.28C1152.07 2293.21 1152.04 2294.42 1152.04 2295.92C1151.81 2303.55 1151.69 2311.15 1151.69 2318.72C1151.69 2326.29 1152.16 2333.83 1153.08 2341.34C1153.43 2344.46 1153.95 2347.69 1154.64 2351.04C1155.33 2354.4 1156.72 2357.28 1158.8 2359.71C1160.65 2361.91 1163.05 2363.44 1165.99 2364.31C1168.94 2365.17 1171.95 2365.43 1175.01 2365.09C1178.07 2364.74 1180.96 2363.87 1183.68 2362.49C1186.39 2361.1 1188.5 2359.25 1190 2356.94C1191.5 2354.63 1192.66 2351.91 1193.47 2348.79C1194.28 2345.67 1194.88 2342.44 1195.29 2339.08C1195.69 2335.73 1195.98 2332.41 1196.16 2329.12C1196.33 2325.82 1196.47 2322.79 1196.59 2320.02C1196.82 2316.78 1196.99 2314.01 1197.11 2311.7C1197.22 2309.38 1197.34 2306.61 1197.46 2303.38C1197.57 2300.95 1197.63 2298.52 1197.63 2296.09C1197.63 2293.67 1197.69 2291.24 1197.8 2288.81L1198.15 2281.19Z"/>
<path d="M1304.06 2277.72C1304.76 2275.41 1305.88 2273.5 1307.44 2272C1309 2270.5 1310.71 2269.52 1312.56 2269.05C1314.4 2268.59 1316.28 2268.71 1318.19 2269.4C1320.1 2270.09 1321.74 2271.48 1323.13 2273.56C1323.59 2274.14 1324.03 2274.83 1324.43 2275.64C1324.83 2276.45 1325.04 2277.2 1325.04 2277.89C1325.27 2294.42 1325.18 2310.92 1324.78 2327.38C1324.37 2343.85 1323.71 2360.35 1322.78 2376.87C1322.78 2379.53 1321.95 2381.61 1320.27 2383.11C1318.59 2384.62 1316.69 2385.57 1314.55 2385.97C1312.41 2386.38 1310.24 2386.15 1308.05 2385.28C1305.85 2384.41 1304.24 2382.94 1303.2 2380.86C1303.08 2380.74 1303.02 2380.63 1303.02 2380.51L1303.02 2380.86C1295.51 2368.49 1287.59 2356.62 1279.27 2345.24C1270.95 2333.85 1262.29 2322.56 1253.27 2311.35L1253.27 2350.52C1253.27 2355.84 1253.27 2360.29 1253.27 2363.87C1253.27 2367.45 1253.21 2370.37 1253.1 2372.63C1252.98 2374.88 1252.84 2376.64 1252.67 2377.91C1252.49 2379.18 1252.23 2380.28 1251.89 2381.21C1250.85 2383.98 1249.26 2385.83 1247.12 2386.75C1244.98 2387.68 1242.81 2387.91 1240.62 2387.45C1238.42 2386.98 1236.52 2385.83 1234.9 2383.98C1233.28 2382.13 1232.47 2379.82 1232.47 2377.05C1232.47 2375.43 1232.47 2372.89 1232.47 2369.42C1232.47 2365.95 1232.47 2362.02 1232.47 2357.63C1232.47 2353.24 1232.47 2348.53 1232.47 2343.5C1232.47 2338.48 1232.47 2333.54 1232.47 2328.68C1232.47 2323.83 1232.44 2319.29 1232.38 2315.08C1232.33 2310.86 1232.3 2307.3 1232.3 2304.42C1232.3 2300.49 1232.24 2296.59 1232.12 2292.71C1232.01 2288.84 1232.01 2284.94 1232.12 2281.01C1232.12 2279.05 1232.62 2277.37 1233.6 2275.99C1234.58 2274.6 1235.82 2273.53 1237.32 2272.78C1238.83 2272.03 1240.45 2271.6 1242.18 2271.48C1243.91 2271.36 1245.59 2271.6 1247.21 2272.17C1248.59 2272.64 1250.01 2273.59 1251.45 2275.03C1252.9 2276.48 1254.31 2278.04 1255.7 2279.71C1257.09 2281.39 1258.39 2283.07 1259.6 2284.74C1260.81 2286.42 1261.82 2287.77 1262.63 2288.81C1265.64 2292.51 1269.1 2296.76 1273.03 2301.55C1276.96 2306.35 1280.6 2310.89 1283.95 2315.16C1287.31 2319.55 1290.57 2323.95 1293.75 2328.34C1296.93 2332.73 1300.02 2337.12 1303.02 2341.51C1303.37 2330.99 1303.6 2320.54 1303.72 2310.14C1303.83 2299.73 1303.89 2289.28 1303.89 2278.76L1304.06 2277.72Z"/>
<path d="M1410.49 2277.72C1411.19 2275.41 1412.31 2273.5 1413.87 2272C1415.43 2270.5 1417.14 2269.52 1418.99 2269.05C1420.84 2268.59 1422.72 2268.71 1424.62 2269.4C1426.53 2270.09 1428.18 2271.48 1429.56 2273.56C1430.02 2274.14 1430.46 2274.83 1430.86 2275.64C1431.27 2276.45 1431.47 2277.2 1431.47 2277.89C1431.7 2294.42 1431.61 2310.92 1431.21 2327.38C1430.8 2343.85 1430.14 2360.35 1429.22 2376.87C1429.22 2379.53 1428.38 2381.61 1426.7 2383.11C1425.03 2384.62 1423.12 2385.57 1420.98 2385.97C1418.84 2386.38 1416.68 2386.15 1414.48 2385.28C1412.29 2384.41 1410.67 2382.94 1409.63 2380.86C1409.51 2380.74 1409.45 2380.63 1409.45 2380.51L1409.45 2380.86C1401.94 2368.49 1394.03 2356.62 1385.71 2345.24C1377.39 2333.85 1368.72 2322.56 1359.71 2311.35L1359.71 2350.52C1359.71 2355.84 1359.71 2360.29 1359.71 2363.87C1359.71 2367.45 1359.65 2370.37 1359.53 2372.63C1359.42 2374.88 1359.27 2376.64 1359.1 2377.91C1358.93 2379.18 1358.67 2380.28 1358.32 2381.21C1357.28 2383.98 1355.69 2385.83 1353.55 2386.75C1351.41 2387.68 1349.25 2387.91 1347.05 2387.45C1344.86 2386.98 1342.95 2385.83 1341.33 2383.98C1339.71 2382.13 1338.9 2379.82 1338.9 2377.05C1338.9 2375.43 1338.9 2372.89 1338.9 2369.42C1338.9 2365.95 1338.9 2362.02 1338.9 2357.63C1338.9 2353.24 1338.9 2348.53 1338.9 2343.5C1338.9 2338.48 1338.9 2333.54 1338.9 2328.68C1338.9 2323.83 1338.88 2319.29 1338.82 2315.08C1338.76 2310.86 1338.73 2307.3 1338.73 2304.42C1338.73 2300.49 1338.67 2296.59 1338.56 2292.71C1338.44 2288.84 1338.44 2284.94 1338.56 2281.01C1338.56 2279.05 1339.05 2277.37 1340.03 2275.99C1341.01 2274.6 1342.26 2273.53 1343.76 2272.78C1345.26 2272.03 1346.88 2271.6 1348.61 2271.48C1350.34 2271.36 1352.02 2271.6 1353.64 2272.17C1355.02 2272.64 1356.44 2273.59 1357.88 2275.03C1359.33 2276.48 1360.75 2278.04 1362.13 2279.71C1363.52 2281.39 1364.82 2283.07 1366.03 2284.74C1367.25 2286.42 1368.26 2287.77 1369.07 2288.81C1372.07 2292.51 1375.54 2296.76 1379.47 2301.55C1383.4 2306.35 1387.04 2310.89 1390.39 2315.16C1393.74 2319.55 1397 2323.95 1400.18 2328.34C1403.36 2332.73 1406.45 2337.12 1409.45 2341.51C1409.8 2330.99 1410.03 2320.54 1410.15 2310.14C1410.26 2299.73 1410.32 2289.28 1410.32 2278.76L1410.49 2277.72Z"/>
<path d="M1494.05 2374.79C1493.7 2377.68 1492.63 2380.05 1490.84 2381.9C1489.05 2383.75 1487.03 2384.9 1484.77 2385.37C1482.52 2385.83 1480.35 2385.54 1478.27 2384.5C1476.19 2383.46 1474.69 2381.44 1473.76 2378.43C1473.19 2376.47 1472.81 2374.33 1472.64 2372.02C1472.46 2369.71 1472.41 2367.43 1472.46 2365.17C1472.52 2362.92 1472.61 2360.75 1472.72 2358.67C1472.84 2356.59 1472.9 2354.86 1472.9 2353.47C1472.9 2350.12 1472.87 2346.83 1472.81 2343.59C1472.75 2340.35 1472.72 2337.06 1472.72 2333.71C1467.06 2328.28 1461.89 2322.53 1457.21 2316.46C1452.53 2310.4 1448.34 2303.9 1444.64 2296.96C1443.49 2294.88 1442.39 2292.6 1441.35 2290.11C1440.31 2287.63 1439.73 2285.17 1439.62 2282.75C1439.04 2280.55 1439.27 2278.56 1440.31 2276.77C1441.35 2274.98 1442.77 2273.59 1444.56 2272.61C1446.35 2271.62 1448.31 2271.16 1450.45 2271.22C1452.59 2271.28 1454.52 2272 1456.26 2273.39C1457.53 2274.43 1458.57 2275.64 1459.38 2277.03C1460.19 2278.41 1460.88 2279.89 1461.46 2281.45C1462.04 2283.01 1462.58 2284.6 1463.1 2286.21C1463.62 2287.83 1464.29 2289.33 1465.1 2290.72C1467.52 2295.11 1470.21 2299.19 1473.16 2302.94C1476.1 2306.7 1479.25 2310.42 1482.61 2314.12C1485.61 2310.08 1488.85 2306.29 1492.31 2302.77C1495.78 2299.24 1498.96 2295.46 1501.85 2291.41C1502.42 2290.49 1503.29 2289.07 1504.45 2287.17C1505.6 2285.26 1506.82 2283.27 1508.09 2281.19C1509.36 2279.11 1510.69 2277.17 1512.07 2275.38C1513.46 2273.59 1514.67 2272.4 1515.71 2271.83C1517.56 2270.67 1519.44 2270.15 1521.35 2270.27C1523.25 2270.38 1524.99 2270.96 1526.55 2272C1528.11 2273.04 1529.35 2274.46 1530.27 2276.25C1531.2 2278.04 1531.55 2279.97 1531.31 2282.05C1531.08 2284.25 1530.07 2286.91 1528.28 2290.03C1526.49 2293.15 1524.41 2296.33 1522.04 2299.56C1519.67 2302.8 1517.27 2305.86 1514.85 2308.75C1512.42 2311.64 1510.51 2313.95 1509.13 2315.68C1507.97 2317.07 1506.84 2318.43 1505.75 2319.76C1504.65 2321.08 1503.52 2322.39 1502.37 2323.66C1500.86 2325.39 1499.42 2327.12 1498.03 2328.86C1496.65 2330.59 1495.26 2332.32 1493.87 2334.06C1493.87 2340.64 1493.87 2347.23 1493.87 2353.82C1493.87 2360.4 1493.93 2366.99 1494.05 2373.58L1494.05 2374.79Z"/>
</g>
</g>
</g>
</svg>
