<?xml version="1.0" encoding="UTF-8" standalone="no"?>
<!DOCTYPE svg PUBLIC "-//W3C//DTD SVG 1.1//EN" "http://www.w3.org/Graphics/SVG/1.1/DTD/svg11.dtd">
<!-- Created with Vectornator (http://vectornator.io/) -->
<svg height="100%" stroke-miterlimit="10" style="fill-rule:nonzero;clip-rule:evenodd;stroke-linecap:round;stroke-linejoin:round;" version="1.1" viewBox="0 0 2000 2000" width="100%" xml:space="preserve" xmlns="http://www.w3.org/2000/svg" xmlns:vectornator="http://vectornator.io" xmlns:xlink="http://www.w3.org/1999/xlink">
<defs>
<path d="M479.998 1310.89C476.772 1270.89 539.809 1230.46 596.249 1262.6C655.98 1174.35 811.258 1205.67 876.82 1241.73C978.634 1173.18 1070.67 1145.83 1237.68 1199.5C1275.86 1158.88 1462.87 1173.67 1485.88 1241.05C1575.59 1236.3 1603.16 1257.7 1624.56 1323.05C1785.03 1381.99 1723.81 1454.64 1711.63 1488.67C1741.21 1538.61 1710.53 1548.55 1666.9 1562.18C1650.8 1665.74 1570.52 1658.54 1439.39 1630.66C1362.11 1705.17 1258.63 1786.68 1030.89 1694.87C999.833 1744.93 934.271 1717.53 909.535 1675.86C751.388 1724.05 488.995 1769.56 465.482 1584.65C379.216 1570.77 388.418 1514.66 432.126 1476.35C353.912 1437.68 415.586 1359.64 479.998 1310.89Z" id="Fill"/>
</defs>
<g id="All" vectornator:layerName="All">
<g opacity="1" vectornator:layerName="Group 1">
<use fill="#e7c9f3" fill-rule="nonzero" opacity="1" stroke="#000000" stroke-linecap="round" stroke-linejoin="round" stroke-width="4.74671" vectornator:layerName="Curve 16" xlink:href="#Fill"/>
<clipPath clip-rule="nonzero" id="ClipPath">
<use xlink:href="#Fill"/>
</clipPath>
<g clip-path="url(#ClipPath)">
<path d="M474.791 1175.52C471.565 1135.52 534.602 1095.09 591.042 1127.22C650.773 1038.98 806.051 1070.3 871.613 1106.36C973.428 1037.8 1065.46 1010.46 1232.48 1064.13C1270.65 1023.5 1457.66 1038.29 1480.67 1105.67C1570.39 1100.93 1597.95 1122.33 1619.35 1187.68C1779.83 1246.62 1718.6 1319.27 1706.42 1353.3C1736 1403.24 1705.32 1413.18 1661.69 1426.81C1645.59 1530.37 1565.31 1523.17 1434.19 1495.29C1356.91 1569.79 1253.42 1651.31 1025.68 1559.5C994.626 1609.56 929.064 1582.15 904.328 1540.49C746.181 1588.68 483.788 1634.18 460.275 1449.28C374.01 1435.4 383.211 1379.29 426.919 1340.98C348.705 1302.3 410.38 1224.27 474.791 1175.52Z" fill="#f3defa" fill-rule="nonzero" opacity="1" stroke="#a46eb8" stroke-linecap="round" stroke-linejoin="round" stroke-width="4.74671" vectornator:layerName="Curve 27"/>
</g>
</g>
<path d="M859.997 364.949C579.56 442.545 414.907 731.955 492.221 1011.37C569.536 1290.79 855.904 1439.81 1139.97 1376.8C1425.83 1341.62 1582.8 1045.23 1498.17 783.468C1474.41 722.556 1470.69 753.969 1475.22 773.207C1488.56 966.53 1418 1045.31 1242.27 1136.57C1001.65 1182.17 809.243 1081.26 792.834 878.164C774.937 656.645 860.044 513.642 1014.47 443.556C1173.74 377.118 1315.51 466.095 1352.08 493.557C1370.09 496.301 1350.85 478.402 1344.83 473.135C1235.96 365.643 1039.74 315.216 859.997 364.949Z" fill="#f6ed99" fill-rule="nonzero" opacity="1" stroke="#ebcd73" stroke-linecap="round" stroke-linejoin="round" stroke-width="5.88205" vectornator:layerName="Moon"/>
<path d="M845.235 1016.34C762.246 1078.86 767.573 965.298 481.333 1055.87C441.275 1085 612.298 1147 685.001 1132.87C643.133 1235.1 657.789 1255.66 666.628 1331.44C613.399 1388.17 664.097 1434.29 718.883 1438.2C766.381 1467.41 865.456 1458.67 953.05 1434.54C1029.71 1412.27 933.78 1433.1 1049.67 1429.53C1154.94 1432.8 1257.99 1461.04 1375.25 1402.6C1492.5 1344.15 1480.08 1259.33 1481.25 1189.14C1483.72 1143.97 1441.02 1074.22 1421.89 1049.86C1474.43 982.616 1443.28 914.047 1360.83 888.936C1324.89 874.831 1196.14 869.501 1291.37 948.626C1255.78 931.543 1219.78 921.961 1187.93 923.407C1099.05 943.273 1079.22 958.691 997.704 1030.86C1027.47 968.602 850.166 785.796 805.58 796.978C790.699 878.3 844.66 973.007 845.235 1016.34ZM659.63 1339.43C646.836 1339.43 636.184 1353.14 624.077 1356.16C601.531 1361.8 560.417 1365.15 567.612 1401.13C573.131 1428.72 642.6 1412.03 653.356 1408.45" fill="#f7efff" fill-rule="nonzero" opacity="1" stroke="none" vectornator:layerName="Base rabbit"/>
<path d="M913.515 1334.57C932.814 1320.79 999.529 1304 995.12 1348.09C991.82 1381.09 961.037 1394.55 932.84 1399.25C920.038 1401.38 901.331 1403.88 895.028 1388.12C889.706 1374.82 906.818 1339.36 913.515 1334.57ZM652.357 1347.06C658.524 1350.24 658.473 1328.38 665.479 1333.63C673.931 1339.97 677.539 1352.9 679.108 1362.31C683.401 1388.07 677.619 1399.53 649.245 1394.8C642.167 1377.08 639.754 1374.27 652.357 1347.06ZM876.949 1021.12C871.057 1015.23 866.614 992.259 864.268 984.635C860.944 973.834 808.3 892.369 816.084 831.261C834.584 834.344 917.205 989.624 925.987 1007.19M681.034 1129.16C668.44 1129.1 658.551 1124.01 646.133 1124.45C625.058 1125.21 569.27 1112.62 552.225 1100.32C545.564 1095.51 506.086 1087.43 507.007 1076.59C507.894 1066.15 562.239 1072.63 568.479 1072.86C599.657 1074.02 632.128 1069.53 663.029 1068.96C671.467 1068.81 713.239 1067.57 718.91 1075.45" fill="#ffc2b6" fill-rule="nonzero" opacity="1" stroke="none" vectornator:layerName="Cheek"/>
<path d="M845.235 1016.34C762.246 1078.86 767.573 965.298 481.333 1055.87C441.275 1085 612.298 1147 685.001 1132.87C643.133 1235.1 657.789 1255.66 666.628 1331.44C613.399 1388.17 664.097 1434.29 718.883 1438.2C766.381 1467.41 865.456 1458.67 953.05 1434.54C1029.71 1412.27 933.78 1433.1 1049.67 1429.53C1154.94 1432.8 1257.99 1461.04 1375.25 1402.6C1492.5 1344.15 1480.08 1259.33 1481.25 1189.14C1483.72 1143.97 1441.02 1074.22 1421.89 1049.86C1474.43 982.616 1443.28 914.047 1360.83 888.936C1324.89 874.831 1196.14 869.501 1291.37 948.626C1255.78 931.543 1219.78 921.961 1187.93 923.407C1099.05 943.273 1079.22 958.691 997.704 1030.86C1027.47 968.602 850.166 785.796 805.58 796.978C790.699 878.3 844.66 973.007 845.235 1016.34ZM1192.61 1307.72C1198.87 1295.22 1229.05 1349.82 1232.63 1356.97C1241.68 1375.07 1264.07 1374.45 1295.63 1369.76C1315.94 1349.48 1335.19 1354.29 1348.05 1380.05C1357.1 1398.2 1352.77 1410.47 1332.63 1418.3M659.63 1339.43C646.836 1339.43 636.184 1353.14 624.077 1356.16C601.531 1361.8 560.417 1365.15 567.612 1401.13C573.131 1428.72 642.6 1412.03 653.356 1408.45" fill="none" opacity="1" stroke="#000000" stroke-linecap="round" stroke-linejoin="round" stroke-width="4.74671" vectornator:layerName="Rabbit outline"/>
<path d="M842.072 1383.49C836.168 1375.65 834.873 1351.66 853.382 1341.6C871.891 1331.55 921.687 1334.36 920.521 1342.38C901.024 1350.96 857.99 1373.21 842.072 1383.49ZM694.04 1365.1C695.352 1360.58 680.853 1326.42 673.858 1321.46C666.862 1316.51 668.367 1326.71 663.186 1342.41C674.111 1344.58 692.729 1369.62 694.04 1365.1Z" fill="#000000" fill-rule="nonzero" opacity="1" stroke="#000000" stroke-linecap="round" stroke-linejoin="round" stroke-width="4.74671" vectornator:layerName="Eyes"/>
<path d="M1075.79 1258.43C1075.79 1329.39 1068.7 1370.32 998.907 1412.2M1060.98 1245.03C1066.88 1243.07 1076.18 1247.59 1082.14 1249.97M1055.34 1221.05C1061.04 1221.05 1066.73 1221.08 1072.26 1222.46M1009.96 1061.56L1006.96 1062.56L1003.97 1063.56L1011.95 1059.56L1018.94 1055.57L1023.93 1052.58L1025.93 1051.58L1027.93 1051.58L1026.93 1054.57L1024.93 1057.57L1023.93 1059.56L1020.94 1063.56L1018.94 1066.55L1015.95 1068.55L1013.95 1071.54L1016.94 1070.55L1020.94 1068.55L1023.93 1066.55L1028.92 1063.56M928.093 1016.64L913.118 1004.66M914.116 1015.64C911.384 1010.17 889.576 1011.81 887.161 1016.64M712.453 1084.52C708.774 1084.52 690.785 1096.21 686.497 1100.5M699.475 1106.49L685.498 1117.47M592.713 1413.41C590.902 1414.32 586.908 1397.9 593.246 1394.73M613.523 1414.48C611.059 1409.55 614.876 1390.5 617.258 1395.27M1404.12 1008.14C1402.14 1014.66 1399.92 1020.85 1396.78 1026.92M1413.4 1020.55C1411.8 1025.82 1407.55 1029.02 1404.17 1033.15" fill="none" opacity="1" stroke="#000000" stroke-linecap="round" stroke-linejoin="round" stroke-width="4.74671" vectornator:layerName="Fur line"/>
<path d="M579.374 412.448C571.685 412.448 568.458 394.821 563.997 381.291C549.498 379.653 531.988 383.607 529.612 376.295C527.236 368.982 542.756 360.271 554.493 352.042C550.34 337.098 542.399 322.316 548.62 317.796C554.84 313.277 566.772 323.615 579.374 333.965C593.316 322.773 603.908 313.277 610.128 317.796C616.349 322.316 610.591 339.205 604.255 352.042C615.226 359.429 631.511 368.982 629.136 376.295C626.76 383.607 606.378 381.759 594.751 381.291C589.524 395.242 587.063 412.448 579.374 412.448ZM1620.62 606.463C1611.38 596.739 1629.79 571.462 1641.54 549.552C1626.17 529.246 1600.12 511.858 1606.51 500.061C1612.9 488.264 1642.58 497.417 1667.1 502.364C1681 479.144 1690.15 451.327 1703.34 453.759C1716.54 456.191 1717.81 483.712 1719.88 512.092C1750.79 516.266 1775.54 518.243 1777.3 531.543C1779.07 544.844 1750.79 557.87 1726.93 565.293C1730.78 588.049 1738.28 620.132 1726.18 625.919C1714.08 631.707 1691.9 603.71 1678.52 588.444C1654.59 598.609 1629.87 616.186 1620.62 606.463ZM259.457 891.231C250.212 881.508 268.623 856.23 280.369 834.321C265.007 814.015 238.953 796.627 245.343 784.83C251.734 773.033 281.411 782.185 305.931 787.133C319.835 763.912 328.981 736.095 342.176 738.527C355.37 740.96 356.644 768.481 358.708 796.861C389.626 801.035 414.371 803.012 416.135 816.312C417.899 829.612 389.618 842.639 365.765 850.062C369.615 872.818 377.116 904.9 365.012 910.688C352.908 916.476 330.736 888.479 317.349 873.213C293.421 883.378 268.702 900.954 259.457 891.231ZM1606.34 1656.95C1591.11 1654.79 1589.68 1618.97 1584.66 1590.93C1556.41 1583.6 1520.63 1586.5 1517.98 1571.36C1515.34 1556.21 1548.52 1543.33 1574.08 1530.34C1570.06 1499.58 1558.5 1468.07 1572.08 1460.88C1585.67 1453.68 1606.39 1477.51 1628.43 1501.55C1659.19 1483.31 1682.83 1467.49 1693.88 1478.19C1704.92 1488.89 1688.77 1520.71 1672.61 1544.34C1692.25 1562.06 1721.81 1585.56 1715.05 1599.37C1708.28 1613.18 1668.45 1603.79 1645.56 1599.59C1631.28 1625.74 1621.56 1659.12 1606.34 1656.95ZM378.161 1694.34C370.472 1694.34 367.244 1676.71 362.783 1663.18C348.284 1661.54 330.775 1665.49 328.399 1658.18C326.023 1650.87 341.543 1642.16 353.28 1633.93C349.127 1618.99 341.186 1604.2 347.406 1599.68C353.626 1595.16 365.559 1605.5 378.161 1615.85C392.103 1604.66 402.695 1595.16 408.915 1599.68C415.135 1604.2 409.377 1621.09 403.041 1633.93C414.012 1641.32 430.298 1650.87 427.922 1658.18C425.546 1665.49 405.164 1663.65 393.538 1663.18C388.311 1677.13 385.849 1694.34 378.161 1694.34Z" fill="#f6e299" fill-rule="nonzero" opacity="1" stroke="#ebcd73" stroke-linecap="round" stroke-linejoin="round" stroke-width="5.88205" vectornator:layerName="Stars"/>
<path d="M724.534 1440.38C713.181 1429.02 734.37 1418.23 743.727 1418.95C766.633 1420.72 796.06 1457.37 768.115 1452.59" fill="#d78d7f" fill-rule="nonzero" opacity="1" stroke="none" vectornator:layerName="Mouth"/>
<path d="M743.937 1419.16C743.937 1419.16 736.694 1420.03 736.867 1420.74C736.04 1424.16 735.997 1431.78 738.698 1432.56C740.538 1433.1 743.097 1432.59 745.47 1431.89C746.728 1428.05 745.147 1423.07 745.863 1424.06C746.578 1425.06 745.099 1429.22 746.777 1432.03C748.471 1432.15 752.577 1433.21 753.578 1432.16C755.937 1429.7 755.232 1424.7 755.143 1423.01C752.941 1420.62 745.725 1419.12 745.081 1419.14" fill="#ffffff" fill-rule="nonzero" opacity="1" stroke="none" vectornator:layerName="Teeth"/>
</g>
</svg>
