<?xml version="1.0" encoding="UTF-8" standalone="no"?>
<!DOCTYPE svg PUBLIC "-//W3C//DTD SVG 1.1//EN" "http://www.w3.org/Graphics/SVG/1.1/DTD/svg11.dtd">
<!-- Created with Vectornator (http://vectornator.io/) -->
<svg height="100%" stroke-miterlimit="10" style="fill-rule:nonzero;clip-rule:evenodd;stroke-linecap:round;stroke-linejoin:round;" version="1.1" viewBox="0 0 2000 2000" width="100%" xml:space="preserve" xmlns="http://www.w3.org/2000/svg" xmlns:vectornator="http://vectornator.io" xmlns:xlink="http://www.w3.org/1999/xlink">
<defs>
<filter color-interpolation-filters="sRGB" filterUnits="userSpaceOnUse" height="661.598" id="Filter" width="620.269" x="224.963" y="102.664">
<feGaussianBlur in="SourceGraphic" result="Blur" stdDeviation="49.6609"/>
</filter>
</defs>
<g id="Layer-2" vectornator:layerName="Layer 2">
<path d="M837.254 604.883C835.188 605.257 834.609 601.179 832.572 600.67C832.058 600.541 824.628 620.758 824.145 622.206C817.545 642.008 812.02 662.374 802.609 681.196C792.052 702.311 769.603 710.948 756.643 732.548C747.684 747.48 732.214 767.672 728.699 785.247C727.444 791.526 716.777 803.13 712.719 808.54C688.882 840.324 637.959 862.233 650.688 913.148C656.242 962.841 695.533 964.7 687.438 1005.17C686.674 1008.99 653.814 1032.33 650.92 1032.33C642.826 1032.33 623.926 1008.68 614.402 1022.96C594.886 1052.24 570.666 1111.41 577.885 1147.5C584.886 1182.51 623.114 1215.2 646.238 1238.33C655.054 1247.14 663.475 1405.66 656.966 1418.51C635.457 1460.96 594.762 1536.13 672.163 1608.81C640.343 1622.86 573.698 1676.6 683.861 1694.33C720.014 1697.8 755.321 1695.83 931.871 1667.83C911.296 1730.92 1035.84 1708.31 1101.26 1709.12C1118.57 1690.8 1114.16 1680.73 1121.47 1662.12C1151.74 1649.63 1214.15 1640.36 1208.81 1619.02C1206.19 1608.54 1041.43 1030.79 1044.02 1017.84C1045.17 1012.08 1027.2 1009.39 1028.67 1003.51C1034.65 979.582 1059.73 926.142 1065.72 902.175C1070.14 884.531 1060.43 869.063 1064.79 851.612C1067.79 839.617 1080.19 830.759 1082.58 818.84C1086.28 800.354 1078.95 779.052 1083.51 760.786C1086.36 749.406 1100.96 734.402 1107.86 725.205C1118.87 710.52 1120.51 691.958 1134.08 678.387C1153.54 658.926 1162.64 587.541 1165.91 561.343C1168.7 539.069 1175.75 494.129 1149.06 482.689C1125.89 472.758 1092.22 485.428 1069.47 491.117C1006.97 506.741 937.316 525.223 883.135 561.343C868.258 571.262 844.622 603.549 837.254 604.883Z" fill="#fffaf1" fill-rule="nonzero" opacity="1" stroke="none" vectornator:layerName="Curve 38"/>
<path d="M1253.44 290.312C1233.68 291.108 1213.35 298.16 1191.25 302.719C1098.32 321.888 1014.13 376.17 940.531 434.125C850.874 497.46 826.637 557.802 814 554.438C795.259 544.173 702.628 498.12 640.375 490.25C627.092 486.713 600.914 481.898 592.938 498.094C588.206 507.702 571.24 546.85 570.594 557.125C596.487 624.578 643.662 672.719 751.531 734.312C762.832 732.947 782.835 697.028 806.781 669.5C820.994 636.228 831.676 603.099 830.438 607.75C830.17 608.754 878.458 662.141 879.219 662.562C902.323 704.592 960.424 772.801 969.375 795C1048.6 905.821 1243.49 1026.31 1312.81 991.188C1364.96 939.93 1263.29 857.771 1191.53 792.438C1190.47 787.278 1285.13 483.839 1303.44 432.5C1319.73 433.129 1349.98 473.977 1355.16 473.469C1357.39 473.008 1350.04 453.63 1349.72 452.5C1345.94 439.357 1328.99 379.069 1320.84 360.562C1314.46 346.055 1300.91 308.389 1288.62 297.531C1276.94 291.615 1265.29 289.835 1253.44 290.312ZM1143.47 504.281C1147.03 504.428 1150.57 504.933 1154.06 505.812C1163.59 508.213 1161.16 543.138 1161.69 551.938C1164.52 598.929 1151.32 644.002 1129.78 684.844C1123.88 696.028 1082.03 777.072 1076.28 775.281C1067.34 772.494 993.345 716.838 984.5 708.625C974.737 699.559 962.282 679.43 958.562 666.281C956.702 659.705 991.042 617.588 996.875 611.688C1029.84 578.342 1090.05 502.082 1143.47 504.281ZM806.379 1075.71C817.05 1088.92 830.958 1108.94 839.988 1122.89C1055.36 1455.47 1200.31 1638.37 1249.26 1654.68C1266.39 1660.39 1326.14 1694.72 1344.22 1697.73C1376.18 1703.06 1470.76 1718.04 1514.4 1678.37C1529.09 1665.01 1503.83 1647.63 1489.87 1639.26C1478.57 1632.48 1459.35 1624.76 1447.18 1620.39C1365.29 1590.95 1382.39 1529.64 1375.73 1471.48C1369.61 1439.8 1277.12 1419.12 1247.31 1351.71C1210.18 1277.29 1178.7 1229.1 1160.56 1178.75C1170.98 1160.17 1167.14 1151.68 1163.2 1146.42C1151.79 1124.14 1084.39 1107.84 1092.27 1039.84C1083.95 1013.83 1041.36 1017.06 1024.25 1016.96C972.26 1016.68 935.027 1019 886.985 1027.01C864.055 1030.83 846.047 1031.24 824.236 1039.96C800.971 1049.27 790.312 1055.84 806.379 1075.71ZM648.371 1246.33C634.004 1289.43 635.603 1335.59 626.866 1379.27C617.665 1425.28 602.397 1470.85 581.901 1507.32C561.313 1558.79 487.084 1594.22 487.084 1655.9C487.084 1672.38 515.305 1669.88 524.229 1668.61C547.985 1665.22 562.2 1658.47 584.834 1653.95C607.116 1649.49 616.113 1649.06 634.686 1643.19C631.486 1632.92 653.471 1616.72 663.033 1612.89C664.438 1612.33 672.808 1608 672.808 1608C672.808 1608 655.188 1583.79 648.371 1578.68C638.586 1571.34 629.83 1544.65 627.843 1532.74C619.22 1481 645.438 1443.78 659.123 1410.55C654.236 1369.5 656.191 1336.92 656.191 1302.05" fill="#e5effa" fill-rule="nonzero" opacity="1" stroke="none" vectornator:layerName="Curve 93"/>
<path d="M521.983 343.874C513.879 399.791 496.356 488.152 487.441 578.915C497.601 598.637 548.773 692.173 572.532 740.183C577.645 743.591 601.968 741.542 606.569 736.941C613.862 688.318 615.465 628.837 623.644 558.607C596.59 502.165 555.209 410.326 521.983 343.874Z" fill="#dcfe98" fill-rule="nonzero" opacity="1" stroke="#a4f600" stroke-linecap="round" stroke-linejoin="round" stroke-width="6.04097" vectornator:layerName="Curve 43"/>
<path d="M571.023 738.269C579.783 736.564 594.836 730.963 608.338 732.871C610.021 734.554 634.235 870.628 661.741 1024.38C652.956 1033.18 646.219 1046.04 648.347 1057.92C650.421 1069.5 664.417 1085.39 674.329 1094.67C696.787 1219.87 719.498 1345.13 732.598 1410.64C736.271 1429 750.173 1430.85 751.544 1453.4C755.11 1467.67 748.19 1481.18 748.19 1494.19C756.292 1510.02 763.885 1532.58 742.604 1553.86C742.137 1554.32 707.024 1538.29 711.073 1518.05C717.558 1485.62 696.997 1495.4 691.745 1469.14C687.534 1448.09 702.343 1422.44 700.684 1414.15C690.868 1365.07 570.32 747.839 571.023 738.269Z" fill="#cdd9d9" fill-rule="nonzero" opacity="1" stroke="none" vectornator:layerName="Curve 42"/>
<path d="M797.438 1062.66C812.626 1097.97 1089.83 1172.79 1163.49 1176.59C1181.04 1129.06 1113.37 1117.73 1098.18 1082.42C1082.99 1047.11 1100.43 1054.33 1086.26 1028.87C1074.53 1000.19 782.251 1027.35 797.438 1062.66ZM803.142 1070.42C912.209 1215.61 1070.37 1503.34 1242.46 1650.44C1373.74 1731.95 1521.96 1705.63 1516.74 1664.96C1492.87 1614.2 1428.51 1636.39 1394.34 1580.58C1360.17 1524.76 1396.16 1507.15 1366.54 1460.07C1336.33 1429.96 1322.48 1432.73 1275.88 1392.25C1223.48 1326.18 1187.84 1232.42 1155.95 1176.98M648.401 1236.52C637.256 1294 637.256 1368.2 603.823 1466.45C570.389 1564.69 506.915 1573.72 489.5 1653.19C477.452 1690.78 602.133 1639.34 628.821 1647.55M617.069 634.721C622.335 640.337 622.512 640.245 628.673 646.165C662.63 676.301 702.825 709.466 752.703 734.369M1306.47 907.054C1342.96 964.458 1330.83 1013.42 1255.57 993.991C1204.91 982.391 1145.51 960.227 1045.54 876.632C1007.75 845.031 968.788 797.208 898.607 696.267C877.978 662.026 855.203 632.435 831.507 607.238C741.192 511.204 642.86 476.495 593.678 494.028M1105.91 732.386C1228.67 820.008 1285.73 865.804 1319.24 928.209M596.715 496.297C638.282 470.304 732.64 513.859 815.538 552.659C887.78 586.472 934.506 627.003 964.677 647.302M817.154 551.828C929.258 418.743 1088.03 307.146 1258.36 289.843C1301.61 279.029 1323.43 361.214 1355.03 473.039C1324.56 447.998 1325.91 438.747 1303.33 432.312C1298.98 439.057 1290.35 465.28 1279.55 501.046C1252.65 590.126 1212.26 738.4 1190.78 792.354" fill="none" opacity="1" stroke="#96b6d8" stroke-linecap="round" stroke-linejoin="round" stroke-width="6.04097" vectornator:layerName="Curve 91"/>
<path d="M1014.79 732.042C1021.81 713.619 1041.68 710.264 1067.16 670.121C1077.43 653.95 1096.29 620.401 1109.54 607.154C1114.72 601.971 1137.27 566.26 1152.73 551.667C1156.1 548.487 1147.3 598.337 1146.6 601.127C1142.41 617.908 1135.36 635.399 1128.94 651.445C1113.59 689.817 1084.19 729.299 1058.23 761.743M958.495 924.782C978.841 930.068 984.68 953.916 970.134 966.077C952.216 981.058 916.068 959.862 915.15 934.478C918.566 921.331 944.542 921.157 958.495 924.782ZM697.182 823.956C698.813 816.544 718.53 797.897 730.145 816.653C738.762 830.569 744.743 850.255 717.755 854.622C699.336 844.917 685.742 831.869 697.182 823.956Z" fill="#ffceb6" fill-rule="nonzero" opacity="1" stroke="none" vectornator:layerName="Curve 94"/>
<path d="M736.303 852.122C732.513 840.511 717.676 800.541 741.19 800.806C758.109 800.996 761.239 840.363 753.287 850.72C747.557 858.185 741.241 857.966 736.303 852.122ZM903.849 900.715C925.23 893.353 975.451 886.216 970.594 911.328C965.98 935.18 917.825 935.556 901.696 926.474C894.926 922.662 894.286 910.781 903.849 900.715Z" fill="#000000" fill-rule="nonzero" opacity="1" stroke="#000000" stroke-linecap="butt" stroke-linejoin="round" stroke-width="6.04097" vectornator:layerName="Curve 37"/>
<path d="M1391.99 1599.15C1335.56 1574.06 1246.85 1554.72 1211.1 1513.86C1188.72 1488.28 1232.86 1482.17 1248.95 1487.53C1273.05 1495.57 1336.13 1530.4 1336.13 1530.4M985.688 1207.82C974.539 1200.39 1001.28 1230.81 1005.43 1235.79C1017.88 1250.73 1029.72 1264.37 1044.92 1276.93C1102.61 1324.58 1145.66 1345.38 1219.33 1355.9M1062.49 1092.29C1021.82 1075.46 975.731 1100.93 934.269 1087.35C925.069 1084.34 913.758 1076.79 905.469 1070.99C905.194 1070.79 897.212 1064.12 900.726 1062.22C914.458 1054.79 973.118 1066.9 988.368 1072.38" fill="none" opacity="1" stroke="#96b6d8" stroke-linecap="round" stroke-linejoin="round" stroke-width="4.36379" vectornator:layerName="Curve 35"/>
<path d="M1076.99 777.453C1117.38 701.473 1184.41 635.256 1157.52 507.937C1126.83 480.465 1034.01 554.881 957.592 659.872C955.677 662.503 968.984 694.101 1003.53 724.718C1029.76 747.956 1077.36 774.92 1075.93 776.966M975.049 1411.27C932.316 1444.51 895.914 1574.29 957.639 1631.27C916.981 1650.56 931.868 1672.89 933.899 1694.58M762.889 937.057L772.848 917.364L785.575 937.751M744.526 1552.8C747.522 1556.06 752.388 1561.15 756.806 1565.26C786.708 1594.09 818.904 1614.61 856.287 1634.19C872.119 1642.48 916.573 1648.69 933.265 1655.37M663.032 1022.96C633.8 866.703 608.333 734.139 608.333 734.139M570.896 736.454C570.896 736.454 670.257 1247.16 702.619 1416.37C696.301 1434.44 675.649 1457.73 713.332 1501.76C701.861 1534.3 733.592 1553.93 742.824 1552.92C751.672 1551.96 766.7 1517.74 747.889 1494.38C761.181 1447.39 742.58 1429.66 732.352 1412.87C721.927 1342.94 700.236 1222.77 677.053 1097.64M608.333 734.139L609.24 723.96M565.039 725.215L570.896 736.454M1041.27 1017.06C1037.25 1010.06 1036.39 1009.96 1031.76 1002.91C1046.6 964.665 1057.73 941.058 1067.07 895.131M625.173 1020.56C621.246 1022.08 623.424 1020.83 618.23 1023.49C543.59 1142.62 585.088 1174.35 649.508 1240.6C659.167 1338.57 651.808 1324.77 656.868 1415.38C586.309 1534.41 654.526 1593.26 672.055 1608.2C601.844 1634.15 610.719 1696.74 678.345 1692.55C732.621 1709.57 861.498 1671.53 924.053 1669.69C944.984 1688.32 916.573 1700.52 958.605 1704.24C998.305 1711.7 1062.4 1716.47 1105.88 1700.15C1121.15 1679.58 1101.38 1681.63 1130.67 1659.36C1144.33 1648.96 1169.69 1649.23 1193.47 1633.64C1202 1628.05 1200.37 1629.77 1219.75 1629.81M831.003 608.702C825.441 621.935 823.254 626.973 808.587 672.106C755.054 729.131 757.184 727.633 713.617 807.064C603.396 893.626 665.644 943.668 683.626 973.68C693.082 993.109 688.178 1009.3 680.367 1013.22M762.173 1220.75C762.173 1220.75 701.012 1118.32 656.599 1076.02C640.833 1052 649.489 1033.37 664.165 1022.02C676.703 1012.32 693.636 1007.93 703.489 1010.04C743.906 1018.69 803.619 1073.55 803.619 1073.55" fill="none" opacity="1" stroke="#000000" stroke-linecap="round" stroke-linejoin="round" stroke-width="6.04097" vectornator:layerName="Curve 99"/>
<path d="M516.808 253.766C514.797 241.771 514.287 229.56 513.704 217.413C511.299 167.284 524.418 299.162 516.808 253.766ZM403.411 370.108C400.238 366.223 352.597 349.413 348.473 346.558C318.907 326.095 417.039 386.795 403.411 370.108ZM705.403 312.007C688.563 321.927 666.818 335.22 656.882 341.647M388.654 563.178C412.173 536.643 425.295 527.216 439.228 509.658M672.015 483.985C694.912 490.381 700.82 491.103 715.591 494.725M613.223 265.934C606.77 278.285 601.718 287.597 599.154 292.83M428.231 290.878C426.971 290.377 419.969 285.775 419.037 284.73C417.71 283.242 443.396 303.147 448.955 308.935M366.634 456.208C361.974 457.446 390.133 448.839 397.757 447.936M708.513 411.835C694.964 412.979 680.922 417.804 673.991 418.439M610.994 704.261L623.904 559.31L520.202 339.241L487.052 575.558L557.894 711.503M527.576 383.346C526.742 374.54 529.336 395.804 529.478 396.855C531.197 409.562 532.946 422.24 534.951 434.916M539.639 458.118C539.615 457.868 540.778 466.951 542.508 475.269M545.17 496.796C543.234 476.362 552.805 555.002 555.772 556.15M560.427 585.577C558.923 569.699 567.507 618.097 568.308 622.787C573.582 653.635 582.899 684.833 585.824 715.71M515.268 391.357C521.304 401.025 515.364 427.202 515.333 438.02C515.235 473.376 511.094 511.484 514.4 546.38M514.595 568.14C514.829 570.607 514.128 563.207 513.894 560.74C513.504 556.628 515.452 577.186 515.062 573.074C514.712 569.374 514.361 565.674 514.595 568.14ZM520.457 590.608C516.479 584.237 525.663 602.775 526.06 603.767C529.168 611.536 532.178 619.344 535.123 627.176C545.467 654.686 555.48 681.856 568.913 707.979M528.757 369.545C523.049 356.631 528.616 360.559 532.691 371.661C539.419 389.989 545.038 408.725 551.635 427.113C565.378 465.421 578.436 510.845 600.208 545.717M601.429 571.736C599.97 569.399 600.396 561.788 602.519 563.543C603.818 564.617 600.314 615.591 600.261 618.515C599.651 651.889 596.145 686.722 599.301 720.033" fill="none" opacity="1" stroke="#a4f600" stroke-linecap="round" stroke-linejoin="round" stroke-width="6.04097" vectornator:layerName="Curve 98"/>
<path d="M1357.21 493.626C1359.34 497.885 1358.55 495.3 1358.55 501.631M1358.55 526.983C1358.55 522.129 1358.81 545.973 1358.55 549.665C1357.33 566.66 1355.88 584.995 1355.88 601.702M1332.53 656.408C1338.45 657.741 1351.32 620.382 1354.55 620.382C1362.31 620.382 1358.36 635.448 1359.88 643.065C1361.21 649.69 1366.74 657.332 1367.89 663.079C1368.16 664.458 1367 665.748 1366.55 667.082C1365.65 669.8 1351.99 721.787 1347.87 721.787C1345.61 721.787 1346.91 717.353 1346.54 715.116C1344.17 700.887 1341.37 686.621 1338.53 672.419C1337.76 668.546 1327 655.164 1332.53 656.408ZM1345.8 742.284C1343.7 740.376 1342.87 746.335 1342.02 747.814C1341.78 748.248 1336.96 755.82 1337 755.859C1338.86 757.717 1340.44 759.927 1342.53 763.4C1342.95 764.103 1344.25 769.433 1345.04 769.433C1346.62 769.433 1350.87 758.79 1351.58 757.367C1351.74 757.044 1346.86 743.25 1345.8 742.284Z" fill="#a1f600" fill-rule="nonzero" opacity="1" stroke="#a4f600" stroke-linecap="round" stroke-linejoin="round" stroke-width="6.04097" vectornator:layerName="Curve 97"/>
<path d="M317.027 1630.94C327.689 1633.76 344.658 1622.91 355.226 1619.74C361.249 1617.93 367.784 1617.26 373.666 1615.79C374.518 1615.58 376.301 1615.79 376.301 1615.79C376.301 1615.79 373.666 1614.91 373.666 1615.79C373.666 1618.37 386.68 1620.81 388.155 1621.06C394.471 1622.11 400.434 1626.1 406.596 1627.64C407.448 1627.86 409.23 1627.64 409.23 1627.64C409.23 1627.64 404.723 1628.13 402.644 1628.96C399.02 1630.41 395.538 1633.59 392.107 1635.55C385.884 1639.1 371.711 1651.35 364.446 1651.35C358.324 1651.35 338.412 1640.25 331.516 1638.18C327.527 1636.98 323.49 1635.87 319.662 1634.23C317.488 1633.3 310.743 1631.98 313.076 1631.6C316.54 1631.02 313.988 1630.13 317.027 1630.94ZM1593.38 1691.53C1593.12 1681.69 1622.13 1681.11 1631.58 1679.01C1639.54 1677.24 1647.35 1674.01 1655.29 1672.43C1657.06 1672.07 1660.56 1671.11 1660.56 1671.11C1660.56 1671.11 1657.48 1671.55 1657.92 1672.43C1658.64 1673.86 1669.01 1679.98 1669.78 1680.33C1672.25 1681.46 1699.74 1687.92 1697.44 1694.82C1697.37 1695.01 1674.29 1700.7 1672.41 1701.41C1665.98 1703.82 1649.91 1714.88 1643.43 1713.26C1634.67 1711.07 1626.85 1703.66 1617.09 1701.41C1605.77 1698.79 1593.63 1700.96 1593.38 1691.53ZM1179.12 1705.36C1178.38 1703.75 1175.14 1704.38 1174.51 1702.72C1173.48 1699.97 1179.62 1699.7 1182.42 1698.77C1187.18 1697.18 1192.26 1691.8 1196.91 1690.87C1197.87 1690.68 1199 1691.37 1199.54 1692.19C1204.52 1699.65 1204.7 1702.72 1215.35 1702.72C1216.23 1702.72 1213.59 1702.72 1212.71 1702.72C1209.2 1702.72 1205.69 1702.72 1202.18 1702.72C1196.03 1702.72 1181.1 1709.65 1179.12 1705.36ZM797.8 1721.16C795.134 1722.06 778.161 1734.66 772.773 1736.97C770.066 1738.13 767.396 1739.41 764.87 1740.92C763.679 1741.64 759.937 1741.26 760.918 1742.24C763.73 1745.05 768.916 1742.59 772.773 1743.56C787.959 1747.35 802.478 1748.44 817.557 1751.46C822.088 1752.37 823.73 1759 829.412 1756.73C835.877 1754.14 843.022 1747.24 849.17 1743.56C851.743 1742.01 870.245 1738.34 870.245 1735.65C870.245 1734.67 868.582 1734.47 867.61 1734.34C857.081 1732.83 846.76 1731.22 835.998 1729.07C832.448 1728.36 801.196 1717.77 800.434 1718.53C798.851 1720.11 801.522 1719.91 797.8 1721.16ZM629.2 1735.65C625.268 1735.26 621.22 1734.88 617.345 1735.65C587.538 1741.61 607.584 1746.89 621.297 1751.46C625.816 1752.97 638.654 1761.04 643.689 1759.36C655.17 1755.54 665.101 1744.87 679.253 1744.87C681.448 1744.87 674.82 1745.3 672.667 1744.87C669.26 1744.19 665.57 1743.39 662.13 1742.24C649.557 1738.05 638.736 1736.61 629.2 1735.65ZM1050.04 1757.39C1038.55 1753.21 1035.39 1759.08 1025.67 1764.63C1023.12 1766.09 1015.69 1766.5 1017.77 1768.58C1019.45 1770.26 1029.61 1768.14 1032.26 1768.58C1036.54 1769.3 1045.26 1777.52 1049.38 1776.49C1052.09 1775.81 1055.47 1771.15 1058.6 1769.9C1060.8 1769.02 1065.19 1769.63 1065.19 1767.27C1065.19 1766.02 1056.43 1763.73 1055.97 1763.31C1052.5 1760.19 1051.09 1757.77 1050.04 1757.39Z" fill="#dcfe98" fill-rule="nonzero" opacity="1" stroke="#a1f600" stroke-linecap="round" stroke-linejoin="round" stroke-width="6.04097" vectornator:layerName="Curve 96"/>
<path d="M349.116 433.464C349.116 319.336 432.383 226.817 535.098 226.817C637.813 226.817 721.08 319.336 721.08 433.464C721.08 547.592 637.813 640.111 535.098 640.111C432.383 640.111 349.116 547.592 349.116 433.464Z" fill="#ebffc3" fill-rule="nonzero" filter="url(#Filter)" opacity="0.591085" stroke="none" vectornator:blendMode="screen" vectornator:blur="99.3218" vectornator:layerName="Oval 1"/>
</g>
</svg>
